<svg width="24" height="24" viewBox="0 0 24 24" fill="none" xmlns="http://www.w3.org/2000/svg">
<path d="M9.75 9C9.75 8.58579 9.41421 8.25 9 8.25C8.58579 8.25 8.25 8.58579 8.25 9V15C8.25 15.4142 8.58579 15.75 9 15.75C9.41421 15.75 9.75 15.4142 9.75 15V9Z" fill="black"/>
<path d="M12.75 11.25C12.75 10.8358 12.4142 10.5 12 10.5C11.5858 10.5 11.25 10.8358 11.25 11.25V15C11.25 15.4142 11.5858 15.75 12 15.75C12.4142 15.75 12.75 15.4142 12.75 15V11.25Z" fill="black"/>
<path d="M15.75 12.75C15.75 12.3358 15.4142 12 15 12C14.5858 12 14.25 12.3358 14.25 12.75V15C14.25 15.4142 14.5858 15.75 15 15.75C15.4142 15.75 15.75 15.4142 15.75 15V12.75Z" fill="black"/>
<path fill-rule="evenodd" clip-rule="evenodd" d="M5.46667 4.25C5.14399 4.25 4.83452 4.37818 4.60635 4.60635C4.37818 4.83452 4.25 5.14399 4.25 5.46667V18.5333C4.25 18.856 4.37818 19.1655 4.60635 19.3936C4.83452 19.6218 5.14399 19.75 5.46667 19.75H18.5333C18.856 19.75 19.1655 19.6218 19.3936 19.3936C19.6218 19.1655 19.75 18.856 19.75 18.5333V5.46667C19.75 5.14399 19.6218 4.83452 19.3936 4.60635C19.1655 4.37818 18.856 4.25 18.5333 4.25H5.46667ZM5.75 18.25V5.75H18.25V18.25H5.75Z" fill="black"/>
</svg>
