<svg width="24" height="24" viewBox="0 0 24 24" fill="none" xmlns="http://www.w3.org/2000/svg">
<path fill-rule="evenodd" clip-rule="evenodd" d="M14.5001 7.25C13.2575 7.25 12.2501 8.25736 12.2501 9.5C12.2501 10.7426 13.2575 11.75 14.5001 11.75C15.7428 11.75 16.7501 10.7426 16.7501 9.5C16.7501 8.25736 15.7428 7.25 14.5001 7.25ZM13.7501 9.5C13.7501 9.08579 14.0859 8.75 14.5001 8.75C14.9143 8.75 15.2501 9.08579 15.2501 9.5C15.2501 9.91421 14.9143 10.25 14.5001 10.25C14.0859 10.25 13.7501 9.91421 13.7501 9.5Z" fill="black"/>
<path fill-rule="evenodd" clip-rule="evenodd" d="M4.25012 15.3475C4.24996 15.3385 4.24996 15.3295 4.25012 15.3205V5.46667C4.25012 5.14399 4.37831 4.83452 4.60648 4.60635C4.83464 4.37818 5.14411 4.25 5.46679 4.25H18.5335C18.8561 4.25 19.1656 4.37818 19.3938 4.60635C19.6219 4.83452 19.7501 5.14399 19.7501 5.46667V16.9822C19.7504 16.9946 19.7504 17.007 19.7501 17.0193V18.5333C19.7501 18.856 19.6219 19.1655 19.3938 19.3936C19.1656 19.6218 18.8561 19.75 18.5335 19.75H5.46679C5.14411 19.75 4.83465 19.6218 4.60648 19.3936C4.37831 19.1655 4.25012 18.856 4.25012 18.5333V15.3475ZM5.75012 5.75V14.1639L9.27192 12.5468C10.0203 12.2031 10.8832 12.213 11.6236 12.5735L18.2501 15.8007V5.75H5.75012ZM18.2501 18.25V17.4692L10.9668 13.9221C10.6303 13.7582 10.238 13.7537 9.89786 13.9099L5.75012 15.8145V18.25H18.2501Z" fill="black"/>
</svg>
