<svg width="24" height="24" viewBox="0 0 24 24" fill="none" xmlns="http://www.w3.org/2000/svg">
<path d="M9.90149 15.1C10.6283 15.1 11.2274 15.6562 11.2954 16.3653L11.3018 16.5V18.6C11.3018 19.3267 10.7455 19.9256 10.0362 19.9936L9.90149 20H6.40074C5.6739 20 5.07482 19.4438 5.00685 18.7347L5.00043 18.6V16.5C5.00043 15.7733 5.55675 15.1744 6.26605 15.1064L6.40074 15.1H9.90149ZM17.6032 12.3C18.33 12.3 18.9291 12.8562 18.9971 13.5654L19.0035 13.7V18.6C19.0035 19.3267 18.4472 19.9256 17.7379 19.9936L17.6032 20H14.1024C13.3756 20 12.7765 19.4438 12.7085 18.7347L12.7021 18.6V13.7C12.7021 12.9733 13.2584 12.3744 13.9677 12.3064L14.1024 12.3H17.6032ZM7.55973 5L7.55984 8.38046L11.0017 8.38033V9.34114L7.55984 9.34169L7.55973 13H6.44199L6.44205 9.34169L3 9.34114V8.38033L6.44205 8.38046L6.44199 5H7.55973ZM17.6032 6C18.33 6 18.9291 6.55621 18.9971 7.26535L19.0035 7.40001V9.50001C19.0035 10.2267 18.4472 10.8256 17.7379 10.8936L17.6032 10.9H14.1024C13.3756 10.9 12.7765 10.3438 12.7085 9.63466L12.7021 9.5V7.4C12.7021 6.67332 13.2584 6.07438 13.9677 6.00642L14.1024 6H17.6032Z" fill="#0C142B"/>
</svg>
