<svg width="24" height="24" viewBox="0 0 24 24" fill="none" xmlns="http://www.w3.org/2000/svg">
<path d="M9 10.8462H6.75V8.53846H5.25V10.8462H3V12.3846H5.25V14.6923H6.75V12.3846H9V10.8462ZM16.5 11.6154C17.7413 11.6154 18.7425 10.5808 18.7425 9.30769C18.7425 8.03462 17.7413 7 16.5 7C16.26 7 16.0312 7.03846 15.8137 7.11154C16.2375 7.73462 16.4925 8.49231 16.4925 9.30769C16.4925 10.1231 16.2375 10.8808 15.8137 11.5038C16.0312 11.5769 16.26 11.6154 16.5 11.6154ZM12.75 11.6154C13.9913 11.6154 14.9925 10.5808 14.9925 9.30769C14.9925 8.03462 13.9913 7 12.75 7C11.5087 7 10.5 8.03462 10.5 9.30769C10.5 10.5808 11.5087 11.6154 12.75 11.6154ZM17.715 13.2769C18.3375 13.8346 18.75 14.5538 18.75 15.4615V17H21V15.4615C21 14.2769 19.2188 13.55 17.715 13.2769ZM12.75 13.1538C11.25 13.1538 8.25 13.9231 8.25 15.4615V17H17.25V15.4615C17.25 13.9231 14.25 13.1538 12.75 13.1538Z" fill="black"/>
</svg>
