<svg width="24" height="26" viewBox="0 0 24 26" fill="none" xmlns="http://www.w3.org/2000/svg">
<path fill-rule="evenodd" clip-rule="evenodd" d="M9.78947 10.3346C9.78947 7.59788 11.8512 5.37964 14.3947 5.37964C16.9383 5.37964 19 7.59788 19 10.3346C19 13.0713 16.9383 15.2896 14.3947 15.2896C13.6667 15.2896 12.9804 15.1029 12.3684 14.779V16.2806C12.3684 16.6088 12.1212 16.8752 11.8158 16.8752H10.5263V18.2626C10.5263 18.5908 10.2791 18.8571 9.97368 18.8571H8.68421V19.8481C8.68421 20.1764 8.437 20.4427 8.13158 20.4427H5.55263C5.24721 20.4427 5 20.1764 5 19.8481V17.2295C5 17.0718 5.05821 16.9204 5.16174 16.809L9.95821 11.6483C9.85137 11.2293 9.78947 10.7901 9.78947 10.3346ZM13.8421 9.74001C13.8421 10.3968 14.3369 10.9292 14.9474 10.9292C15.5578 10.9292 16.0526 10.3968 16.0526 9.74001C16.0526 9.08318 15.5578 8.55082 14.9474 8.55082C14.3369 8.55082 13.8421 9.08318 13.8421 9.74001Z" fill="#0C142B"/>
</svg>
