<svg width="24" height="24" viewBox="0 0 24 24" fill="none" xmlns="http://www.w3.org/2000/svg">
<path fill-rule="evenodd" clip-rule="evenodd" d="M9.09737 13.6949L5.49978 13.6957C4.94759 13.6958 4.50001 14.1435 4.50001 14.6957L4.5 18.5C4.5 19.0523 4.94771 19.5 5.5 19.5H18.8967C19.2301 19.5 19.5004 19.2296 19.501 18.8961V5.50007C19.501 4.94779 19.0533 4.50007 18.5011 4.50007L14.6958 4.50001C14.1438 4.50001 13.6962 4.94731 13.6958 5.49933L13.6933 9.09637L10.0972 9.09635C9.54492 9.09635 9.09719 9.54409 9.09722 10.0964L9.09737 13.6949ZM14.9035 5.71161H18.2924V9.09896H14.9035V5.71161ZM10.3061 10.3064H13.6951V13.6948H10.306L10.3061 10.3064ZM14.9018 10.3092H18.2907V13.6975L14.902 13.6949L14.9018 10.3092ZM9.0964 18.2953L5.70749 18.2951V14.9064H9.0964V18.2953ZM13.6923 18.2951H10.3061L10.3034 14.9061H13.6923V18.2951ZM18.2882 18.2953L14.8992 18.2951V14.9064H18.2882V18.2953Z" fill="black"/>
</svg>
