<svg width="24" height="24" viewBox="0 0 24 24" fill="none" xmlns="http://www.w3.org/2000/svg">
<path fill-rule="evenodd" clip-rule="evenodd" d="M21 7.5C21 7.91421 20.6642 8.25 20.25 8.25H3.75C3.33579 8.25 3 7.91421 3 7.5C3 7.08579 3.33579 6.75 3.75 6.75H20.25C20.6642 6.75 21 7.08579 21 7.5Z" fill="#333333"/>
<path fill-rule="evenodd" clip-rule="evenodd" d="M13 12C13 12.4142 12.6642 12.75 12.25 12.75H3.75C3.33579 12.75 3 12.4142 3 12C3 11.5858 3.33579 11.25 3.75 11.25H12.25C12.6642 11.25 13 11.5858 13 12Z" fill="#333333"/>
<path fill-rule="evenodd" clip-rule="evenodd" d="M16 16.5C16 16.9142 15.6642 17.25 15.25 17.25H3.75C3.33579 17.25 3 16.9142 3 16.5C3 16.0858 3.33579 15.75 3.75 15.75H15.25C15.6642 15.75 16 16.0858 16 16.5Z" fill="#333333"/>
</svg>
