<svg width="24" height="24" viewBox="0 0 24 24" fill="none" xmlns="http://www.w3.org/2000/svg">
<path fill-rule="evenodd" clip-rule="evenodd" d="M21 7.5C21 7.91421 20.6642 8.25 20.25 8.25H3.75C3.33579 8.25 3 7.91421 3 7.5C3 7.08579 3.33579 6.75 3.75 6.75H20.25C20.6642 6.75 21 7.08579 21 7.5Z" fill="#333333"/>
<path fill-rule="evenodd" clip-rule="evenodd" d="M21 12C21 12.4142 20.6642 12.75 20.25 12.75H11.75C11.3358 12.75 11 12.4142 11 12C11 11.5858 11.3358 11.25 11.75 11.25H20.25C20.6642 11.25 21 11.5858 21 12Z" fill="#333333"/>
<path fill-rule="evenodd" clip-rule="evenodd" d="M21 16.5C21 16.9142 20.6642 17.25 20.25 17.25H8.75C8.33579 17.25 8 16.9142 8 16.5C8 16.0858 8.33579 15.75 8.75 15.75H20.25C20.6642 15.75 21 16.0858 21 16.5Z" fill="#333333"/>
</svg>
