<svg width="24" height="24" viewBox="0 0 24 24" fill="none" xmlns="http://www.w3.org/2000/svg">
<path fill-rule="evenodd" clip-rule="evenodd" d="M21 7.5C21 7.91421 20.6642 8.25 20.25 8.25H3.75C3.33579 8.25 3 7.91421 3 7.5C3 7.08579 3.33579 6.75 3.75 6.75H20.25C20.6642 6.75 21 7.08579 21 7.5Z" fill="#333333"/>
<path fill-rule="evenodd" clip-rule="evenodd" d="M17 12C17 12.4142 16.6642 12.75 16.25 12.75H7.75C7.33579 12.75 7 12.4142 7 12C7 11.5858 7.33579 11.25 7.75 11.25H16.25C16.6642 11.25 17 11.5858 17 12Z" fill="#333333"/>
<path fill-rule="evenodd" clip-rule="evenodd" d="M18.5 16.5C18.5 16.9142 18.1642 17.25 17.75 17.25H6.25C5.83579 17.25 5.5 16.9142 5.5 16.5C5.5 16.0858 5.83579 15.75 6.25 15.75H17.75C18.1642 15.75 18.5 16.0858 18.5 16.5Z" fill="#333333"/>
</svg>
