<svg width="24" height="24" viewBox="0 0 24 24" fill="none" xmlns="http://www.w3.org/2000/svg">
<path fill-rule="evenodd" clip-rule="evenodd" d="M18.5 6.5L16.5 6.5V4.5H18.5V6.5ZM16 8C15.4477 8 15 7.55228 15 7V6.25L13.5 6.25C13.3619 6.25 13.25 6.36193 13.25 6.5V11.25H15V10.5C15 9.94772 15.4477 9.5 16 9.5H19C19.5523 9.5 20 9.94772 20 10.5V13.5C20 14.0523 19.5523 14.5 19 14.5H16C15.4477 14.5 15 14.0523 15 13.5V12.75H13.25V17.5C13.25 17.6381 13.3619 17.75 13.5 17.75H15V17C15 16.4477 15.4477 16 16 16H19C19.5523 16 20 16.4477 20 17V20C20 20.5523 19.5523 21 19 21H16C15.4477 21 15 20.5523 15 20V19.25H13.5C12.5335 19.25 11.75 18.4665 11.75 17.5L11.75 12.75H10V15C10 15.5523 9.55228 16 9 16H5C4.44772 16 4 15.5523 4 15V9C4 8.44772 4.44771 8 5 8H9C9.55228 8 10 8.44771 10 9L10 11.25H11.75L11.75 6.5C11.75 5.5335 12.5335 4.75 13.5 4.75L15 4.75V4C15 3.44772 15.4477 3 16 3H19C19.5523 3 20 3.44772 20 4V7C20 7.55228 19.5523 8 19 8H16ZM8.5 14.5H5.5L5.5 9.5H8.5L8.5 14.5ZM16.5 13H18.5V11H16.5V13ZM18.5 19.5H16.5V17.5H18.5V19.5Z" fill="black"/>
</svg>
