<svg width="24" height="24" viewBox="0 0 24 24" fill="none" xmlns="http://www.w3.org/2000/svg">
<path d="M11.5 7.75C11.5 7.33579 11.8358 7 12.25 7C12.6642 7 13 7.33579 13 7.75V13.25C13 13.6642 12.6642 14 12.25 14C11.8358 14 11.5 13.6642 11.5 13.25V7.75Z" fill="black"/>
<path d="M9 9.74988C9 9.33566 9.33579 8.99988 9.75 8.99988C10.1642 8.99988 10.5 9.33566 10.5 9.74988V13.2499C10.5 13.6641 10.1642 13.9999 9.75 13.9999C9.33579 13.9999 9 13.6641 9 13.2499V9.74988Z" fill="black"/>
<path d="M14.75 10C14.3358 10 14 10.3358 14 10.75V13.2501C14 13.6643 14.3358 14.0001 14.75 14.0001C15.1642 14.0001 15.5 13.6643 15.5 13.2501V10.75C15.5 10.3358 15.1642 10 14.75 10Z" fill="black"/>
<path fill-rule="evenodd" clip-rule="evenodd" d="M16.98 15.9193C18.229 14.6551 19 12.9176 19 11C19 7.13401 15.866 4 12 4C8.13401 4 5 7.13401 5 11C5 14.866 8.13401 18 12 18C13.4058 18 14.7149 17.5856 15.8116 16.8722L18.9697 20.0303C19.2626 20.3232 19.7374 20.3232 20.0303 20.0303C20.3232 19.7374 20.3232 19.2626 20.0303 18.9697L16.98 15.9193ZM12 16.5C15.0376 16.5 17.5 14.0376 17.5 11C17.5 7.96243 15.0376 5.5 12 5.5C8.96243 5.5 6.5 7.96243 6.5 11C6.5 14.0376 8.96243 16.5 12 16.5Z" fill="black"/>
</svg>
