<svg width="16" height="16" viewBox="0 0 16 16" fill="none" xmlns="http://www.w3.org/2000/svg">
<path d="M12.2379 15.3557C11.3701 16.1979 10.4125 16.0666 9.49984 15.6695C8.52951 15.2644 7.64243 15.2388 6.61765 15.6695C5.34148 16.2203 4.66416 16.0602 3.89558 15.3557C-0.443723 10.8883 0.196764 4.08311 5.12852 3.82691C6.32463 3.89096 7.16206 4.48821 7.8666 4.53785C8.9138 4.32489 9.91616 3.71483 11.037 3.79489C12.3836 3.90377 13.3908 4.43538 14.0633 5.3913C11.2932 7.05657 11.9497 10.7073 14.494 11.7321C13.9849 13.0691 13.3316 14.3902 12.2363 15.3669L12.2379 15.3557ZM7.77053 3.77888C7.64083 1.79336 9.25005 0.160122 11.1011 0C11.3557 2.28974 9.01948 4.00305 7.77053 3.77888Z" fill="black"/>
</svg>
