<svg width="24" height="24" viewBox="0 0 24 24" fill="none" xmlns="http://www.w3.org/2000/svg">
<path d="M10.4 13.5556H13.6C13.8122 13.5556 14.0157 13.4736 14.1657 13.3277C14.3157 13.1819 14.4 12.9841 14.4 12.7778C14.4 12.5715 14.3157 12.3737 14.1657 12.2278C14.0157 12.0819 13.8122 12 13.6 12H10.4C10.1878 12 9.98434 12.0819 9.83431 12.2278C9.68429 12.3737 9.6 12.5715 9.6 12.7778C9.6 12.9841 9.68429 13.1819 9.83431 13.3277C9.98434 13.4736 10.1878 13.5556 10.4 13.5556ZM17.6 5H6.4C5.76348 5 5.15303 5.24583 4.70294 5.68342C4.25286 6.121 4 6.71449 4 7.33333V9.66667C4 9.87295 4.08429 10.0708 4.23431 10.2166C4.38434 10.3625 4.58783 10.4444 4.8 10.4444H5.6V16.6667C5.6 17.2855 5.85286 17.879 6.30294 18.3166C6.75303 18.7542 7.36348 19 8 19H16C16.6365 19 17.247 18.7542 17.6971 18.3166C18.1471 17.879 18.4 17.2855 18.4 16.6667V10.4444H19.2C19.4122 10.4444 19.6157 10.3625 19.7657 10.2166C19.9157 10.0708 20 9.87295 20 9.66667V7.33333C20 6.71449 19.7471 6.121 19.2971 5.68342C18.847 5.24583 18.2365 5 17.6 5ZM16.8 16.6667C16.8 16.8729 16.7157 17.0708 16.5657 17.2166C16.4157 17.3625 16.2122 17.4444 16 17.4444H8C7.78783 17.4444 7.58434 17.3625 7.43431 17.2166C7.28429 17.0708 7.2 16.8729 7.2 16.6667V10.4444H16.8V16.6667ZM18.4 8.88889H5.6V7.33333C5.6 7.12705 5.68429 6.92922 5.83431 6.78336C5.98434 6.6375 6.18783 6.55556 6.4 6.55556H17.6C17.8122 6.55556 18.0157 6.6375 18.1657 6.78336C18.3157 6.92922 18.4 7.12705 18.4 7.33333V8.88889Z" fill="black"/>
</svg>
