<svg width="24" height="24" viewBox="0 0 24 24" fill="none" xmlns="http://www.w3.org/2000/svg">
<path fill-rule="evenodd" clip-rule="evenodd" d="M14.9647 5.75C14.4575 5.75 13.9687 5.95452 13.6065 6.32244L7.46038 12.5649C6.84677 13.1881 6.5 14.0358 6.5 14.9222C6.5 15.8085 6.84677 16.6562 7.46038 17.2794C8.0736 17.9023 8.90281 18.25 9.76492 18.25C10.627 18.25 11.4562 17.9023 12.0695 17.2794L18.2156 11.037C18.5062 10.7418 18.981 10.7382 19.2762 11.0288C19.5714 11.3194 19.575 11.7942 19.2844 12.0894L13.1383 18.3318C12.2457 19.2385 11.0325 19.75 9.76492 19.75C8.49739 19.75 7.28417 19.2385 6.39151 18.3318C5.49923 17.4256 5 16.1988 5 14.9222C5 13.6455 5.49923 12.4188 6.39151 11.5125L12.5376 5.27006C13.1793 4.61832 14.0521 4.25 14.9647 4.25C15.8773 4.25 16.7501 4.61832 17.3918 5.27006C18.0331 5.92141 18.3913 6.80238 18.3913 7.71856C18.3913 8.63475 18.0331 9.51572 17.3918 10.1671L11.239 16.4095C10.8483 16.8063 10.3159 17.0314 9.75823 17.0314C9.20058 17.0314 8.66817 16.8063 8.27747 16.4095C7.88716 16.0131 7.66993 15.4778 7.66993 14.9222C7.66993 14.3665 7.88716 13.8312 8.27747 13.4348L13.9557 7.67434C14.2465 7.37935 14.7214 7.37593 15.0164 7.66671C15.3114 7.95749 15.3148 8.43236 15.024 8.72735L9.34634 14.4872C9.34633 14.4872 9.34635 14.4872 9.34634 14.4872C9.23472 14.6006 9.16993 14.7568 9.16993 14.9222C9.16993 15.0875 9.2347 15.2437 9.34634 15.3571C9.4576 15.4701 9.606 15.5314 9.75823 15.5314C9.91046 15.5314 10.0589 15.4701 10.1701 15.3571L16.3229 9.11469C16.6854 8.7464 16.8913 8.24425 16.8913 7.71856C16.8913 7.19274 16.6855 6.69075 16.3229 6.32244C15.9607 5.95452 15.4719 5.75 14.9647 5.75Z" fill="black"/>
</svg>
