<svg width="24" height="24" viewBox="0 0 24 24" fill="none" xmlns="http://www.w3.org/2000/svg">
<path d="M13.6667 9.77779H13.1111C12.9638 9.77779 12.8225 9.71926 12.7183 9.61507C12.6141 9.51089 12.5556 9.36958 12.5556 9.22224C12.5556 9.07489 12.6141 8.93359 12.7183 8.8294C12.8225 8.72521 12.9638 8.66668 13.1111 8.66668H13.6667C13.814 8.66668 13.9553 8.72521 14.0595 8.8294C14.1637 8.93359 14.2222 9.07489 14.2222 9.22224C14.2222 9.36958 14.1637 9.51089 14.0595 9.61507C13.9553 9.71926 13.814 9.77779 13.6667 9.77779Z" fill="black"/>
<path d="M13.6667 12H13.1111C12.9638 12 12.8225 11.9415 12.7183 11.8373C12.6141 11.7331 12.5556 11.5918 12.5556 11.4445C12.5556 11.2971 12.6141 11.1558 12.7183 11.0516C12.8225 10.9474 12.9638 10.8889 13.1111 10.8889H13.6667C13.814 10.8889 13.9553 10.9474 14.0595 11.0516C14.1637 11.1558 14.2222 11.2971 14.2222 11.4445C14.2222 11.5918 14.1637 11.7331 14.0595 11.8373C13.9553 11.9415 13.814 12 13.6667 12Z" fill="black"/>
<path d="M10.8889 9.77779H10.3333C10.186 9.77779 10.0447 9.71926 9.94051 9.61507C9.83632 9.51089 9.77779 9.36958 9.77779 9.22224C9.77779 9.07489 9.83632 8.93359 9.94051 8.8294C10.0447 8.72521 10.186 8.66668 10.3333 8.66668H10.8889C11.0362 8.66668 11.1776 8.72521 11.2817 8.8294C11.3859 8.93359 11.4445 9.07489 11.4445 9.22224C11.4445 9.36958 11.3859 9.51089 11.2817 9.61507C11.1776 9.71926 11.0362 9.77779 10.8889 9.77779Z" fill="black"/>
<path d="M10.8889 12H10.3333C10.186 12 10.0447 11.9415 9.94051 11.8373C9.83632 11.7331 9.77779 11.5918 9.77779 11.4445C9.77779 11.2971 9.83632 11.1558 9.94051 11.0516C10.0447 10.9474 10.186 10.8889 10.3333 10.8889H10.8889C11.0362 10.8889 11.1776 10.9474 11.2817 11.0516C11.3859 11.1558 11.4445 11.2971 11.4445 11.4445C11.4445 11.5918 11.3859 11.7331 11.2817 11.8373C11.1776 11.9415 11.0362 12 10.8889 12Z" fill="black"/>
<path fill-rule="evenodd" clip-rule="evenodd" d="M16.4445 16.4445H17C17.1474 16.4445 17.2887 16.503 17.3929 16.6072C17.497 16.7114 17.5556 16.8527 17.5556 17C17.5556 17.1474 17.497 17.2887 17.3929 17.3929C17.2887 17.497 17.1474 17.5556 17 17.5556H7.00001C6.85267 17.5556 6.71136 17.497 6.60718 17.3929C6.50299 17.2887 6.44446 17.1474 6.44446 17C6.44446 16.8527 6.50299 16.7114 6.60718 16.6072C6.71136 16.503 6.85267 16.4445 7.00001 16.4445H7.55557V7.00001C7.55557 6.85267 7.6141 6.71136 7.71829 6.60718C7.82247 6.50299 7.96378 6.44446 8.11112 6.44446H15.8889C16.0362 6.44446 16.1776 6.50299 16.2817 6.60718C16.3859 6.71136 16.4445 6.85267 16.4445 7.00001V16.4445ZM11.4445 16.4445H12.5556V14.2222H11.4445V16.4445ZM13.6667 16.4445H15.3333V7.55557H8.66668V16.4445H10.3333V13.6667C10.3333 13.5193 10.3919 13.378 10.4961 13.2738C10.6003 13.1697 10.7416 13.1111 10.8889 13.1111H13.1111C13.2585 13.1111 13.3998 13.1697 13.504 13.2738C13.6081 13.378 13.6667 13.5193 13.6667 13.6667V16.4445Z" fill="black"/>
<path fill-rule="evenodd" clip-rule="evenodd" d="M22 12C22 17.5228 17.5228 22 12 22C6.47715 22 2 17.5228 2 12C2 6.47715 6.47715 2 12 2C17.5228 2 22 6.47715 22 12ZM21 12C21 16.9706 16.9706 21 12 21C7.02944 21 3 16.9706 3 12C3 7.02944 7.02944 3 12 3C16.9706 3 21 7.02944 21 12Z" fill="black"/>
</svg>
