<svg width="24" height="24" viewBox="0 0 24 24" fill="none" xmlns="http://www.w3.org/2000/svg">
<path fill-rule="evenodd" clip-rule="evenodd" d="M12.0001 7C10.1039 7 8.56674 8.53716 8.56674 10.4333C8.56674 12.3295 10.1039 13.8667 12.0001 13.8667C13.8962 13.8667 15.4334 12.3295 15.4334 10.4333C15.4334 8.53716 13.8962 7 12.0001 7ZM10.0167 10.4333C10.0167 9.33797 10.9047 8.45 12.0001 8.45C13.0954 8.45 13.9834 9.33797 13.9834 10.4333C13.9834 11.5287 13.0954 12.4167 12.0001 12.4167C10.9047 12.4167 10.0167 11.5287 10.0167 10.4333Z" fill="black"/>
<path fill-rule="evenodd" clip-rule="evenodd" d="M20 12C20 16.4183 16.4183 20 12 20C7.58172 20 4 16.4183 4 12C4 7.58172 7.58172 4 12 4C16.4183 4 20 7.58172 20 12ZM15.8145 17.2636C14.7432 18.0413 13.4251 18.5 12 18.5C10.5749 18.5 9.2569 18.0414 8.18557 17.2637C8.94796 16.2636 10.3003 15.5333 12.0001 15.5333C13.6998 15.5333 15.0521 16.2636 15.8145 17.2636ZM16.8941 16.2778C15.8169 14.9487 14.0227 14.0833 12.0001 14.0833C9.97745 14.0833 8.18315 14.9487 7.10602 16.2779C6.10599 15.1347 5.5 13.6381 5.5 12C5.5 8.41015 8.41015 5.5 12 5.5C15.5899 5.5 18.5 8.41015 18.5 12C18.5 13.6381 17.894 15.1347 16.8941 16.2778Z" fill="black"/>
</svg>
