<svg width="24" height="24" viewBox="0 0 24 24" fill="none" xmlns="http://www.w3.org/2000/svg">
<path fill-rule="evenodd" clip-rule="evenodd" d="M19 12C19 15.866 15.866 19 12 19C8.13401 19 5 15.866 5 12C5 8.13401 8.13401 5 12 5C15.866 5 19 8.13401 19 12ZM17.5 12C17.5 15.0376 15.0376 17.5 12 17.5C10.7517 17.5 9.60046 17.0841 8.67739 16.3833L16.3833 8.67739C17.0841 9.60046 17.5 10.7517 17.5 12ZM7.61672 15.3227L15.3227 7.61672C14.3996 6.91591 13.2484 6.5 12 6.5C8.96243 6.5 6.5 8.96243 6.5 12C6.5 13.2484 6.91591 14.3996 7.61672 15.3227Z" fill="black"/>
</svg>
