<svg width="24" height="24" viewBox="0 0 24 24" fill="none" xmlns="http://www.w3.org/2000/svg">
<path d="M4 7.44995C4 7.03574 4.33579 6.69995 4.75 6.69995H19.25C19.6642 6.69995 20 7.03574 20 7.44995C20 7.86416 19.6642 8.19995 19.25 8.19995H4.75C4.33579 8.19995 4 7.86416 4 7.44995Z" fill="black"/>
<path d="M4 11.95C4 11.5357 4.33579 11.2 4.75 11.2H19.25C19.6642 11.2 20 11.5357 20 11.95C20 12.3642 19.6642 12.7 19.25 12.7H4.75C4.33579 12.7 4 12.3642 4 11.95Z" fill="black"/>
<path d="M4.75 15.7C4.33579 15.7 4 16.0357 4 16.45C4 16.8642 4.33579 17.2 4.75 17.2H19.25C19.6642 17.2 20 16.8642 20 16.45C20 16.0357 19.6642 15.7 19.25 15.7H4.75Z" fill="black"/>
</svg>
