<svg width="24" height="24" viewBox="0 0 24 24" fill="none" xmlns="http://www.w3.org/2000/svg">
<path fill-rule="evenodd" clip-rule="evenodd" d="M12 3.75C10.7574 3.75 9.75 4.75736 9.75 6V6.5H9.81792C8.14984 7.31036 6.99999 9.0209 6.99999 11V13.5L5.03645 16.4453C4.59342 17.1099 5.06981 18 5.8685 18H9.29534C9.53047 19.2801 10.652 20.25 12 20.25C13.348 20.25 14.4695 19.2801 14.7047 18H18.1315C18.9302 18 19.4066 17.1099 18.9635 16.4453L17 13.5V11C17 9.0209 15.8501 7.31036 14.182 6.5H14.25V6C14.25 4.75736 13.2426 3.75 12 3.75ZM12.75 6.05588V6C12.75 5.58579 12.4142 5.25 12 5.25C11.5858 5.25 11.25 5.58579 11.25 6V6.05587C11.4946 6.01907 11.7451 6 12 6C12.2549 6 12.5054 6.01908 12.75 6.05588ZM8.49999 13.9542L6.80276 16.5H17.1972L15.5 13.9542V11C15.5 9.067 13.933 7.5 12 7.5C10.067 7.5 8.49999 9.067 8.49999 11V13.9542ZM12 18.75C11.4874 18.75 11.0469 18.4415 10.854 18H13.146C12.9531 18.4415 12.5126 18.75 12 18.75Z" fill="#151B3F"/>
</svg>
