<svg width="24" height="24" viewBox="0 0 24 24" fill="none" xmlns="http://www.w3.org/2000/svg">
<path fill-rule="evenodd" clip-rule="evenodd" d="M6.4 7.75C6.23255 7.75 6.06883 7.81773 5.94571 7.94337C5.82209 8.06951 5.75 8.24377 5.75 8.42857V15.5714C5.75 15.7562 5.82209 15.9305 5.94571 16.0566C6.06883 16.1823 6.23256 16.25 6.4 16.25H17.6C17.7674 16.25 17.9312 16.1823 18.0543 16.0566C18.1779 15.9305 18.25 15.7562 18.25 15.5714V10.6071H8.85C8.43579 10.6071 8.1 10.2714 8.1 9.85714C8.1 9.44293 8.43579 9.10714 8.85 9.10714H18.25V8.42857C18.25 8.24377 18.1779 8.06951 18.0543 7.94337C17.9312 7.81773 17.7674 7.75 17.6 7.75H6.4ZM4.87439 6.89347C5.27637 6.48329 5.82484 6.25 6.4 6.25H17.6C18.1752 6.25 18.7236 6.48329 19.1256 6.89347C19.5271 7.30314 19.75 7.85561 19.75 8.42857V15.5714C19.75 16.1444 19.5271 16.6969 19.1256 17.1065C18.7236 17.5167 18.1752 17.75 17.6 17.75H6.4C5.82484 17.75 5.27637 17.5167 4.87439 17.1065C4.47291 16.6969 4.25 16.1444 4.25 15.5714V8.42857C4.25 7.85561 4.47291 7.30314 4.87439 6.89347Z" fill="black"/>
</svg>
