<svg width="24" height="24" viewBox="0 0 24 24" fill="none" xmlns="http://www.w3.org/2000/svg">
<path fill-rule="evenodd" clip-rule="evenodd" d="M7.64541 4.64541C7.89858 4.39223 8.24196 4.25 8.6 4.25H12V5C12 4.25 11.9996 4.25 12 4.25L12.0016 4.25L12.0036 4.25001L12.0084 4.25004L12.0217 4.2502C12.0321 4.25037 12.0458 4.25068 12.0624 4.25123C12.0957 4.25234 12.141 4.25444 12.1967 4.25842C12.3077 4.26635 12.4615 4.28185 12.6441 4.31228C13.0057 4.37255 13.4992 4.49447 14.0019 4.7458C14.5075 4.9986 15.0359 5.38958 15.4363 5.99008C15.8397 6.59528 16.083 7.36851 16.083 8.333C16.083 9.29769 15.8397 10.0711 15.4363 10.6764C15.1867 11.051 14.8872 11.3441 14.5745 11.5729C15.076 11.8397 15.5816 12.2226 15.9815 12.7724C16.4572 13.4264 16.75 14.2711 16.75 15.333C16.75 16.3951 16.4572 17.24 15.9816 17.8941C15.5118 18.5401 14.896 18.9559 14.3125 19.2234C13.7303 19.4903 13.1581 19.62 12.7383 19.6841C12.5265 19.7165 12.3485 19.7329 12.2209 19.7412C12.1569 19.7454 12.1052 19.7476 12.0678 19.7488C12.0491 19.7493 12.0339 19.7496 12.0226 19.7498L12.0084 19.75L12.0034 19.75L12.0015 19.75C12.0012 19.75 12 19.75 12 19V19.75H8.6C8.24196 19.75 7.89858 19.6078 7.64541 19.3546C7.39223 19.1014 7.25 18.758 7.25 18.4V5.6C7.25 5.24196 7.39223 4.89858 7.64541 4.64541ZM11.9975 10.917C11.9974 10.917 11.9975 10.917 11.9975 10.917L12.0124 10.9166C12.028 10.9161 12.0543 10.9149 12.0898 10.9124C12.161 10.9073 12.2676 10.8968 12.3974 10.8751C12.6608 10.8312 13.0004 10.7448 13.331 10.5795C13.6586 10.4156 13.9635 10.1816 14.1881 9.84453C14.4096 9.51217 14.583 9.03531 14.583 8.333C14.583 7.63099 14.4097 7.15434 14.1882 6.82213C13.9636 6.48523 13.6587 6.25127 13.3311 6.08745C13.0005 5.92215 12.6608 5.83577 12.3975 5.79187C12.2676 5.77022 12.161 5.75969 12.0898 5.7546C12.0543 5.75207 12.028 5.75092 12.0124 5.7504L11.9975 5.75C11.9974 5.75 11.9975 5.75001 11.9975 5.75L8.75 5.75V10.917L11.9975 10.917ZM8.75 12.417V18.25H11.9979L12.0004 18.25L12.022 18.2495C12.0432 18.2488 12.0774 18.2474 12.1229 18.2444C12.214 18.2385 12.3485 18.2262 12.5117 18.2013C12.8419 18.1509 13.2697 18.0514 13.6875 17.8598C14.104 17.6689 14.4882 17.3972 14.7684 17.0119C15.0428 16.6346 15.25 16.1044 15.25 15.333C15.25 14.5619 15.0428 14.0319 14.7685 13.6548C14.4883 13.2696 14.1041 12.9979 13.6876 12.8071C13.2697 12.6156 12.842 12.5161 12.5118 12.4657C12.3485 12.4408 12.214 12.4285 12.1229 12.4226C12.0775 12.4196 12.0432 12.4182 12.022 12.4175L12.0004 12.417L11.9994 12.417L11.998 12.417" fill="#333333"/>
</svg>
