<svg width="24" height="24" viewBox="0 0 24 24" fill="none" xmlns="http://www.w3.org/2000/svg">
<path fill-rule="evenodd" clip-rule="evenodd" d="M11.5559 2.34511C11.5556 2.34526 11.5553 2.34541 11.555 2.34556L3.5572 6.34445L3.55499 6.34556C3.38838 6.42835 3.24817 6.55597 3.15013 6.71408C3.05211 6.87214 3.00012 7.05439 2.99999 7.24037C2.99999 7.2403 2.99999 7.24043 2.99999 7.24037V16.767C2.99869 16.9534 3.04948 17.1364 3.14666 17.2954C3.24368 17.4542 3.38307 17.5827 3.54914 17.6666C3.54887 17.6664 3.54942 17.6667 3.54914 17.6666L11.5472 21.6656C11.6861 21.7351 11.8396 21.7715 11.995 21.7715C12.1503 21.7715 12.3036 21.7353 12.4425 21.6657L20.4428 17.6656L20.445 17.6645C20.6116 17.5817 20.7518 17.4541 20.8498 17.296C20.9479 17.1379 20.9999 16.9555 21 16.7695V7.24056C20.9999 7.05452 20.9479 6.87219 20.8498 6.71408C20.7518 6.55597 20.6116 6.42835 20.445 6.34556L20.4428 6.34445L12.445 2.34556C12.4447 2.34541 12.4444 2.34526 12.4441 2.34511C12.306 2.27669 12.1541 2.24109 12 2.24109C11.8459 2.24109 11.6939 2.27669 11.5559 2.34511ZM12.89 1.45003L13.335 0.554497C12.9202 0.348361 12.4632 0.241089 12 0.241089C11.5368 0.241089 11.0798 0.348361 10.665 0.554497L10.6628 0.555601L2.66499 4.5545C2.66458 4.5547 2.66416 4.55491 2.66375 4.55511C2.16448 4.80349 1.7443 5.18613 1.45041 5.66006C1.15627 6.13439 1.00028 6.68137 0.999988 7.2395L0.999987 16.7569C0.996817 17.3147 1.14921 17.8623 1.44009 18.3383C1.73164 18.8154 2.15071 19.2015 2.65001 19.4531L2.65277 19.4545L10.6525 23.4543C11.0693 23.6629 11.5289 23.7715 11.995 23.7715C12.4609 23.7715 12.9205 23.6629 13.3372 23.4545C13.3371 23.4545 13.3373 23.4544 13.3372 23.4545L21.335 19.4556C21.3353 19.4554 21.3357 19.4552 21.336 19.4551C21.8354 19.2067 22.2556 18.824 22.5496 18.35C22.8437 17.8757 22.9997 17.3287 23 16.7706V7.24003C22.9997 6.6819 22.8437 6.13439 22.5496 5.66006C22.2557 5.18614 21.8355 4.80352 21.3363 4.55513C21.3358 4.55492 21.3354 4.55471 21.335 4.5545L13.3372 0.555601L12.89 1.45003Z" fill="black"/>
<path fill-rule="evenodd" clip-rule="evenodd" d="M1.42556 5.71281C1.67255 5.21884 2.27322 5.01861 2.7672 5.2656L12 9.88199L21.2328 5.2656C21.7268 5.01861 22.3274 5.21884 22.5744 5.71281C22.8214 6.20679 22.6212 6.80747 22.1272 7.05445L12.4472 11.8945C12.1657 12.0352 11.8343 12.0352 11.5528 11.8945L1.87277 7.05445C1.3788 6.80747 1.17857 6.20679 1.42556 5.71281Z" fill="black"/>
<path fill-rule="evenodd" clip-rule="evenodd" d="M12 10C12.5523 10 13 10.4477 13 11V22.76C13 23.3123 12.5523 23.76 12 23.76C11.4477 23.76 11 23.3123 11 22.76V11C11 10.4477 11.4477 10 12 10Z" fill="black"/>
</svg>
