<svg width="24" height="24" viewBox="0 0 24 24" fill="none" xmlns="http://www.w3.org/2000/svg">
<path fill-rule="evenodd" clip-rule="evenodd" d="M12.2639 5.41642H17.5764C17.6147 5.41642 17.6472 5.43162 17.6677 5.45182C17.6874 5.47128 17.6944 5.49297 17.6944 5.51087V17.5998C17.6944 17.6177 17.6874 17.6393 17.6677 17.6588C17.6472 17.679 17.6147 17.6942 17.5764 17.6942H14.2104C14.081 18.1968 13.8844 18.6724 13.6308 19.1109H17.5764C17.9834 19.1109 18.3738 18.9517 18.6616 18.6683C18.9494 18.3849 19.1111 18.0005 19.1111 17.5998V5.51087C19.1111 5.1101 18.9494 4.72574 18.6616 4.44235C18.3738 4.15896 17.9834 3.99976 17.5764 3.99976H11.4375L6.83333 8.53309V10.9333C7.28228 10.7746 7.7572 10.6709 8.25 10.6303V9.43031H11.5556C11.9468 9.43031 12.2639 9.11318 12.2639 8.72198V5.41642ZM9.38008 8.01364L10.8472 6.56907V8.01364H9.38008Z" fill="black"/>
<path d="M13.4864 13.2081C13.1358 12.665 12.6948 12.1857 12.1847 11.7914H15.8056C16.1968 11.7914 16.5139 12.1086 16.5139 12.4998C16.5139 12.891 16.1968 13.2081 15.8056 13.2081H13.4864Z" fill="black"/>
<path d="M14.3841 16.0414C14.3639 15.5505 14.2814 15.0757 14.1441 14.6248H15.8056C16.1968 14.6248 16.5139 14.9419 16.5139 15.3331C16.5139 15.7243 16.1968 16.0414 15.8056 16.0414H14.3841Z" fill="black"/>
<path d="M7.30554 15.2968C7.30554 15.1859 7.33404 15.1252 7.36487 15.0847C7.40024 15.0382 7.46513 14.9847 7.58293 14.9351C7.83149 14.8305 8.20497 14.7882 8.64593 14.7882C9.25287 14.7882 9.86556 15.071 10.1423 15.3205L10.7748 14.6192C10.4107 14.2909 9.79009 13.9844 9.11816 13.8809V13.4442H8.17371V13.86C7.843 13.8847 7.50677 13.9425 7.21659 14.0646C6.99453 14.1581 6.77619 14.2987 6.61331 14.5128C6.44589 14.7327 6.3611 14.999 6.3611 15.2968C6.3611 15.5945 6.44589 15.8608 6.61331 16.0808C6.77619 16.2948 6.99452 16.4354 7.21659 16.5289C7.64776 16.7103 8.18058 16.7498 8.64593 16.7498C9.09691 16.7498 9.46927 16.7923 9.71462 16.8962C9.83037 16.9453 9.8933 16.998 9.92755 17.0437C9.95768 17.0838 9.98631 17.1452 9.98631 17.2583C9.98631 17.3692 9.95782 17.4299 9.92698 17.4704C9.89161 17.5169 9.82672 17.5704 9.70892 17.6199C9.46036 17.7245 9.08688 17.7669 8.64593 17.7669C8.03898 17.7669 7.42629 17.4841 7.14957 17.2345L6.51707 17.9359C6.88114 18.2642 7.50177 18.5706 8.17371 18.6742V19.1109H9.11815V18.6951C9.44886 18.6703 9.78509 18.6125 10.0753 18.4904C10.2973 18.397 10.5157 18.2564 10.6785 18.0423C10.846 17.8223 10.9308 17.5561 10.9308 17.2583C10.9308 16.9627 10.8483 16.6972 10.683 16.4769C10.5218 16.262 10.3049 16.1206 10.083 16.0266C9.65313 15.8445 9.1192 15.8053 8.64593 15.8053C8.20497 15.8053 7.83149 15.763 7.58293 15.6584C7.46513 15.6088 7.40024 15.5553 7.36487 15.5088C7.33404 15.4683 7.30554 15.4077 7.30554 15.2968Z" fill="black"/>
<path fill-rule="evenodd" clip-rule="evenodd" d="M4 16.2775C4 13.6695 6.11421 11.5553 8.72222 11.5553C11.3302 11.5553 13.4444 13.6695 13.4444 16.2775C13.4444 18.8855 11.3302 20.9998 8.72222 20.9998C6.11421 20.9998 4 18.8855 4 16.2775ZM8.72222 12.7473C6.77254 12.7473 5.19202 14.3279 5.19202 16.2775C5.19202 18.2272 6.77254 19.8077 8.72222 19.8077C10.6719 19.8077 12.2524 18.2272 12.2524 16.2775C12.2524 14.3279 10.6719 12.7473 8.72222 12.7473Z" fill="black"/>
<path d="M15.8025 6.3858L15.1262 7.43251L14.4631 6.3858H13.5832L14.6666 7.95292L13.5438 9.56709H14.4302L15.1361 8.47922L15.8452 9.56709H16.7251L15.6023 7.95292L16.689 6.3858H15.8025Z" fill="black"/>
</svg>
