<svg width="24" height="24" viewBox="0 0 24 24" fill="none" xmlns="http://www.w3.org/2000/svg">
<path d="M6.06591 11.4793C6.06615 11.9793 6.12372 12.4775 6.23753 12.9644L6.23767 12.9695C6.28351 13.1119 6.26783 13.2669 6.19435 13.3971C6.12099 13.5274 5.99654 13.6211 5.85101 13.6556C5.70547 13.6901 5.55217 13.6623 5.42807 13.5789C5.30409 13.4953 5.22044 13.3639 5.19746 13.2161C4.82431 11.6215 4.98288 9.94882 5.64898 8.45278C6.31499 6.95699 7.452 5.71979 8.88665 4.9302C10.3214 4.14058 11.9748 3.84187 13.5952 4.07942C15.2155 4.31707 16.7136 5.07808 17.861 6.24647V5.58168C17.861 5.39009 17.9632 5.2131 18.1291 5.11736C18.2949 5.02162 18.4993 5.02162 18.6652 5.11736C18.8311 5.2131 18.9333 5.39009 18.9333 5.58168V7.72624C18.9333 7.86841 18.8768 8.00484 18.7763 8.10537C18.6757 8.20589 18.5393 8.26238 18.3971 8.26238H16.2526C16.061 8.26238 15.884 8.16017 15.7883 7.99431C15.6925 7.82844 15.6925 7.62404 15.7883 7.45817C15.884 7.2923 16.061 7.1901 16.2526 7.1901H17.282C16.4123 6.22373 15.2702 5.54337 14.0064 5.23892C12.7424 4.93448 11.416 5.02005 10.2016 5.48437C8.98729 5.94882 7.94206 6.77013 7.20391 7.84026C6.46563 8.91045 6.06878 10.1791 6.06591 11.4793Z" fill="black"/>
<path d="M19.5721 9.38568C19.6961 9.4691 19.7797 9.60062 19.8027 9.74842L19.8025 9.74322C20.1757 11.3379 20.0171 13.0105 19.351 14.5066C18.685 16.0024 17.548 17.2396 16.1134 18.0292C14.6786 18.8188 13.0252 19.1175 11.4048 18.8799C9.78453 18.6423 8.28643 17.8813 7.13901 16.7129V17.3777C7.13901 17.5693 7.0368 17.7463 6.87094 17.842C6.70507 17.9378 6.50067 17.9378 6.3348 17.842C6.16893 17.7463 6.06673 17.5693 6.06673 17.3777V15.2331C6.06673 15.091 6.12322 14.9545 6.22374 14.854C6.32426 14.7535 6.46069 14.697 6.60287 14.697H8.74742C8.93901 14.697 9.11601 14.7992 9.21175 14.9651C9.30749 15.1309 9.30749 15.3353 9.21175 15.5012C9.11601 15.6671 8.93902 15.7693 8.74742 15.7693H7.71797C8.58771 16.7356 9.72975 17.416 10.9936 17.7204C12.2576 18.0249 13.584 17.9393 14.7984 17.475C16.0127 17.0105 17.0579 16.1892 17.7961 15.1191C18.5344 14.0489 18.9312 12.7803 18.9341 11.4801C18.9338 10.9801 18.8763 10.4819 18.7625 9.99494C18.7166 9.85265 18.7323 9.69767 18.8058 9.56735C18.8792 9.43714 19.0036 9.34344 19.1491 9.30897C19.2947 9.27439 19.448 9.30227 19.5721 9.38568Z" fill="black"/>
<path fill-rule="evenodd" clip-rule="evenodd" d="M10.7329 9.91496C10.6932 9.96735 10.6564 10.0458 10.6564 10.1891C10.6564 10.3325 10.6932 10.4109 10.7329 10.4632C10.7785 10.5233 10.8622 10.5925 11.0141 10.6566C11.3345 10.7918 11.816 10.8465 12.3845 10.8465C12.9946 10.8465 13.6829 10.8971 14.2372 11.1326C14.5232 11.2541 14.8028 11.4368 15.0107 11.7146C15.2238 11.9994 15.33 12.3427 15.33 12.7247C15.33 13.1096 15.2207 13.4538 15.0049 13.7382C14.7949 14.0149 14.5134 14.1967 14.2271 14.3175C13.6713 14.552 12.9844 14.603 12.3845 14.603C11.2975 14.603 10.2179 14.1233 9.63996 13.6007L10.4554 12.694C10.8121 13.0166 11.602 13.3821 12.3845 13.3821C12.9529 13.3821 13.4344 13.3274 13.7549 13.1922C13.9067 13.1281 13.9904 13.059 14.036 12.9989C14.0757 12.9465 14.1125 12.8681 14.1125 12.7247C14.1125 12.5785 14.0756 12.4992 14.0367 12.4473C13.9926 12.3882 13.9114 12.3201 13.7622 12.2567C13.4459 12.1223 12.9659 12.0673 12.3845 12.0673C11.7845 12.0673 11.0976 12.0164 10.5418 11.7818C10.2555 11.661 9.97402 11.4793 9.76403 11.2026C9.5482 10.9182 9.43888 10.574 9.43888 10.1891C9.43888 9.8042 9.5482 9.46 9.76403 9.17562C9.97402 8.89893 10.2555 8.71717 10.5418 8.59637C11.0976 8.36181 11.7845 8.31086 12.3845 8.31086C13.4714 8.31086 14.551 8.79055 15.129 9.31318L14.3135 10.2198C13.9568 9.89724 13.1669 9.53172 12.3845 9.53172C11.816 9.53172 11.3345 9.58642 11.0141 9.72164C10.8622 9.78573 10.7785 9.85489 10.7329 9.91496Z" fill="black"/>
<path fill-rule="evenodd" clip-rule="evenodd" d="M11.7757 15.1195V13.7108H12.9932V15.1195H11.7757Z" fill="black"/>
<path fill-rule="evenodd" clip-rule="evenodd" d="M11.7757 9.20301V7.79433H12.9933V9.20301H11.7757Z" fill="black"/>
</svg>
