<svg width="24" height="24" viewBox="0 0 24 24" fill="none" xmlns="http://www.w3.org/2000/svg">
<path fill-rule="evenodd" clip-rule="evenodd" d="M7.20006 5.6V4H18.4001C19.2841 4 20.0001 4.716 20.0001 5.6V16.8H18.4001V5.6H7.20006ZM4 8.80006C4 7.91606 4.716 7.20006 5.6 7.20006H15.2C16.084 7.20006 16.8 7.91606 16.8 8.80006V18.4001C16.8 19.2841 16.084 20.0001 15.2 20.0001H5.6C4.716 20.0001 4 19.2841 4 18.4001V8.80006ZM5.59989 8.79994H15.1999V18.3999H5.59989V8.79994Z" fill="black"/>
<path fill-rule="evenodd" clip-rule="evenodd" d="M13.4423 11.0237C13.7054 11.268 13.7206 11.6792 13.4763 11.9423L11.8476 13.6963L9.72256 15.9463C9.48443 16.1984 9.0903 16.2192 8.82699 15.9935L7.07699 14.4935C6.80442 14.2599 6.77286 13.8495 7.00648 13.577C7.24011 13.3044 7.65045 13.2729 7.92301 13.5065L9.20273 14.6034L10.9006 12.8057L12.5237 11.0577C12.768 10.7946 13.1792 10.7794 13.4423 11.0237Z" fill="black"/>
</svg>
