<svg width="16" height="16" viewBox="0 0 16 16" fill="none" xmlns="http://www.w3.org/2000/svg">
<path d="M16 8.91223V9.03139C15.9404 9.19225 15.7855 9.30545 15.6127 9.2995C15.5532 9.2995 15.4995 9.32333 15.4519 9.35312C15.3029 9.46036 15.1242 9.50803 14.9395 9.49015C14.8501 9.47824 14.7667 9.44845 14.6892 9.40674C14.5999 9.35908 14.5343 9.40078 14.5522 9.49611C14.6058 9.94892 14.582 10.4077 14.4926 10.8545C14.4807 10.926 14.4926 10.9975 14.5284 11.0631C14.6594 11.2358 14.7012 11.4563 14.6416 11.6648C14.582 11.9985 14.6714 12.344 14.8859 12.6062C14.9752 12.7313 15.0586 12.8564 15.1361 12.9875C15.2255 13.1543 15.2433 13.345 15.1957 13.5297C15.148 13.619 15.0646 13.6905 14.9693 13.7203C14.9335 13.7203 14.9216 13.6965 14.8978 13.6727C14.8441 13.619 14.8144 13.625 14.7905 13.6965C14.7548 13.8276 14.7071 13.8693 14.5701 13.8812C14.3794 13.8872 14.3437 13.8633 14.302 13.6727C14.2781 13.5416 14.2722 13.4105 14.2722 13.2735C14.2662 12.9637 14.2186 12.6539 14.1292 12.356C14.0398 12.0878 13.9624 11.8138 13.9028 11.5397C13.8849 11.4742 13.8611 11.4086 13.8194 11.355C13.7538 11.2597 13.7002 11.1644 13.6585 11.0571C13.6406 11.0094 13.6168 10.9677 13.581 10.926C13.3189 10.6281 13.0985 10.2945 12.9138 9.94296C12.8125 9.71656 12.7588 9.47228 12.7469 9.22204C12.7469 9.16842 12.741 9.10884 12.741 9.04926C12.7052 9.06713 12.7052 9.10288 12.6933 9.12671C12.6456 9.32929 12.6278 9.54377 12.6397 9.7523C12.6397 9.83572 12.6456 9.91317 12.6576 9.99658C12.6576 10.0681 12.6337 10.1336 12.5861 10.1872C12.5265 10.2647 12.449 10.3183 12.3597 10.3541C12.1928 10.4315 12.0379 10.5328 11.8949 10.646L11.6447 10.8307C11.5434 10.9022 11.5136 11.0392 11.5792 11.1405C11.5851 11.1465 11.5911 11.1584 11.597 11.1644C11.6328 11.218 11.6804 11.2537 11.7162 11.3073C11.7817 11.3848 11.8294 11.4742 11.8473 11.5755C11.8592 11.7006 11.9605 11.8019 12.0856 11.8019C12.3239 11.8257 12.5384 11.9627 12.6576 12.1713C12.7291 12.2785 12.7291 12.4215 12.6516 12.5228C12.5622 12.7015 12.3775 12.8207 12.1809 12.8207C11.9247 12.8147 11.6804 12.7194 11.4957 12.5466C11.3647 12.4274 11.2574 12.2785 11.1919 12.1117C11.1383 11.9329 10.9953 11.8019 10.8165 11.7542C10.757 11.7423 10.7033 11.7006 10.6795 11.641C10.6021 11.4325 10.471 11.2537 10.3995 11.0452C10.3697 10.9677 10.3399 10.8843 10.3161 10.8009C10.2922 10.6877 10.2029 10.5983 10.0956 10.5745C9.91688 10.5328 9.73814 10.503 9.55344 10.4971C8.86827 10.4434 8.19502 10.2766 7.56943 10.0025C7.08087 9.79401 6.67573 9.41866 6.43145 8.94202C6.19909 8.519 5.90715 8.13173 5.56754 7.78616C5.25772 7.4406 4.9062 7.13078 4.51893 6.86863L4.40573 6.79714C4.32827 6.74947 4.23295 6.72564 4.13762 6.73756C3.72652 6.78522 3.32137 6.83884 2.91027 6.86863C2.83877 6.87459 2.77919 6.86863 2.71366 6.87459C2.57662 6.88651 2.44555 6.82692 2.36809 6.71372C2.23702 6.55881 2.16552 6.36816 2.1536 6.16559C2.14764 6.04643 2.12977 5.92727 2.12381 5.80811C2.11785 5.64724 2.16552 5.48042 2.26085 5.34934C2.40384 5.14677 2.51704 4.93228 2.5945 4.69992C2.64216 4.58672 2.62429 4.56884 2.50513 4.56884C1.98082 4.5748 1.45652 4.5033 0.956046 4.36031C0.681978 4.28882 0.425783 4.15774 0.217252 3.97304C0.13384 3.89559 0.0623451 3.80026 0.0206391 3.69897C0.00276512 3.66918 -0.0151089 3.62748 0.0206391 3.59769C0.0504291 3.5679 0.0921359 3.59173 0.121926 3.60365C0.390036 3.7526 0.687935 3.85984 0.991793 3.90751C1.51014 3.99092 2.03444 3.95517 2.53492 3.80026C2.67195 3.76451 2.80898 3.71089 2.94602 3.65727C2.99368 3.63939 3.02943 3.59769 3.0473 3.55002C3.08901 3.42491 3.17242 3.32362 3.29158 3.27C3.50011 3.16275 3.73248 3.10317 3.96484 3.10913C4.04229 3.12105 4.11974 3.0853 4.15549 3.01976C4.29848 2.76953 4.56064 2.6027 4.85258 2.59079C5.00749 2.57291 5.16835 2.6027 5.30539 2.68016C5.32922 2.69207 5.35901 2.69803 5.3888 2.68611C5.70457 2.57887 6.00247 2.44184 6.2825 2.2631C6.33016 2.23331 6.37187 2.19756 6.41357 2.15585C6.44932 2.1201 6.44932 2.05457 6.41357 2.01882C6.36591 1.97711 6.31825 1.93541 6.27058 1.90562C6.05609 1.76858 5.83565 1.65538 5.62116 1.53026C5.46029 1.42898 5.30539 1.32173 5.15048 1.21449C5.04919 1.14299 5.04919 1.07745 5.1326 1H5.18623L5.23389 1.02383C5.75819 1.28003 6.31825 1.47664 6.89021 1.5958C7.07491 1.62559 7.24769 1.709 7.39664 1.83412C7.56347 1.9652 7.59326 2.20947 7.46218 2.38226C7.46218 2.38226 7.46218 2.38226 7.46218 2.38821C7.30727 2.59079 7.12853 2.76953 6.92 2.92443C6.77105 3.03764 6.61019 3.13892 6.44932 3.22829C6.42549 3.24617 6.3957 3.25808 6.41357 3.29979C6.41953 3.32958 6.44932 3.33554 6.48507 3.32958C6.50295 3.32958 6.51486 3.32958 6.53273 3.32362C6.69956 3.30575 6.87234 3.29979 7.04512 3.30575C7.063 3.30575 7.08683 3.3117 7.09874 3.32958C7.063 3.35341 7.02725 3.3832 6.9915 3.40703C6.93192 3.44278 6.8783 3.49045 6.83659 3.54407C6.79489 3.58577 6.78893 3.65131 6.81872 3.70493C6.84851 3.7526 6.90809 3.77643 6.96171 3.76451C7.01533 3.75856 7.063 3.74068 7.1047 3.73472C7.1762 3.71685 7.18811 3.73472 7.18811 3.80622C7.18811 3.82409 7.18812 3.84197 7.18216 3.85984C7.15237 3.94921 7.19407 4.03858 7.28344 4.07433C7.30132 4.08029 7.32515 4.08625 7.34302 4.08625C7.56943 4.11604 7.79583 4.14583 8.02223 4.19349C8.23076 4.22328 8.42738 4.31861 8.57037 4.47352C8.61208 4.52714 8.67166 4.55693 8.7372 4.5748C9.0351 4.63438 9.32704 4.71779 9.61302 4.82504C10.1195 5.00378 10.5306 5.37913 10.751 5.87365C10.8761 6.15963 10.9834 6.45157 11.0787 6.74947C11.1085 6.86863 11.1502 6.98779 11.1978 7.10099C11.2038 7.11887 11.2157 7.13674 11.2336 7.13078C11.2574 7.12483 11.2515 7.10099 11.2515 7.08312C11.2574 6.99971 11.2455 6.9163 11.2276 6.83288C11.1681 6.49923 11.0846 6.16559 10.9893 5.84386C10.9357 5.65916 11.0489 5.54595 11.2336 5.5817C11.2574 5.58766 11.2813 5.58766 11.2932 5.59958C11.4779 5.65916 11.6685 5.71874 11.8532 5.78428C12.4133 5.96302 12.9495 6.21325 13.444 6.52307C13.6764 6.6601 13.8313 6.89246 13.873 7.15462C13.879 7.23803 13.9087 7.32144 13.9624 7.39294C14.0219 7.47039 14.0815 7.5538 14.1351 7.63126C14.1649 7.67892 14.1947 7.72658 14.2186 7.77425C14.3079 7.98874 14.3735 8.20918 14.4152 8.44154C14.433 8.60837 14.4867 8.76923 14.5701 8.91223C14.6952 9.18629 15.0169 9.31141 15.291 9.18629C15.3148 9.17438 15.3387 9.16246 15.3565 9.15055C15.3982 9.12671 15.428 9.09097 15.4399 9.0433C15.4519 8.95989 15.5055 8.88244 15.577 8.83477C15.6604 8.78115 15.7498 8.72753 15.8451 8.67391C15.8689 8.65603 15.9047 8.65603 15.9047 8.69178C15.9166 8.79307 15.9762 8.84669 16 8.91223Z" fill="#F16A22"/>
<path d="M11.9426 14.2983C11.9128 14.3161 11.883 14.3221 11.8532 14.334C11.7996 14.3638 11.746 14.3936 11.6864 14.328C11.6685 14.3042 11.6327 14.3042 11.6089 14.3221C11.597 14.334 11.5851 14.3519 11.591 14.3757C11.603 14.4472 11.5553 14.5127 11.4838 14.5306H11.2991C11.0608 14.5008 11.031 14.3161 11.031 14.1433C11.0191 13.9467 10.9655 13.7501 10.8761 13.5714C10.8284 13.4701 10.7748 13.3748 10.7212 13.2794C10.6616 13.1841 10.6199 13.0828 10.5841 12.9756C10.5305 12.8326 10.4352 12.7075 10.3101 12.6241C10.1969 12.5526 10.1075 12.4513 10.0598 12.3262C9.95855 12.0819 9.75598 11.8972 9.5117 11.8078C9.24359 11.7184 8.98144 11.6052 8.7312 11.4622C8.40947 11.2656 8.14136 11.0035 7.94475 10.6817C7.89708 10.6103 7.85538 10.5507 7.80771 10.4911C7.78388 10.4613 7.77197 10.4315 7.74813 10.4017C7.75409 10.3779 7.77197 10.3838 7.77792 10.3958C8.21881 10.5447 8.67758 10.652 9.13635 10.7235C9.38658 10.7711 9.63086 10.8069 9.88705 10.8307C9.9943 10.8426 10.0837 10.9082 10.1313 10.9975C10.2624 11.2418 10.4114 11.4801 10.5841 11.7006C10.6973 11.8197 10.7688 11.9687 10.7927 12.1295C10.8225 12.2964 10.894 12.4453 11.0072 12.5704C11.1323 12.7432 11.2812 12.9041 11.4421 13.0411C11.591 13.1722 11.7162 13.3271 11.8115 13.5058C11.9009 13.6905 11.9962 13.8752 12.0736 14.0659C12.0915 14.191 12.0617 14.2446 11.9426 14.2983Z" fill="#F16A22"/>
</svg>
