<svg width="24" height="24" viewBox="0 0 24 24" fill="none" xmlns="http://www.w3.org/2000/svg">
<path d="M19 12.9122V13.0314C18.9404 13.1923 18.7855 13.3055 18.6127 13.2995C18.5532 13.2995 18.4995 13.3233 18.4519 13.3531C18.3029 13.4604 18.1242 13.508 17.9395 13.4902C17.8501 13.4782 17.7667 13.4484 17.6892 13.4067C17.5999 13.3591 17.5343 13.4008 17.5522 13.4961C17.6058 13.9489 17.582 14.4077 17.4926 14.8545C17.4807 14.926 17.4926 14.9975 17.5284 15.0631C17.6594 15.2358 17.7012 15.4563 17.6416 15.6648C17.582 15.9985 17.6714 16.344 17.8859 16.6062C17.9752 16.7313 18.0586 16.8564 18.1361 16.9875C18.2255 17.1543 18.2433 17.345 18.1957 17.5297C18.148 17.619 18.0646 17.6905 17.9693 17.7203C17.9335 17.7203 17.9216 17.6965 17.8978 17.6727C17.8441 17.619 17.8144 17.625 17.7905 17.6965C17.7548 17.8276 17.7071 17.8693 17.5701 17.8812C17.3794 17.8872 17.3437 17.8633 17.302 17.6727C17.2781 17.5416 17.2722 17.4105 17.2722 17.2735C17.2662 16.9637 17.2186 16.6539 17.1292 16.356C17.0398 16.0878 16.9624 15.8138 16.9028 15.5397C16.8849 15.4742 16.8611 15.4086 16.8194 15.355C16.7538 15.2597 16.7002 15.1644 16.6585 15.0571C16.6406 15.0094 16.6168 14.9677 16.581 14.926C16.3189 14.6281 16.0985 14.2945 15.9138 13.943C15.8125 13.7166 15.7588 13.4723 15.7469 13.222C15.7469 13.1684 15.741 13.1088 15.741 13.0493C15.7052 13.0671 15.7052 13.1029 15.6933 13.1267C15.6456 13.3293 15.6278 13.5438 15.6397 13.7523C15.6397 13.8357 15.6456 13.9132 15.6576 13.9966C15.6576 14.0681 15.6337 14.1336 15.5861 14.1872C15.5265 14.2647 15.449 14.3183 15.3597 14.3541C15.1928 14.4315 15.0379 14.5328 14.8949 14.646L14.6447 14.8307C14.5434 14.9022 14.5136 15.0392 14.5792 15.1405C14.5851 15.1465 14.5911 15.1584 14.597 15.1644C14.6328 15.218 14.6804 15.2537 14.7162 15.3073C14.7817 15.3848 14.8294 15.4742 14.8473 15.5755C14.8592 15.7006 14.9605 15.8019 15.0856 15.8019C15.3239 15.8257 15.5384 15.9627 15.6576 16.1713C15.7291 16.2785 15.7291 16.4215 15.6516 16.5228C15.5622 16.7015 15.3775 16.8207 15.1809 16.8207C14.9247 16.8147 14.6804 16.7194 14.4957 16.5466C14.3647 16.4274 14.2574 16.2785 14.1919 16.1117C14.1383 15.9329 13.9953 15.8019 13.8165 15.7542C13.757 15.7423 13.7033 15.7006 13.6795 15.641C13.6021 15.4325 13.471 15.2537 13.3995 15.0452C13.3697 14.9677 13.3399 14.8843 13.3161 14.8009C13.2922 14.6877 13.2029 14.5983 13.0956 14.5745C12.9169 14.5328 12.7381 14.503 12.5534 14.4971C11.8683 14.4434 11.195 14.2766 10.5694 14.0025C10.0809 13.794 9.67573 13.4187 9.43145 12.942C9.19909 12.519 8.90715 12.1317 8.56754 11.7862C8.25772 11.4406 7.9062 11.1308 7.51893 10.8686L7.40573 10.7971C7.32827 10.7495 7.23295 10.7256 7.13762 10.7376C6.72652 10.7852 6.32137 10.8388 5.91027 10.8686C5.83877 10.8746 5.77919 10.8686 5.71366 10.8746C5.57662 10.8865 5.44555 10.8269 5.36809 10.7137C5.23702 10.5588 5.16552 10.3682 5.1536 10.1656C5.14764 10.0464 5.12977 9.92727 5.12381 9.80811C5.11785 9.64724 5.16552 9.48042 5.26085 9.34934C5.40384 9.14677 5.51704 8.93228 5.5945 8.69992C5.64216 8.58672 5.62429 8.56884 5.50513 8.56884C4.98082 8.5748 4.45652 8.5033 3.95605 8.36031C3.68198 8.28882 3.42578 8.15774 3.21725 7.97304C3.13384 7.89559 3.06235 7.80026 3.02064 7.69897C3.00277 7.66918 2.98489 7.62748 3.02064 7.59769C3.05043 7.5679 3.09214 7.59173 3.12193 7.60365C3.39004 7.7526 3.68793 7.85984 3.99179 7.90751C4.51014 7.99092 5.03444 7.95517 5.53492 7.80026C5.67195 7.76451 5.80898 7.71089 5.94602 7.65727C5.99368 7.63939 6.02943 7.59769 6.0473 7.55002C6.08901 7.42491 6.17242 7.32362 6.29158 7.27C6.50011 7.16275 6.73248 7.10317 6.96484 7.10913C7.04229 7.12105 7.11974 7.0853 7.15549 7.01976C7.29848 6.76953 7.56064 6.6027 7.85258 6.59079C8.00749 6.57291 8.16835 6.6027 8.30539 6.68016C8.32922 6.69207 8.35901 6.69803 8.3888 6.68611C8.70457 6.57887 9.00247 6.44184 9.2825 6.2631C9.33016 6.23331 9.37187 6.19756 9.41357 6.15585C9.44932 6.1201 9.44932 6.05457 9.41357 6.01882C9.36591 5.97711 9.31825 5.93541 9.27058 5.90562C9.05609 5.76858 8.83565 5.65538 8.62116 5.53026C8.46029 5.42898 8.30539 5.32173 8.15048 5.21449C8.04919 5.14299 8.04919 5.07745 8.1326 5H8.18623L8.23389 5.02383C8.75819 5.28003 9.31825 5.47664 9.89021 5.5958C10.0749 5.62559 10.2477 5.709 10.3966 5.83412C10.5635 5.9652 10.5933 6.20947 10.4622 6.38226C10.4622 6.38226 10.4622 6.38226 10.4622 6.38821C10.3073 6.59079 10.1285 6.76953 9.92 6.92443C9.77105 7.03764 9.61019 7.13892 9.44932 7.22829C9.42549 7.24617 9.3957 7.25808 9.41357 7.29979C9.41953 7.32958 9.44932 7.33554 9.48507 7.32958C9.50295 7.32958 9.51486 7.32958 9.53273 7.32362C9.69956 7.30575 9.87234 7.29979 10.0451 7.30575C10.063 7.30575 10.0868 7.3117 10.0987 7.32958C10.063 7.35341 10.0272 7.3832 9.9915 7.40703C9.93192 7.44278 9.8783 7.49045 9.83659 7.54407C9.79489 7.58577 9.78893 7.65131 9.81872 7.70493C9.84851 7.7526 9.90809 7.77643 9.96171 7.76451C10.0153 7.75856 10.063 7.74068 10.1047 7.73472C10.1762 7.71685 10.1881 7.73472 10.1881 7.80622C10.1881 7.82409 10.1881 7.84197 10.1822 7.85984C10.1524 7.94921 10.1941 8.03858 10.2834 8.07433C10.3013 8.08029 10.3251 8.08625 10.343 8.08625C10.5694 8.11604 10.7958 8.14583 11.0222 8.19349C11.2308 8.22328 11.4274 8.31861 11.5704 8.47352C11.6121 8.52714 11.6717 8.55693 11.7372 8.5748C12.0351 8.63438 12.327 8.71779 12.613 8.82504C13.1195 9.00378 13.5306 9.37913 13.751 9.87365C13.8761 10.1596 13.9834 10.4516 14.0787 10.7495C14.1085 10.8686 14.1502 10.9878 14.1978 11.101C14.2038 11.1189 14.2157 11.1367 14.2336 11.1308C14.2574 11.1248 14.2515 11.101 14.2515 11.0831C14.2574 10.9997 14.2455 10.9163 14.2276 10.8329C14.1681 10.4992 14.0846 10.1656 13.9893 9.84386C13.9357 9.65916 14.0489 9.54595 14.2336 9.5817C14.2574 9.58766 14.2813 9.58766 14.2932 9.59958C14.4779 9.65916 14.6685 9.71874 14.8532 9.78428C15.4133 9.96302 15.9495 10.2133 16.444 10.5231C16.6764 10.6601 16.8313 10.8925 16.873 11.1546C16.879 11.238 16.9087 11.3214 16.9624 11.3929C17.0219 11.4704 17.0815 11.5538 17.1351 11.6313C17.1649 11.6789 17.1947 11.7266 17.2186 11.7742C17.3079 11.9887 17.3735 12.2092 17.4152 12.4415C17.433 12.6084 17.4867 12.7692 17.5701 12.9122C17.6952 13.1863 18.0169 13.3114 18.291 13.1863C18.3148 13.1744 18.3387 13.1625 18.3565 13.1505C18.3982 13.1267 18.428 13.091 18.4399 13.0433C18.4519 12.9599 18.5055 12.8824 18.577 12.8348C18.6604 12.7811 18.7498 12.7275 18.8451 12.6739C18.8689 12.656 18.9047 12.656 18.9047 12.6918C18.9166 12.7931 18.9762 12.8467 19 12.9122Z" fill="black"/>
<path d="M14.9426 18.2983C14.9128 18.3161 14.883 18.3221 14.8532 18.334C14.7996 18.3638 14.746 18.3936 14.6864 18.328C14.6685 18.3042 14.6327 18.3042 14.6089 18.3221C14.597 18.334 14.5851 18.3519 14.591 18.3757C14.603 18.4472 14.5553 18.5127 14.4838 18.5306H14.2991C14.0608 18.5008 14.031 18.3161 14.031 18.1433C14.0191 17.9467 13.9655 17.7501 13.8761 17.5714C13.8284 17.4701 13.7748 17.3748 13.7212 17.2794C13.6616 17.1841 13.6199 17.0828 13.5841 16.9756C13.5305 16.8326 13.4352 16.7075 13.3101 16.6241C13.1969 16.5526 13.1075 16.4513 13.0598 16.3262C12.9586 16.0819 12.756 15.8972 12.5117 15.8078C12.2436 15.7184 11.9814 15.6052 11.7312 15.4622C11.4095 15.2656 11.1414 15.0035 10.9447 14.6817C10.8971 14.6103 10.8554 14.5507 10.8077 14.4911C10.7839 14.4613 10.772 14.4315 10.7481 14.4017C10.7541 14.3779 10.772 14.3838 10.7779 14.3958C11.2188 14.5447 11.6776 14.652 12.1363 14.7235C12.3866 14.7711 12.6309 14.8069 12.8871 14.8307C12.9943 14.8426 13.0837 14.9082 13.1313 14.9975C13.2624 15.2418 13.4114 15.4801 13.5841 15.7006C13.6973 15.8197 13.7688 15.9687 13.7927 16.1295C13.8225 16.2964 13.894 16.4453 14.0072 16.5704C14.1323 16.7432 14.2812 16.9041 14.4421 17.0411C14.591 17.1722 14.7162 17.3271 14.8115 17.5058C14.9009 17.6905 14.9962 17.8752 15.0736 18.0659C15.0915 18.191 15.0617 18.2446 14.9426 18.2983Z" fill="black"/>
</svg>
