<svg width="24" height="24" viewBox="0 0 24 24" fill="none" xmlns="http://www.w3.org/2000/svg">
<path d="M14.5 8C14.2239 8 14 8.22386 14 8.5C14 8.77614 14.2239 9 14.5 9H17C17.2761 9 17.5 8.77614 17.5 8.5C17.5 8.22386 17.2761 8 17 8H14.5Z" fill="black"/>
<path d="M14.159 16.8838C13.9638 16.6885 13.9638 16.3719 14.159 16.1766L16.6339 13.7018C16.8292 13.5065 17.1457 13.5065 17.341 13.7018C17.5363 13.897 17.5363 14.2136 17.341 14.4089L14.8661 16.8838C14.6709 17.079 14.3543 17.079 14.159 16.8838Z" fill="black"/>
<path d="M9 7.5C9 7.22386 8.77614 7 8.5 7C8.22386 7 8 7.22386 8 7.5V8H7.5C7.22386 8 7 8.22386 7 8.5C7 8.77614 7.22386 9 7.5 9H8V9.5C8 9.77614 8.22386 10 8.5 10C8.77614 10 9 9.77614 9 9.5V9H9.5C9.77614 9 10 8.77614 10 8.5C10 8.22386 9.77614 8 9.5 8H9V7.5Z" fill="black"/>
<path d="M9.56071 15.1466C9.75597 14.9513 9.75597 14.6348 9.56071 14.4395C9.36544 14.2442 9.04886 14.2442 8.8536 14.4395L8.50008 14.793L8.14648 14.4394C7.95121 14.2442 7.63463 14.2442 7.43937 14.4394C7.24411 14.6347 7.24411 14.9513 7.43937 15.1465L7.79297 15.5001L7.43939 15.8537C7.24412 16.049 7.24412 16.3655 7.43939 16.5608C7.63465 16.7561 7.95123 16.7561 8.14649 16.5608L8.50008 16.2072L8.85358 16.5607C9.04884 16.756 9.36543 16.756 9.56069 16.5607C9.75595 16.3655 9.75595 16.0489 9.56069 15.8536L9.20718 15.5001L9.56071 15.1466Z" fill="black"/>
<path fill-rule="evenodd" clip-rule="evenodd" d="M4 6C4 4.89543 4.89543 4 6 4H18C19.1046 4 20 4.89543 20 6V18C20 19.1046 19.1046 20 18 20H6C4.89543 20 4 19.1046 4 18V6ZM18 5.5H12.9667V11.0332H18.5V6C18.5 5.72386 18.2761 5.5 18 5.5ZM18.5 12.5332H12.9667V18.5H18C18.2761 18.5 18.5 18.2761 18.5 18V12.5332ZM11.4667 11.0332V5.5H6C5.72386 5.5 5.5 5.72386 5.5 6V11.0332H11.4667ZM5.5 12.5332H11.4667V18.5H6C5.72386 18.5 5.5 18.2761 5.5 18V12.5332Z" fill="black"/>
</svg>
