<svg width="24" height="24" viewBox="0 0 24 24" fill="none" xmlns="http://www.w3.org/2000/svg">
<path fill-rule="evenodd" clip-rule="evenodd" d="M7.6 4H17.2C18.084 4 18.8 4.716 18.8 5.6V18.4C18.8 19.284 18.084 20 17.2 20H7.6C6.716 20 6 19.284 6 18.4V5.6C6 4.716 6.716 4 7.6 4ZM7.60001 8.79995H17.2V5.59995H7.60001V8.79995ZM9.99999 12H8.39999V10.4H9.99999V12ZM8.39999 15.2H9.99999V13.6H8.39999V15.2ZM9.99999 18.4001H8.39999V16.8001H9.99999V18.4001ZM11.6 18.4001H16.4V16.8001H11.6V18.4001ZM13.2 15.2H11.6V13.6H13.2V15.2ZM14.8 15.2H16.4V13.6H14.8V15.2ZM16.4 12H14.8V10.4H16.4V12ZM11.6 12H13.2V10.4H11.6V12Z" fill="black"/>
</svg>
