<svg width="24" height="24" viewBox="0 0 24 24" fill="none" xmlns="http://www.w3.org/2000/svg">
<path opacity="0.6" d="M17.1192 5.27735C17.2119 5.41645 17.368 5.5 17.5352 5.5H21C21.663 5.5 22.2989 5.76339 22.7678 6.23223C23.2366 6.70107 23.5 7.33696 23.5 8V19C23.5 19.663 23.2366 20.2989 22.7678 20.7678C22.2989 21.2366 21.663 21.5 21 21.5H3C2.33696 21.5 1.70107 21.2366 1.23223 20.7678C0.763392 20.2989 0.5 19.663 0.5 19V8C0.5 7.33696 0.763392 6.70107 1.23223 6.23223C1.70107 5.76339 2.33696 5.5 3 5.5H6.46482C6.63199 5.5 6.78811 5.41645 6.88084 5.27735L8.58397 2.72265C8.67671 2.58355 8.83282 2.5 9 2.5H15C15.1672 2.5 15.3233 2.58355 15.416 2.72265L17.1192 5.27735ZM9.53518 3.5C9.36801 3.5 9.21189 3.58355 9.11916 3.72265L7.41603 6.27735C7.32329 6.41645 7.16718 6.5 7 6.5H3C2.60218 6.5 2.22064 6.65803 1.93934 6.93934C1.65804 7.22064 1.5 7.60217 1.5 8V19C1.5 19.3978 1.65804 19.7794 1.93934 20.0607C2.22064 20.342 2.60218 20.5 3 20.5H21C21.3978 20.5 21.7794 20.342 22.0607 20.0607C22.342 19.7794 22.5 19.3978 22.5 19V8C22.5 7.60218 22.342 7.22064 22.0607 6.93934C21.7794 6.65804 21.3978 6.5 21 6.5H17C16.8328 6.5 16.6767 6.41645 16.584 6.27735L14.8808 3.72265C14.7881 3.58355 14.632 3.5 14.4648 3.5H9.53518ZM12 9.5C10.067 9.5 8.5 11.067 8.5 13C8.5 14.933 10.067 16.5 12 16.5C13.933 16.5 15.5 14.933 15.5 13C15.5 11.067 13.933 9.5 12 9.5ZM7.5 13C7.5 10.5147 9.51472 8.5 12 8.5C14.4853 8.5 16.5 10.5147 16.5 13C16.5 15.4853 14.4853 17.5 12 17.5C9.51472 17.5 7.5 15.4853 7.5 13Z" fill="black" fill-opacity="0.9" stroke="black" stroke-linecap="round" stroke-linejoin="round"/>
</svg>
