<svg width="24" height="24" viewBox="0 0 24 24" fill="none" xmlns="http://www.w3.org/2000/svg">
<path fill-rule="evenodd" clip-rule="evenodd" d="M5 4C4.44772 4 4 4.44772 4 5V8C4 8.55228 4.44772 9 5 9H8.29999V18.5C8.29999 18.8866 8.61339 19.2 8.99999 19.2H12V20C12 20.5523 12.4477 21 13 21H20C20.5523 21 21 20.5523 21 20V17C21 16.4477 20.5523 16 20 16H13C12.4477 16 12 16.4477 12 17V17.8H9.69999V13.0001H12V14C12 14.5523 12.4477 15 13 15H20C20.5523 15 21 14.5523 21 14V11C21 10.4477 20.5523 10 20 10H13C12.4477 10 12 10.4477 12 11V11.6001H9.69999V9H13C13.5523 9 14 8.55228 14 8V5C14 4.44772 13.5523 4 13 4H5ZM5.4 5.4V7.6H12.6V5.4H5.4ZM13.4 11.4V13.6H19.6V11.4H13.4ZM13.4 17.4H19.6V19.6H13.4V17.4Z" fill="black"/>
</svg>
