<svg width="16" height="16" viewBox="0 0 16 16" fill="none" xmlns="http://www.w3.org/2000/svg">
<path d="M7.99832 0C4.761 0 1.84436 1.95274 0.607464 4.94288C-0.629436 7.93302 0.0577302 11.3656 2.34829 13.654C4.63884 15.9423 8.07467 16.6288 11.0677 15.3931C14.0607 14.1574 16 11.2435 16 8.0093C16 3.56986 12.4115 0 7.99832 0ZM3.67681 9.01619C3.67681 9.36707 3.40194 9.64168 3.05072 9.64168C2.71478 9.64168 2.42464 9.36707 2.42464 9.01619V6.97191C2.42464 6.14809 3.66154 6.14809 3.66154 6.97191V9.01619H3.67681ZM5.6925 11.1062C5.6925 11.4571 5.41763 11.7317 5.06641 11.7317C4.73046 11.7317 4.44033 11.4571 4.44033 11.1062V4.88186C4.44033 4.05805 5.67723 4.05805 5.67723 4.88186V11.1062H5.6925ZM7.72346 12.9217C7.72346 13.7455 6.48656 13.7455 6.48656 12.9217V3.05116C6.48656 2.71553 6.76142 2.42567 7.11264 2.42567C7.46386 2.42567 7.73873 2.70028 7.73873 3.05116V12.9217H7.72346ZM9.73915 11.03C9.73915 11.8538 8.50225 11.8538 8.50225 11.03V4.94288C8.50225 4.11907 9.73915 4.11907 9.73915 4.94288V11.03ZM11.7701 11.9758C11.7701 12.3114 11.4952 12.6013 11.144 12.6013C10.8081 12.6013 10.5179 12.3267 10.5179 11.9758V4.01228C10.5179 3.18847 11.7548 3.18847 11.7548 4.01228V11.9758H11.7701ZM13.7858 8.92465C13.7858 9.74846 12.5489 9.74846 12.5489 8.92465V7.04819C12.5489 6.71256 12.8238 6.4227 13.175 6.4227C13.5109 6.4227 13.8011 6.6973 13.8011 7.04819V8.92465H13.7858Z" fill="black"/>
</svg>
