<svg width="24" height="24" viewBox="0 0 24 24" fill="none" xmlns="http://www.w3.org/2000/svg">
<g clip-path="url(#clip0_19_140)">
<path d="M19 17.9C18.5 17.9 18.1 17.6 18 17.1C17.9 16.6 18.2 16 18.8 15.9C21 15.5 22.4 13.3 21.9 11.2C21.5 9.3 19.9 8 18 8H16.7C16.2 8 15.8 7.7 15.7 7.2C14.7 3.5 10.9 1.2 7.20001 2.2C5.40001 2.7 3.90001 3.8 3.00001 5.4C2.00001 7.1 1.70001 8.9 2.20001 10.8C2.70001 12.7 3.90001 14.2 5.60001 15.2C6.10001 15.4 6.30001 16 6.00001 16.5C5.70001 17 5.10001 17.2 4.60001 16.9C2.40001 15.7 0.900006 13.7 0.200006 11.3C-0.399994 9 -0.0999942 6.5 1.20001 4.5C2.40001 2.4 4.40001 1 6.70001 0.400004C11.2 -0.799996 15.9 1.8 17.4 6.1H18C20.8 6.1 23.3 8.1 23.9 10.9C24.6 14.1 22.5 17.3 19.2 18C19.1 17.9 19.1 17.9 19 17.9Z" fill="black"/>
<path d="M11 24C10.8 24 10.6 23.9 10.4 23.8C9.90001 23.5 9.80001 22.9 10.1 22.4L13.1 18H9.00001C8.60001 18 8.30001 17.8 8.10001 17.5C7.90001 17.2 7.90001 16.8 8.10001 16.5L12.1 10.5C12.4 10 13 9.9 13.5 10.2C14 10.5 14.1 11.1 13.8 11.6L10.8 16H15C15.4 16 15.7 16.2 15.9 16.5C16.1 16.8 16.1 17.2 15.9 17.5L11.9 23.5C11.6 23.8 11.3 24 11 24Z" fill="black"/>
</g>
<defs>
<clipPath id="clip0_19_140">
<rect width="24" height="24" fill="white"/>
</clipPath>
</defs>
</svg>
