<svg width="24" height="24" viewBox="0 0 24 24" fill="none" xmlns="http://www.w3.org/2000/svg">
<g clip-path="url(#clip0_19_122)">
<path fill-rule="evenodd" clip-rule="evenodd" d="M5.87251 3.55867C7.45054 2.97513 9.16056 2.8456 10.8085 3.18481C12.4575 3.52424 13.9783 4.3194 15.198 5.47994C16.2277 6.45975 17.008 7.66682 17.4793 9H18C19.5913 9 21.1174 9.63214 22.2426 10.7574C23.3679 11.8826 24 13.4087 24 15C24 16.5913 23.3679 18.1174 22.2426 19.2426C21.1174 20.3679 19.5913 21 18 21H9.00074C7.31715 21.0013 5.66696 20.5303 4.23769 19.6405C2.80842 18.7508 1.65737 17.478 0.915332 15.9667C0.384095 14.8848 0.077747 13.7117 0.00893231 12.5179L-1.52583e-05 12.5L0.00730514 12.4888C-0.017945 12.0247 -0.00729247 11.5575 0.0400052 11.0914C0.209973 9.41641 0.846357 7.82268 1.87684 6.4913C2.90733 5.15993 4.2906 4.14429 5.86947 3.55979C5.87048 3.55942 5.87149 3.55904 5.87251 3.55867ZM6.56382 5.43539C6.45129 5.47705 6.34004 5.52152 6.23017 5.56874C5.27709 5.97832 4.42721 6.59455 3.74189 7.37235C3.64399 7.48347 3.54945 7.59788 3.45844 7.71546C2.71734 8.67296 2.23831 9.80493 2.06582 11C2.05177 11.0974 2.03975 11.1952 2.02979 11.2933C1.91412 12.4332 2.08025 13.5815 2.51022 14.6382C2.57165 14.7892 2.63846 14.9383 2.7106 15.0852C3.2156 16.1137 3.96416 17.0002 4.88813 17.6694C5.02012 17.765 5.1557 17.8561 5.29466 17.9426C6.30445 18.5712 7.45602 18.9311 8.64005 18.991C8.75202 18.9967 8.86429 18.9997 8.97675 19C8.98425 19 8.99175 19 8.99925 19C8.99975 19 9.00026 19 9.00076 19H18C19.0609 19 20.0783 18.5786 20.8284 17.8284C21.5786 17.0783 22 16.0609 22 15C22 13.9391 21.5786 12.9217 20.8284 12.1716C20.0783 11.4214 19.0609 11 18 11H16.74C16.284 11 15.8857 10.6915 15.7717 10.25C15.4444 8.98212 14.7679 7.83149 13.8193 6.92885C12.8707 6.0262 11.6879 5.40774 10.4053 5.14374C9.12273 4.87974 7.79183 4.98079 6.56382 5.43539C6.56382 5.43539 6.56381 5.43539 6.56382 5.43539Z" fill="black"/>
</g>
<defs>
<clipPath id="clip0_19_122">
<rect width="24" height="24" fill="white"/>
</clipPath>
</defs>
</svg>
