<svg width="24" height="24" viewBox="0 0 24 24" fill="none" xmlns="http://www.w3.org/2000/svg">
<path fill-rule="evenodd" clip-rule="evenodd" d="M8.5 3.75C7.25736 3.75 6.25 4.75736 6.25 6C6.25 6.97966 6.87611 7.81309 7.75 8.12197V15.878C6.87611 16.1869 6.25 17.0203 6.25 18C6.25 19.2426 7.25736 20.25 8.5 20.25C9.74264 20.25 10.75 19.2426 10.75 18C10.75 17.0725 10.1888 16.2761 9.3874 15.9318C9.54319 15.4061 9.81879 15.0533 10.1482 14.7824C10.7239 14.3091 11.5175 14.0347 12.4872 13.7115L12.5499 13.6906C13.4421 13.3934 14.493 13.0434 15.3044 12.3762C15.9577 11.8391 16.4297 11.1241 16.6354 10.159C17.5686 9.88483 18.25 9.02199 18.25 8C18.25 6.75736 17.2426 5.75 16 5.75C14.7574 5.75 13.75 6.75736 13.75 8C13.75 8.92749 14.3112 9.72391 15.1125 10.0682C14.9568 10.5939 14.6812 10.9467 14.3518 11.2176C13.7761 11.6909 12.9824 11.9653 12.0128 12.2885L11.9501 12.3094C11.0777 12.6 10.0536 12.9411 9.25 13.5798V8.12197C10.1239 7.81309 10.75 6.97966 10.75 6C10.75 4.75736 9.74264 3.75 8.5 3.75ZM7.75 6C7.75 5.58579 8.08579 5.25 8.5 5.25C8.91421 5.25 9.25 5.58579 9.25 6C9.25 6.41421 8.91421 6.75 8.5 6.75C8.08579 6.75 7.75 6.41421 7.75 6ZM16 7.25C15.5858 7.25 15.25 7.58579 15.25 8C15.25 8.41421 15.5858 8.75 16 8.75C16.4142 8.75 16.75 8.41421 16.75 8C16.75 7.58579 16.4142 7.25 16 7.25ZM7.75 18C7.75 17.5858 8.08579 17.25 8.5 17.25C8.91421 17.25 9.25 17.5858 9.25 18C9.25 18.4142 8.91421 18.75 8.5 18.75C8.08579 18.75 7.75 18.4142 7.75 18Z" fill="black"/>
</svg>
