<svg width="24" height="24" viewBox="0 0 24 24" fill="none" xmlns="http://www.w3.org/2000/svg">
<path d="M12.8247 13.8247C12.8247 13.2724 13.2724 12.8247 13.8247 12.8247H18C18.5523 12.8247 19 13.2724 19 13.8247V18C19 18.5523 18.5523 19 18 19H13.8247C13.2724 19 12.8247 18.5523 12.8247 18V13.8247Z" fill="black"/>
<path d="M5 6C5 5.44771 5.44772 5 6 5L10.1751 5C10.7274 5 11.1751 5.44772 11.1751 6V10.1751C11.1751 10.7274 10.7274 11.1751 10.1751 11.1751H6C5.44771 11.1751 5 10.7274 5 10.1751L5 6Z" fill="black"/>
<path d="M5 13.8242C5 13.2719 5.44772 12.8242 6 12.8242H10.1754C10.7276 12.8242 11.1754 13.2719 11.1754 13.8242V17.9996C11.1754 18.5519 10.7276 18.9996 10.1754 18.9996L6 18.9996C5.44772 18.9996 5 18.5519 5 17.9996L5 13.8242Z" fill="black"/>
<path d="M12.8247 6.00049C12.8247 5.4482 13.2724 5.00049 13.8247 5.00049L18.0002 5.00049C18.5525 5.00049 19.0002 5.4482 19.0002 6.00049L19.0002 10.176C19.0002 10.7283 18.5525 11.176 18.0002 11.176H13.8247C13.2724 11.176 12.8247 10.7283 12.8247 10.176V6.00049Z" fill="black"/>
</svg>
