<svg width="24" height="24" viewBox="0 0 24 24" fill="none" xmlns="http://www.w3.org/2000/svg">
<path d="M12.001 4C7.58286 4 4.00207 7.325 4.00207 11.4286C4.00207 13.1286 4.62387 14.6857 5.65498 15.9393C5.18942 17.3464 4.2208 18.5393 4.20517 18.5536C3.99895 18.8036 3.94271 19.1679 4.06144 19.4821C4.18018 19.7964 4.45202 20 4.75198 20C6.6736 20 8.18903 19.0821 9.09829 18.3464C10.0013 18.6714 10.9762 18.8571 12.001 18.8571C16.4192 18.8571 20 15.5321 20 11.4286C20 7.325 16.4192 4 12.001 4ZM12.001 17.1429C11.1668 17.1429 10.3419 16.9964 9.55135 16.7107L8.84207 16.4536L8.23278 16.9464C7.78596 17.3071 7.17354 17.7107 6.43613 17.9821C6.66423 17.55 6.88608 17.0643 7.05793 16.5464L7.38913 15.5429L6.74547 14.7643C6.17992 14.075 5.50188 12.9357 5.50188 11.4286C5.50188 8.27857 8.41713 5.71429 12.001 5.71429C15.5849 5.71429 18.5002 8.27857 18.5002 11.4286C18.5002 14.5786 15.5849 17.1429 12.001 17.1429Z" fill="black"/>
</svg>
