<svg width="24" height="24" viewBox="0 0 24 24" fill="none" xmlns="http://www.w3.org/2000/svg">
<path d="M10.034 15.636C10.714 15.228 11.326 14.65 11.87 13.902C12.4367 13.1767 12.72 12.44 12.72 11.692C12.72 11.488 12.6633 11.318 12.55 11.182C12.4367 11.0687 12.2667 11.012 12.04 11.012C11.4733 11.012 10.986 10.8193 10.578 10.434C10.1927 10.026 10 9.53867 10 8.972C10 8.40533 10.1927 7.94067 10.578 7.578C10.986 7.19267 11.4733 7 12.04 7C12.8333 7 13.4567 7.29467 13.91 7.884C14.386 8.45067 14.624 9.19867 14.624 10.128C14.624 11.3973 14.2727 12.542 13.57 13.562C12.89 14.6047 11.836 15.4773 10.408 16.18L10.034 15.636Z" fill="black"/>
</svg>
