<svg width="24" height="24" viewBox="0 0 24 24" fill="none" xmlns="http://www.w3.org/2000/svg">
<path d="M12.25 9C11.5661 9 11 9.54344 11 10.2V19.8C11 20.4566 11.5661 21 12.25 21H19.75C20.4339 21 21 20.4566 21 19.8V12.6L17.25 9H12.25ZM12.25 10.1186H16.625V12.9153H19.75V19.8814H12.25V10.1186Z" fill="black"/>
<path d="M19 15.6421C19.0002 15.5734 18.9745 15.5075 18.9285 15.4591C18.8825 15.4107 18.8199 15.3836 18.7546 15.3839L16.1008 15.3944L16.5432 14.9288C16.6398 14.8272 16.6403 14.6631 16.5445 14.5622L16.0817 14.0752C15.9859 13.9744 15.8299 13.975 15.7333 14.0766L14.0728 15.8239C13.9762 15.9255 13.9757 16.0897 14.0715 16.1905L15.7196 17.9248C15.8154 18.0256 15.9714 18.025 16.068 17.9234L16.5342 17.4327C16.6308 17.3311 16.6314 17.167 16.5356 17.0661L16.0965 16.6041L18.7502 16.5936C18.8863 16.5931 18.9969 16.4766 18.9975 16.3334L19 15.6421Z" fill="black"/>
<path d="M3 4.2C3 3.54344 3.56609 3 4.25 3H9.25L13 6.6V8H11.75V6.91526H8.62499V4.11865H4.25V13.8814H10V15H4.25C3.56609 15 3 14.4566 3 13.8V4.2Z" fill="black"/>
<path d="M5 10.3579C4.99978 10.4266 5.02547 10.4925 5.07151 10.5409C5.11754 10.5893 5.18011 10.6164 5.24544 10.6161L7.89919 10.6056L7.45681 11.0712C7.36024 11.1728 7.35966 11.3369 7.4555 11.4378L7.91829 11.9248C8.01413 12.0256 8.17013 12.025 8.26669 11.9234L9.92719 10.1761C10.0238 10.0745 10.0243 9.91032 9.9285 9.80946L8.28043 8.07524C8.18459 7.97438 8.0286 7.975 7.93203 8.07662L7.46575 8.56727C7.36919 8.66889 7.3686 8.83304 7.46444 8.93389L7.90349 9.39589L5.24981 9.40636C5.11375 9.4069 5.00305 9.52338 5.00254 9.66656L5 10.3579Z" fill="black"/>
</svg>
