<svg width="24" height="24" viewBox="0 0 24 24" fill="none" xmlns="http://www.w3.org/2000/svg">
<path d="M12 20C7.5816 20 4 16.4184 4 12C4 7.5816 7.5816 4 12 4C16.4184 4 20 7.5816 20 12C20 16.4184 16.4184 20 12 20ZM12 18.4C13.6974 18.4 15.3253 17.7257 16.5255 16.5255C17.7257 15.3253 18.4 13.6974 18.4 12C18.4 10.3026 17.7257 8.67475 16.5255 7.47452C15.3253 6.27428 13.6974 5.6 12 5.6C10.3026 5.6 8.67475 6.27428 7.47452 7.47452C6.27428 8.67475 5.6 10.3026 5.6 12C5.6 13.6974 6.27428 15.3253 7.47452 16.5255C8.67475 17.7257 10.3026 18.4 12 18.4ZM15.6 8.4L13.6 13.6L8.4 15.6L10.4 10.4L15.6 8.4ZM12 12.8C12.2122 12.8 12.4157 12.7157 12.5657 12.5657C12.7157 12.4157 12.8 12.2122 12.8 12C12.8 11.7878 12.7157 11.5843 12.5657 11.4343C12.4157 11.2843 12.2122 11.2 12 11.2C11.7878 11.2 11.5843 11.2843 11.4343 11.4343C11.2843 11.5843 11.2 11.7878 11.2 12C11.2 12.2122 11.2843 12.4157 11.4343 12.5657C11.5843 12.7157 11.7878 12.8 12 12.8Z" fill="black"/>
</svg>
