<svg width="24" height="24" viewBox="0 0 24 24" fill="none" xmlns="http://www.w3.org/2000/svg">
<path d="M13.6 8.8H14.4C14.6122 8.8 14.8157 8.71571 14.9657 8.56569C15.1157 8.41566 15.2 8.21217 15.2 8C15.2 7.78783 15.1157 7.58434 14.9657 7.43431C14.8157 7.28429 14.6122 7.2 14.4 7.2H13.6C13.3878 7.2 13.1843 7.28429 13.0343 7.43431C12.8843 7.58434 12.8 7.78783 12.8 8C12.8 8.21217 12.8843 8.41566 13.0343 8.56569C13.1843 8.71571 13.3878 8.8 13.6 8.8ZM13.6 12H14.4C14.6122 12 14.8157 11.9157 14.9657 11.7657C15.1157 11.6157 15.2 11.4122 15.2 11.2C15.2 10.9878 15.1157 10.7843 14.9657 10.6343C14.8157 10.4843 14.6122 10.4 14.4 10.4H13.6C13.3878 10.4 13.1843 10.4843 13.0343 10.6343C12.8843 10.7843 12.8 10.9878 12.8 11.2C12.8 11.4122 12.8843 11.6157 13.0343 11.7657C13.1843 11.9157 13.3878 12 13.6 12ZM9.6 8.8H10.4C10.6122 8.8 10.8157 8.71571 10.9657 8.56569C11.1157 8.41566 11.2 8.21217 11.2 8C11.2 7.78783 11.1157 7.58434 10.9657 7.43431C10.8157 7.28429 10.6122 7.2 10.4 7.2H9.6C9.38783 7.2 9.18434 7.28429 9.03431 7.43431C8.88429 7.58434 8.8 7.78783 8.8 8C8.8 8.21217 8.88429 8.41566 9.03431 8.56569C9.18434 8.71571 9.38783 8.8 9.6 8.8ZM9.6 12H10.4C10.6122 12 10.8157 11.9157 10.9657 11.7657C11.1157 11.6157 11.2 11.4122 11.2 11.2C11.2 10.9878 11.1157 10.7843 10.9657 10.6343C10.8157 10.4843 10.6122 10.4 10.4 10.4H9.6C9.38783 10.4 9.18434 10.4843 9.03431 10.6343C8.88429 10.7843 8.8 10.9878 8.8 11.2C8.8 11.4122 8.88429 11.6157 9.03431 11.7657C9.18434 11.9157 9.38783 12 9.6 12ZM19.2 18.4H18.4V4.8C18.4 4.58783 18.3157 4.38434 18.1657 4.23431C18.0157 4.08429 17.8122 4 17.6 4H6.4C6.18783 4 5.98434 4.08429 5.83431 4.23431C5.68429 4.38434 5.6 4.58783 5.6 4.8V18.4H4.8C4.58783 18.4 4.38434 18.4843 4.23431 18.6343C4.08429 18.7843 4 18.9878 4 19.2C4 19.4122 4.08429 19.6157 4.23431 19.7657C4.38434 19.9157 4.58783 20 4.8 20H19.2C19.4122 20 19.6157 19.9157 19.7657 19.7657C19.9157 19.6157 20 19.4122 20 19.2C20 18.9878 19.9157 18.7843 19.7657 18.6343C19.6157 18.4843 19.4122 18.4 19.2 18.4ZM12.8 18.4H11.2V15.2H12.8V18.4ZM16.8 18.4H14.4V14.4C14.4 14.1878 14.3157 13.9843 14.1657 13.8343C14.0157 13.6843 13.8122 13.6 13.6 13.6H10.4C10.1878 13.6 9.98434 13.6843 9.83431 13.8343C9.68429 13.9843 9.6 14.1878 9.6 14.4V18.4H7.2V5.6H16.8V18.4Z" fill="black"/>
</svg>
