<svg width="24" height="24" viewBox="0 0 24 24" fill="none" xmlns="http://www.w3.org/2000/svg">
<path fill-rule="evenodd" clip-rule="evenodd" d="M17.9776 4.97079C18.0065 5.16848 17.9403 5.36819 17.799 5.50946L15.5202 7.78824L16.0402 8.30821L18.319 6.02944C18.4602 5.88817 18.6599 5.82194 18.8576 5.85081C19.0553 5.87968 19.2278 6.00024 19.3227 6.17601C20.225 7.84589 19.908 10.0015 18.4665 11.4431C17.5284 12.3811 16.2917 12.8412 15.0829 12.8026L8.67919 19.2063C7.60876 20.2767 5.87325 20.2767 4.80282 19.2063C3.73239 18.1359 3.73239 16.4004 4.80282 15.3299L11.0497 9.08307C10.9054 7.76991 11.3601 6.38724 12.3853 5.36196C13.8269 3.9204 15.9825 3.60338 17.6524 4.5057C17.8282 4.60067 17.9487 4.7731 17.9776 4.97079ZM16.2007 5.3187C15.2063 5.13124 14.0985 5.43791 13.2799 6.2565C12.4609 7.07553 12.1523 8.18853 12.3435 9.18601C12.3829 9.39195 12.3178 9.60407 12.1695 9.75235L5.69737 16.2245C5.12098 16.8009 5.12098 17.7354 5.69737 18.3118C6.27375 18.8881 7.20826 18.8881 7.78464 18.3118L14.3911 11.7053C14.5258 11.5706 14.714 11.5038 14.9034 11.5233C15.8304 11.6191 16.824 11.2965 17.5719 10.5485C18.3905 9.72994 18.6972 8.62211 18.5097 7.62776L16.4875 9.65003C16.2404 9.89705 15.8399 9.89705 15.5929 9.65003L14.1784 8.23551C13.9314 7.98849 13.9314 7.58799 14.1784 7.34096L16.2007 5.3187Z" fill="black"/>
</svg>
