<svg width="24" height="24" viewBox="0 0 24 24" fill="none" xmlns="http://www.w3.org/2000/svg">
<path d="M19.0295 14.9194V12.2582C19.0295 11.9604 18.84 11.7185 18.5369 11.644L12.6443 10.118L12.6441 6.17267L13.8757 7.38224C14.0084 7.51257 14.1598 7.56839 14.3304 7.56839C14.5009 7.56839 14.6714 7.51257 14.7852 7.38224C15.0316 7.14027 15.0316 6.73083 14.7852 6.47032L12.4547 4.18148C12.2083 3.93951 11.7915 3.93951 11.5262 4.18148L9.19574 6.48903C8.94939 6.731 8.94939 7.14045 9.19574 7.40095C9.4421 7.64292 9.85897 7.64292 10.1242 7.40095L11.3557 6.19138V10.1181L5.46307 11.6441C5.17891 11.7185 4.97047 11.979 4.97047 12.2583V14.9194C3.83355 15.1985 3 16.2221 3 17.4131C2.99987 18.8274 4.17457 19.9999 5.63356 19.9999C7.09255 19.9999 8.26725 18.8461 8.26725 17.4131C8.26725 16.2035 7.43353 15.1985 6.29679 14.9194V12.742L11.3558 11.4393V14.9193C10.2188 15.1984 9.38529 16.222 9.38529 17.413C9.36625 18.8274 10.56 19.9999 11.9999 19.9999C13.4399 19.9999 14.6336 18.8462 14.6336 17.4132C14.6336 16.2036 13.7999 15.1986 12.6632 14.9195V11.4394L17.7221 12.7421V14.9009C16.5852 15.18 15.7517 16.2035 15.7517 17.3946C15.7515 18.8275 16.9264 20 18.3663 20C19.8062 20 21 18.8462 21 17.4132C21 16.2035 20.1663 15.1985 19.0295 14.9194ZM6.96001 17.4131C6.96001 18.1389 6.37267 18.7158 5.63372 18.7158C4.89477 18.7158 4.30744 18.1389 4.30744 17.4131C4.30744 16.6873 4.89477 16.1105 5.63372 16.1105C6.37267 16.1105 6.96001 16.6873 6.96001 17.4131ZM13.3264 17.4131C13.3264 18.1389 12.739 18.7158 12.0001 18.7158C11.2611 18.7158 10.6738 18.1389 10.6738 17.4131C10.6738 16.6873 11.2611 16.1105 12.0001 16.1105C12.739 16.1105 13.3264 16.6873 13.3264 17.4131ZM18.3664 18.7158C17.6274 18.7158 17.0401 18.1389 17.0401 17.4131C17.0401 16.6873 17.6274 16.1105 18.3664 16.1105C19.1053 16.1105 19.6927 16.6873 19.6927 17.4131C19.6927 18.1389 19.1053 18.7158 18.3664 18.7158Z" fill="black"/>
<path d="M19.0295 14.9194V12.2582C19.0295 11.9604 18.84 11.7185 18.5369 11.644L12.6443 10.118L12.6441 6.17267L13.8757 7.38224C14.0084 7.51257 14.1598 7.56839 14.3304 7.56839C14.5009 7.56839 14.6714 7.51257 14.7852 7.38224C15.0316 7.14027 15.0316 6.73083 14.7852 6.47032L12.4547 4.18148C12.2083 3.93951 11.7915 3.93951 11.5262 4.18148L9.19574 6.48903C8.94939 6.731 8.94939 7.14045 9.19574 7.40095C9.4421 7.64292 9.85897 7.64292 10.1242 7.40095L11.3557 6.19138V10.1181L5.46307 11.6441C5.17891 11.7185 4.97047 11.979 4.97047 12.2583V14.9194C3.83355 15.1985 3 16.2221 3 17.4131C2.99987 18.8274 4.17457 19.9999 5.63356 19.9999C7.09255 19.9999 8.26725 18.8461 8.26725 17.4131C8.26725 16.2035 7.43353 15.1985 6.29679 14.9194V12.742L11.3558 11.4393V14.9193C10.2188 15.1984 9.38529 16.222 9.38529 17.413C9.36625 18.8274 10.56 19.9999 11.9999 19.9999C13.4399 19.9999 14.6336 18.8462 14.6336 17.4132C14.6336 16.2036 13.7999 15.1986 12.6632 14.9195V11.4394L17.7221 12.7421V14.9009C16.5852 15.18 15.7517 16.2035 15.7517 17.3946C15.7515 18.8275 16.9264 20 18.3663 20C19.8062 20 21 18.8462 21 17.4132C21 16.2035 20.1663 15.1985 19.0295 14.9194ZM6.96001 17.4131C6.96001 18.1389 6.37267 18.7158 5.63372 18.7158C4.89477 18.7158 4.30744 18.1389 4.30744 17.4131C4.30744 16.6873 4.89477 16.1105 5.63372 16.1105C6.37267 16.1105 6.96001 16.6873 6.96001 17.4131ZM13.3264 17.4131C13.3264 18.1389 12.739 18.7158 12.0001 18.7158C11.2611 18.7158 10.6738 18.1389 10.6738 17.4131C10.6738 16.6873 11.2611 16.1105 12.0001 16.1105C12.739 16.1105 13.3264 16.6873 13.3264 17.4131ZM18.3664 18.7158C17.6274 18.7158 17.0401 18.1389 17.0401 17.4131C17.0401 16.6873 17.6274 16.1105 18.3664 16.1105C19.1053 16.1105 19.6927 16.6873 19.6927 17.4131C19.6927 18.1389 19.1053 18.7158 18.3664 18.7158Z" stroke="black" stroke-width="0.3"/>
</svg>
