<svg width="16" height="16" viewBox="0 0 16 16" fill="none" xmlns="http://www.w3.org/2000/svg">
<path d="M15.909 12.5C15.909 14.3828 14.3827 15.9091 12.4999 15.9091C10.6171 15.9091 9.09082 14.3828 9.09082 12.5C9.09082 10.6172 10.6171 9.09091 12.4999 9.09091C14.3827 9.09091 15.909 10.6172 15.909 12.5Z" fill="white"/>
<path d="M4 2C2.89543 2 2 2.89543 2 4V12C2 13.1046 2.89543 14 4 14H9.43782C9.21568 13.5474 9.09094 13.0382 9.09094 12.5C9.09094 10.6172 10.6172 9.09091 12.5 9.09091C12.6699 9.09091 12.8368 9.10333 13 9.12731V4C13 2.89543 12.1046 2 11 2H4Z" fill="#BECFF6"/>
<path d="M15 12.5C15 13.8807 13.8807 15 12.5 15C11.1193 15 10 13.8807 10 12.5C10 11.1193 11.1193 10 12.5 10C13.8807 10 15 11.1193 15 12.5Z" fill="#0061FF"/>
<path d="M4 5.5C4 5.22386 4.22386 5 4.5 5H7.5C7.77614 5 8 5.22386 8 5.5C8 5.77614 7.77614 6 7.5 6H4.5C4.22386 6 4 5.77614 4 5.5Z" fill="#0061FF"/>
<path d="M4 7.5C4 7.22386 4.22386 7 4.5 7H9.5C9.77614 7 10 7.22386 10 7.5C10 7.77614 9.77614 8 9.5 8H4.5C4.22386 8 4 7.77614 4 7.5Z" fill="#0061FF"/>
<path d="M4 9.5C4 9.22386 4.22386 9 4.5 9H7.5C7.77614 9 8 9.22386 8 9.5C8 9.77614 7.77614 10 7.5 10H4.5C4.22386 10 4 9.77614 4 9.5Z" fill="#0061FF"/>
<path fill-rule="evenodd" clip-rule="evenodd" d="M11.1818 12C11.0814 12 11 12.0814 11 12.1818V12.8182C11 12.9186 11.0814 13 11.1818 13H12.1948C12.245 13 12.2857 13.0407 12.2857 13.0909V13.5993C12.2857 13.7555 12.4697 13.839 12.5873 13.7361L13.8436 12.6368C13.9264 12.5644 13.9264 12.4356 13.8436 12.3632L12.5873 11.2638C12.4697 11.161 12.2857 11.2445 12.2857 11.4007V11.9091C12.2857 11.9593 12.245 12 12.1948 12H11.1818Z" fill="white"/>
</svg>
