<svg width="24" height="24" viewBox="0 0 24 24" fill="none" xmlns="http://www.w3.org/2000/svg">
<path d="M11.5299 19.5V17.7353C10.8414 17.6925 10.194 17.5642 9.58767 17.3503C8.98137 17.1257 8.45215 16.8155 8 16.4198L8.52408 15.1043C9.01734 15.5107 9.54143 15.8155 10.0963 16.0187C10.6615 16.2219 11.2987 16.3235 12.0077 16.3235C12.8195 16.3235 13.4207 16.1631 13.8112 15.8422C14.2119 15.5214 14.4123 15.1096 14.4123 14.607C14.4123 14.1791 14.2736 13.8422 13.9961 13.5963C13.7187 13.3396 13.2511 13.1364 12.5934 12.9866L11.0058 12.6337C10.0809 12.4198 9.38728 12.0722 8.92486 11.5909C8.46243 11.0989 8.23121 10.4465 8.23121 9.63369C8.23121 9.02406 8.3648 8.48396 8.63198 8.01337C8.90944 7.54278 9.2948 7.15775 9.78805 6.85829C10.2813 6.55882 10.8619 6.37166 11.5299 6.29679V4.5H12.7938V6.29679C13.3282 6.35027 13.8471 6.48931 14.3507 6.7139C14.8645 6.92781 15.3064 7.22727 15.6763 7.6123L15.1676 8.87968C14.7669 8.47326 14.3147 8.1738 13.8112 7.98128C13.3076 7.77807 12.7527 7.67647 12.1464 7.67647C11.4374 7.67647 10.8671 7.85294 10.4355 8.20588C10.0141 8.55882 9.80347 9.01872 9.80347 9.58556C9.80347 10.0241 9.93706 10.3717 10.2042 10.6283C10.4714 10.885 10.8979 11.0829 11.4836 11.2219L13.0713 11.5749C14.0578 11.7888 14.7926 12.1364 15.2755 12.6176C15.7585 13.0882 16 13.7139 16 14.4947C16 15.3824 15.702 16.1096 15.106 16.6765C14.51 17.2326 13.7392 17.5695 12.7938 17.6872V19.5H11.5299Z" fill="black"/>
</svg>
