<svg width="24" height="24" viewBox="0 0 24 24" fill="none" xmlns="http://www.w3.org/2000/svg">
<path d="M16.0004 5.53846C16.0004 5.24108 16.2563 5 16.5718 5H18.2861C18.6017 5 18.8576 5.24108 18.8576 5.53846V15.2308C18.8576 15.5282 18.6017 15.7692 18.2861 15.7692H16.5718C16.2563 15.7692 16.0004 15.5282 16.0004 15.2308V5.53846Z" fill="#0C142B"/>
<path d="M10.5599 7.92782C10.5599 7.63043 10.8158 7.38936 11.1314 7.38936H12.8457C13.1613 7.38936 13.4171 7.63043 13.4171 7.92782V15.227C13.4171 15.5243 13.1613 15.7654 12.8457 15.7654H11.1314C10.8158 15.7654 10.5599 15.5243 10.5599 15.227V7.92782Z" fill="#0C142B"/>
<path d="M5.14323 10.3204C5.14323 10.023 5.39907 9.78194 5.71466 9.78194H7.42894C7.74453 9.78194 8.00037 10.023 8.00037 10.3204V15.2264C8.00037 15.5238 7.74453 15.7648 7.42894 15.7648H5.71466C5.39907 15.7648 5.14323 15.5238 5.14323 15.2264V10.3204Z" fill="#0C142B"/>
<path d="M4.61538 16.8457C4.27552 16.8457 4 17.0868 4 17.3842V18.4611C4 18.7585 4.27552 18.9995 4.61539 18.9995H19.3846C19.7245 18.9995 20 18.7585 20 18.4611V17.3842C20 17.0868 19.7245 16.8457 19.3846 16.8457H4.61538Z" fill="#0C142B"/>
</svg>
