<svg width="24" height="24" viewBox="0 0 24 24" fill="none" xmlns="http://www.w3.org/2000/svg">
<path d="M6.55556 12C6.55556 12.2471 6.91411 12.6774 7.74556 13.0997C8.822 13.6461 10.3488 13.9737 12 13.9737C13.6512 13.9737 15.178 13.6461 16.2544 13.0997C17.0859 12.6774 17.4444 12.2471 17.4444 12V10.2861C16.1611 11.0913 14.1988 11.6053 12 11.6053C9.80122 11.6053 7.83889 11.0905 6.55556 10.2861V12ZM17.4444 14.2334C16.1611 15.0387 14.1988 15.5526 12 15.5526C9.80122 15.5526 7.83889 15.0379 6.55556 14.2334V15.9474C6.55556 16.1945 6.91411 16.6247 7.74556 17.0471C8.822 17.5934 10.3488 17.9211 12 17.9211C13.6512 17.9211 15.178 17.5934 16.2544 17.0471C17.0859 16.6247 17.4444 16.1945 17.4444 15.9474V14.2334ZM5 15.9474V8.05263C5 6.09079 8.13444 4.5 12 4.5C15.8656 4.5 19 6.09079 19 8.05263V15.9474C19 17.9092 15.8656 19.5 12 19.5C8.13444 19.5 5 17.9092 5 15.9474ZM12 10.0263C13.6512 10.0263 15.178 9.69868 16.2544 9.15237C17.0859 8.73 17.4444 8.29974 17.4444 8.05263C17.4444 7.80553 17.0859 7.37526 16.2544 6.95289C15.178 6.40658 13.6512 6.07895 12 6.07895C10.3488 6.07895 8.822 6.40658 7.74556 6.95289C6.91411 7.37526 6.55556 7.80553 6.55556 8.05263C6.55556 8.29974 6.91411 8.73 7.74556 9.15237C8.822 9.69868 10.3488 10.0263 12 10.0263Z" fill="black"/>
</svg>
