<svg width="24" height="24" viewBox="0 0 24 24" fill="none" xmlns="http://www.w3.org/2000/svg">
<path d="M8.92309 11.5599C7.90349 11.5599 7.07694 12.3581 7.07694 13.3428C7.07694 14.3274 7.90349 15.1256 8.92309 15.1256C9.94269 15.1256 10.7692 14.3274 10.7692 13.3428C10.7692 12.3581 9.94269 11.5599 8.92309 11.5599Z" fill="black"/>
<path fill-rule="evenodd" clip-rule="evenodd" d="M8.30769 4.5C7.62796 4.5 7.07692 5.03214 7.07692 5.68857V6.28286H5.84615C4.82655 6.28286 4 7.08107 4 8.06571V17.5743C4 18.5589 4.82655 19.3571 5.84615 19.3571H18.1538C19.1734 19.3571 20 18.5589 20 17.5743V8.06571C20 7.08107 19.1734 6.28286 18.1538 6.28286H16.9231V5.68857C16.9231 5.03214 16.372 4.5 15.6923 4.5C15.0126 4.5 14.4615 5.03214 14.4615 5.68857V6.28286H9.53846V5.68857C9.53846 5.03214 8.98743 4.5 8.30769 4.5ZM5.23077 17.5743V10.4429H18.7692V17.5743C18.7692 17.9025 18.4937 18.1686 18.1538 18.1686H5.84615C5.50629 18.1686 5.23077 17.9025 5.23077 17.5743Z" fill="black"/>
</svg>
