<svg width="24" height="24" viewBox="0 0 24 24" fill="none" xmlns="http://www.w3.org/2000/svg">
<path d="M12.8584 4C13.1053 4.01941 13.3521 4.04368 13.5989 4.06309C14.8793 4.16985 16.134 4.37367 17.3219 4.8444C17.7898 5.02881 18.2372 5.26174 18.5971 5.61115C18.8542 5.85864 19.0033 6.14496 18.9931 6.50407C18.9776 7.067 18.9673 7.62994 18.9982 8.19287C19.0239 8.70727 18.7719 9.06638 18.3709 9.36726C17.7229 9.85254 16.9568 10.1049 16.1751 10.3087C15.1416 10.5756 14.0823 10.7018 13.0127 10.76C12.01 10.8134 11.0124 10.794 10.02 10.6872C8.72927 10.5514 7.45915 10.3233 6.28674 9.76034C5.87022 9.56137 5.48456 9.31873 5.21202 8.94991C5.07833 8.7655 5.00634 8.56168 5.00634 8.33845C5.00634 7.75611 5.0269 7.16891 5.00119 6.58657C4.98063 6.07702 5.22745 5.71791 5.61826 5.42674C6.27645 4.93175 7.04778 4.6794 7.84482 4.47558C8.85783 4.21353 9.89655 4.07765 10.9456 4.03397C11.0124 4.02912 11.0741 4.01456 11.141 4.00485C11.7066 4 12.2825 4 12.8584 4Z" fill="black"/>
<path d="M5.00111 9.78442C5.27879 10.4007 5.83414 10.7113 6.42549 10.9831C7.30481 11.381 8.24068 11.5848 9.19198 11.7304C10.3953 11.9148 11.6088 11.9634 12.8224 11.9148C14.2879 11.8566 15.7328 11.6673 17.1109 11.1675C17.692 10.9588 18.2474 10.7065 18.6639 10.2503C18.7873 10.1144 18.8747 9.94942 18.9775 9.80384C18.9775 9.83295 18.9827 9.88148 18.9827 9.93001C18.9827 10.886 18.9673 11.8372 18.993 12.7932C19.0084 13.3027 18.7719 13.6619 18.3811 13.9579C17.7434 14.4383 16.9927 14.6955 16.2213 14.8945C14.6016 15.3118 12.9458 15.4283 11.2694 15.3701C9.86047 15.3215 8.46694 15.1468 7.12997 14.7052C6.49234 14.4965 5.88042 14.2345 5.39706 13.7686C5.13995 13.5066 4.99597 13.2202 5.00111 12.8611C5.01139 11.8372 5.00111 10.8084 5.00111 9.78442Z" fill="black"/>
<path d="M18.9878 14.4241C18.9878 15.5111 18.9981 16.5933 18.9827 17.6706C18.9775 18.0783 18.6896 18.3597 18.3708 18.5975C17.7229 19.0828 16.9618 19.34 16.1751 19.539C15.1569 19.801 14.113 19.9515 13.0589 19.9806C12.2876 20 11.5111 20.0146 10.7398 19.9757C9.34111 19.8981 7.96815 19.6846 6.66718 19.1702C6.1941 18.9809 5.74158 18.748 5.38163 18.3937C5.13995 18.1414 4.99597 17.8599 5.00111 17.5105C5.01139 16.5351 5.00625 15.5596 5.00625 14.5842C5.00625 14.5308 5.00625 14.4823 5.00625 14.4289C5.2068 14.8948 5.59246 15.1957 6.03983 15.4189C6.44092 15.6179 6.86258 15.8023 7.29452 15.9382C8.34352 16.273 9.43367 16.4283 10.5341 16.5157C11.542 16.5933 12.555 16.5933 13.5628 16.5108C14.9358 16.3943 16.283 16.1808 17.548 15.6324C17.9697 15.448 18.3759 15.2296 18.6742 14.8851C18.7873 14.7492 18.8747 14.5891 18.9878 14.4241Z" fill="black"/>
</svg>
