<svg width="24" height="24" viewBox="0 0 24 24" fill="none" xmlns="http://www.w3.org/2000/svg">
<path d="M4.5 5.75C4.08579 5.75 3.75 6.08579 3.75 6.5V15C3.75 15.4142 4.08579 15.75 4.5 15.75H10.5V17.5H9C8.58579 17.5 8.25 17.8358 8.25 18.25C8.25 18.6642 8.58579 19 9 19L13.5 19C13.9142 19 14.25 18.6642 14.25 18.25C14.25 17.8358 13.9142 17.5 13.5 17.5H12V15.75H13.5C13.9142 15.75 14.25 15.4142 14.25 15C14.25 14.5858 13.9142 14.25 13.5 14.25H5.25V7.25H16.75V9C16.75 9.41421 17.0858 9.75 17.5 9.75C17.9142 9.75 18.25 9.41421 18.25 9V6.5C18.25 6.08579 17.9142 5.75 17.5 5.75H4.5Z" fill="#0C142B"/>
<path fill-rule="evenodd" clip-rule="evenodd" d="M15 12C15 11.4477 15.4477 11 16 11H19C19.5523 11 20 11.4477 20 12V18C20 18.5523 19.5523 19 19 19H16C15.4477 19 15 18.5523 15 18V12ZM16.5 17.5V12.5H18.5V17.5H16.5Z" fill="#0C142B"/>
</svg>
