<svg width="16" height="16" viewBox="0 0 16 16" fill="none" xmlns="http://www.w3.org/2000/svg">
<path d="M8 4H14C14.5523 4 15 4.44772 15 5V12C15 12.5523 14.5523 13 14 13H8V4Z" fill="#E5E6EA"/>
<rect x="8" y="6" width="5" height="1" rx="0.5" fill="#2D65BA"/>
<rect x="8" y="8" width="5" height="1" rx="0.5" fill="#2D65BA"/>
<rect x="8" y="10" width="5" height="1" rx="0.5" fill="#2D65BA"/>
<path d="M1 4.5227C1 4.05116 1.3294 3.6437 1.79047 3.5449L7.79047 2.25918C8.41298 2.12579 9 2.60034 9 3.23699V12.763C9 13.3997 8.41298 13.8742 7.79047 13.7408L1.79047 12.4551C1.3294 12.3563 1 11.9488 1 11.4773V4.5227Z" fill="#2D65BA"/>
<path fill-rule="evenodd" clip-rule="evenodd" d="M6.74392 5.36038C7.0183 5.3915 7.2155 5.63916 7.18438 5.91354L6.74688 9.77069C6.7209 9.99972 6.54172 10.1813 6.31306 10.2104C6.0844 10.2394 5.86552 10.1084 5.78311 9.89309L4.93757 7.68432L4.09202 9.89309C4.01068 10.1056 3.79612 10.2364 3.56998 10.2113C3.34384 10.1862 3.16313 10.0116 3.1303 9.78649L2.6928 6.78649C2.65295 6.51324 2.84216 6.25942 3.11541 6.21957C3.38866 6.17972 3.64248 6.36893 3.68233 6.64218L3.84327 7.74577L4.47061 6.10701C4.54468 5.91353 4.73039 5.78576 4.93757 5.78576C5.14474 5.78576 5.33045 5.91353 5.40452 6.10701L5.98425 7.62141L6.19075 5.80084C6.22187 5.52646 6.46953 5.32926 6.74392 5.36038Z" fill="white"/>
</svg>
