<svg width="24" height="24" viewBox="0 0 24 24" fill="none" xmlns="http://www.w3.org/2000/svg">
<path d="M12 5C12.4018 5 12.7275 5.32591 12.7275 5.72794V13.5146L15.258 10.9827C15.5421 10.6984 16.0028 10.6984 16.2869 10.9827C16.571 11.267 16.571 11.7279 16.2869 12.0122L12.5217 15.7795C12.3895 15.9155 12.2046 16 12 16C11.7953 16 11.6103 15.9154 11.4781 15.7792L7.71309 12.0122C7.42897 11.7279 7.42897 11.267 7.71309 10.9827C7.99722 10.6984 8.45787 10.6984 8.742 10.9827L11.2725 13.5145V5.72794C11.2725 5.32591 11.5982 5 12 5Z" fill="black"/>
<path d="M17.5 14.75V17.3333C17.5 17.4096 17.4707 17.4638 17.4478 17.4884C17.44 17.4967 17.4286 17.5 17.4172 17.5H6.58281C6.57139 17.5 6.55999 17.4967 6.55219 17.4884C6.52926 17.4638 6.5 17.4096 6.5 17.3333V14.75C6.5 14.3358 6.16421 14 5.75 14C5.33579 14 5 14.3358 5 14.75V17.3333C5 17.7754 5.16389 18.1993 5.45561 18.5118C5.74733 18.8244 6.143 19 6.55556 19H17.4444C17.857 19 18.2527 18.8244 18.5444 18.5118C18.8361 18.1993 19 17.7754 19 17.3333V14.75C19 14.3358 18.6642 14 18.25 14C17.8358 14 17.5 14.3358 17.5 14.75Z" fill="black"/>
</svg>
