<svg width="24" height="24" viewBox="0 0 24 24" fill="none" xmlns="http://www.w3.org/2000/svg">
<path d="M18 10.205C17.9922 10.1361 17.9771 10.0682 17.955 10.0025V9.935C17.9189 9.85788 17.8708 9.787 17.8125 9.725L13.3125 5.225C13.2505 5.16666 13.1796 5.11856 13.1025 5.0825H13.0275C12.9546 5.0435 12.8762 5.01569 12.795 5H8.25C7.65326 5 7.08097 5.23705 6.65901 5.65901C6.23705 6.08097 6 6.65326 6 7.25V17.75C6 18.3467 6.23705 18.919 6.65901 19.341C7.08097 19.7629 7.65326 20 8.25 20H15.75C16.3467 20 16.919 19.7629 17.341 19.341C17.7629 18.919 18 18.3467 18 17.75V10.25C18 10.25 18 10.25 18 10.205ZM13.5 7.5575L15.4425 9.5H14.25C14.0511 9.5 13.8603 9.42098 13.7197 9.28033C13.579 9.13968 13.5 8.94891 13.5 8.75V7.5575ZM16.5 17.75C16.5 17.9489 16.421 18.1397 16.2803 18.2803C16.1397 18.421 15.9489 18.5 15.75 18.5H8.25C8.05109 18.5 7.86032 18.421 7.71967 18.2803C7.57902 18.1397 7.5 17.9489 7.5 17.75V7.25C7.5 7.05109 7.57902 6.86032 7.71967 6.71967C7.86032 6.57902 8.05109 6.5 8.25 6.5H12V8.75C12 9.34674 12.2371 9.91903 12.659 10.341C13.081 10.7629 13.6533 11 14.25 11H16.5V17.75ZM12.9675 14.2175L12.75 14.4425V12.5C12.75 12.3011 12.671 12.1103 12.5303 11.9697C12.3897 11.829 12.1989 11.75 12 11.75C11.8011 11.75 11.6103 11.829 11.4697 11.9697C11.329 12.1103 11.25 12.3011 11.25 12.5V14.4425L11.0325 14.2175C10.8913 14.0763 10.6997 13.9969 10.5 13.9969C10.3003 13.9969 10.1087 14.0763 9.9675 14.2175C9.82627 14.3587 9.74693 14.5503 9.74693 14.75C9.74693 14.9497 9.82627 15.1413 9.9675 15.2825L11.4675 16.7825C11.5388 16.8508 11.6229 16.9043 11.715 16.94C11.8048 16.9797 11.9018 17.0002 12 17.0002C12.0982 17.0002 12.1952 16.9797 12.285 16.94C12.3771 16.9043 12.4612 16.8508 12.5325 16.7825L14.0325 15.2825C14.1737 15.1413 14.2531 14.9497 14.2531 14.75C14.2531 14.5503 14.1737 14.3587 14.0325 14.2175C13.8913 14.0763 13.6997 13.9969 13.5 13.9969C13.3003 13.9969 13.1087 14.0763 12.9675 14.2175Z" fill="black"/>
</svg>
