<svg width="24" height="24" viewBox="0 0 24 24" fill="none" xmlns="http://www.w3.org/2000/svg">
<path d="M8 16.2C8 16.0343 8.13431 15.9 8.3 15.9H10.3C10.4657 15.9 10.6 16.0343 10.6 16.2V18.2C10.6 18.3657 10.4657 18.5 10.3 18.5H8.3C8.13431 18.5 8 18.3657 8 18.2V16.2Z" fill="black"/>
<path d="M8 11C8 10.8343 8.13431 10.7 8.3 10.7H10.3C10.4657 10.7 10.6 10.8343 10.6 11V13C10.6 13.1657 10.4657 13.3 10.3 13.3H8.3C8.13431 13.3 8 13.1657 8 13V11Z" fill="black"/>
<path d="M8 5.8C8 5.63431 8.13431 5.5 8.3 5.5H10.3C10.4657 5.5 10.6 5.63431 10.6 5.8V7.8C10.6 7.96569 10.4657 8.1 10.3 8.1H8.3C8.13431 8.1 8 7.96569 8 7.8V5.8Z" fill="black"/>
<path d="M13.2 16.2C13.2 16.0343 13.3343 15.9 13.5 15.9H15.5C15.6657 15.9 15.8 16.0343 15.8 16.2V18.2C15.8 18.3657 15.6657 18.5 15.5 18.5H13.5C13.3343 18.5 13.2 18.3657 13.2 18.2V16.2Z" fill="black"/>
<path d="M13.2 11C13.2 10.8343 13.3343 10.7 13.5 10.7H15.5C15.6657 10.7 15.8 10.8343 15.8 11V13C15.8 13.1657 15.6657 13.3 15.5 13.3H13.5C13.3343 13.3 13.2 13.1657 13.2 13V11Z" fill="black"/>
<path d="M13.2 5.8C13.2 5.63431 13.3343 5.5 13.5 5.5H15.5C15.6657 5.5 15.8 5.63431 15.8 5.8V7.8C15.8 7.96569 15.6657 8.1 15.5 8.1H13.5C13.3343 8.1 13.2 7.96569 13.2 7.8V5.8Z" fill="black"/>
</svg>
