<svg width="24" height="24" viewBox="0 0 24 24" fill="none" xmlns="http://www.w3.org/2000/svg">
<path fill-rule="evenodd" clip-rule="evenodd" d="M7.20006 5.6V4H18.4001C19.2841 4 20.0001 4.716 20.0001 5.6V16.8H18.4001V5.6H7.20006ZM4 8.80006C4 7.91606 4.716 7.20006 5.6 7.20006H15.2C16.084 7.20006 16.8 7.91606 16.8 8.80006V18.4001C16.8 19.2841 16.084 20.0001 15.2 20.0001H5.6C4.716 20.0001 4 19.2841 4 18.4001V8.80006ZM5.59989 8.79994H15.1999V18.3999H5.59989V8.79994ZM9.60006 12.8V10.4H11.2001V12.8H13.6001V14.4H11.2001V16.8H9.60006V14.4H7.20006V12.8H9.60006Z" fill="black"/>
</svg>
