<svg width="16" height="16" viewBox="0 0 16 16" fill="none" xmlns="http://www.w3.org/2000/svg">
<path d="M4.32096 1C6.67979 1 8.59727 2.89106 8.63815 5.23899C8.68184 6.6077 9.80301 7.70341 11.1809 7.70341C12.5587 7.70341 13.6825 6.6077 13.7236 5.23899H15.5C15.458 7.58703 13.5388 9.47885 11.1809 9.47885C8.82204 9.47885 6.90456 7.58703 6.86271 5.23899C6.81903 3.87308 5.69689 2.7764 4.32096 2.7764C2.94222 2.7764 1.82105 3.87308 1.7764 5.23899H0C0.0436821 2.89106 1.96299 1 4.32096 1Z" fill="#959CA1"/>
<path d="M4.32096 9.47886C6.67979 9.47886 8.59727 7.5878 8.63815 5.23813C8.68184 3.87309 9.80301 2.7764 11.1809 2.7764C12.5486 2.7764 13.6645 3.85766 13.7226 5.21084C13.7226 5.2199 13.7236 14.5844 13.7236 14.5844H15.5V5.2199C15.4461 2.88113 13.5341 1 11.1809 1C8.82204 1 6.90456 2.89202 6.86271 5.23813C6.81903 6.60857 5.69689 7.70438 4.32096 7.70438C2.94222 7.70438 1.82105 6.60866 1.7764 5.23813H0C0.0436821 7.5877 1.96299 9.47886 4.32096 9.47886Z" fill="#E51937"/>
</svg>
