<svg width="24" height="24" viewBox="0 0 24 24" fill="none" xmlns="http://www.w3.org/2000/svg">
<path fill-rule="evenodd" clip-rule="evenodd" d="M8.5 10.25C8.66415 10.25 8.8267 10.2177 8.97835 10.1548C9.13001 10.092 9.26781 9.99996 9.38388 9.88388C9.49996 9.76781 9.59203 9.63001 9.65485 9.47835C9.71767 9.3267 9.75 9.16415 9.75 9V6C9.75 5.66848 9.6183 5.35054 9.38388 5.11612C9.14946 4.8817 8.83152 4.75 8.5 4.75H5.5C5.16848 4.75 4.85054 4.8817 4.61612 5.11612C4.3817 5.35054 4.25 5.66848 4.25 6V9C4.25 9.16415 4.28233 9.3267 4.34515 9.47835C4.40797 9.63001 4.50004 9.76781 4.61612 9.88388C4.73219 9.99996 4.86999 10.092 5.02165 10.1548C5.1733 10.2177 5.33585 10.25 5.5 10.25H6.25V14.88C5.74959 15.0569 5.32783 15.4051 5.05928 15.8629C4.79072 16.3207 4.69265 16.8587 4.7824 17.3818C4.87216 17.9049 5.14395 18.3795 5.54976 18.7216C5.95556 19.0637 6.46923 19.2513 7 19.2513C7.53077 19.2513 8.04444 19.0637 8.45024 18.7216C8.85605 18.3795 9.12784 17.9049 9.2176 17.3818C9.30735 16.8587 9.20928 16.3207 8.94072 15.8629C8.67217 15.4051 8.25041 15.0569 7.75 14.88V10.25H8.5ZM8.25 8.75H5.75V6.25H8.25V8.75ZM7 17.74C6.85124 17.74 6.70585 17.6957 6.5823 17.6129C6.45876 17.53 6.36265 17.4123 6.30619 17.2747C6.24973 17.137 6.23547 16.9857 6.26523 16.84C6.29499 16.6942 6.36742 16.5606 6.47331 16.4561C6.5792 16.3516 6.71377 16.281 6.85991 16.2532C7.00605 16.2254 7.15715 16.2417 7.29401 16.3C7.43087 16.3583 7.5473 16.456 7.62849 16.5806C7.70969 16.7053 7.75198 16.8513 7.75 17C7.74737 17.1972 7.66719 17.3854 7.52683 17.5239C7.38646 17.6624 7.19719 17.74 7 17.74Z" fill="black"/>
<path fill-rule="evenodd" clip-rule="evenodd" d="M13.5 12.25C13.8315 12.25 14.1495 12.1183 14.3839 11.8839C14.6183 11.6495 14.75 11.3315 14.75 11V8C14.75 7.66848 14.6183 7.35054 14.3839 7.11612C14.1495 6.8817 13.8315 6.75 13.5 6.75H10.75V8.25H13.25V10.75H9.75V12.25H11.25V14.88C10.7496 15.0569 10.3278 15.4051 10.0593 15.8629C9.79072 16.3207 9.69265 16.8587 9.78241 17.3818C9.87216 17.9049 10.144 18.3795 10.5498 18.7216C10.9556 19.0637 11.4692 19.2513 12 19.2513C12.5308 19.2513 13.0444 19.0637 13.4502 18.7216C13.8561 18.3795 14.1278 17.9049 14.2176 17.3818C14.3074 16.8587 14.2093 16.3207 13.9407 15.8629C13.6722 15.4051 13.2504 15.0569 12.75 14.88V12.25H13.5ZM12 17.74C11.8517 17.74 11.7067 17.696 11.5833 17.6136C11.46 17.5312 11.3639 17.4141 11.3071 17.277C11.2503 17.14 11.2355 16.9892 11.2644 16.8437C11.2934 16.6982 11.3648 16.5646 11.4697 16.4597C11.5746 16.3548 11.7082 16.2833 11.8537 16.2544C11.9992 16.2255 12.15 16.2403 12.287 16.2971C12.4241 16.3539 12.5412 16.45 12.6236 16.5733C12.706 16.6967 12.75 16.8417 12.75 16.99C12.75 17.1889 12.671 17.3797 12.5303 17.5203C12.3897 17.661 12.1989 17.74 12 17.74Z" fill="black"/>
<path fill-rule="evenodd" clip-rule="evenodd" d="M15.75 8.75H18.5C18.8315 8.75 19.1495 8.8817 19.3839 9.11612C19.6183 9.35054 19.75 9.66848 19.75 10V13C19.7474 13.3307 19.6149 13.6471 19.381 13.881C19.1471 14.1149 18.8307 14.2474 18.5 14.25H17.75V14.88C18.2504 15.0569 18.6722 15.4051 18.9407 15.8629C19.2093 16.3207 19.3074 16.8587 19.2176 17.3818C19.1278 17.9049 18.8561 18.3795 18.4502 18.7216C18.0444 19.0637 17.5308 19.2513 17 19.2513C16.4692 19.2513 15.9556 19.0637 15.5498 18.7216C15.144 18.3795 14.8722 17.9049 14.7824 17.3818C14.6927 16.8587 14.7907 16.3207 15.0593 15.8629C15.3278 15.4051 15.7496 15.0569 16.25 14.88V14.25H14.75V12.75H18.25V10.25H15.75V8.75ZM16.5833 17.6236C16.7067 17.706 16.8517 17.75 17 17.75V17.74C17.1972 17.74 17.3865 17.6624 17.5268 17.5239C17.6672 17.3854 17.7474 17.1972 17.75 17C17.75 16.8517 17.706 16.7067 17.6236 16.5833C17.5412 16.46 17.4241 16.3639 17.287 16.3071C17.15 16.2503 16.9992 16.2355 16.8537 16.2644C16.7082 16.2934 16.5746 16.3648 16.4697 16.4697C16.3648 16.5746 16.2934 16.7082 16.2644 16.8537C16.2355 16.9992 16.2503 17.15 16.3071 17.287C16.3639 17.4241 16.46 17.5412 16.5833 17.6236Z" fill="black"/>
</svg>
