<svg width="24" height="24" viewBox="0 0 24 24" fill="none" xmlns="http://www.w3.org/2000/svg">
<path d="M12 20C13.5822 20 15.129 19.5308 16.4446 18.6518C17.7602 17.7727 18.7855 16.5233 19.391 15.0615C19.9965 13.5997 20.155 11.9911 19.8463 10.4393C19.5376 8.88743 18.7757 7.46197 17.6569 6.34315C16.538 5.22433 15.1126 4.4624 13.5607 4.15372C12.0089 3.84504 10.4003 4.00346 8.93853 4.60897C7.47672 5.21447 6.2273 6.23985 5.34824 7.55544C4.46919 8.87103 4 10.4177 4 12C4 14.1217 4.84285 16.1566 6.34314 17.6569C7.84344 19.1571 9.87827 20 12 20ZM12 5.48148C13.2903 5.48149 14.5516 5.88912 15.624 6.60648C16.6965 7.32384 17.532 8.34336 18.0246 9.5359C18.5173 10.7284 18.6449 12.0404 18.3914 13.3055C18.1379 14.5706 17.5146 15.7321 16.6005 16.6427C15.6864 17.5534 14.5226 18.1722 13.2565 18.421C11.9904 18.6697 10.679 18.5371 9.48831 18.0399C8.29765 17.5427 7.28131 16.7034 6.56803 15.6282C5.85474 14.553 5.47659 13.2903 5.48148 12C5.48148 10.2712 6.16825 8.61317 7.39071 7.39071C8.61317 6.16825 10.2712 5.48148 12 5.48148Z" fill="black"/>
<path d="M13 14.9933C13 14.441 12.5523 13.9933 12 13.9933C11.4477 13.9933 11 14.441 11 14.9933C11 15.5456 11.4477 15.9933 12 15.9933C12.5523 15.9933 13 15.5456 13 14.9933Z" fill="black"/>
<path d="M13 12C13 12.5523 12.5523 13 12 13C11.4477 13 11 12.5523 11 12L11 9C11 8.44771 11.4477 8 12 8C12.5523 8 13 8.44771 13 9L13 12Z" fill="black"/>
</svg>
