<svg width="24" height="24" viewBox="0 0 24 24" fill="none" xmlns="http://www.w3.org/2000/svg">
<path d="M7.11967 8.85036C6.97512 8.84651 6.82757 8.88455 6.69701 8.96742C6.34788 9.19 6.24536 9.65345 6.46724 10.0028L7.61134 11.8004L6.46717 13.5982C6.24529 13.9475 6.34812 14.411 6.69725 14.6336C6.82166 14.7122 6.96101 14.7505 7.09927 14.7505C7.34602 14.7505 7.58961 14.6286 7.73287 14.4037L8.50013 13.1978L9.26749 14.4032C9.41085 14.6274 9.65362 14.7505 9.90093 14.7505C10.0386 14.7505 10.1775 14.7133 10.3027 14.6332C10.6516 14.4108 10.755 13.9468 10.533 13.5973L9.38963 11.8004L10.533 10.0034C10.7551 9.65389 10.6515 9.18999 10.3026 8.96755C9.95385 8.74537 9.4902 8.84812 9.26735 9.19789L8.50013 10.403L7.7329 9.19719C7.59361 8.97809 7.3597 8.85677 7.11967 8.85036Z" fill="black"/>
<path d="M14.75 8C14.3358 8 14 8.33579 14 8.75C14 9.16421 14.3358 9.5 14.75 9.5H16.75C17.1642 9.5 17.5 9.16421 17.5 8.75C17.5 8.33579 17.1642 8 16.75 8H14.75Z" fill="black"/>
<path d="M14.75 11C14.3358 11 14 11.3358 14 11.75C14 12.1642 14.3358 12.5 14.75 12.5H16.75C17.1642 12.5 17.5 12.1642 17.5 11.75C17.5 11.3358 17.1642 11 16.75 11H14.75Z" fill="black"/>
<path d="M14 14.75C14 14.3358 14.3358 14 14.75 14H16.75C17.1642 14 17.5 14.3358 17.5 14.75C17.5 15.1642 17.1642 15.5 16.75 15.5H14.75C14.3358 15.5 14 15.1642 14 14.75Z" fill="black"/>
<path fill-rule="evenodd" clip-rule="evenodd" d="M11.154 19.5625C11.9621 19.754 12.7419 19.2557 12.9475 18.4991C12.965 18.4997 12.9824 18.5 13 18.5H18.5C19.3284 18.5 20 17.8284 20 17V7C20 6.17157 19.3284 5.5 18.5 5.5H13C12.9824 5.5 12.9649 5.5003 12.9475 5.5009C12.7418 4.74436 11.962 4.24608 11.154 4.43761L5.15403 5.85983C4.47762 6.02016 4 6.62423 4 7.31938V16.6807C4 17.3759 4.47762 17.9799 5.15403 18.1403L11.154 19.5625ZM5.5 7.31938V16.6807L11.5 18.1029V5.89716L5.5 7.31938ZM18.5 17H13V7H18.5V17Z" fill="black"/>
</svg>
