<svg width="24" height="24" viewBox="0 0 24 24" fill="none" xmlns="http://www.w3.org/2000/svg">
<path fill-rule="evenodd" clip-rule="evenodd" d="M13.8694 4.00662L5.25011 5.70698C5.10461 5.73574 5 5.87327 5 6.02705V17.9696C5 18.1234 5.10461 18.2609 5.25011 18.2896L13.8694 19.99C13.8749 19.9911 13.8804 19.9923 13.8859 19.9936C13.8996 19.9968 13.9133 20 13.9271 20C13.998 20 14.0642 19.9775 14.1195 19.93C14.1904 19.8687 14.2349 19.775 14.2349 19.6799V4.31669C14.2349 4.22167 14.1904 4.1279 14.1195 4.06664C14.0485 4.00537 13.9596 3.98912 13.8694 4.00662ZM7.05891 9.01782H8.63654L9.46384 10.8082C9.52877 10.9495 9.58649 11.1233 9.63699 11.3183H9.64661C9.67908 11.202 9.74161 11.0195 9.82939 10.7882L10.7433 9.01782H12.1862L10.4643 11.9784L12.2343 14.9991H10.7048L9.70433 13.0487C9.66705 12.9762 9.62857 12.8424 9.58889 12.6486H9.57927C9.56003 12.7399 9.51434 12.8824 9.4446 13.0687L8.44415 14.9991H6.905L8.74236 12.0085L7.05891 9.01782Z" fill="black"/>
<path d="M18.9934 7.42323C18.9144 6.46273 18.1396 5.70874 17.1953 5.70874H15.2776V7.22106H17.1953L17.2659 7.22846C17.4255 7.2624 17.5455 7.4092 17.5455 7.58514V16.547L17.5384 16.6204C17.5057 16.7863 17.3646 16.9111 17.1953 16.9111H15.2776V18.4234H17.1953L17.3511 18.4165C18.2748 18.3345 19 17.5288 19 16.547V7.58514L18.9934 7.42323Z" fill="black"/>
</svg>
