<svg width="24" height="24" viewBox="0 0 24 24" fill="none" xmlns="http://www.w3.org/2000/svg">
<path d="M13.1014 12L16.8403 8.26073C16.9431 8.1578 16.9998 8.02047 17 7.87404C17 7.72753 16.9433 7.59004 16.8403 7.48727L16.5126 7.15969C16.4096 7.05651 16.2723 7 16.1257 7C15.9794 7 15.842 7.05651 15.739 7.15969L12.0002 10.8987L8.26116 7.15969C8.15832 7.05651 8.02088 7 7.87437 7C7.72803 7 7.59069 7.05651 7.48785 7.15969L7.16 7.48727C6.94667 7.70061 6.94667 8.04763 7.16 8.26073L10.8989 12L7.16 15.7391C7.05707 15.8422 7.00044 15.9795 7.00044 16.126C7.00044 16.2724 7.05707 16.4097 7.16 16.5127L7.48776 16.8403C7.5906 16.9434 7.72803 17 7.87429 17C8.02079 17 8.15823 16.9434 8.26107 16.8403L12.0001 13.1012L15.7389 16.8403C15.8419 16.9434 15.9793 17 16.1256 17C16.272 17 16.4095 16.9434 16.5125 16.8403L16.8402 16.5127C16.943 16.4098 16.9997 16.2724 16.9997 16.126C16.9997 15.9795 16.943 15.8422 16.8402 15.7392L13.1014 12Z" fill="black"/>
</svg>
