<svg width="24" height="24" viewBox="0 0 24 24" fill="none" xmlns="http://www.w3.org/2000/svg">
<path fill-rule="evenodd" clip-rule="evenodd" d="M14.6461 6.00439H17.6805C17.857 6.00439 18 6.14854 18 6.32634V9.38363C18 9.56143 17.8569 9.70558 17.6805 9.70558H16.8284C16.6519 9.70558 16.5088 9.56143 16.5088 9.38363V8.56915L14.0749 11.0214C14.015 11.0818 13.9337 11.1157 13.8489 11.1157C13.7641 11.1157 13.6829 11.0818 13.623 11.0214L13.0204 10.4143C12.8957 10.2886 12.8957 10.0848 13.0205 9.95906L15.4544 7.50681H14.6461C14.4696 7.50681 14.3265 7.36266 14.3265 7.18486V6.32634C14.3265 6.14854 14.4696 6.00439 14.6461 6.00439ZM10.151 12.8887C10.2358 12.8887 10.317 12.9226 10.377 12.983L10.9794 13.5901C11.1042 13.7159 11.1042 13.9197 10.9794 14.0454L8.54559 16.4976H9.35398C9.53045 16.4976 9.67351 16.6417 9.67351 16.8195V17.678C9.67351 17.8558 9.53045 18 9.35398 18H6.31954C6.14307 18 6 17.8558 6 17.678V14.6207C6 14.4429 6.14307 14.2988 6.31954 14.2988H7.17163C7.3481 14.2988 7.49117 14.4429 7.49117 14.6207V15.4352L9.92505 12.983C9.98495 12.9226 10.0662 12.8887 10.151 12.8887Z" fill="black"/>
</svg>
