<svg width="24" height="24" viewBox="0 0 24 24" fill="none" xmlns="http://www.w3.org/2000/svg">
<path fill-rule="evenodd" clip-rule="evenodd" d="M8 5C6.34315 5 5 6.34315 5 8V16C5 17.6569 6.34315 19 8 19H16C17.6569 19 19 17.6569 19 16V8C19 6.34315 17.6569 5 16 5H8ZM12 16C11.4477 16 11 15.5523 11 15V13H9C8.44772 13 8 12.5523 8 12C8 11.4477 8.44772 11 9 11H11V9C11 8.44772 11.4477 8 12 8C12.5523 8 13 8.44772 13 9V11H15C15.5523 11 16 11.4477 16 12C16 12.5523 15.5523 13 15 13H13V15C13 15.5523 12.5523 16 12 16Z" fill="black"/>
</svg>
