<svg width="24" height="24" viewBox="0 0 24 24" fill="none" xmlns="http://www.w3.org/2000/svg">
<path d="M6 18.5764V3H13.8546L18.8529 7.0303V18.5764H13.9095V17.169H17.4248V7.73401H13.1405V4.40741H7.4281V17.169H10.9434V18.5764H6Z" fill="black"/>
<path d="M9.95475 19.2592L12.4265 22L14.9448 19.2592H13.1895V15.6667H11.8039V19.2592H9.95475Z" fill="black"/>
<path fill-rule="evenodd" clip-rule="evenodd" d="M9.58594 11.8418V12.8438H9V10H10.1094C10.3229 10 10.5104 10.0391 10.6719 10.1172C10.8346 10.1953 10.9596 10.3066 11.0469 10.4512C11.1341 10.5944 11.1777 10.7578 11.1777 10.9414C11.1777 11.2201 11.082 11.4401 10.8906 11.6016C10.7005 11.7617 10.4368 11.8418 10.0996 11.8418H9.58594ZM9.58594 11.3672H10.1094C10.2643 11.3672 10.3822 11.3307 10.4629 11.2578C10.5449 11.1849 10.5859 11.0807 10.5859 10.9453C10.5859 10.806 10.5449 10.6934 10.4629 10.6074C10.3809 10.5215 10.2676 10.4772 10.123 10.4746H9.58594V11.3672Z" fill="black"/>
<path fill-rule="evenodd" clip-rule="evenodd" d="M11.582 12.8438V10H12.457C12.707 10 12.9303 10.0566 13.127 10.1699C13.3249 10.2819 13.4792 10.4421 13.5898 10.6504C13.7005 10.8574 13.7559 11.0931 13.7559 11.3574V11.4883C13.7559 11.7526 13.7012 11.9876 13.5918 12.1934C13.4837 12.3991 13.3307 12.5586 13.1328 12.6719C12.9349 12.7852 12.7116 12.8424 12.4629 12.8438H11.582ZM12.168 10.4746V12.373H12.4512C12.6803 12.373 12.8555 12.2982 12.9766 12.1484C13.0977 11.9987 13.1595 11.7845 13.1621 11.5059V11.3555C13.1621 11.0664 13.1022 10.8477 12.9824 10.6992C12.8626 10.5495 12.6875 10.4746 12.457 10.4746H12.168Z" fill="black"/>
<path d="M14.7695 11.6816H15.8945V11.209H14.7695V10.4746H16.0352V10H14.1836V12.8438H14.7695V11.6816Z" fill="black"/>
</svg>
