<svg width="24" height="24" viewBox="0 0 24 24" fill="none" xmlns="http://www.w3.org/2000/svg">
<path d="M5 13.8C5 13.3582 5.35817 13 5.8 13C6.24183 13 6.6 13.3582 6.6 13.8L6.6 16.5625C6.6 16.778 6.68428 16.9847 6.83431 17.137C6.98434 17.2894 7.18783 17.375 7.4 17.375L16.6 17.375C16.8122 17.375 17.0157 17.2894 17.1657 17.137C17.3157 16.9847 17.4 16.778 17.4 16.5625L17.4 13.8C17.4 13.3582 17.7582 13 18.2 13C18.6418 13 19 13.3582 19 13.8L19 16.5625C19 17.209 18.7471 17.829 18.2971 18.2861C17.847 18.7432 17.2365 19 16.6 19L7.4 19C6.76348 19 6.15303 18.7432 5.70294 18.2861C5.25286 17.829 5 17.209 5 16.5625L5 13.8Z" fill="black"/>
<path d="M11.4308 13.9981C11.5807 14.1503 11.7839 14.2358 11.9959 14.2358C12.2079 14.2358 12.4111 14.1503 12.561 13.9981C12.7109 13.8459 12.7951 13.6394 12.7951 13.4241L12.7951 5.76384L14.6253 7.63074C14.6996 7.70682 14.788 7.76721 14.8854 7.80842C14.9828 7.84963 15.0872 7.87084 15.1927 7.87084C15.2982 7.87084 15.4027 7.84963 15.5001 7.80842C15.5975 7.76721 15.6859 7.70682 15.7602 7.63074C15.8351 7.55529 15.8945 7.46551 15.9351 7.3666C15.9757 7.26769 15.9966 7.16159 15.9966 7.05444C15.9966 6.94729 15.9757 6.84119 15.9351 6.74228C15.8945 6.64337 15.8351 6.55359 15.7602 6.47813L12.5633 3.23134C12.4873 3.15745 12.3977 3.09952 12.2996 3.06089C12.105 2.9797 11.8868 2.9797 11.6922 3.06089C11.5941 3.09952 11.5045 3.15745 11.4285 3.23134L8.23162 6.47813C8.15711 6.55381 8.09799 6.64366 8.05767 6.74254C8.01734 6.84143 7.99658 6.94741 7.99658 7.05444C7.99658 7.16147 8.01734 7.26745 8.05767 7.36633C8.098 7.46522 8.15711 7.55506 8.23162 7.63074C8.30614 7.70643 8.3946 7.76646 8.49197 7.80742C8.58933 7.84838 8.69368 7.86946 8.79906 7.86946C8.90444 7.86946 9.0088 7.84838 9.10616 7.80742C9.20352 7.76646 9.29198 7.70643 9.3665 7.63074L11.1967 5.76384L11.1967 13.4241C11.1967 13.6394 11.2809 13.8459 11.4308 13.9981Z" fill="black"/>
</svg>
