<svg width="24" height="24" viewBox="0 0 24 24" fill="none" xmlns="http://www.w3.org/2000/svg">
<path d="M19.7161 10.0796C19.4359 9.91151 19.0811 10.0236 18.9316 10.285C18.5955 10.864 18.1846 11.4056 17.7177 11.8912C17.6243 11.9846 17.7177 11.8912 17.6243 11.9846C16.9146 12.6943 16.0741 13.2546 15.159 13.6468C15.0469 13.7029 15.159 13.6468 15.0469 13.7029C14.1131 14.0951 13.1045 14.2818 12.0773 14.3005C11.9653 14.3005 12.0773 14.3005 11.9653 14.3005C10.9194 14.3005 9.91083 14.0951 8.95832 13.7029C8.84626 13.6468 8.95832 13.7029 8.84626 13.6468C7.9311 13.2546 7.09065 12.6943 6.38094 11.9846C6.28756 11.8912 6.38094 11.9846 6.28756 11.8912C5.82064 11.4056 5.40975 10.8827 5.07358 10.3037C4.90549 10.0236 4.56931 9.93019 4.28916 10.0983C4.00901 10.2664 3.91562 10.6025 4.08371 10.8827C4.40122 11.4243 4.77475 11.9473 5.20431 12.4142L4.41989 13.7776C4.2518 14.0577 4.34519 14.4126 4.62534 14.5807C4.71872 14.6367 4.8121 14.6554 4.92416 14.6554C5.1296 14.6554 5.31637 14.5433 5.42843 14.3566L6.06344 13.2546C6.64241 13.7589 7.2961 14.1885 7.98713 14.5246L7.6136 15.8694C7.53889 16.1869 7.70698 16.5044 8.02449 16.5791C8.08052 16.5978 8.11787 16.5978 8.1739 16.5978C8.43537 16.5978 8.65949 16.4297 8.7342 16.1682L9.0517 14.9542C9.81744 15.2157 10.6019 15.3651 11.4236 15.4211V16.6725C11.4236 16.99 11.6851 17.2514 12.0026 17.2514C12.3201 17.2514 12.5816 16.99 12.5816 16.6725V15.4211C13.366 15.3651 14.1504 15.2157 14.8975 14.9729L15.215 16.1682C15.2897 16.4297 15.5138 16.5978 15.7753 16.5978C15.8313 16.5978 15.8687 16.5978 15.9247 16.5791C16.2422 16.5044 16.429 16.1682 16.3356 15.8694L15.9807 14.5246C16.6718 14.1885 17.3255 13.7589 17.9044 13.2546L18.5394 14.3379C18.6515 14.5246 18.8383 14.6367 19.0437 14.6367C19.1371 14.6367 19.2491 14.618 19.3425 14.562C19.6227 14.3939 19.7161 14.0391 19.548 13.7589L18.7822 12.4142C19.2118 11.9473 19.5853 11.4243 19.9028 10.864C20.0896 10.5839 19.9962 10.229 19.7161 10.0796Z" fill="black"/>
</svg>
