<svg width="16" height="16" viewBox="0 0 16 16" fill="none" xmlns="http://www.w3.org/2000/svg">
<path d="M14.057 2H2.7C2.51435 2 2.3363 2.07375 2.20502 2.20502C2.07375 2.3363 2 2.51435 2 2.7V14.057C2 14.2427 2.07375 14.4207 2.20502 14.552C2.3363 14.6833 2.51435 14.757 2.7 14.757H8.376V9.748H6.855V7.925H8.38V6.472C8.36156 6.12647 8.4173 5.78099 8.54349 5.45879C8.66968 5.13659 8.86339 4.84515 9.1116 4.60405C9.3598 4.36295 9.65675 4.17778 9.98247 4.061C10.3082 3.94422 10.6551 3.89853 11 3.927C11.7 3.927 12.462 3.98 12.638 4.003V5.724H11.462C10.662 5.724 10.508 6.103 10.508 6.661V7.924H12.417L12.168 9.747H10.508V14.761H14.057C14.2427 14.761 14.4207 14.6872 14.552 14.556C14.6833 14.4247 14.757 14.2467 14.757 14.061V2.7C14.757 2.51435 14.6833 2.3363 14.552 2.20502C14.4207 2.07375 14.2427 2 14.057 2Z" fill="black"/>
</svg>
