<svg width="24" height="24" viewBox="0 0 24 24" fill="none" xmlns="http://www.w3.org/2000/svg">
<path d="M11.4077 5.45043C11.5941 4.84986 12.4059 4.84986 12.5923 5.45043L13.8178 9.39798C13.9012 9.66656 14.1404 9.84841 14.4102 9.84841H18.376C18.9793 9.84841 19.2302 10.6565 18.7421 11.0277L15.5337 13.4674C15.3154 13.6334 15.224 13.9276 15.3074 14.1962L16.5329 18.1437C16.7194 18.7443 16.0626 19.2437 15.5745 18.8725L12.3661 16.4328C12.1478 16.2668 11.8522 16.2668 11.6339 16.4328L8.42552 18.8725C7.9374 19.2437 7.28064 18.7443 7.46708 18.1437L8.69258 14.1962C8.77596 13.9276 8.68462 13.6334 8.46632 13.4674L5.25793 11.0277C4.76981 10.6565 5.02067 9.84841 5.62402 9.84841H9.58981C9.85964 9.84841 10.0988 9.66656 10.1822 9.39798L11.4077 5.45043Z" fill="#FABC5F"/>
</svg>
