<svg width="24" height="24" viewBox="0 0 24 24" fill="none" xmlns="http://www.w3.org/2000/svg">
<path fill-rule="evenodd" clip-rule="evenodd" d="M10.6914 5.22807C11.0963 3.92397 12.9038 3.92398 13.3087 5.22807L14.5102 9.09841H18.376C19.0612 9.09841 19.5274 9.57011 19.6846 10.0765C19.8412 10.5808 19.7268 11.2211 19.1961 11.6247L16.0396 14.0249L17.2492 17.9214C17.4431 18.546 17.1936 19.1403 16.7607 19.4696C16.3226 19.8027 15.6637 19.8826 15.1205 19.4695L12 17.0967L8.87952 19.4696C8.33637 19.8826 7.67745 19.8027 7.2394 19.4695C6.80642 19.1403 6.55694 18.546 6.75083 17.9214L7.96047 14.0249L4.80399 11.6247C4.27327 11.2211 4.15886 10.5808 4.31543 10.0765C4.47263 9.57011 4.93888 9.09841 5.62405 9.09841H9.48988L10.6914 5.22807ZM12 6.072L10.8985 9.62034C10.7233 10.1844 10.207 10.5984 9.58984 10.5984H5.93254L8.92032 12.8704C9.39809 13.2337 9.58253 13.8592 9.40889 14.4186L8.28564 18.0367L11.18 15.8358C11.6665 15.4658 12.3335 15.4658 12.8201 15.8358L15.7144 18.0367L14.5912 14.4186C14.4175 13.8592 14.602 13.2337 15.0797 12.8704L18.0675 10.5984H14.4102C13.7931 10.5984 13.2767 10.1844 13.1016 9.62034L12 6.072Z" fill="black"/>
</svg>
