<svg width="24" height="24" viewBox="0 0 24 24" fill="none" xmlns="http://www.w3.org/2000/svg">
<path d="M11.5099 11.3101L9.68991 9.5301C9.61177 9.40037 9.57918 9.24827 9.59729 9.09792C9.61541 8.94756 9.68319 8.80756 9.78991 8.7001C9.92289 8.56819 10.1026 8.49418 10.2899 8.49418C10.4772 8.49418 10.6569 8.56819 10.7899 8.7001L11.2899 9.1901V5.8001C11.2899 5.61445 11.3637 5.4364 11.4949 5.30512C11.6262 5.17385 11.8043 5.1001 11.9899 5.1001C12.1756 5.1001 12.3536 5.17385 12.4849 5.30512C12.6162 5.4364 12.6899 5.61445 12.6899 5.8001V9.1501L13.1899 8.6601C13.3229 8.52819 13.5026 8.45418 13.6899 8.45418C13.8772 8.45418 14.0569 8.52819 14.1899 8.6601C14.2577 8.72455 14.3116 8.80211 14.3485 8.88806C14.3854 8.97402 14.4044 9.06657 14.4044 9.1601C14.4044 9.25363 14.3854 9.34618 14.3485 9.43213C14.3116 9.51809 14.2577 9.59564 14.1899 9.6601L12.4899 11.3401C12.3782 11.4397 12.2385 11.5025 12.0899 11.5201H11.9999C11.9084 11.5193 11.8179 11.5004 11.7338 11.4643C11.6497 11.4283 11.5736 11.3759 11.5099 11.3101Z" fill="black"/>
<path fill-rule="evenodd" clip-rule="evenodd" d="M15.3399 8.45982H15.0999L15.1099 8.46982C15.0184 8.47115 14.9276 8.45428 14.8428 8.4202C14.7579 8.38612 14.6806 8.3355 14.6155 8.2713C14.5504 8.20709 14.4986 8.13058 14.4633 8.04621C14.428 7.96183 14.4099 7.87128 14.4099 7.77982C14.4099 7.6879 14.428 7.59687 14.4632 7.51195C14.4983 7.42702 14.5499 7.34985 14.6149 7.28485C14.6799 7.21985 14.7571 7.16829 14.842 7.13311C14.9269 7.09793 15.018 7.07982 15.1099 7.07982H15.7099C15.8211 7.07941 15.9308 7.10549 16.0299 7.15592C16.1291 7.20636 16.2147 7.27968 16.2799 7.36982L19.2799 11.4998L19.3399 11.6298C19.3806 11.7139 19.4012 11.8064 19.3999 11.8998V15.9998C19.4056 16.4909 19.219 16.9646 18.8799 17.3198C18.5191 17.6726 18.0345 17.87 17.5299 17.8698H6.52988C6.02875 17.8674 5.5482 17.6702 5.18988 17.3198C5.0134 17.1481 4.87296 16.943 4.7768 16.7163C4.68064 16.4896 4.63069 16.246 4.62988 15.9998V11.8798C4.63093 11.8006 4.64794 11.7224 4.67988 11.6498V11.5898C4.72988 11.5598 4.72988 11.4898 4.72988 11.4898L7.72988 7.35982C7.79613 7.27084 7.88204 7.19837 7.98092 7.14806C8.07979 7.09776 8.18895 7.07098 8.29988 7.06982H8.99988C9.18553 7.06982 9.36358 7.14357 9.49486 7.27485C9.62613 7.40612 9.69988 7.58417 9.69988 7.76982C9.69989 7.86128 9.68172 7.95183 9.64642 8.03621C9.61112 8.12058 9.5594 8.19709 9.49426 8.2613C9.42913 8.3255 9.35188 8.37612 9.26701 8.4102C9.18213 8.44428 9.09133 8.46115 8.99988 8.45982H8.66988L6.66988 11.1998H8.29988C8.80144 11.2001 9.28275 11.3977 9.63988 11.7498C9.81804 11.9223 9.95948 12.1291 10.0557 12.3576C10.1519 12.5862 10.201 12.8318 10.1999 13.0798C10.2026 13.2066 10.2526 13.3278 10.3399 13.4198C10.4385 13.5093 10.5667 13.5591 10.6999 13.5598H13.2499C13.383 13.5591 13.5112 13.5093 13.6099 13.4198C13.6972 13.3278 13.7471 13.2066 13.7499 13.0798C13.7488 12.8318 13.7978 12.5862 13.8941 12.3576C13.9903 12.1291 14.1317 11.9223 14.3099 11.7498C14.667 11.3977 15.1483 11.2001 15.6499 11.1998H17.3399L15.3399 8.45982ZM17.5099 16.5198C17.6436 16.5222 17.7729 16.4719 17.8699 16.3798L17.8599 16.3398C17.9472 16.2478 17.9971 16.1266 17.9999 15.9998V12.6398H15.6499C15.5167 12.6405 15.3885 12.6904 15.2899 12.7798C15.2011 12.8749 15.1511 12.9998 15.1499 13.1298C15.1502 13.3762 15.1008 13.6201 15.0045 13.847C14.9083 14.0738 14.7673 14.2788 14.5899 14.4498C14.2328 14.802 13.7514 14.9995 13.2499 14.9998H10.6999C10.4476 14.9954 10.1988 14.9399 9.96854 14.8368C9.73825 14.7337 9.53121 14.5851 9.35988 14.3998C9.18248 14.2288 9.04144 14.0238 8.94522 13.797C8.84899 13.5701 8.79956 13.3262 8.79988 13.0798C8.79863 12.9498 8.74868 12.8249 8.65988 12.7298C8.56125 12.6404 8.43304 12.5905 8.29988 12.5898H5.99988V15.9998C5.99603 16.0694 6.00647 16.139 6.03055 16.2043C6.05463 16.2697 6.09184 16.3294 6.13988 16.3798C6.23852 16.4693 6.36673 16.5191 6.49988 16.5198H17.5099Z" fill="black"/>
</svg>
