<svg width="24" height="24" viewBox="0 0 24 24" fill="none" xmlns="http://www.w3.org/2000/svg">
<g clip-path="url(#clip0_31_2610)">
<path d="M5.28835 4.5C5.09609 4.5 4.96875 4.62734 4.96875 4.8196V5.77841C4.96875 5.87454 5.00496 5.93446 5.06862 5.99814L10.1823 11.4314C10.2459 11.4951 10.3383 11.5312 10.402 11.5312H13.598C13.6941 11.5312 13.7541 11.495 13.8177 11.4314L18.9314 5.99814C18.9951 5.93446 19.0312 5.87454 19.0312 5.77841V4.8196C19.0312 4.62734 18.9039 4.5 18.7117 4.5H5.28835V4.5ZM10.0824 12.1704V16.9645C10.0824 17.0918 10.1461 17.1905 10.2422 17.2541L13.4382 19.1717C13.4707 19.2042 13.5343 19.2017 13.598 19.2017C13.6617 19.2017 13.6941 19.2042 13.7578 19.1717C13.8539 19.1081 13.9176 19.0094 13.9176 18.8821V12.1704H10.0824Z" fill="black"/>
</g>
<defs>
<clipPath id="clip0_31_2610">
<rect width="15" height="15" fill="white" transform="translate(4.5 4.5)"/>
</clipPath>
</defs>
</svg>
