<svg width="24" height="24" viewBox="0 0 24 24" fill="none" xmlns="http://www.w3.org/2000/svg">
<path fill-rule="evenodd" clip-rule="evenodd" d="M5.07856 5.3928C5.20182 5.15179 5.45062 5 5.72242 5H18.2776C18.5432 5 18.7874 5.14501 18.9134 5.3776C19.0395 5.61019 19.0271 5.89285 18.8812 6.11365L14.3665 12.9451V19.2812C14.3665 19.5303 14.2369 19.7617 14.0239 19.8927C13.8109 20.0236 13.545 20.0355 13.3211 19.9241L10.531 18.5362C10.2863 18.4144 10.1317 18.1655 10.1317 17.8933V12.9639L5.13844 6.14188C4.97844 5.92328 4.9553 5.63382 5.07856 5.3928ZM7.14218 6.43753L11.4381 12.3068C11.528 12.4297 11.5765 12.5779 11.5765 12.7299V17.4491L12.9217 18.1182V12.7299C12.9217 12.5896 12.963 12.4523 13.0405 12.3351L16.938 6.43753H7.14218Z" fill="black"/>
</svg>
