<svg width="24" height="24" viewBox="0 0 24 24" fill="none" xmlns="http://www.w3.org/2000/svg">
<path fill-rule="evenodd" clip-rule="evenodd" d="M4.72242 5C4.45062 5 4.20182 5.15179 4.07856 5.3928C3.9553 5.63382 3.97844 5.92328 4.13844 6.14188L9.13167 12.9639V17.8933C9.13167 18.1655 9.28627 18.4144 9.53102 18.5362L12.3211 19.9241C12.545 20.0355 12.8109 20.0236 13.0239 19.8927C13.2369 19.7617 13.3665 19.5303 13.3665 19.2812V13.9692L14.6824 15.8569V18.736C14.6824 18.9883 14.8189 19.2253 15.0448 19.3433L16.6391 20.1761C16.8472 20.2847 17.0952 20.2728 17.2921 20.1456C17.4878 20.0193 17.6023 19.7998 17.6023 19.5687V15.8392L20.1437 11.8014C20.2744 11.5937 20.2852 11.3298 20.1727 11.1119C20.0596 10.8929 19.8365 10.75 19.5872 10.75H14.8172L17.8812 6.11365C18.0271 5.89285 18.0395 5.61019 17.9134 5.3776C17.7874 5.14501 17.5432 5 17.2776 5H4.72242ZM13.8128 12.2699L13.9168 12.1125H18.369L16.383 15.2679C16.3133 15.3786 16.2767 15.5073 16.2767 15.638V18.4583L16.008 18.318V15.638C16.008 15.4964 15.9651 15.3575 15.884 15.2411L13.8128 12.2699ZM13.088 10.75L15.938 6.43753H6.14218L10.4381 12.3068C10.528 12.4297 10.5765 12.5779 10.5765 12.7299V17.4491L11.9217 18.1182V12.7299C11.9217 12.5896 11.963 12.4523 12.0405 12.3351L12.1315 12.1974L11.874 11.8281C11.7304 11.622 11.7103 11.3517 11.8201 11.1262C11.9305 10.8995 12.1576 10.75 12.4128 10.75H13.088Z" fill="black"/>
</svg>
