<svg width="24" height="24" viewBox="0 0 24 24" fill="none" xmlns="http://www.w3.org/2000/svg">
<path fill-rule="evenodd" clip-rule="evenodd" d="M8.5 14.4286C7.66606 14.4286 7.00875 14.5079 6.5 14.6161C6.49616 14.6169 6.49233 14.6177 6.48851 14.6185C6.49606 14.6612 6.5 14.7052 6.5 14.75V18.25C6.5 18.6642 6.16421 19 5.75 19C5.33579 19 5 18.6642 5 18.25V6.00873C5 5.86679 5.06126 5.7322 5.18326 5.65965C5.55664 5.4376 6.541 5 8.5 5C9.8125 5 10.9062 5.39286 12 5.78571C13.0938 6.17857 14.1875 6.57143 15.5 6.57143C16.6328 6.57143 17.4397 6.4251 17.991 6.25874C18.4052 6.13377 19 6.47408 19 6.90669V14.7682C19 15.0521 18.8759 15.3211 18.6207 15.4456C18.1456 15.6774 17.1821 16 15.5 16C14.1875 16 13.0938 15.6071 12 15.2143C10.9062 14.8214 9.8125 14.4286 8.5 14.4286ZM8.5 12.9286C7.72057 12.9286 7.05865 12.9908 6.5 13.0885V6.73182C6.90444 6.61636 7.54801 6.5 8.5 6.5C9.5161 6.5 10.3776 6.79681 11.4929 7.19741L11.5603 7.22163C12.6205 7.60269 13.9246 8.07143 15.5 8.07143C16.2792 8.07143 16.9411 8.00926 17.5 7.91148V14.2682C17.0969 14.3832 16.4533 14.5 15.5 14.5C14.4839 14.5 13.6224 14.2032 12.5071 13.8026L12.4397 13.7784C11.3795 13.3973 10.0754 12.9286 8.5 12.9286Z" fill="black"/>
</svg>
