<svg width="24" height="24" viewBox="0 0 24 24" fill="none" xmlns="http://www.w3.org/2000/svg">
<path d="M12.3312 6.44444H19.2C19.4122 6.44444 19.6157 6.52054 19.7657 6.65598C19.9157 6.79142 20 6.97512 20 7.16667V17.2778C20 17.4693 19.9157 17.653 19.7657 17.7885C19.6157 17.9239 19.4122 18 19.2 18H4.8C4.58783 18 4.38434 17.9239 4.23431 17.7885C4.08429 17.653 4 17.4693 4 17.2778V5.72222C4 5.53068 4.08429 5.34698 4.23431 5.21153C4.38434 5.07609 4.58783 5 4.8 5H10.7312L12.3312 6.44444ZM5.6 7.88889V16.5556H18.4V7.88889H5.6Z" fill="black"/>
</svg>
