<svg width="24" height="24" viewBox="0 0 24 24" fill="none" xmlns="http://www.w3.org/2000/svg">
<path d="M8.4 15.2C8.71826 15.2 9.02348 15.0736 9.24853 14.8485C9.47357 14.6235 9.6 14.3183 9.6 14C9.60391 13.9601 9.60391 13.9199 9.6 13.88L11.832 11.648H12.016H12.2L13.488 12.936C13.488 12.936 13.488 12.976 13.488 13C13.488 13.3183 13.6144 13.6235 13.8395 13.8485C14.0645 14.0736 14.3697 14.2 14.688 14.2C15.0063 14.2 15.3115 14.0736 15.5365 13.8485C15.7616 13.6235 15.888 13.3183 15.888 13V12.936L18.8 10C19.0373 10 19.2693 9.92962 19.4667 9.79776C19.664 9.66591 19.8178 9.47849 19.9087 9.25922C19.9995 9.03995 20.0232 8.79867 19.9769 8.56589C19.9306 8.33311 19.8164 8.11929 19.6485 7.95147C19.4807 7.78365 19.2669 7.66936 19.0341 7.62306C18.8013 7.57676 18.5601 7.60052 18.3408 7.69134C18.1215 7.78217 17.9341 7.93598 17.8022 8.13332C17.6704 8.33065 17.6 8.56266 17.6 8.8C17.5961 8.8399 17.5961 8.8801 17.6 8.92L14.712 11.808H14.584L13.2 10.4C13.2 10.0817 13.0736 9.77652 12.8485 9.55147C12.6235 9.32643 12.3183 9.2 12 9.2C11.6817 9.2 11.3765 9.32643 11.1515 9.55147C10.9264 9.77652 10.8 10.0817 10.8 10.4L8.4 12.8C8.08174 12.8 7.77652 12.9264 7.55147 13.1515C7.32643 13.3765 7.2 13.6817 7.2 14C7.2 14.3183 7.32643 14.6235 7.55147 14.8485C7.77652 15.0736 8.08174 15.2 8.4 15.2ZM19.2 18.4H5.6V4.8C5.6 4.58783 5.51571 4.38434 5.36569 4.23431C5.21566 4.08429 5.01217 4 4.8 4C4.58783 4 4.38434 4.08429 4.23431 4.23431C4.08429 4.38434 4 4.58783 4 4.8V19.2C4 19.4122 4.08429 19.6157 4.23431 19.7657C4.38434 19.9157 4.58783 20 4.8 20H19.2C19.4122 20 19.6157 19.9157 19.7657 19.7657C19.9157 19.6157 20 19.4122 20 19.2C20 18.9878 19.9157 18.7843 19.7657 18.6343C19.6157 18.4843 19.4122 18.4 19.2 18.4Z" fill="black"/>
</svg>
