<svg width="24" height="24" viewBox="0 0 24 24" fill="none" xmlns="http://www.w3.org/2000/svg">
<path fill-rule="evenodd" clip-rule="evenodd" d="M9.34275 12.8742H9.99183V12.0527C11.4726 11.9513 12.2839 10.9878 12.2839 9.95335C12.2839 8.49674 11.1187 8.19578 10.0859 7.929L9.99183 7.90467V5.98783C10.3874 6.10953 10.6308 6.41379 10.6713 6.80933H12.2028C12.1115 5.60243 11.2596 4.92292 9.99183 4.8215V4H9.34275V4.8215C8.02429 4.92292 7.07094 5.70385 7.07094 6.90061C7.07094 8.38631 8.27321 8.68961 9.31072 8.95135L9.34275 8.95943V10.8966C8.87621 10.7951 8.63281 10.4807 8.59224 10.0142H7.07094C7.10137 11.2312 8.03443 11.931 9.34275 12.0426V12.8742ZM10.8133 10.0142C10.8133 10.4706 10.5091 10.8256 9.99183 10.9168V9.14199C10.4685 9.30426 10.8133 9.53753 10.8133 10.0142ZM8.55167 6.82962C8.55167 6.31237 8.87621 6.0284 9.34275 5.9574V7.71197C8.87621 7.5497 8.55167 7.30629 8.55167 6.82962ZM13.4097 13.2495C13.4097 14.3144 14.0993 14.9027 15.0222 14.9027C15.9452 14.9027 16.6348 14.3144 16.6348 13.2495C16.6348 12.1948 15.9452 11.6065 15.0222 11.6065C14.0993 11.6065 13.4097 12.1948 13.4097 13.2495ZM15.0121 12.4585C15.3671 12.4585 15.5902 12.6917 15.5902 13.2495C15.5902 13.8073 15.3671 14.0507 15.0121 14.0507C14.6673 14.0507 14.4543 13.8073 14.4543 13.2495C14.4543 12.6917 14.6673 12.4585 15.0121 12.4585ZM14.5557 18.8276H15.935L19.9208 11.7282H18.5314L14.5557 18.8276ZM17.862 17.2962C17.862 18.3712 18.5517 18.9493 19.4746 18.9493C20.3874 18.9493 21.0669 18.3712 21.0669 17.2962C21.0669 16.2313 20.3874 15.6532 19.4746 15.6532C18.5517 15.6532 17.862 16.2313 17.862 17.2962ZM19.4644 16.5051C19.8093 16.5051 20.0324 16.7384 20.0324 17.2962C20.0324 17.8641 19.8093 18.0974 19.4644 18.0974C19.1095 18.0974 18.8863 17.8641 18.8863 17.2962C18.8863 16.7384 19.1095 16.5051 19.4644 16.5051ZM4.44422 19H2.98377V12.9148H2V11.6065H4.44422V19Z" fill="#0C142B"/>
</svg>
