<svg width="24" height="24" viewBox="0 0 24 24" fill="none" xmlns="http://www.w3.org/2000/svg">
<path fill-rule="evenodd" clip-rule="evenodd" d="M4.95783 4.95783C5.41104 4.50461 6.02573 4.25 6.66667 4.25H9.16667C9.58088 4.25 9.91667 4.58579 9.91667 5C9.91667 5.41421 9.58088 5.75 9.16667 5.75H6.66667C6.42355 5.75 6.19039 5.84658 6.01849 6.01849C5.84658 6.19039 5.75 6.42355 5.75 6.66667V9.16667C5.75 9.58088 5.41421 9.91667 5 9.91667C4.58579 9.91667 4.25 9.58088 4.25 9.16667V6.66667C4.25 6.02573 4.50461 5.41104 4.95783 4.95783ZM15.0833 5C15.0833 4.58579 15.4191 4.25 15.8333 4.25H18.3333C18.9743 4.25 19.589 4.50461 20.0422 4.95783C20.4954 5.41104 20.75 6.02573 20.75 6.66667V9.16667C20.75 9.58088 20.4142 9.91667 20 9.91667C19.5858 9.91667 19.25 9.58088 19.25 9.16667V6.66667C19.25 6.42355 19.1534 6.19039 18.9815 6.01849C18.8096 5.84658 18.5764 5.75 18.3333 5.75H15.8333C15.4191 5.75 15.0833 5.41421 15.0833 5ZM5 15.0833C5.41421 15.0833 5.75 15.4191 5.75 15.8333V18.3333C5.75 18.5764 5.84658 18.8096 6.01849 18.9815C6.19039 19.1534 6.42355 19.25 6.66667 19.25H9.16667C9.58088 19.25 9.91667 19.5858 9.91667 20C9.91667 20.4142 9.58088 20.75 9.16667 20.75H6.66667C6.02573 20.75 5.41104 20.4954 4.95783 20.0422C4.50461 19.589 4.25 18.9743 4.25 18.3333V15.8333C4.25 15.4191 4.58579 15.0833 5 15.0833ZM20 15.0833C20.4142 15.0833 20.75 15.4191 20.75 15.8333V18.3333C20.75 18.9743 20.4954 19.589 20.0422 20.0422C19.589 20.4954 18.9743 20.75 18.3333 20.75H15.8333C15.4191 20.75 15.0833 20.4142 15.0833 20C15.0833 19.5858 15.4191 19.25 15.8333 19.25H18.3333C18.5764 19.25 18.8096 19.1534 18.9815 18.9815C19.1534 18.8096 19.25 18.5764 19.25 18.3333V15.8333C19.25 15.4191 19.5858 15.0833 20 15.0833Z" fill="black"/>
</svg>
