<svg width="24" height="27" viewBox="0 0 24 27" fill="none" xmlns="http://www.w3.org/2000/svg">
<path d="M7.42166 21.9176C7.21379 21.8957 7.10986 21.8957 6.77727 21.7532C6.2368 21.5341 5.86264 21.1396 5.56123 20.6246C5.36375 20.2849 5.19746 19.9124 5.05195 19.5398C4.89605 19.1234 5.09352 18.7071 5.46769 18.5646C5.84185 18.4222 6.20562 18.6303 6.38231 19.0248C6.51743 19.3426 6.67333 19.6494 6.86041 19.9343C6.96435 20.0987 7.15143 20.2301 7.31773 20.3288C7.66071 20.515 8.02448 20.4383 8.25314 20.1315C8.41943 19.9014 8.57533 19.6494 8.6377 19.3755C9.23012 16.8991 9.79137 14.4227 10.363 11.9353C10.3734 11.8915 10.3838 11.8367 10.3942 11.7819C10.3318 11.7819 10.2695 11.7819 10.2071 11.7819C9.57311 11.7819 8.92871 11.7819 8.29471 11.7819C7.93094 11.7819 7.65032 11.5408 7.57756 11.1792C7.50481 10.8505 7.66071 10.4999 7.96212 10.3574C8.08684 10.3026 8.22196 10.2807 8.35707 10.2807C9.09501 10.2698 9.83294 10.2807 10.5605 10.2807C10.6228 10.2807 10.6748 10.2807 10.7476 10.2807C10.8723 9.76571 10.997 9.26167 11.1217 8.75762C11.34 7.87006 11.579 7.00442 11.9636 6.18261C12.2338 5.61281 12.5664 5.09781 13.0861 4.74717C14.0735 4.08972 15.2895 4.37461 15.9339 5.40462C16.2249 5.87579 16.3912 6.40176 16.4432 6.94963C16.4952 7.4208 16.2353 7.77145 15.8196 7.82623C15.435 7.88102 15.1128 7.60708 15.0401 7.15782C14.9881 6.80718 14.9257 6.45654 14.6971 6.17165C14.4373 5.82101 14.0631 5.78813 13.7409 6.08399C13.4811 6.33601 13.3148 6.66474 13.1692 6.99346C12.7847 7.90294 12.5664 8.8672 12.3274 9.8205C12.2962 9.96295 12.2546 10.1054 12.2234 10.2698C12.2962 10.2698 12.3482 10.2698 12.4105 10.2698C12.9198 10.2698 13.4291 10.2698 13.9384 10.2698C14.2502 10.2698 14.4788 10.4232 14.6035 10.73C14.7179 11.0258 14.6659 11.2998 14.4684 11.5299C14.3229 11.7162 14.1151 11.7819 13.8968 11.7819C13.2732 11.7819 12.6496 11.7819 12.026 11.7819C11.9012 11.7819 11.8493 11.8257 11.8285 11.9572C11.2361 14.5542 10.6436 17.162 10.02 19.759C9.80176 20.6684 9.31327 21.3916 8.46101 21.7752C8.29471 21.8409 8.11802 21.8957 7.94133 21.9176C7.70228 21.9395 7.60874 21.9286 7.42166 21.9176Z" fill="black"/>
<path d="M15.3103 16.7345C14.8633 16.1866 14.406 15.6607 13.9799 15.1018C13.8344 14.9265 13.7201 14.7073 13.6785 14.4992C13.6057 14.1704 13.7304 13.8746 14.0111 13.6993C14.3021 13.513 14.6139 13.5239 14.8945 13.7321C15.04 13.8307 15.1647 13.9842 15.2687 14.1266C15.5805 14.5539 15.8819 14.9813 16.1833 15.4086C16.2145 15.4525 16.2457 15.4963 16.2976 15.5511C16.5783 15.1676 16.8381 14.7841 17.1187 14.4225C17.2954 14.1923 17.4721 13.9403 17.6904 13.754C18.1373 13.3705 18.8336 13.6554 18.9064 14.2471C18.948 14.543 18.8232 14.7841 18.6466 14.9922C18.2516 15.4744 17.867 15.9565 17.4721 16.4386C17.3993 16.5263 17.3266 16.6249 17.2434 16.7126C17.628 17.1838 18.0126 17.644 18.3867 18.1042C18.5322 18.2795 18.6881 18.4548 18.8129 18.6411C19.1558 19.1451 18.9688 19.8136 18.4387 19.956C18.0957 20.0437 17.7839 19.956 17.5552 19.6711C17.1811 19.189 16.8277 18.6849 16.4535 18.1918C16.3912 18.1042 16.3184 18.0165 16.2457 17.9069C16.2041 17.9508 16.1729 17.9836 16.1521 18.0275C15.8091 18.4987 15.4765 18.9698 15.1336 19.441C15.0296 19.5725 14.9257 19.704 14.801 19.8136C14.4892 20.0765 14.0423 20.0546 13.7616 19.7697C13.5018 19.4958 13.4706 19.0575 13.7201 18.7288C14.1046 18.2138 14.5204 17.7207 14.9153 17.2166C15.0608 17.0413 15.1855 16.8879 15.3103 16.7345Z" fill="black"/>
</svg>
