<svg width="24" height="24" viewBox="0 0 24 24" fill="none" xmlns="http://www.w3.org/2000/svg">
<path fill-rule="evenodd" clip-rule="evenodd" d="M4.78686 4.76793C4.88736 4.45907 5.17525 4.25 5.50005 4.25H18.5001C18.9143 4.25 19.2501 4.58579 19.2501 5C19.2501 5.41421 18.9143 5.75 18.5001 5.75H7.80496L15.2271 11.1522C15.4175 11.2908 15.5318 11.5107 15.5357 11.7462C15.5396 11.9816 15.4327 12.2052 15.247 12.35L7.68139 18.25H18.5001C18.9143 18.25 19.2501 18.5858 19.2501 19C19.2501 19.4142 18.9143 19.75 18.5001 19.75H5.50005C5.17982 19.75 4.89492 19.5467 4.7908 19.2439C4.68668 18.941 4.78632 18.6055 5.03884 18.4086L13.5397 11.7793L5.05869 5.60639C4.79609 5.41525 4.68636 5.07679 4.78686 4.76793Z" fill="black"/>
</svg>
