<svg width="24" height="24" viewBox="0 0 24 24" fill="none" xmlns="http://www.w3.org/2000/svg">
<path d="M8.28033 5.28033C8.57322 4.98744 8.57322 4.51256 8.28033 4.21967C7.98744 3.92678 7.51256 3.92678 7.21967 4.21967L4.21967 7.21967C4.07322 7.36612 4 7.55806 4 7.75C4 7.85169 4.02024 7.94866 4.05691 8.03709C4.09351 8.12555 4.14776 8.20842 4.21967 8.28033L7.21967 11.2803C7.51256 11.5732 7.98744 11.5732 8.28033 11.2803C8.57322 10.9874 8.57322 10.5126 8.28033 10.2197L6.56066 8.5H18.75C19.1642 8.5 19.5 8.16421 19.5 7.75C19.5 7.33579 19.1642 7 18.75 7H6.56066L8.28033 5.28033Z" fill="black"/>
<path d="M15.2197 19.2803C14.9268 18.9874 14.9268 18.5126 15.2197 18.2197L16.9393 16.5L4.75 16.5C4.33579 16.5 4 16.1642 4 15.75C4 15.3358 4.33579 15 4.75 15L16.9393 15L15.2197 13.2803C14.9268 12.9874 14.9268 12.5126 15.2197 12.2197C15.5126 11.9268 15.9874 11.9268 16.2803 12.2197L19.2803 15.2197C19.5732 15.5126 19.5732 15.9874 19.2803 16.2803L16.2803 19.2803C15.9874 19.5732 15.5126 19.5732 15.2197 19.2803Z" fill="black"/>
</svg>
