<svg width="16" height="16" viewBox="0 0 16 16" fill="none" xmlns="http://www.w3.org/2000/svg">
<path d="M2 4C2 2.89543 2.89543 2 4 2H12C13.1046 2 14 2.89543 14 4V12C14 13.1046 13.1046 14 12 14H4C2.89543 14 2 13.1046 2 12V4Z" fill="#4E59F6"/>
<path fill-rule="evenodd" clip-rule="evenodd" d="M11.9016 8.88588C11.938 8.7248 11.9647 8.56003 11.981 8.39222C11.9936 8.26318 12 8.13234 12 8C12 7.86766 11.9936 7.73682 11.981 7.60778C11.9647 7.43997 11.938 7.2752 11.9016 7.11412C11.8643 6.94945 11.8169 6.78864 11.7601 6.63238C11.2753 6.74154 10.9363 7.19723 10.9857 7.70464C10.9951 7.80154 11 7.90006 11 8C11 8.09994 10.9951 8.19846 10.9857 8.29536C10.9363 8.80277 11.2753 9.25846 11.7601 9.36762C11.8169 9.21136 11.8643 9.05055 11.9016 8.88588ZM11.6257 9.69171C11.2055 9.42593 10.6433 9.5087 10.3195 9.90278C10.1945 10.0549 10.0549 10.1945 9.90279 10.3195C9.5087 10.6433 9.42593 11.2055 9.69172 11.6257C9.84403 11.5545 9.99113 11.474 10.1323 11.3849C10.2736 11.2957 10.409 11.1979 10.5376 11.0922C10.74 10.9258 10.9258 10.74 11.0922 10.5376C11.1979 10.409 11.2957 10.2736 11.3849 10.1323C11.474 9.99112 11.5545 9.84403 11.6257 9.69171ZM9.36762 11.7601C9.25846 11.2753 8.80277 10.9363 8.29536 10.9857C8.19846 10.9951 8.09994 11 8 11C7.90006 11 7.80154 10.9951 7.70464 10.9857C7.19723 10.9363 6.74154 11.2753 6.63238 11.7601C6.78864 11.8169 6.94945 11.8643 7.11412 11.9016C7.2752 11.938 7.43997 11.9647 7.60778 11.981C7.73682 11.9936 7.86766 12 8 12C8.13234 12 8.26318 11.9936 8.39222 11.981C8.56003 11.9647 8.7248 11.938 8.88588 11.9016C9.05055 11.8643 9.21136 11.8169 9.36762 11.7601ZM6.30829 11.6257C6.57407 11.2055 6.4913 10.6433 6.09722 10.3195C5.94511 10.1945 5.80547 10.0549 5.68049 9.90279C5.35671 9.5087 4.79451 9.42593 4.3743 9.69172C4.44549 9.84403 4.526 9.99113 4.61509 10.1323C4.70431 10.2736 4.80214 10.409 4.90784 10.5376C5.07416 10.74 5.25996 10.9258 5.46239 11.0922C5.59104 11.1979 5.7264 11.2957 5.86774 11.3849C6.00888 11.474 6.15597 11.5545 6.30829 11.6257ZM4.2399 9.36762C4.72471 9.25846 5.06367 8.80277 5.01428 8.29536C5.00485 8.19846 5 8.09994 5 8C5 7.90006 5.00485 7.80154 5.01428 7.70464C5.06367 7.19723 4.72471 6.74154 4.2399 6.63238C4.18305 6.78864 4.13567 6.94945 4.09844 7.11412C4.06202 7.2752 4.03532 7.43997 4.01899 7.60778C4.00643 7.73682 4 7.86766 4 8C4 8.13234 4.00643 8.26318 4.01899 8.39222C4.03532 8.56003 4.06202 8.7248 4.09844 8.88588C4.13567 9.05055 4.18305 9.21136 4.2399 9.36762ZM4.3743 6.30829C4.79451 6.57407 5.35671 6.4913 5.68049 6.09722C5.80547 5.94511 5.94511 5.80547 6.09721 5.68049C6.4913 5.35671 6.57407 4.79451 6.30828 4.3743C6.15597 4.44549 6.00887 4.526 5.86774 4.61509C5.7264 4.70431 5.59104 4.80214 5.46239 4.90784C5.25996 5.07416 5.07416 5.25996 4.90784 5.46239C4.80214 5.59104 4.70431 5.7264 4.61509 5.86774C4.526 6.00888 4.44549 6.15597 4.3743 6.30829ZM6.63238 4.2399C6.74154 4.72471 7.19723 5.06367 7.70464 5.01428C7.80154 5.00485 7.90006 5 8 5C8.09994 5 8.19846 5.00485 8.29536 5.01428C8.80277 5.06367 9.25846 4.72471 9.36762 4.2399C9.21136 4.18305 9.05055 4.13567 8.88588 4.09844C8.7248 4.06202 8.56003 4.03532 8.39222 4.01899C8.26318 4.00643 8.13234 4 8 4C7.86766 4 7.73682 4.00643 7.60778 4.01899C7.43997 4.03532 7.2752 4.06202 7.11412 4.09844C6.94945 4.13567 6.78864 4.18305 6.63238 4.2399ZM9.69171 4.3743C9.42593 4.79451 9.5087 5.35671 9.90278 5.68049C10.0549 5.80547 10.1945 5.94511 10.3195 6.09721C10.6433 6.4913 11.2055 6.57407 11.6257 6.30828C11.5545 6.15597 11.474 6.00887 11.3849 5.86774C11.2957 5.7264 11.1979 5.59104 11.0922 5.46239C10.9258 5.25996 10.74 5.07416 10.5376 4.90784C10.409 4.80214 10.2736 4.70431 10.1323 4.61509C9.99112 4.526 9.84403 4.44549 9.69171 4.3743Z" fill="#D0D3F9"/>
<path d="M9.648 7.79706C9.80444 7.88739 9.80444 8.1132 9.648 8.20352L7.352 9.52911C7.19556 9.61944 7 9.50653 7 9.32589V6.6747C7 6.49405 7.19556 6.38115 7.352 6.47147L9.648 7.79706Z" fill="white"/>
</svg>
