<svg width="16" height="16" viewBox="0 0 16 16" fill="none" xmlns="http://www.w3.org/2000/svg">
<path d="M4.59115 12.1563C4.54253 12.2109 4.48177 12.2018 4.40885 12.1289C4.32986 12.0621 4.31771 12.0043 4.3724 11.9557C4.42101 11.901 4.48177 11.9102 4.55469 11.9831C4.6276 12.0499 4.63976 12.1076 4.59115 12.1563ZM4.20833 11.6003C4.26302 11.6732 4.26302 11.7309 4.20833 11.7734C4.15972 11.8099 4.10807 11.7886 4.05339 11.7096C3.9987 11.6306 3.9987 11.576 4.05339 11.5456C4.10807 11.503 4.15972 11.5213 4.20833 11.6003ZM3.65234 11.0534C3.62196 11.0959 3.58247 11.102 3.53385 11.0716C3.47309 11.0412 3.45182 11.0048 3.47005 10.9622C3.48828 10.9319 3.52778 10.9258 3.58854 10.944C3.64931 10.9744 3.67057 11.0109 3.65234 11.0534ZM3.9349 11.3633C3.89844 11.4058 3.84983 11.3967 3.78906 11.3359C3.73437 11.2691 3.7283 11.2205 3.77083 11.1901C3.80729 11.1536 3.8559 11.1628 3.91667 11.2174C3.97135 11.2843 3.97743 11.3329 3.9349 11.3633ZM5.11068 12.3841C5.08637 12.457 5.02865 12.4753 4.9375 12.4388C4.8342 12.4145 4.7947 12.3689 4.81901 12.3021C4.84332 12.2352 4.90104 12.214 4.99219 12.2383C5.08941 12.2687 5.12891 12.3173 5.11068 12.3841ZM5.6849 12.4297C5.6849 12.4965 5.63628 12.5299 5.53906 12.5299C5.43576 12.5421 5.38411 12.5087 5.38411 12.4297C5.38411 12.3628 5.43273 12.3294 5.52995 12.3294C5.63325 12.3173 5.6849 12.3507 5.6849 12.4297ZM6.21354 12.3385C6.22569 12.3993 6.18316 12.4418 6.08594 12.4661C5.98871 12.4905 5.93403 12.4661 5.92187 12.3932C5.90972 12.3203 5.95226 12.2747 6.04948 12.2565C6.1467 12.2444 6.20139 12.2717 6.21354 12.3385ZM15 3.625V12.375C15 13.0981 14.7433 13.7164 14.2298 14.2298C13.7164 14.7433 13.0981 15 12.375 15H10.3333C10.2361 15 10.1617 14.997 10.11 14.9909C10.0584 14.9848 9.99913 14.9696 9.93229 14.9453C9.86545 14.921 9.81684 14.877 9.78646 14.8132C9.75608 14.7494 9.74088 14.6658 9.74088 14.5625V12.3841C9.74088 11.7947 9.5829 11.3633 9.26693 11.0898C9.61328 11.0534 9.9247 10.9987 10.2012 10.9258C10.4776 10.8529 10.7632 10.7344 11.0579 10.5703C11.3526 10.4062 11.5987 10.2042 11.7962 9.96419C11.9937 9.72418 12.1547 9.40517 12.2793 9.00716C12.4039 8.60916 12.4661 8.15191 12.4661 7.63542C12.4661 6.90017 12.2261 6.27431 11.7461 5.75781C11.9709 5.20486 11.9466 4.58507 11.6732 3.89844C11.503 3.84375 11.2569 3.87717 10.9349 3.9987C10.6128 4.12023 10.3333 4.25391 10.0964 4.39974L9.75 4.61849C9.1849 4.4605 8.60156 4.38151 8 4.38151C7.39844 4.38151 6.8151 4.4605 6.25 4.61849C6.15278 4.55165 6.02365 4.46962 5.86263 4.3724C5.70161 4.27517 5.44792 4.1582 5.10156 4.02148C4.75521 3.88477 4.49392 3.84375 4.31771 3.89844C4.05035 4.58507 4.02908 5.20486 4.25391 5.75781C3.77387 6.27431 3.53385 6.90017 3.53385 7.63542C3.53385 8.15191 3.59614 8.60764 3.7207 9.0026C3.84527 9.39757 4.00477 9.71658 4.19922 9.95964C4.39366 10.2027 4.63824 10.4062 4.93294 10.5703C5.22765 10.7344 5.51324 10.8529 5.78971 10.9258C6.06619 10.9987 6.3776 11.0534 6.72396 11.0898C6.4809 11.3086 6.33203 11.6215 6.27734 12.0286C6.14974 12.0894 6.01302 12.135 5.86719 12.1654C5.72135 12.1957 5.54818 12.2109 5.34766 12.2109C5.14714 12.2109 4.94813 12.1456 4.75065 12.015C4.55317 11.8843 4.38455 11.6944 4.24479 11.4453C4.12934 11.2509 3.98199 11.0929 3.80273 10.9714C3.62348 10.8498 3.47309 10.7769 3.35156 10.7526L3.16927 10.7253C3.04167 10.7253 2.95356 10.7389 2.90495 10.7663C2.85634 10.7936 2.84115 10.8286 2.85938 10.8711C2.8776 10.9136 2.90495 10.9562 2.94141 10.9987C2.97786 11.0412 3.01736 11.0777 3.0599 11.1081L3.1237 11.1536C3.25738 11.2144 3.38954 11.3299 3.52018 11.5C3.65082 11.6701 3.74653 11.8251 3.80729 11.9648L3.89844 12.1745C3.97743 12.4054 4.11111 12.5922 4.29948 12.735C4.48785 12.8778 4.69141 12.969 4.91016 13.0085C5.12891 13.048 5.34006 13.0692 5.54362 13.0723C5.74718 13.0753 5.9158 13.0647 6.04948 13.0404L6.25911 13.0039C6.25911 13.2348 6.26063 13.5477 6.26367 13.9427C6.26671 14.3377 6.26823 14.5443 6.26823 14.5625C6.26823 14.6962 6.23481 14.798 6.16797 14.8678C6.10113 14.9377 6.03429 14.9772 5.96745 14.9863C5.90061 14.9954 5.80035 15 5.66667 15H3.625C2.90191 15 2.28364 14.7433 1.77018 14.2298C1.25673 13.7164 1 13.0981 1 12.375V3.625C1 2.90191 1.25673 2.28364 1.77018 1.77018C2.28364 1.25673 2.90191 1 3.625 1H12.375C13.0981 1 13.7164 1.25673 14.2298 1.77018C14.7433 2.28364 15 2.90191 15 3.625Z" fill="black"/>
</svg>
