<svg width="24" height="24" viewBox="0 0 24 24" fill="none" xmlns="http://www.w3.org/2000/svg">
<path d="M7.54593 13.669L6.989 15.7481L4.95341 15.7912C4.34506 14.6628 4 13.3719 4 12C4 10.6734 4.32262 9.4224 4.8945 8.32087H4.89494L6.70719 8.65312L7.50106 10.4545C7.3349 10.9389 7.24434 11.4589 7.24434 12C7.2444 12.5872 7.35078 13.1499 7.54593 13.669Z" fill="#FBBB00"/>
<path d="M19.8604 10.5054C19.9522 10.9893 20.0001 11.4891 20.0001 11.9999C20.0001 12.5726 19.9399 13.1313 19.8252 13.6702C19.4358 15.5041 18.4182 17.1054 17.0085 18.2386L17.0081 18.2381L14.7255 18.1216L14.4024 16.1049C15.3378 15.5564 16.0688 14.6979 16.4538 13.6702H12.176V10.5054H16.5162H19.8604Z" fill="#518EF8"/>
<path d="M17.0081 18.2382L17.0085 18.2386C15.6376 19.3406 13.896 19.9999 12.0002 19.9999C8.95361 19.9999 6.30483 18.2971 4.95361 15.7911L7.54614 13.6689C8.22174 15.472 9.96108 16.7555 12.0002 16.7555C12.8767 16.7555 13.6978 16.5186 14.4024 16.105L17.0081 18.2382Z" fill="#28B446"/>
<path d="M17.1113 5.84175L14.5196 7.9635C13.7904 7.50768 12.9284 7.24437 12.0049 7.24437C9.91963 7.24437 8.14776 8.58678 7.50601 10.4545L4.89985 8.32087H4.89941C6.23085 5.75384 8.91304 4 12.0049 4C13.946 4 15.7258 4.69144 17.1113 5.84175Z" fill="#F14336"/>
</svg>
