<svg width="24" height="24" viewBox="0 0 24 24" fill="none" xmlns="http://www.w3.org/2000/svg">
<path d="M9.22735 5C10.7504 5 12.2321 5.46813 13.4595 6.32585L12.2989 7.62343C11.399 7.02334 10.3275 6.69973 9.22735 6.69973C6.2194 6.69973 3.77424 9.0781 3.77424 12C3.77424 14.9282 6.2194 17.3034 9.22735 17.3034C11.7361 17.3034 13.4913 15.6719 14.0413 13.4789C14.1334 13.0889 13.829 12.6997 13.4213 12.6997H9.89825V11H16V11.8514C16 15.9044 13.2782 19 9.22735 19C5.24006 19 2 15.8613 2 12C2 8.14183 5.24006 5 9.22735 5Z" fill="black"/>
<path d="M18.75 14.25V12.5H17V11H18.75V9.25H20.25V11H22V12.5H20.25V14.25H18.75Z" fill="black"/>
</svg>
