<svg width="24" height="24" viewBox="0 0 24 24" fill="none" xmlns="http://www.w3.org/2000/svg">
<path fill-rule="evenodd" clip-rule="evenodd" d="M8.5 7.5C7.94772 7.5 7.5 7.94772 7.5 8.5V12.5C7.5 13.0523 7.94772 13.5 8.5 13.5H12.5C13.0523 13.5 13.5 13.0523 13.5 12.5V8.5C13.5 7.94772 13.0523 7.5 12.5 7.5H8.5ZM9 9V12H12V9H9Z" fill="black"/>
<path d="M10.5 15.5V14H12V15H15V12H14V10.5H15.5C16.0523 10.5 16.5 10.9477 16.5 11.5V15.5C16.5 16.0523 16.0523 16.5 15.5 16.5H11.5C10.9477 16.5 10.5 16.0523 10.5 15.5Z" fill="black"/>
<path fill-rule="evenodd" clip-rule="evenodd" d="M5 4C4.44772 4 4 4.44772 4 5V6C4 6.55228 4.44772 7 5 7L5 17C4.44772 17 4 17.4477 4 18V19C4 19.5523 4.44772 20 5 20H6C6.55228 20 7 19.5523 7 19H17C17 19.5523 17.4477 20 18 20H19C19.5523 20 20 19.5523 20 19V18C20 17.4477 19.5523 17 19 17V7C19.5523 7 20 6.55228 20 6V5C20 4.44772 19.5523 4 19 4H18C17.4477 4 17 4.44772 17 5L7 5C7 4.44772 6.55228 4 6 4H5ZM6.5 17.1338C6.65181 17.2216 6.7784 17.3482 6.86622 17.5H17.1338C17.2216 17.3482 17.3482 17.2216 17.5 17.1338V6.86622C17.3482 6.7784 17.2216 6.65181 17.1338 6.5H6.86622C6.7784 6.65181 6.65181 6.7784 6.5 6.86622V17.1338Z" fill="black"/>
</svg>
