<svg width="24" height="24" viewBox="0 0 24 24" fill="none" xmlns="http://www.w3.org/2000/svg">
<path d="M12.162 12.8308C13.9816 12.8308 15.4562 11.2995 15.4562 9.40995C15.4562 7.53122 13.9816 6 12.162 6C10.3423 6 8.86777 7.53122 8.86777 9.42081C8.86777 11.2995 10.3423 12.8308 12.162 12.8308ZM12.162 7.28145C13.3019 7.28145 14.2221 8.2371 14.2221 9.42081C14.2221 10.6045 13.3019 11.5602 12.162 11.5602C11.0221 11.5602 10.1018 10.6045 10.1018 9.42081C10.1018 8.2371 11.0221 7.28145 12.162 7.28145Z" fill="black"/>
<path d="M18.0079 14.2208C19.4197 14.2208 20.57 13.048 20.57 11.6145C20.57 10.1701 19.4197 8.99728 18.0079 8.99728C16.5961 8.99728 15.4457 10.1701 15.4457 11.6145C15.4562 13.048 16.5961 14.2208 18.0079 14.2208ZM18.0079 10.2462C18.7399 10.2462 19.336 10.8543 19.336 11.6036C19.336 12.3529 18.7399 12.9611 18.0079 12.9611C17.2758 12.9611 16.6797 12.3529 16.6797 11.6036C16.6797 10.8543 17.2758 10.2462 18.0079 10.2462Z" fill="black"/>
<path d="M21.9818 17.2941C21.5321 15.5674 19.7961 14.3511 17.7673 14.3511C17.234 14.3511 16.6902 14.4489 16.1673 14.6335L16.1045 14.6552C15.0692 13.7973 13.6993 13.2652 12.1724 13.2652C10.4783 13.2652 8.95143 13.9167 7.8952 14.9484C7.90565 14.9267 7.92657 14.905 7.94749 14.8833L8.15664 14.6878L7.8952 14.59C7.36185 14.4054 6.81805 14.3077 6.27424 14.3077C4.22452 14.3077 2.46761 15.5348 2.01793 17.2833C1.9761 17.4462 2.00747 17.6308 2.11205 17.7611C2.22708 17.9131 2.40487 18 2.59311 18C2.87547 18 3.13691 17.7937 3.24149 17.4896C3.55522 16.5339 4.61146 15.5566 6.27424 15.5566C6.54614 15.5566 6.81805 15.5891 7.13178 15.6652L7.23636 15.6869L7.2991 15.6C7.43505 15.4154 7.60238 15.2308 7.79062 15.0353C7.18407 15.6652 6.74484 16.4145 6.52523 17.2507C6.43111 17.6308 6.72393 17.9674 7.10041 17.9674C7.41414 17.9674 7.67558 17.7285 7.78016 17.4136C8.27168 15.8498 9.92401 14.5466 12.162 14.5466C14.3999 14.5466 16.0523 15.8498 16.5438 17.4136C16.6484 17.7285 16.9098 17.9674 17.2235 17.9674C17.6 17.9674 17.8928 17.6308 17.7987 17.2507C17.6523 16.6643 17.3804 16.1104 17.0144 15.6109C17.2758 15.5566 17.5268 15.524 17.7673 15.524C19.451 15.524 20.5177 16.5122 20.8419 17.4787C20.936 17.7719 21.1766 17.9566 21.4485 17.9566C21.6263 17.9566 21.7936 17.8697 21.8982 17.7285C21.9923 17.609 22.0237 17.4462 21.9818 17.2941Z" fill="black"/>
<path d="M6.31607 14.2208C7.72787 14.2208 8.87823 13.048 8.87823 11.6145C8.87823 10.1701 7.72787 8.99728 6.31607 8.99728C4.90427 8.99728 3.75392 10.1701 3.75392 11.6145C3.75392 13.048 4.90427 14.2208 6.31607 14.2208ZM6.31607 10.2462C7.04812 10.2462 7.64421 10.8543 7.64421 11.6036C7.64421 12.3529 7.04812 12.9611 6.31607 12.9611C5.58403 12.9611 4.97748 12.3529 4.97748 11.6036C4.97748 10.8543 5.57357 10.2462 6.31607 10.2462Z" fill="black"/>
</svg>
