<svg width="24" height="24" viewBox="0 0 24 24" fill="none" xmlns="http://www.w3.org/2000/svg">
<path fill-rule="evenodd" clip-rule="evenodd" d="M4.25 12C4.25 7.71969 7.71969 4.25 12 4.25C16.2803 4.25 19.75 7.71969 19.75 12C19.75 16.2803 16.2803 19.75 12 19.75C7.71969 19.75 4.25 16.2803 4.25 12ZM12 5.75C8.54811 5.75 5.75 8.54811 5.75 12C5.75 15.4519 8.54811 18.25 12 18.25C15.4519 18.25 18.25 15.4519 18.25 12C18.25 8.54811 15.4519 5.75 12 5.75Z" fill="black"/>
<path fill-rule="evenodd" clip-rule="evenodd" d="M11.4812 9.44242C11.3636 9.55254 11.25 9.74327 11.25 10.0793C11.25 10.4935 10.9142 10.8293 10.5 10.8293C10.0858 10.8293 9.75 10.4935 9.75 10.0793C9.75 9.36244 10.0114 8.76353 10.4563 8.34722C10.8902 7.94108 11.4544 7.75 12 7.75C12.5456 7.75 13.1098 7.94108 13.5437 8.34722C13.9886 8.76353 14.25 9.36244 14.25 10.0793C14.25 10.5813 14.1328 10.9805 13.9288 11.318C13.7609 11.5957 13.5418 11.811 13.3932 11.9569C13.3767 11.9731 13.3611 11.9884 13.3466 12.0028C13.1831 12.1651 13.0867 12.2735 13.0167 12.4099C12.9514 12.5373 12.8864 12.7362 12.8864 13.0875C12.8864 13.5017 12.5506 13.8375 12.1364 13.8375C11.7222 13.8375 11.3864 13.5017 11.3864 13.0875C11.3864 12.5363 11.4918 12.096 11.6822 11.7251C11.8679 11.3632 12.1123 11.1144 12.2898 10.9383C12.2988 10.9294 12.3076 10.9207 12.3161 10.9122C12.4931 10.7366 12.579 10.6513 12.6451 10.5421C12.6968 10.4565 12.75 10.3293 12.75 10.0793C12.75 9.74327 12.6364 9.55254 12.5188 9.44242C12.3902 9.32213 12.2044 9.25 12 9.25C11.7956 9.25 11.6098 9.32213 11.4812 9.44242ZM12.6189 14.9146C12.9385 15.1781 12.984 15.6508 12.7206 15.9704L12.7151 15.977C12.4516 16.2967 11.979 16.3422 11.6593 16.0787C11.3397 15.8153 11.2942 15.3426 11.5576 15.023L11.5631 15.0163C11.8265 14.6967 12.2992 14.6512 12.6189 14.9146Z" fill="black"/>
</svg>
