<svg width="24" height="24" viewBox="0 0 24 24" fill="none" xmlns="http://www.w3.org/2000/svg">
<path fill-rule="evenodd" clip-rule="evenodd" d="M21.2197 3.28033C21.5126 2.98744 21.5126 2.51256 21.2197 2.21967C20.9268 1.92678 20.4519 1.92678 20.159 2.21967L18.4227 3.95598C18.357 3.94505 18.2902 3.93945 18.2228 3.93945H13.7117C13.389 3.93945 13.0795 4.06764 12.8514 4.29581C12.6232 4.52398 12.495 4.83344 12.495 5.15612V9.66723C12.495 9.73465 12.5006 9.8015 12.5115 9.86714L9.86714 12.5115C9.8015 12.5006 9.73465 12.495 9.66723 12.495H5.15612C4.83344 12.495 4.52398 12.6232 4.29581 12.8514C4.06764 13.0795 3.93945 13.389 3.93945 13.7117V18.2228C3.93945 18.2902 3.94505 18.3571 3.95598 18.4227L2.21967 20.159C1.92678 20.4519 1.92678 20.9268 2.21967 21.2197C2.51256 21.5126 2.98744 21.5126 3.28033 21.2197L5.06403 19.436C5.09457 19.4383 5.12528 19.4395 5.15612 19.4395H9.66723C9.98991 19.4395 10.2994 19.3113 10.5275 19.0831C10.7557 18.8549 10.8839 18.5455 10.8839 18.2228V13.7117C10.8839 13.6808 10.8827 13.6501 10.8804 13.6196L13.6196 10.8804C13.6501 10.8827 13.6808 10.8839 13.7117 10.8839H18.2228C18.5455 10.8839 18.8549 10.7557 19.0831 10.5275C19.3113 10.2994 19.4395 9.98991 19.4395 9.66723V5.15612C19.4395 5.12528 19.4383 5.09457 19.436 5.06403L21.2197 3.28033ZM16.9392 5.43945H13.995V8.38367L16.9392 5.43945ZM15.1161 9.3839L17.9395 6.56055V9.3839H15.1161ZM8.38367 13.995H5.43945V16.9392L8.38367 13.995ZM6.56055 17.9395L9.3839 15.1161V17.9395H6.56055Z" fill="black"/>
<path fill-rule="evenodd" clip-rule="evenodd" d="M5.15612 3.93945C4.83344 3.93945 4.52398 4.06764 4.29581 4.29581C4.06764 4.52398 3.93945 4.83344 3.93945 5.15612V9.66723C3.93945 9.98991 4.06764 10.2994 4.29581 10.5275C4.52398 10.7557 4.83344 10.8839 5.15612 10.8839H9.66723C9.98991 10.8839 10.2994 10.7557 10.5275 10.5275C10.7557 10.2994 10.8839 9.98991 10.8839 9.66723V5.15612C10.8839 4.83344 10.7557 4.52398 10.5275 4.29581C10.2994 4.06764 9.98991 3.93945 9.66723 3.93945H5.15612ZM5.43945 9.3839V5.43945H9.3839V9.3839H5.43945Z" fill="black"/>
<path fill-rule="evenodd" clip-rule="evenodd" d="M13.7117 12.495C13.389 12.495 13.0795 12.6232 12.8514 12.8514C12.6232 13.0795 12.495 13.389 12.495 13.7117V18.2228C12.495 18.5455 12.6232 18.8549 12.8514 19.0831C13.0795 19.3113 13.389 19.4395 13.7117 19.4395H18.2228C18.5455 19.4395 18.8549 19.3113 19.0831 19.0831C19.3113 18.8549 19.4395 18.5455 19.4395 18.2228V13.7117C19.4395 13.389 19.3113 13.0795 19.0831 12.8514C18.8549 12.6232 18.5455 12.495 18.2228 12.495H13.7117ZM13.995 17.9395V13.995H17.9395V17.9395H13.995Z" fill="black"/>
</svg>
