<svg width="24" height="24" viewBox="0 0 24 24" fill="none" xmlns="http://www.w3.org/2000/svg">
<path d="M17.9999 8.99988L13.4999 5.05488C13.0874 4.68592 12.5534 4.48193 11.9999 4.48193C11.4465 4.48193 10.9125 4.68592 10.4999 5.05488L5.99995 8.99988C5.76173 9.21294 5.57162 9.4743 5.4423 9.76657C5.31298 10.0588 5.24741 10.3753 5.24995 10.6949V17.2499C5.24995 17.8466 5.487 18.4189 5.90896 18.8409C6.33092 19.2628 6.90321 19.4999 7.49995 19.4999H16.4999C17.0967 19.4999 17.669 19.2628 18.0909 18.8409C18.5129 18.4189 18.7499 17.8466 18.7499 17.2499V10.6874C18.7514 10.3691 18.6853 10.054 18.556 9.76314C18.4268 9.47225 18.2372 9.2121 17.9999 8.99988ZM13.4999 17.9999H10.4999V14.2499C10.4999 14.051 10.579 13.8602 10.7196 13.7196C10.8603 13.5789 11.051 13.4999 11.2499 13.4999H12.7499C12.9489 13.4999 13.1396 13.5789 13.2803 13.7196C13.4209 13.8602 13.4999 14.051 13.4999 14.2499V17.9999ZM17.2499 17.2499C17.2499 17.4488 17.1709 17.6396 17.0303 17.7802C16.8896 17.9209 16.6989 17.9999 16.4999 17.9999H14.9999V14.2499C14.9999 13.6531 14.7629 13.0808 14.3409 12.6589C13.919 12.2369 13.3467 11.9999 12.7499 11.9999H11.2499C10.6532 11.9999 10.0809 12.2369 9.65896 12.6589C9.237 13.0808 8.99995 13.6531 8.99995 14.2499V17.9999H7.49995C7.30104 17.9999 7.11027 17.9209 6.96962 17.7802C6.82897 17.6396 6.74995 17.4488 6.74995 17.2499V10.6874C6.75008 10.5809 6.77289 10.4757 6.81686 10.3787C6.86083 10.2817 6.92495 10.1952 7.00495 10.1249L11.5049 6.18738C11.6418 6.06714 11.8178 6.00083 11.9999 6.00083C12.1821 6.00083 12.3581 6.06714 12.4949 6.18738L16.9949 10.1249C17.075 10.1952 17.1391 10.2817 17.183 10.3787C17.227 10.4757 17.2498 10.5809 17.2499 10.6874V17.2499Z" fill="black"/>
</svg>
