<svg width="16" height="16" viewBox="0 0 16 16" fill="none" xmlns="http://www.w3.org/2000/svg">
<path d="M11.4251 11.017C10.255 11.017 9.30587 10.06 9.30587 8.8795C9.30587 7.699 10.2545 6.7415 11.4251 6.7415C12.5958 6.7415 13.5439 7.6985 13.5439 8.8795C13.5439 10.0605 12.5953 11.017 11.4251 11.017ZM11.8063 5.2405V3.5425C12.3881 3.38 12.8158 2.843 12.8158 2.204C12.8158 1.436 12.1988 0.814 11.438 0.814C10.6772 0.814 10.0602 1.4365 10.0602 2.204C10.0602 2.7945 10.4255 3.2975 10.9399 3.499V5.2405C10.4651 5.2975 10.0186 5.446 9.61811 5.6695L4.9048 2.0945C4.97617 1.9175 5.01632 1.7245 5.01632 1.5215C5.01632 0.6815 4.34129 0 3.50816 0C2.67503 0 2 0.681 2 1.5215C2 2.362 2.67503 3.043 3.50816 3.043C3.82486 3.043 4.11876 2.944 4.36111 2.7755L8.88856 6.2095C8.18628 6.877 7.74567 7.821 7.74567 8.8705C7.74567 10.183 8.43309 11.331 9.46249 11.9765L8.34041 13.7785C8.29878 13.774 8.25665 13.7705 8.21353 13.7705C7.60343 13.7705 7.10881 14.2695 7.10881 14.885C7.10881 15.5005 7.60343 16 8.21353 16C8.82413 16 9.31876 15.501 9.31876 14.885C9.31876 14.632 9.23401 14.3995 9.09325 14.212L10.2535 12.3495C10.6064 12.465 10.982 12.529 11.3731 12.529C13.3759 12.529 15 10.8905 15 8.87C15 6.9975 13.6048 5.456 11.8063 5.2395V5.2405Z" fill="#DA5B26"/>
</svg>
