<svg width="24" height="24" viewBox="0 0 24 24" fill="none" xmlns="http://www.w3.org/2000/svg">
<path d="M12 4C10.4178 4 8.87103 4.46919 7.55544 5.34824C6.23985 6.22729 5.21447 7.47672 4.60897 8.93853C4.00347 10.4003 3.84504 12.0089 4.15372 13.5607C4.4624 15.1126 5.22433 16.538 6.34315 17.6569C7.46197 18.7757 8.88743 19.5376 10.4393 19.8463C11.9911 20.155 13.5997 19.9965 15.0615 19.391C16.5233 18.7855 17.7727 17.7602 18.6518 16.4446C19.5308 15.129 20 13.5822 20 12C20 9.87827 19.1571 7.84344 17.6569 6.34315C16.1566 4.84285 14.1217 4 12 4ZM12 18.5185C10.7097 18.5185 9.44845 18.1109 8.37595 17.3935C7.30346 16.6762 6.46799 15.6566 5.97535 14.4641C5.48271 13.2716 5.35508 11.9596 5.6086 10.6945C5.86213 9.42936 6.48541 8.26792 7.39952 7.35728C8.31362 6.44664 9.47742 5.82777 10.7435 5.57904C12.0096 5.33032 13.321 5.46294 14.5117 5.9601C15.7024 6.45726 16.7187 7.29659 17.432 8.3718C18.1453 9.44701 18.5234 10.7097 18.5185 12C18.5185 13.7288 17.8317 15.3868 16.6093 16.6093C15.3868 17.8317 13.7288 18.5185 12 18.5185Z" fill="black"/>
<path d="M11 9.00671C11 9.55899 11.4477 10.0067 12 10.0067C12.5523 10.0067 13 9.55899 13 9.00671C13 8.45442 12.5523 8.00671 12 8.00671C11.4477 8.00671 11 8.45442 11 9.00671Z" fill="black"/>
<path d="M11 12C11 11.4477 11.4477 11 12 11C12.5523 11 13 11.4477 13 12V15C13 15.5523 12.5523 16 12 16C11.4477 16 11 15.5523 11 15V12Z" fill="black"/>
</svg>
