<svg width="24" height="22" viewBox="0 0 24 22" fill="none" xmlns="http://www.w3.org/2000/svg">
<path d="M12.1556 2C11.6873 2 11.3076 2.37968 11.3076 2.84804V4.51683H9.63881C9.17045 4.51683 8.79077 4.89651 8.79077 5.36487C8.79077 5.83323 9.17045 6.21291 9.63881 6.21291H11.3076V7.8817C11.3076 8.35006 11.6873 8.72974 12.1556 8.72974C12.624 8.72974 13.0037 8.35006 13.0037 7.8817V6.21291H14.6725C15.1408 6.21291 15.5205 5.83323 15.5205 5.36487C15.5205 4.89651 15.1408 4.51683 14.6725 4.51683H13.0037V2.84804C13.0037 2.37968 12.624 2 12.1556 2Z" fill="black"/>
<path fill-rule="evenodd" clip-rule="evenodd" d="M17.5178 6.74572H17.1928L17.2064 6.75927C17.0825 6.76106 16.9596 6.73822 16.8447 6.69207C16.7297 6.64592 16.6251 6.57738 16.5369 6.49044C16.4487 6.40351 16.3787 6.2999 16.3309 6.18565C16.2831 6.0714 16.2585 5.94879 16.2585 5.82495C16.2585 5.70047 16.283 5.57722 16.3307 5.46222C16.3783 5.34722 16.4481 5.24273 16.5361 5.15471C16.6241 5.06669 16.7286 4.99687 16.8436 4.94924C16.9586 4.9016 17.0819 4.87709 17.2064 4.87709H18.0188C18.1694 4.87652 18.318 4.91185 18.4522 4.98013C18.5864 5.04842 18.7024 5.14771 18.7906 5.26977L21.8373 10.8621L21.9186 11.0382C21.9738 11.1521 22.0016 11.2772 21.9998 11.4038V16.9555C22.0076 17.6204 21.7548 18.2619 21.2957 18.7429C20.8072 19.2206 20.151 19.4879 19.4677 19.4877H4.57276C3.89418 19.4844 3.24348 19.2173 2.75829 18.7429C2.51931 18.5104 2.32914 18.2326 2.19893 17.9257C2.06872 17.6187 2.00109 17.2889 2 16.9555V11.3767C2.00142 11.2694 2.02445 11.1635 2.0677 11.0653V10.984C2.13541 10.9434 2.13541 10.8486 2.13541 10.8486L5.1821 5.25623C5.2718 5.13574 5.38814 5.03761 5.52202 4.96949C5.65591 4.90138 5.80372 4.86512 5.95393 4.86355H6.90179C7.15317 4.86355 7.39427 4.96341 7.57202 5.14117C7.74978 5.31893 7.84965 5.56002 7.84965 5.81141C7.84966 5.93525 7.82505 6.05786 7.77725 6.17211C7.72945 6.28636 7.65942 6.38996 7.57122 6.4769C7.48302 6.56384 7.37842 6.63238 7.26349 6.67853C7.14857 6.72468 7.02562 6.74752 6.90179 6.74572H6.45494L4.76233 10.4559H6.96949C7.64864 10.4563 8.30038 10.7238 8.78396 11.2007C9.0252 11.4343 9.21672 11.7142 9.34703 12.0237C9.47734 12.3332 9.54374 12.6658 9.54225 13.0016C9.546 13.1733 9.61359 13.3374 9.73182 13.462C9.86538 13.5831 10.039 13.6506 10.2193 13.6516H13.6722C13.8525 13.6506 14.0261 13.5831 14.1597 13.462C14.2779 13.3374 14.3455 13.1733 14.3493 13.0016C14.3478 12.6658 14.4142 12.3332 14.5445 12.0237C14.6748 11.7142 14.8663 11.4343 15.1075 11.2007C15.5911 10.7238 16.2429 10.4563 16.922 10.4559H19.2104L17.5178 6.74572ZM19.4406 17.6596C19.6217 17.6628 19.7967 17.5947 19.9281 17.4701L19.9145 17.4159C20.0328 17.2914 20.1004 17.1272 20.1041 16.9555V12.4058H16.922C16.7417 12.4067 16.5681 12.4742 16.4345 12.5954C16.3143 12.7241 16.2467 12.8932 16.245 13.0693C16.2454 13.4029 16.1785 13.7332 16.0482 14.0404C15.9179 14.3475 15.7269 14.6252 15.4867 14.8567C15.0031 15.3335 14.3514 15.6011 13.6722 15.6014H10.2193C9.87768 15.5954 9.54082 15.5204 9.22899 15.3807C8.91716 15.2411 8.63681 15.0398 8.40482 14.789C8.16461 14.5574 7.97363 14.2798 7.84333 13.9727C7.71303 13.6655 7.64609 13.3352 7.64653 13.0016C7.64484 12.8255 7.5772 12.6564 7.45696 12.5277C7.3234 12.4065 7.1498 12.339 6.96949 12.3381H3.8551V16.9555C3.84988 17.0497 3.86402 17.1439 3.89662 17.2324C3.92922 17.3209 3.97961 17.4018 4.04467 17.4701C4.17823 17.5912 4.35183 17.6587 4.53214 17.6596H19.4406Z" fill="black"/>
</svg>
