<svg width="24" height="24" viewBox="0 0 24 24" fill="none" xmlns="http://www.w3.org/2000/svg">
<path fill-rule="evenodd" clip-rule="evenodd" d="M6.36631 5.2C6.36631 5.08954 6.45586 5 6.56631 5L7.47249 5C7.58295 5 7.67249 5.08954 7.67249 5.2V8.82473C7.67249 10.5353 8.39691 11.3758 9.11279 11.8006C9.84491 12.2349 10.5957 12.2495 10.6441 12.2495H13.1472L11.0917 10.194C11.0136 10.1159 11.0136 9.98929 11.0917 9.91118L11.7306 9.27232C11.7681 9.23482 11.819 9.21374 11.872 9.21374C11.925 9.21374 11.9759 9.23482 12.0134 9.27232L15.1855 12.4444C15.3071 12.5667 15.3754 12.7323 15.3754 12.9048C15.3754 13.0773 15.3067 13.2433 15.1851 13.3657L12.0134 16.5373C11.9759 16.5748 11.9251 16.5959 11.872 16.5959C11.819 16.5959 11.7681 16.5748 11.7306 16.5373L11.0872 15.8939C11.0497 15.8564 11.0286 15.8055 11.0286 15.7524C11.0286 15.6993 11.0498 15.6484 11.0873 15.6109L13.1465 13.5556H10.6441C10.6094 13.5556 9.54963 13.542 8.49162 12.9447C7.41712 12.3382 6.36631 11.1404 6.36631 8.82473V5.2Z" fill="black"/>
<path fill-rule="evenodd" clip-rule="evenodd" d="M5.20726 13.1568C5.31771 13.1568 5.40726 13.2463 5.40726 13.3568V16.5284C5.40726 17.0762 5.62487 17.6016 6.01221 17.9889C6.39956 18.3763 6.92492 18.5939 7.47271 18.5939H15.6283C16.1761 18.5939 16.7015 18.3763 17.0888 17.9889C17.4762 17.6016 17.6938 17.0762 17.6938 16.5284V8.37278C17.6938 7.82499 17.4762 7.29964 17.0888 6.91229C16.7015 6.52494 16.1761 6.30733 15.6283 6.30733H12.9098C12.7993 6.30733 12.7098 6.21779 12.7098 6.10733V5.20115C12.7098 5.09069 12.7993 5.00115 12.9098 5.00115H15.6283C16.5226 5.00115 17.3801 5.35637 18.0125 5.98868C18.6448 6.62098 19 7.47857 19 8.37278V16.5284C19 17.4226 18.6448 18.2802 18.0125 18.9125C17.3801 19.5448 16.5226 19.9001 15.6283 19.9001H7.47271C6.5785 19.9001 5.72091 19.5448 5.0886 18.9125C4.4563 18.2802 4.10107 17.4226 4.10107 16.5284V13.3568C4.10107 13.2463 4.19062 13.1568 4.30107 13.1568H5.20726Z" fill="black"/>
</svg>
