<svg width="24" height="24" viewBox="0 0 24 24" fill="none" xmlns="http://www.w3.org/2000/svg">
<path fill-rule="evenodd" clip-rule="evenodd" d="M13 4.75C12.5858 4.75 12.25 5.08579 12.25 5.5V6.75H8C7.86193 6.75 7.75 6.86193 7.75 7V11.25H6.5C6.08579 11.25 5.75 11.5858 5.75 12C5.75 12.4142 6.08579 12.75 6.5 12.75H7.75V17C7.75 17.1381 7.86193 17.25 8 17.25H12.25V18.5C12.25 18.9142 12.5858 19.25 13 19.25C13.4142 19.25 13.75 18.9142 13.75 18.5V17.25H18C18.1381 17.25 18.25 17.1381 18.25 17V14.2363C17.125 14.1119 16.25 13.1581 16.25 12C16.25 10.8419 17.125 9.88809 18.25 9.76373V7C18.25 6.86193 18.1381 6.75 18 6.75H13.75V5.5C13.75 5.08579 13.4142 4.75 13 4.75ZM10.7637 5.25C10.8881 4.12501 11.8419 3.25 13 3.25C14.1581 3.25 15.1119 4.12501 15.2363 5.25H18C18.9665 5.25 19.75 6.0335 19.75 7V11.25H18.5C18.0858 11.25 17.75 11.5858 17.75 12C17.75 12.4142 18.0858 12.75 18.5 12.75H19.75V17C19.75 17.9665 18.9665 18.75 18 18.75H15.2363C15.1119 19.875 14.1581 20.75 13 20.75C11.8419 20.75 10.8881 19.875 10.7637 18.75H8C7.0335 18.75 6.25 17.9665 6.25 17V14.2363C5.12501 14.1119 4.25 13.1581 4.25 12C4.25 10.8419 5.12501 9.88809 6.25 9.76373V7C6.25 6.0335 7.0335 5.25 8 5.25H10.7637Z" fill="black"/>
</svg>
