<svg width="24" height="24" viewBox="0 0 24 24" fill="none" xmlns="http://www.w3.org/2000/svg">
<path fill-rule="evenodd" clip-rule="evenodd" d="M13.0057 5.75H11.75C11.3358 5.75 11 5.41421 11 5C11 4.58579 11.3358 4.25 11.75 4.25H16.25C16.6642 4.25 17 4.58579 17 5C17 5.41421 16.6642 5.75 16.25 5.75H14.5657L10.9943 18.25H12.25C12.6642 18.25 13 18.5858 13 19C13 19.4142 12.6642 19.75 12.25 19.75H7.75C7.33579 19.75 7 19.4142 7 19C7 18.5858 7.33579 18.25 7.75 18.25H9.43427L13.0057 5.75Z" fill="#333333"/>
</svg>
