<svg width="16" height="16" viewBox="0 0 16 16" fill="none" xmlns="http://www.w3.org/2000/svg">
<path d="M2 4C2 2.89543 2.89543 2 4 2H12C13.1046 2 14 2.89543 14 4V12C14 13.1046 13.1046 14 12 14H4C2.89543 14 2 13.1046 2 12V4Z" fill="#E5E6EA"/>
<path d="M4.3382 9.88912C4.73609 9.57081 5.30969 9.60258 5.67 9.96288L8.51213 12.805C8.95311 13.246 8.64079 14 8.01716 14H4C2.89543 14 2 13.1046 2 12V11.7597L4.3382 9.88912Z" fill="#0061FF"/>
<circle cx="8" cy="5.5" r="1.5" fill="#F44238"/>
<path fill-rule="evenodd" clip-rule="evenodd" d="M9.76062 8.62385C10.1329 8.15845 10.8272 8.12 11.2486 8.54144L13.8536 11.1464C13.9474 11.2402 14 11.3674 14 11.5V12C14 13.1046 13.1046 14 12 14H5.45972L9.76062 8.62385Z" fill="#052175"/>
</svg>
