<svg width="24" height="24" viewBox="0 0 24 24" fill="none" xmlns="http://www.w3.org/2000/svg">
<path d="M11.4196 10.8687L4.5 17.8116L5.74657 19.0624L6.99402 17.8116L9.17507 20L10.4225 18.7492L8.24059 16.56L9.48715 15.3092L11.357 17.1853L12.6045 15.9346L10.7337 14.0584L12.6662 12.1195C13.5777 12.7214 14.6793 12.9628 15.758 12.797C16.8367 12.6312 17.8157 12.07 18.5059 11.2219C19.1961 10.3738 19.5484 9.29904 19.4946 8.20545C19.4409 7.11187 18.9849 6.07712 18.2149 5.30129C17.4429 4.52379 16.4104 4.06205 15.318 4.00581C14.2256 3.94958 13.1514 4.30287 12.3042 4.99701C11.457 5.69116 10.8972 6.67658 10.7337 7.76174C10.5702 8.84691 10.8147 9.95431 11.4196 10.8687ZM16.9674 10.3052C16.7245 10.5629 16.4326 10.7691 16.1089 10.9117C15.7852 11.0542 15.4363 11.1302 15.0828 11.1351C14.7293 11.1401 14.3785 11.0738 14.0509 10.9404C13.7234 10.8069 13.4259 10.609 13.1759 10.3581C12.9259 10.1073 12.7286 9.80879 12.5956 9.48016C12.4626 9.15153 12.3966 8.79947 12.4015 8.44481C12.4064 8.09015 12.4822 7.74007 12.6242 7.41528C12.7663 7.09049 12.9718 6.79756 13.2286 6.55383C13.7274 6.07044 14.3955 5.80296 15.089 5.80901C15.7824 5.81505 16.4457 6.09414 16.9361 6.58615C17.4265 7.07816 17.7046 7.74374 17.7106 8.43952C17.7167 9.13531 17.4501 9.80563 16.9683 10.3061L16.9674 10.3052Z" fill="#0C142B"/>
</svg>
