<svg width="24" height="24" viewBox="0 0 24 24" fill="none" xmlns="http://www.w3.org/2000/svg">
<path fill-rule="evenodd" clip-rule="evenodd" d="M14.4824 8.22849C14.4824 7.51684 15.0593 6.93994 15.771 6.93994C16.4826 6.93994 17.0595 7.51684 17.0595 8.22849C17.0595 8.94014 16.4826 9.51704 15.771 9.51704C15.0593 9.51704 14.4824 8.94014 14.4824 8.22849ZM15.771 8.43994C15.8878 8.43994 15.9824 8.34527 15.9824 8.22849C15.9824 8.11171 15.8878 8.01704 15.771 8.01704C15.6542 8.01704 15.5595 8.11171 15.5595 8.22849C15.5595 8.34527 15.6542 8.43994 15.771 8.43994Z" fill="#0C142B"/>
<path fill-rule="evenodd" clip-rule="evenodd" d="M19.2623 5.13679C19.1864 4.95732 19.0426 4.81356 18.8631 4.73759L18.8607 4.73658L18.8564 4.73477L18.8438 4.72961C18.8338 4.72551 18.8203 4.72012 18.8036 4.7136C18.7701 4.70057 18.7236 4.68303 18.665 4.66238C18.5481 4.62113 18.3826 4.56722 18.1775 4.51206C17.7688 4.40217 17.1941 4.28492 16.5273 4.25645C15.1919 4.19943 13.4441 4.50053 11.971 5.97059C11.4222 6.50145 10.8779 7.25713 10.3483 8.08823C9.34889 7.61897 8.3525 7.59787 7.40855 7.89859C6.29446 8.25351 5.30522 9.03852 4.46274 9.90346C4.30297 10.0675 4.22689 10.2955 4.25616 10.5226C4.28543 10.7497 4.41685 10.951 4.613 11.0692L8.13876 13.1932L10.8081 15.8625L12.9312 19.3869C13.0494 19.5831 13.2507 19.7145 13.4778 19.7438C13.7049 19.7731 13.933 19.697 14.097 19.5372C14.9619 18.6947 15.7469 17.7055 16.1019 16.5914C16.4027 15.6471 16.3815 14.6503 15.9117 13.6505C16.7425 13.1218 17.4978 12.5785 18.0293 12.029C19.4994 10.5558 19.8005 8.80808 19.7435 7.47264C19.715 6.80587 19.5978 6.23111 19.4879 5.82246C19.4327 5.61734 19.3788 5.45183 19.3376 5.3349C19.3169 5.27637 19.2994 5.22983 19.2863 5.19638C19.2798 5.17965 19.2744 5.16617 19.2703 5.1561L19.2652 5.14354L19.2634 5.13919L19.2623 5.13679ZM18.5714 5.42852C18.8638 4.73786 18.8635 4.73773 18.8631 4.73759L18.5714 5.42852ZM18.5714 5.42852L19.2623 5.13679C19.2622 5.13647 19.2621 5.13616 18.5714 5.42852ZM14.4758 12.7687C14.5159 12.7414 14.5577 12.7184 14.6006 12.6998C15.6302 12.0714 16.4554 11.4999 16.9546 10.9826L16.9639 10.9729C18.0533 9.88357 18.2901 8.5963 18.2449 7.53662C18.2222 7.00512 18.128 6.54183 18.0393 6.21199C18.0199 6.13987 18.0009 6.07456 17.9831 6.01679C17.9254 5.99901 17.8601 5.97999 17.7879 5.9606C17.4581 5.8719 16.9948 5.77777 16.4633 5.75508C15.4036 5.70984 14.1163 5.94658 13.0269 7.03595L13.0174 7.04542C12.5022 7.54254 11.9309 8.36541 11.3043 9.39001C11.285 9.43638 11.2606 9.4815 11.2312 9.52464C11.2172 9.54514 11.2024 9.56472 11.1868 9.58338C11.1541 9.63759 11.1215 9.69181 11.089 9.74606L14.2528 12.9098C14.3109 12.8751 14.3686 12.8404 14.426 12.8058C14.4419 12.7929 14.4586 12.7805 14.4758 12.7687ZM14.4933 14.5099C14.506 14.503 14.5186 14.4956 14.531 14.4878L14.6188 14.4363C14.8606 15.0353 14.845 15.5951 14.6726 16.1361C14.5008 16.6755 14.1638 17.2206 13.7049 17.7643L12.455 15.6895C12.788 15.495 13.1253 15.3008 13.463 15.1063L13.5488 15.0569C13.8653 14.8746 14.1819 14.692 14.4933 14.5099ZM12.9134 13.6918L10.3068 11.0852L10.173 11.318C9.95916 11.6899 9.74257 12.0667 9.51759 12.4507L11.5488 14.4819C11.9357 14.2549 12.3266 14.0298 12.7116 13.8081L12.9134 13.6918ZM7.86386 9.32782C8.40433 9.15564 8.96366 9.13991 9.56201 9.38099C9.32966 9.77648 9.09034 10.192 8.85186 10.6061C8.66935 10.923 8.48728 11.2391 8.30925 11.5447L6.23564 10.2956C6.7793 9.83668 7.32446 9.49965 7.86386 9.32782Z" fill="#0C142B"/>
<path fill-rule="evenodd" clip-rule="evenodd" d="M9.48461 17.639C9.35613 17.9273 9.17126 18.187 8.94089 18.4028C8.6656 18.6659 8.24739 18.8553 7.89663 18.9907C7.51164 19.1394 7.07495 19.2711 6.67376 19.3794C6.26994 19.4883 5.8883 19.5773 5.60851 19.6388C5.46825 19.6697 5.35274 19.6939 5.27178 19.7104C5.23129 19.7187 5.19938 19.7251 5.1773 19.7295L5.15167 19.7345L5.14465 19.7359L5.14165 19.7364L5.00001 18.9999C4.26351 18.8583 4.26368 18.8574 4.2637 18.8573L4.26409 18.8553L4.26545 18.8483L4.27049 18.8227C4.27487 18.8006 4.28125 18.7687 4.28953 18.7282C4.30608 18.6472 4.33025 18.5317 4.3611 18.3914C4.42267 18.1117 4.5116 17.73 4.62059 17.3262C4.72887 16.925 4.86056 16.4883 5.00923 16.1033C5.14468 15.7526 5.33405 15.3344 5.59715 15.0591C5.81291 14.8287 6.07261 14.6438 6.36095 14.5153C6.65114 14.386 6.96439 14.3165 7.28203 14.3109C7.59966 14.3053 7.91517 14.3637 8.20974 14.4827C8.5043 14.6017 8.77189 14.7788 8.99652 15.0034C9.22116 15.2281 9.39825 15.4956 9.51723 15.7902C9.63621 16.0848 9.69464 16.4003 9.68904 16.7179C9.68343 17.0356 9.61391 17.3488 9.48461 17.639ZM7.30849 15.8107C7.42472 15.8086 7.54017 15.83 7.64796 15.8735C7.75575 15.9171 7.85366 15.9819 7.93586 16.0641C8.01806 16.1463 8.08286 16.2442 8.1264 16.352C8.16994 16.4598 8.19132 16.5752 8.18927 16.6915C8.18722 16.8077 8.16178 16.9223 8.11447 17.0285C8.06715 17.1347 7.99894 17.2303 7.91389 17.3095L8.42518 17.8582L7.90428 17.3186C7.90402 17.3189 7.90108 17.3216 7.89472 17.3266C7.88766 17.3322 7.87748 17.3398 7.86362 17.3492C7.83542 17.3682 7.79698 17.3914 7.74674 17.4181C7.64525 17.4721 7.51405 17.5305 7.35627 17.5914C7.04046 17.7134 6.65991 17.8294 6.2829 17.9312C6.18465 17.9577 6.08756 17.983 5.993 18.0069C6.01695 17.9124 6.04226 17.8153 6.06877 17.7171C6.17053 17.34 6.28657 16.9595 6.40852 16.6437C6.46945 16.4859 6.52789 16.3547 6.58182 16.2532C6.60851 16.203 6.63172 16.1645 6.65079 16.1363C6.66016 16.1225 6.66772 16.1123 6.67331 16.1052C6.67784 16.0995 6.68057 16.0966 6.68124 16.0959L6.69044 16.0861C6.76969 16.001 6.86526 15.9328 6.97145 15.8855C7.07763 15.8382 7.19226 15.8127 7.30849 15.8107Z" fill="#0C142B"/>
<path d="M5.00001 18.9999L4.26351 18.8583C4.21652 19.1026 4.29376 19.3543 4.46968 19.5303C4.64561 19.7062 4.89733 19.7834 5.14165 19.7364C5.14157 19.7365 5.14165 19.7364 5.00001 18.9999Z" fill="#0C142B"/>
</svg>
