<svg width="24" height="24" viewBox="0 0 24 24" fill="none" xmlns="http://www.w3.org/2000/svg">
<path fill-rule="evenodd" clip-rule="evenodd" d="M5.82371 9.85003C5.82371 8.34265 6.99917 7.10303 8.47051 7.10303C9.94185 7.10303 11.1173 8.34265 11.1173 9.85003C11.1173 11.3574 9.94185 12.597 8.47051 12.597C6.99917 12.597 5.82371 11.3574 5.82371 9.85003ZM8.47051 8.5394C7.79081 8.5394 7.22251 9.11644 7.22251 9.85003C7.22251 10.5836 7.79081 11.1607 8.47051 11.1607C9.15021 11.1607 9.71851 10.5836 9.71851 9.85003C9.71851 9.11644 9.15021 8.5394 8.47051 8.5394Z" fill="black"/>
<path d="M4.12396 16.182C4.58159 14.389 6.36952 13.0814 8.47052 13.0814C10.5715 13.0814 12.3595 14.389 12.8171 16.182C12.9315 16.6304 12.5754 17.0148 12.1563 17.0148C11.7881 17.0148 11.5211 16.7348 11.4256 16.4355C11.0988 15.412 9.99944 14.5178 8.47052 14.5178C6.9416 14.5178 5.84229 15.412 5.51549 16.4355C5.41993 16.7348 5.15299 17.0148 4.7847 17.0148C4.36564 17.0148 4.00954 16.6304 4.12396 16.182Z" fill="black"/>
<path d="M13.7648 7.82959C13.3782 7.82959 13.0648 8.14299 13.0648 8.52959C13.0648 8.91619 13.3782 9.22959 13.7648 9.22959H18.4707C18.8573 9.22959 19.1707 8.91619 19.1707 8.52959C19.1707 8.14299 18.8573 7.82959 18.4707 7.82959H13.7648Z" fill="black"/>
<path d="M13.0648 11.3636C13.0648 10.977 13.3782 10.6636 13.7648 10.6636L18.4707 10.6636C18.8573 10.6636 19.1707 10.977 19.1707 11.3636C19.1707 11.7502 18.8573 12.0636 18.4707 12.0636L13.7648 12.0636C13.3782 12.0636 13.0648 11.7502 13.0648 11.3636Z" fill="black"/>
<path d="M15.6364 13.3911C15.2498 13.3911 14.9364 13.7045 14.9364 14.0911C14.9364 14.4777 15.2498 14.7911 15.6364 14.7911L18.3637 14.7911C18.7503 14.7911 19.0637 14.4777 19.0637 14.0911C19.0637 13.7045 18.7503 13.3911 18.3637 13.3911H15.6364Z" fill="black"/>
<path fill-rule="evenodd" clip-rule="evenodd" d="M2 4.25C1.58579 4.25 1.25 4.58579 1.25 5V19.1176C1.25 19.5319 1.58579 19.8676 2 19.8676H22C22.4142 19.8676 22.75 19.5319 22.75 19.1176V5C22.75 4.58579 22.4142 4.25 22 4.25H2ZM2.75 18.3676V5.75H21.25V18.3676H2.75Z" fill="black"/>
</svg>
