<svg width="24" height="24" viewBox="0 0 24 24" fill="none" xmlns="http://www.w3.org/2000/svg">
<path d="M9.75 9.5C9.75 9.24392 9.88559 8.92507 10.1553 8.65533C10.4251 8.38559 10.7439 8.25 11 8.25C11.4142 8.25 11.75 7.91421 11.75 7.5C11.75 7.08579 11.4142 6.75 11 6.75C10.2561 6.75 9.57492 7.11441 9.09467 7.59467C8.61441 8.07493 8.25 8.75608 8.25 9.5C8.25 9.91421 8.58579 10.25 9 10.25C9.41421 10.25 9.75 9.91421 9.75 9.5Z" fill="black"/>
<path fill-rule="evenodd" clip-rule="evenodd" d="M6.0386 10.7858C6.16661 11.9268 6.6093 13.0079 7.31565 13.9045C7.42285 14.0402 7.56995 14.1942 7.73289 14.3648C8.27787 14.9353 9.00015 15.6914 9.00015 16.5713V18.4761C9.00015 18.8803 9.15819 19.2679 9.43949 19.5537C9.7208 19.8394 10.1023 20 10.5002 20H13.5001C13.898 20 14.2795 19.8394 14.5608 19.5537C14.8421 19.2679 15.0001 18.8803 15.0001 18.4761V16.5713C15.0001 15.6908 15.723 14.9342 16.2676 14.3642C16.4299 14.1944 16.5764 14.0411 16.6831 13.906C17.3898 13.0096 17.8328 11.9287 17.9612 10.7878C18.0896 9.64679 17.8981 8.4922 17.4087 7.45697C16.9194 6.42174 16.1522 5.54799 15.1955 4.93638C14.2387 4.32478 13.1314 4.00018 12.001 4C10.8706 3.99982 9.76311 4.32405 8.80617 4.93535C7.84923 5.54664 7.08173 6.42014 6.59209 7.45521C6.10245 8.49028 5.91059 9.64481 6.0386 10.7858ZM13.5204 16.1903H10.4799C10.3809 15.2744 9.92115 14.5186 9.17415 13.6927C9.1453 13.6607 9.06149 13.5715 8.96159 13.4653C8.77327 13.2649 8.5278 13.0038 8.48565 12.9505C7.95622 12.278 7.62454 11.4672 7.5288 10.6115C7.43306 9.75588 7.57716 8.89015 7.9445 8.11405C8.31184 7.33794 8.88749 6.68303 9.60515 6.22472C10.3228 5.76642 11.1533 5.52336 12.001 5.52355C12.8486 5.52373 13.679 5.76715 14.3965 6.22576C15.1139 6.68438 15.6893 7.33954 16.0563 8.11581C16.4233 8.89207 16.5671 9.75786 16.471 10.6135C16.3749 11.4691 16.0429 12.2797 15.5131 12.952C15.4696 13.0072 15.2045 13.2892 15.0137 13.4922C14.925 13.5866 14.8523 13.6639 14.8254 13.6934C14.0791 14.5186 13.6194 15.2744 13.5204 16.1903ZM10.5002 17.7142H13.5001V18.4761H10.5002V17.7142Z" fill="black"/>
</svg>
