<svg width="24" height="24" viewBox="0 0 24 24" fill="none" xmlns="http://www.w3.org/2000/svg">
<path fill-rule="evenodd" clip-rule="evenodd" d="M10.7502 4.47733C10.871 4.18827 11.1541 4 11.4681 4C12.1941 4 12.8794 4.30717 13.3766 4.83591C13.8722 5.36297 14.1426 6.06778 14.1426 6.79309V8.70687H16.9393C17.2415 8.70404 17.5391 8.77082 17.8112 8.90068C18.0846 9.03118 18.3239 9.22134 18.5146 9.45464C18.7053 9.68778 18.8435 9.95905 18.9225 10.2487C19.0016 10.5382 19.0203 10.8416 18.9779 11.1386L18.9778 11.1397L18.1054 17.1902C18.1054 17.1905 18.1055 17.1899 18.1054 17.1902C18.035 17.683 17.7982 18.1428 17.4264 18.4789C17.0544 18.8152 16.5721 19.0046 16.0668 18.9999H7.04229C6.48398 18.9999 5.95945 18.7636 5.58086 18.3609C5.20385 17.96 5 17.4262 5 16.8792V12.1724C5 11.6254 5.20385 11.0916 5.58086 10.6907C5.95945 10.288 6.48398 10.0517 7.04229 10.0517H8.42063L10.7502 4.47733ZM8.16127 11.6034H7.04229C6.92986 11.6034 6.81112 11.6505 6.71543 11.7522C6.61816 11.8557 6.55556 12.006 6.55556 12.1724V16.8792C6.55556 17.0456 6.61816 17.1959 6.71543 17.2994C6.81112 17.4011 6.92986 17.4482 7.04229 17.4482H8.16127V11.6034ZM9.71683 17.4482H16.0803C16.1829 17.4494 16.2904 17.4118 16.3819 17.3291C16.4746 17.2452 16.5442 17.12 16.5654 16.9717L17.4379 10.9199C17.4379 10.9202 17.4379 10.9197 17.4379 10.9199C17.4504 10.8317 17.4447 10.741 17.4216 10.6564C17.3985 10.5715 17.3591 10.4965 17.3092 10.4354C17.2594 10.3745 17.2008 10.3296 17.1398 10.3004C17.0789 10.2714 17.0153 10.2578 16.9528 10.2585L16.9434 10.2586L13.3648 10.2586C12.9353 10.2586 12.5871 9.91123 12.5871 9.48273V6.79309C12.5871 6.4484 12.4578 6.12703 12.242 5.89748C12.1509 5.8006 12.048 5.7236 11.9383 5.66709L9.71683 10.9828V17.4482Z" fill="black"/>
</svg>
