<svg width="16" height="16" viewBox="0 0 16 16" fill="none" xmlns="http://www.w3.org/2000/svg">
<path d="M13.739 2.0012H3.09C2.9531 1.99462 2.81624 2.01513 2.68729 2.06157C2.55834 2.10801 2.43982 2.17945 2.33855 2.27181C2.23727 2.36416 2.15523 2.47561 2.09714 2.59975C2.03904 2.72389 2.00603 2.85827 2 2.9952V13.6682C2.00755 13.9552 2.12472 14.2284 2.32744 14.4317C2.53016 14.6349 2.80304 14.7529 3.09 14.7612H13.736C14.0161 14.7503 14.2806 14.6294 14.4723 14.4248C14.664 14.2203 14.7673 13.9484 14.76 13.6682V2.9952C14.7623 2.86173 14.7373 2.72919 14.6864 2.60576C14.6356 2.48233 14.56 2.37062 14.4644 2.2775C14.3687 2.18438 14.255 2.11182 14.1303 2.0643C14.0055 2.01679 13.8724 1.99531 13.739 2.0012ZM5.955 12.6372H4.127V6.9532H5.955V12.6372ZM5.1 6.0892H5.087C4.82395 6.08748 4.57229 5.98156 4.3872 5.79463C4.2021 5.60771 4.09865 5.35503 4.09951 5.09197C4.10037 4.82891 4.20547 4.57692 4.39178 4.39121C4.5781 4.2055 4.83044 4.10122 5.0935 4.10122C5.35656 4.10122 5.6089 4.2055 5.79522 4.39121C5.98153 4.57692 6.08663 4.82891 6.08749 5.09197C6.08835 5.35503 5.9849 5.60771 5.7998 5.79463C5.61471 5.98156 5.36305 6.08748 5.1 6.0892ZM12.632 12.6372H10.808V9.5292C10.808 8.7842 10.542 8.2762 9.881 8.2762C9.67419 8.27801 9.47303 8.34389 9.30522 8.46478C9.13741 8.58567 9.01121 8.75561 8.944 8.9512C8.89538 9.09568 8.87402 9.24792 8.881 9.4002V12.6372H7.052V6.9532H8.88V7.7442C9.04648 7.45623 9.28748 7.21844 9.57766 7.05584C9.86784 6.89324 10.1965 6.81184 10.529 6.8202C11.729 6.8202 12.637 7.6112 12.637 9.3202L12.632 12.6372Z" fill="black"/>
</svg>
