<svg width="24" height="24" viewBox="0 0 24 24" fill="none" xmlns="http://www.w3.org/2000/svg">
<path fill-rule="evenodd" clip-rule="evenodd" d="M7.3024 16.6976C6.31069 15.7059 6.31069 14.0936 7.3024 13.1019L9.6222 10.7821L8.5203 9.6802L6.2005 12C4.59983 13.6007 4.59983 16.1988 6.2005 17.7995C7.80116 19.4002 10.3993 19.4002 12 17.7995L14.3198 15.4797L13.2179 14.3778L10.8981 16.6976C9.90638 17.6893 8.29412 17.6893 7.3024 16.6976ZM10.2601 14.8998L14.8998 10.2601L13.7399 9.10025L9.10025 13.7399L10.2601 14.8998ZM12 6.2005L9.6802 8.5203L10.7821 9.6222L13.1019 7.3024C14.0936 6.31069 15.7059 6.31069 16.6976 7.3024C17.6893 8.29412 17.6893 9.90638 16.6976 10.8981L14.3778 13.2179L15.4797 14.3198L17.7995 12C19.4002 10.3993 19.4002 7.80116 17.7995 6.2005C16.1988 4.59983 13.6007 4.59983 12 6.2005Z" fill="black"/>
</svg>
