<svg width="24" height="24" viewBox="0 0 24 24" fill="none" xmlns="http://www.w3.org/2000/svg">
<path fill-rule="evenodd" clip-rule="evenodd" d="M6.20365 1.75C4.85204 1.75 3.75 2.85443 3.75 4.20547C3.75 5.5565 4.85204 6.66093 6.20365 6.66093C7.55313 6.66093 8.655 5.55633 8.655 4.20547C8.655 2.8546 7.55313 1.75 6.20365 1.75ZM4.98532 4.20547C4.98532 3.52839 5.52616 2.98669 6.20365 2.98669C6.87858 2.98669 7.41968 3.52813 7.41968 4.20547C7.41968 4.8828 6.87858 5.42424 6.20365 5.42424C5.52616 5.42424 4.98532 4.88254 4.98532 4.20547Z" fill="black"/>
<path fill-rule="evenodd" clip-rule="evenodd" d="M15.8363 7.56381C14.8474 7.56381 14.0376 7.87425 13.4185 8.31873V7.81705H9.15227V19.25H13.5471V13.5899C13.5471 12.952 13.6203 12.4074 13.8011 12.0782C13.8931 11.9119 13.9926 11.7988 14.1321 11.722C14.2757 11.6429 14.4868 11.5884 14.8252 11.5884C15.1476 11.5884 15.3189 11.6455 15.424 11.7189C15.5283 11.7917 15.6035 11.9053 15.682 12.1027C15.8313 12.481 15.8528 13.073 15.8528 13.6728V19.25H19.3718C19.605 19.25 19.8286 19.1572 19.9934 18.9922C20.1577 18.8275 20.25 18.6044 20.25 18.3718V13.0397C20.25 11.6348 20.1144 10.2939 19.458 9.25315C18.7876 8.18657 17.5811 7.56381 15.8363 7.56381ZM15.8363 8.8005C16.5732 8.8005 17.1098 8.91224 17.5126 9.10258C17.9112 9.29093 18.1931 9.56303 18.412 9.91073C18.854 10.6129 19.0147 11.6987 19.0147 13.0397V18.0133H17.0881L17.0882 13.6112C17.0885 13.0371 17.0888 12.3044 16.8318 11.6496C16.5498 10.9343 15.8583 10.3517 14.8252 10.3517C14.5181 10.3517 14.2362 10.3945 13.9822 10.4733C13.4088 10.6513 12.9777 11.0132 12.7196 11.4827C12.3627 12.1319 12.3118 12.895 12.3118 13.5899V18.0133H10.3876V9.05374H12.1831V10.4465H13.218C13.218 10.4465 13.3192 10.255 13.3841 10.1322C13.8519 9.24695 14.8676 8.8005 15.8363 8.8005Z" fill="black"/>
<path fill-rule="evenodd" clip-rule="evenodd" d="M8.40223 7.81705H4.00276V19.25H8.40223V7.81705ZM5.23808 18.0133V9.05374H7.16692V18.0133H5.23808Z" fill="black"/>
</svg>
