<svg width="24" height="24" viewBox="0 0 24 24" fill="none" xmlns="http://www.w3.org/2000/svg">
<path d="M4.5 6.85714C4.5 7.33053 4.16421 7.71429 3.75 7.71429C3.33579 7.71429 3 7.33053 3 6.85714C3 6.38376 3.33579 6 3.75 6C4.16421 6 4.5 6.38376 4.5 6.85714Z" fill="#333333"/>
<path fill-rule="evenodd" clip-rule="evenodd" d="M21 6.85714C21 7.33053 20.6162 7.71429 20.1429 7.71429H7.35714C6.88376 7.71429 6.5 7.33053 6.5 6.85714C6.5 6.38376 6.88376 6 7.35714 6H20.1429C20.6162 6 21 6.38376 21 6.85714Z" fill="#333333"/>
<path d="M4.5 12C4.5 12.4734 4.16421 12.8571 3.75 12.8571C3.33579 12.8571 3 12.4734 3 12C3 11.5266 3.33579 11.1429 3.75 11.1429C4.16421 11.1429 4.5 11.5266 4.5 12Z" fill="#333333"/>
<path fill-rule="evenodd" clip-rule="evenodd" d="M21 12C21 12.4734 20.6162 12.8571 20.1429 12.8571H7.35714C6.88376 12.8571 6.5 12.4734 6.5 12C6.5 11.5266 6.88376 11.1429 7.35714 11.1429H20.1429C20.6162 11.1429 21 11.5266 21 12Z" fill="#333333"/>
<path d="M4.5 17.1429C4.5 17.6162 4.16421 18 3.75 18C3.33579 18 3 17.6162 3 17.1429C3 16.6695 3.33579 16.2857 3.75 16.2857C4.16421 16.2857 4.5 16.6695 4.5 17.1429Z" fill="#333333"/>
<path fill-rule="evenodd" clip-rule="evenodd" d="M21 17.1429C21 17.6162 20.6162 18 20.1429 18H7.35714C6.88376 18 6.5 17.6162 6.5 17.1429C6.5 16.6695 6.88376 16.2857 7.35714 16.2857H20.1429C20.6162 16.2857 21 16.6695 21 17.1429Z" fill="#333333"/>
</svg>
