<svg width="24" height="24" viewBox="0 0 24 24" fill="none" xmlns="http://www.w3.org/2000/svg">
<path fill-rule="evenodd" clip-rule="evenodd" d="M4.88169 6.35294C4.88169 5.05345 5.93514 4 7.23463 4C8.53412 4 9.58756 5.05345 9.58756 6.35294C9.58756 7.65243 8.53412 8.70587 7.23463 8.70587C5.93514 8.70587 4.88169 7.65243 4.88169 6.35294ZM16.1763 16.7057C16.1763 15.926 16.8084 15.2939 17.5881 15.2939C18.3678 15.2939 18.9999 15.926 18.9999 16.7057C18.9999 17.4854 18.3678 18.1175 17.5881 18.1175C16.8084 18.1175 16.1763 17.4854 16.1763 16.7057ZM12.8671 17.1763C12.0874 17.1763 11.4553 17.8083 11.4553 18.588C11.4553 19.3677 12.0874 19.9998 12.8671 19.9998C13.6468 19.9998 14.2788 19.3677 14.2788 18.588C14.2788 17.8083 13.6468 17.1763 12.8671 17.1763ZM5.82367 17.6471C5.82367 16.8674 6.45574 16.2354 7.23543 16.2354C8.01513 16.2354 8.64719 16.8674 8.64719 17.6471C8.64719 18.4268 8.01513 19.0589 7.23543 19.0589C6.45574 19.0589 5.82367 18.4268 5.82367 17.6471ZM4.88235 10.5884C3.84276 10.5884 3 11.4311 3 12.4707C3 13.5103 3.84276 14.3531 4.88235 14.3531C5.92194 14.3531 6.7647 13.5103 6.7647 12.4707C6.7647 11.4311 5.92194 10.5884 4.88235 10.5884ZM16.1763 6.82349C16.1763 6.3037 16.5977 5.88232 17.1175 5.88232C17.6373 5.88232 18.0587 6.3037 18.0587 6.82349C18.0587 7.34329 17.6373 7.76467 17.1175 7.76467C16.5977 7.76467 16.1763 7.34329 16.1763 6.82349ZM19.0014 10.5884C18.4816 10.5884 18.0602 11.0098 18.0602 11.5296C18.0602 12.0493 18.4816 12.4707 19.0014 12.4707C19.5212 12.4707 19.9426 12.0493 19.9426 11.5296C19.9426 11.0098 19.5212 10.5884 19.0014 10.5884ZM11.471 4.94117C11.471 4.42138 11.8923 4 12.4121 4C12.9319 4 13.3533 4.42138 13.3533 4.94117C13.3533 5.46097 12.9319 5.88235 12.4121 5.88235C11.8923 5.88235 11.471 5.46097 11.471 4.94117Z" fill="black"/>
</svg>
