<svg width="24" height="24" viewBox="0 0 24 24" fill="none" xmlns="http://www.w3.org/2000/svg">
<path fill-rule="evenodd" clip-rule="evenodd" d="M12 7.25C10.4812 7.25 9.25 8.48122 9.25 10C9.25 11.5188 10.4812 12.75 12 12.75C13.5188 12.75 14.75 11.5188 14.75 10C14.75 8.48122 13.5188 7.25 12 7.25ZM10.75 10C10.75 9.30964 11.3096 8.75 12 8.75C12.6904 8.75 13.25 9.30964 13.25 10C13.25 10.6904 12.6904 11.25 12 11.25C11.3096 11.25 10.75 10.6904 10.75 10Z" fill="black"/>
<path fill-rule="evenodd" clip-rule="evenodd" d="M11.9994 4C8.68898 4 6 6.60222 6 9.81147C6 13.6113 9.76497 18.0322 11.3297 19.7055C11.6973 20.0985 12.3012 20.0986 12.6688 19.7055C14.2339 18.0324 18 13.6114 18 9.81147C18 6.6017 15.3111 4 11.9994 4ZM7.5 9.81147C7.5 7.47571 9.47161 5.5 11.9994 5.5C14.5287 5.5 16.5 7.47545 16.5 9.81147C16.5 11.2735 15.7503 13.0284 14.6553 14.7515C13.7702 16.1443 12.7499 17.3773 11.9993 18.2153C11.2489 17.3773 10.229 16.1443 9.34416 14.7515C8.24947 13.0285 7.5 11.2735 7.5 9.81147Z" fill="black"/>
</svg>
