<svg width="24" height="24" viewBox="0 0 24 24" fill="none" xmlns="http://www.w3.org/2000/svg">
<path d="M12 16.1905C12.8288 16.1905 13.5 15.5086 13.5 14.6667C13.5 13.8248 12.8288 13.1429 12 13.1429C11.1712 13.1429 10.5 13.8248 10.5 14.6667C10.5 15.5086 11.1712 16.1905 12 16.1905ZM16.5 9.33333H15.75V7.80952C15.75 5.70667 14.07 4 12 4C9.93 4 8.25 5.70667 8.25 7.80952H9.675C9.675 6.50667 10.7175 5.44762 12 5.44762C13.2825 5.44762 14.325 6.50667 14.325 7.80952V9.33333H7.5C6.67125 9.33333 6 10.0152 6 10.8571V18.4762C6 19.3181 6.67125 20 7.5 20H16.5C17.3287 20 18 19.3181 18 18.4762V10.8571C18 10.0152 17.3287 9.33333 16.5 9.33333ZM16.5 18.4762H7.5V10.8571H16.5V18.4762Z" fill="black"/>
</svg>
