<svg width="24" height="24" viewBox="0 0 24 24" fill="none" xmlns="http://www.w3.org/2000/svg">
<path fill-rule="evenodd" clip-rule="evenodd" d="M5.89946 4.93501C6.31914 4.49979 6.89428 4.25 7.5 4.25H13.5C13.9142 4.25 14.25 4.58579 14.25 5C14.25 5.41421 13.9142 5.75 13.5 5.75H7.5C7.31007 5.75 7.12215 5.82799 6.97922 5.97621C6.8354 6.12536 6.75 6.33329 6.75 6.55556V17.4444C6.75 17.6667 6.8354 17.8746 6.97922 18.0238C7.12215 18.172 7.31007 18.25 7.5 18.25H13.5C13.9142 18.25 14.25 18.5858 14.25 19C14.25 19.4142 13.9142 19.75 13.5 19.75H7.5C6.89428 19.75 6.31914 19.5002 5.89946 19.065C5.48067 18.6307 5.25 18.0473 5.25 17.4444V6.55556C5.25 5.95271 5.48067 5.36931 5.89946 4.93501ZM14.714 8.33014C15.0226 8.05383 15.4967 8.08 15.773 8.38858L18.5587 11.4997C18.8138 11.7845 18.8138 12.2155 18.5587 12.5003L15.773 15.6114C15.4967 15.92 15.0226 15.9462 14.714 15.6699C14.4054 15.3935 14.3792 14.9194 14.6555 14.6108L16.3217 12.75H9.75C9.33579 12.75 9 12.4142 9 12C9 11.5858 9.33579 11.25 9.75 11.25H16.3217L14.6555 9.38919C14.3792 9.08061 14.4054 8.60645 14.714 8.33014Z" fill="black"/>
</svg>
