<svg width="24" height="24" viewBox="0 0 24 24" fill="none" xmlns="http://www.w3.org/2000/svg">
<path fill-rule="evenodd" clip-rule="evenodd" d="M14.8719 7C14.8719 9.20914 13.0811 11 10.8719 11C8.66277 11 6.87191 9.20914 6.87191 7C6.87191 4.79086 8.66277 3 10.8719 3C13.0811 3 14.8719 4.79086 14.8719 7ZM13.3719 7C13.3719 8.38071 12.2526 9.5 10.8719 9.5C9.4912 9.5 8.37191 8.38071 8.37191 7C8.37191 5.61929 9.4912 4.5 10.8719 4.5C12.2526 4.5 13.3719 5.61929 13.3719 7Z" fill="#0C142B"/>
<path d="M12.9009 13.3094C13.4113 13.4738 14 13.1249 14 12.5887C14 12.3083 13.8335 12.0523 13.5694 11.9584C12.7388 11.6631 11.8277 11.5 10.8719 11.5C7.5296 11.5 4.73253 13.4941 4.02223 16.1655C3.90533 16.6052 4.26573 17 4.72066 17C5.10412 17 5.42179 16.7146 5.54282 16.3507C6.14855 14.5297 8.15618 13 10.8719 13C11.6043 13 12.2851 13.1112 12.9009 13.3094Z" fill="#0C142B"/>
<path fill-rule="evenodd" clip-rule="evenodd" d="M20.0823 17C20.0823 17.132 20.07 17.262 20.0536 17.39L20.921 18.052C20.9991 18.114 21.0217 18.222 20.9703 18.308L20.1481 19.694C20.0967 19.78 19.9898 19.814 19.8973 19.78L18.8737 19.378C18.6619 19.538 18.4297 19.67 18.1789 19.772L18.0247 20.832C18.0083 20.926 17.924 21 17.8212 21H16.1767C16.074 21 15.9897 20.926 15.9732 20.832L15.8191 19.772C15.5683 19.67 15.336 19.536 15.1243 19.378L14.1006 19.78C14.0081 19.816 13.9012 19.78 13.8498 19.694L13.0276 18.308C12.9762 18.22 12.9988 18.112 13.0769 18.052L13.9444 17.39C13.9279 17.262 13.9156 17.132 13.9156 17C13.9156 16.868 13.9279 16.738 13.9444 16.61L13.0769 15.948C12.9988 15.886 12.9762 15.778 13.0276 15.692L13.8498 14.306C13.9012 14.22 14.0081 14.186 14.1006 14.22L15.1243 14.622C15.336 14.462 15.5683 14.33 15.8191 14.228L15.9732 13.168C15.9897 13.074 16.074 13 16.1767 13H17.8212C17.924 13 18.0083 13.074 18.0268 13.168L18.1809 14.228C18.4317 14.33 18.664 14.464 18.8757 14.622L19.8994 14.22C19.9919 14.184 20.0988 14.22 20.1502 14.306L20.9724 15.692C21.0238 15.78 21.0012 15.888 20.9231 15.948L20.0536 16.61C20.07 16.738 20.0823 16.868 20.0823 17ZM15.5601 17C15.5601 17.774 16.2035 18.4 16.999 18.4C17.7945 18.4 18.4379 17.774 18.4379 17C18.4379 16.094 17.7184 15.6411 16.999 15.6411C16.2795 15.6411 15.5601 16.094 15.5601 17Z" fill="#0C142B"/>
<path fill-rule="evenodd" clip-rule="evenodd" d="M20.921 18.052C20.9991 18.114 21.0217 18.222 20.9703 18.308L20.1481 19.694C20.0967 19.78 19.9898 19.814 19.8973 19.78L18.8737 19.378C18.6619 19.538 18.4297 19.67 18.1789 19.772L18.0247 20.832C18.0083 20.926 17.924 21 17.8212 21H16.1767C16.074 21 15.9897 20.926 15.9732 20.832L15.8191 19.772C15.5683 19.67 15.336 19.536 15.1243 19.378L14.1006 19.78C14.0081 19.816 13.9012 19.78 13.8498 19.694L13.0276 18.308C12.9762 18.22 12.9988 18.112 13.0769 18.052L13.9444 17.39C13.9279 17.262 13.9156 17.132 13.9156 17C13.9156 16.868 13.9279 16.738 13.9444 16.61L13.0769 15.948C12.9988 15.886 12.9762 15.778 13.0276 15.692L13.8498 14.306C13.9012 14.22 14.0081 14.186 14.1006 14.22L15.1243 14.622C15.336 14.462 15.5683 14.33 15.8191 14.228L15.9732 13.168C15.9897 13.074 16.074 13 16.1767 13H17.8212C17.924 13 18.0083 13.074 18.0268 13.168L18.1809 14.228C18.4317 14.33 18.664 14.464 18.8757 14.622L19.8994 14.22C19.9919 14.184 20.0988 14.22 20.1502 14.306L20.9724 15.692C21.0238 15.78 21.0012 15.888 20.9231 15.948L20.0536 16.61C20.07 16.738 20.0823 16.868 20.0823 17C20.0823 17.132 20.07 17.262 20.0536 17.39L20.921 18.052ZM10.8719 11C13.0811 11 14.8719 9.20914 14.8719 7C14.8719 4.79086 13.0811 3 10.8719 3C8.66277 3 6.87191 4.79086 6.87191 7C6.87191 9.20914 8.66277 11 10.8719 11ZM10.8719 11.5C7.5296 11.5 4.73253 13.4941 4.02223 16.1655C3.90533 16.6052 4.26573 17 4.72066 17C5.10412 17 5.42179 16.7146 5.54282 16.3507C6.14855 14.5297 8.15618 13 10.8719 13C11.6043 13 12.2851 13.1112 12.9009 13.3094C13.4113 13.4738 14 13.1249 14 12.5887C14 12.3083 13.8335 12.0523 13.5694 11.9584C12.7388 11.6631 11.8277 11.5 10.8719 11.5ZM13.3719 7C13.3719 8.38071 12.2526 9.5 10.8719 9.5C9.4912 9.5 8.37191 8.38071 8.37191 7C8.37191 5.61929 9.4912 4.5 10.8719 4.5C12.2526 4.5 13.3719 5.61929 13.3719 7ZM16.999 18.4C16.2035 18.4 15.5601 17.774 15.5601 17C15.5601 16.094 16.2795 15.6411 16.999 15.6411C17.7184 15.6411 18.4379 16.094 18.4379 17C18.4379 17.774 17.7945 18.4 16.999 18.4Z" fill="#0C142B"/>
</svg>
