<svg width="20" height="20" viewBox="0 0 20 20" fill="none" xmlns="http://www.w3.org/2000/svg">
<path d="M10.1624 6.5C10.5765 6.5 10.9124 6.83582 10.9124 7.25V10.05C10.9124 10.4642 10.5765 10.8 10.1624 10.8C9.74837 10.8 9.41243 10.4642 9.41243 10.05V7.25C9.41243 6.83582 9.74837 6.5 10.1624 6.5Z" fill="black"/>
<path d="M11.1624 12.3C11.1624 12.8523 10.7147 13.3 10.1624 13.3C9.61019 13.3 9.16243 12.8523 9.16243 12.3C9.16243 11.7477 9.61019 11.3 10.1624 11.3C10.7147 11.3 11.1624 11.7477 11.1624 12.3Z" fill="black"/>
<path fill-rule="evenodd" clip-rule="evenodd" d="M11.2664 3.61359C11.0291 3.23199 10.6117 3 10.1624 3C9.71321 3 9.29573 3.23199 9.05843 3.61359L3.19613 13.3636C2.94661 13.7644 2.93441 14.2689 3.1639 14.6815C3.3929 15.0941 3.82796 15.35 4.30013 15.35H15.6641C16.1362 15.35 16.5713 15.0941 16.8003 14.6815C17.0298 14.2689 17.0176 13.7644 16.7681 13.3636L11.2664 3.61359ZM10.1624 4.29999L15.6641 14.05H4.30013L10.1624 4.29999Z" fill="black"/>
</svg>
