<svg width="24" height="24" viewBox="0 0 24 24" fill="none" xmlns="http://www.w3.org/2000/svg">
<path fill-rule="evenodd" clip-rule="evenodd" d="M11.426 8.73017C11.6894 6.27261 8.37268 5.24928 7.20552 7.42797L4.52193 12.4373C4.40403 12.6574 4.32685 12.8843 4.28636 13.1112C4.10211 13.537 4 14.0066 4 14.5C4 16.433 5.567 18 7.5 18C9.433 18 11 16.433 11 14.5C11 14.2097 10.9647 13.9277 10.8981 13.658L11.1025 11.75H12.7604L13.0666 13.8171C13.0229 14.038 13 14.2663 13 14.5C13 16.433 14.567 18 16.5 18C18.433 18 20 16.433 20 14.5C20 13.8512 19.8235 13.2437 19.5158 12.7227C19.472 12.6055 19.4175 12.4894 19.3518 12.3755L16.8955 8.11784L16.4955 7.45907C15.2216 5.36085 11.9868 6.52833 12.3465 8.9565L12.5381 10.25H11.2632L11.426 8.73017ZM16.5 16.5C15.8536 16.5 15.2789 16.1934 14.9133 15.7177C14.6541 15.3804 14.5 14.9582 14.5 14.5C14.5 14.2625 14.5414 14.0347 14.6174 13.8233C14.8947 13.0518 15.6329 12.5 16.5 12.5C17.1785 12.5 17.7781 12.8379 18.1397 13.3545C18.3668 13.679 18.5 14.0739 18.5 14.5C18.5 14.9167 18.3726 15.3036 18.1546 15.6239C17.7947 16.1527 17.1879 16.5 16.5 16.5ZM16.5 11C16.6132 11 16.7252 11.0054 16.8357 11.0159L15.6046 8.88198L15.2133 8.23754C14.7887 7.53813 13.7104 7.9273 13.8303 8.73668L14.2829 11.7916C14.8866 11.2969 15.6586 11 16.5 11ZM9.59934 11.6993L9.93458 8.57037C10.0224 7.75118 8.91679 7.41007 8.52774 8.1363L6.97246 11.0395C7.14452 11.0135 7.32068 11 7.5 11C8.28763 11 9.01449 11.2602 9.59934 11.6993ZM5.7546 13.5228C6.09705 12.9124 6.75036 12.5 7.5 12.5C8.34169 12.5 9.06195 13.0199 9.3571 13.7562C9.44928 13.9861 9.5 14.2371 9.5 14.5C9.5 14.9529 9.34943 15.3707 9.09561 15.706C8.73046 16.1884 8.15162 16.5 7.5 16.5C6.82843 16.5 6.23417 16.169 5.87146 15.6612C5.6376 15.3339 5.5 14.933 5.5 14.5C5.5 14.1451 5.59246 13.8117 5.7546 13.5228Z" fill="black"/>
</svg>
