<svg width="24" height="24" viewBox="0 0 24 24" fill="none" xmlns="http://www.w3.org/2000/svg">
<path fill-rule="evenodd" clip-rule="evenodd" d="M7.45258 7.85517C7.45258 6.91337 8.21605 6.1499 9.15784 6.1499C9.61011 6.1499 10.0438 6.32956 10.3636 6.64936C10.6834 6.96916 10.8631 7.4029 10.8631 7.85517L10.862 7.87959H11.9999H13.1379L13.1368 7.85517C13.1368 6.91337 13.9003 6.1499 14.8421 6.1499C15.7838 6.1499 16.5473 6.91337 16.5473 7.85517L16.5462 7.87959H16.6739C17.2821 7.87959 17.843 8.2031 18.1482 8.72889L20.0111 11.9485C20.3363 12.4981 20.5263 13.1381 20.5263 13.8236C20.5263 15.8642 18.8722 17.5183 16.8315 17.5183C15.0924 17.5183 13.6385 16.3156 13.2456 14.6973C12.9342 15.0321 12.4933 15.2446 11.9999 15.2446C11.5066 15.2446 11.0657 15.0321 10.7543 14.6973C10.3613 16.3156 8.90753 17.5183 7.16837 17.5183C5.12774 17.5183 3.47363 15.8642 3.47363 13.8236C3.47363 13.1381 3.66363 12.4981 3.98876 11.9485L5.85168 8.72889C6.15692 8.20253 6.71781 7.87959 7.32602 7.87959H7.45369L7.45258 7.85517ZM9.72626 13.8236C9.72626 12.4111 8.5809 11.2657 7.16837 11.2657C5.75584 11.2657 4.61047 12.4111 4.61047 13.8236C4.61047 15.2361 5.75584 16.3815 7.16837 16.3815C8.5809 16.3815 9.72626 15.2361 9.72626 13.8236ZM16.8315 11.2657C18.2441 11.2657 19.3894 12.4111 19.3894 13.8236C19.3894 15.2361 18.2441 16.3815 16.8315 16.3815C15.419 16.3815 14.2736 15.2361 14.2736 13.8236C14.2736 12.4111 15.419 11.2657 16.8315 11.2657ZM12.5684 13.5396C12.5684 13.2258 12.3137 12.9712 11.9999 12.9712C11.6862 12.9712 11.4315 13.2258 11.4315 13.5396C11.4315 13.8534 11.6862 14.108 11.9999 14.108C12.3137 14.108 12.5684 13.8534 12.5684 13.5396Z" fill="black"/>
</svg>
