<svg width="24" height="24" viewBox="0 0 24 24" fill="none" xmlns="http://www.w3.org/2000/svg">
<path d="M13.5 5.25C13.5 4.83579 13.8358 4.5 14.25 4.5H18.75C18.8517 4.5 18.9487 4.52024 19.0371 4.55691C19.1255 4.59351 19.2084 4.64776 19.2803 4.71967C19.3522 4.79158 19.4065 4.87445 19.4431 4.96291C19.4798 5.05134 19.5 5.14831 19.5 5.25V9.75C19.5 10.1642 19.1642 10.5 18.75 10.5C18.3358 10.5 18 10.1642 18 9.75V7.06066L14.0303 11.0303C13.7374 11.3232 13.2626 11.3232 12.9697 11.0303C12.6768 10.7374 12.6768 10.2626 12.9697 9.96967L16.9393 6H14.25C13.8358 6 13.5 5.66421 13.5 5.25Z" fill="black"/>
<path d="M7.06066 18L11.0303 14.0303C11.3232 13.7374 11.3232 13.2626 11.0303 12.9697C10.7374 12.6768 10.2626 12.6768 9.96967 12.9697L6 16.9393V14.25C6 13.8358 5.66421 13.5 5.25 13.5C4.83579 13.5 4.5 13.8358 4.5 14.25V18.75C4.5 18.8517 4.52024 18.9487 4.55691 19.0371C4.59351 19.1255 4.64776 19.2084 4.71967 19.2803C4.86612 19.4268 5.05806 19.5 5.25 19.5H9.75C10.1642 19.5 10.5 19.1642 10.5 18.75C10.5 18.3358 10.1642 18 9.75 18H7.06066Z" fill="black"/>
</svg>
