<svg width="24" height="24" viewBox="0 0 24 24" fill="none" xmlns="http://www.w3.org/2000/svg">
<path d="M14.3134 14.6736C12.66 16.0602 10.52 15.6336 9.38669 14.3936C8.24002 13.1402 8.14669 11.2202 9.20669 9.86024C9.80669 9.08691 10.6 8.64691 11.5667 8.52024C12.5334 8.40024 13.4 8.66691 14.18 9.25358C14.1934 9.16024 14.1934 9.07358 14.2134 9.00024C14.3 8.67358 14.6 8.46024 14.92 8.49358C15.26 8.52691 15.52 8.80691 15.5267 9.15358C15.5334 9.44691 15.5267 9.73358 15.5267 10.0269C15.5267 11.3202 15.52 12.6136 15.5267 13.9136C15.5267 14.4402 15.78 14.8336 16.2667 15.0402C16.74 15.2469 17.1934 15.1669 17.5867 14.8202C17.84 14.5936 17.9867 14.3069 17.9867 13.9669C17.9867 13.1069 18.0134 12.2469 17.9534 11.3936C17.8667 10.2469 17.4334 9.22024 16.72 8.32024C15.7334 7.07358 14.4534 6.32691 12.8867 6.08691C10.0467 5.65358 7.25336 7.36691 6.34002 10.1069C5.27336 13.3069 7.04002 16.7336 10.26 17.7336C10.8267 17.9069 11.4 17.9869 11.9934 18.0002C12.3934 18.0069 12.6867 18.2869 12.6867 18.6669C12.6867 19.0402 12.3867 19.3402 11.9934 19.3336C10.1067 19.3069 8.44669 18.6669 7.06002 17.3869C5.88669 16.3069 5.12669 14.9736 4.84002 13.4069C4.40002 11.0069 5.00669 8.87358 6.63336 7.06024C7.58002 6.00024 8.76669 5.28024 10.1467 4.93358C12.4734 4.34691 14.6067 4.78024 16.5067 6.24024C18.0134 7.40024 18.9134 8.95358 19.2334 10.8269C19.3067 11.2536 19.32 11.6936 19.3334 12.1269C19.3467 12.7336 19.34 13.3402 19.3334 13.9536C19.32 15.2336 18.3334 16.3136 17.0667 16.4669C15.9 16.6002 14.7867 15.9269 14.3734 14.8269C14.36 14.7802 14.34 14.7269 14.3134 14.6736ZM12.0267 9.82691C10.8267 9.82691 9.83336 10.8002 9.83336 12.0002C9.83336 13.2069 10.8067 14.1936 12.0134 14.2002C13.2067 14.2002 14.1934 13.2202 14.2 12.0336C14.2 10.8202 13.2267 9.83358 12.0267 9.82691Z" fill="black"/>
</svg>
