<svg width="24" height="24" viewBox="0 0 24 24" fill="none" xmlns="http://www.w3.org/2000/svg">
<path d="M15.3107 9.75L19.2803 5.78033C19.5732 5.48744 19.5732 5.01256 19.2803 4.71967C18.9874 4.42678 18.5126 4.42678 18.2197 4.71967L14.25 8.68934V6C14.25 5.58579 13.9142 5.25 13.5 5.25C13.0858 5.25 12.75 5.58579 12.75 6V10.5C12.75 10.6017 12.7702 10.6987 12.8069 10.7871C12.8432 10.8749 12.897 10.9572 12.9681 11.0287L12.9697 11.0303L12.9713 11.0319C13.0428 11.103 13.1251 11.1568 13.2129 11.1931C13.3013 11.2298 13.3983 11.25 13.5 11.25H18C18.4142 11.25 18.75 10.9142 18.75 10.5C18.75 10.0858 18.4142 9.75 18 9.75H15.3107Z" fill="black"/>
<path d="M11.1931 13.2129C11.1568 13.1251 11.103 13.0428 11.0319 12.9713L11.0303 12.9697L11.0287 12.9681C10.9572 12.897 10.8749 12.8432 10.7871 12.8069C10.6987 12.7702 10.6017 12.75 10.5 12.75H6C5.58579 12.75 5.25 13.0858 5.25 13.5C5.25 13.9142 5.58579 14.25 6 14.25H8.68934L4.71967 18.2197C4.42678 18.5126 4.42678 18.9874 4.71967 19.2803C5.01256 19.5732 5.48744 19.5732 5.78033 19.2803L9.75 15.3107V18C9.75 18.4142 10.0858 18.75 10.5 18.75C10.9142 18.75 11.25 18.4142 11.25 18V13.5C11.25 13.3983 11.2298 13.3013 11.1931 13.2129Z" fill="black"/>
</svg>
