<svg width="24" height="24" viewBox="0 0 24 24" fill="none" xmlns="http://www.w3.org/2000/svg">
<path fill-rule="evenodd" clip-rule="evenodd" d="M19.0597 6.39936C19.2636 6.52171 19.4 6.74492 19.4 7V18C19.4 18.1671 19.3402 18.3287 19.2315 18.4556C17.517 20.4558 14.3605 21.0774 11.605 20.9492C10.2009 20.8839 8.8315 20.6227 7.69907 20.2033C6.5952 19.7945 5.59845 19.1913 5.09975 18.3602C5.03448 18.2514 5 18.1269 5 18V7C5 6.74491 5.13645 6.52168 5.34035 6.39933C5.98953 5.03032 8.81402 4 12.2 4C15.586 4 18.4105 5.03033 19.0597 6.39936ZM17.795 7C17.7815 6.96985 17.7451 6.9085 17.6535 6.81567C17.4671 6.62679 17.1279 6.39246 16.5983 6.16548C15.544 5.71365 13.99 5.4 12.2 5.4C10.4101 5.4 8.85602 5.71365 7.80175 6.16548C7.27213 6.39246 6.93297 6.62679 6.74655 6.81567C6.65494 6.9085 6.61857 6.96985 6.60498 7C6.61857 7.03015 6.65494 7.0915 6.74655 7.18433C6.93297 7.37321 7.27213 7.60754 7.80175 7.83452C8.85602 8.28635 10.4101 8.6 12.2 8.6C13.99 8.6 15.544 8.28635 16.5983 7.83452C17.1279 7.60754 17.4671 7.37321 17.6535 7.18433C17.7451 7.0915 17.7815 7.03015 17.795 7ZM12.2 10C14.6134 10 16.7415 9.47659 18 8.68019V10.9125C17.98 10.9225 17.9602 10.9336 17.9408 10.9457C17.4152 11.2746 16.4752 11.7383 14.3965 12.0653C14.0146 12.1253 13.7537 12.4836 13.8138 12.8655C13.8739 13.2474 14.2322 13.5083 14.6141 13.4483C16.2404 13.1924 17.2797 12.8473 18 12.506V14.1099C13.6842 16.4251 8.45209 15.6417 6.4 14.1555V12.4554C7.11922 12.8087 8.1744 13.1691 9.87594 13.4266C10.2565 13.4841 10.6154 13.2201 10.6775 12.8367C10.7397 12.4534 10.4816 12.096 10.1011 12.0384C8.03008 11.7251 7.09565 11.2672 6.57363 10.9415C6.51826 10.907 6.45985 10.8813 6.4 10.864V8.68018C7.65853 9.47658 9.78664 10 12.2 10Z" fill="black"/>
</svg>
