<svg width="24" height="24" viewBox="0 0 24 24" fill="none" xmlns="http://www.w3.org/2000/svg">
<path d="M17.23 6.39L18.69 4.45C18.8093 4.29087 18.8606 4.09085 18.8324 3.89393C18.8043 3.69702 18.6991 3.51935 18.54 3.4C18.4612 3.34091 18.3715 3.29791 18.2761 3.27346C18.1807 3.24902 18.0814 3.24361 17.9839 3.25754C17.787 3.28567 17.6093 3.39087 17.49 3.55L16 5.48C15.8793 5.63913 15.8268 5.83968 15.854 6.03753C15.8812 6.23538 15.9858 6.41433 16.145 6.535C16.3041 6.65567 16.5047 6.70819 16.7025 6.681C16.9004 6.65381 17.0793 6.54913 17.2 6.39H17.23Z" fill="black"/>
<path d="M14.17 4.16C14.1167 4.05639 14.0402 3.96643 13.9466 3.89707C13.853 3.82771 13.7446 3.78081 13.63 3.76C13.5135 3.74725 13.3956 3.76236 13.2861 3.80409C13.1765 3.84582 13.0785 3.91296 13 4L4.49998 12.15L2.91998 13C2.53813 13.2329 2.2613 13.6046 2.14757 14.0371C2.03384 14.4697 2.09205 14.9294 2.30998 15.32L3.79998 18C3.91 18.2012 4.0596 18.3781 4.23978 18.52C4.41996 18.6619 4.62699 18.7659 4.84841 18.8257C5.06983 18.8855 5.30106 18.8999 5.52818 18.868C5.7553 18.836 5.97361 18.7585 6.16998 18.64L7.25998 18L8.59998 19.35C8.74827 19.4944 8.92986 19.6001 9.12869 19.6576C9.32752 19.7152 9.53747 19.7229 9.73998 19.68L13.38 18.87C13.5407 18.8348 13.6928 18.7677 13.8271 18.6726C13.9615 18.5776 14.0754 18.4565 14.1621 18.3166C14.2488 18.1768 14.3066 18.0209 14.332 17.8583C14.3574 17.6957 14.3499 17.5297 14.31 17.37L14 16.3L18.63 15.23C18.7404 15.2046 18.8437 15.1546 18.9321 15.0836C19.0204 15.0125 19.0915 14.9224 19.14 14.82C19.1896 14.7171 19.2154 14.6043 19.2154 14.49C19.2154 14.3757 19.1896 14.2629 19.14 14.16L14.17 4.16ZM5.40998 17.36C5.38461 17.376 5.35625 17.3866 5.32662 17.3912C5.297 17.3959 5.26674 17.3944 5.23771 17.3869C5.20868 17.3794 5.18149 17.3661 5.1578 17.3477C5.13412 17.3293 5.11444 17.3063 5.09998 17.28L3.60998 14.62C3.58343 14.569 3.57691 14.51 3.59172 14.4545C3.60652 14.3989 3.64158 14.351 3.68998 14.32L4.68998 13.75L6.38998 16.75L5.40998 17.36ZM9.55998 18.18L8.85998 17.49L12.58 16.63L12.79 17.47L9.55998 18.18ZM7.74998 16.18L5.86998 12.85L11.13 7.85L14.57 14.68L7.74998 16.18ZM16.07 14.26L12.26 6.72L13.26 5.72L17.4 14L16.07 14.26Z" fill="black"/>
<path d="M21.65 11L19.21 10.52C19.0137 10.4815 18.8102 10.5226 18.6442 10.6342C18.4783 10.7458 18.3634 10.9187 18.325 11.115C18.2865 11.3113 18.3276 11.5148 18.4392 11.6807C18.5508 11.8467 18.7237 11.9615 18.92 12L21.35 12.48C21.4504 12.5127 21.5566 12.5239 21.6616 12.5128C21.7666 12.5017 21.8681 12.4685 21.9594 12.4154C22.0507 12.3623 22.1297 12.2906 22.1914 12.2049C22.2531 12.1191 22.2959 12.0214 22.3172 11.9179C22.3384 11.8145 22.3376 11.7077 22.3147 11.6046C22.2919 11.5015 22.2475 11.4044 22.1845 11.3196C22.1215 11.2349 22.0414 11.1644 21.9492 11.1127C21.8571 11.0611 21.7551 11.0295 21.65 11.02V11Z" fill="black"/>
<path d="M17.4 8.65C17.4379 8.74297 17.4944 8.82724 17.566 8.89769C17.6375 8.96813 17.7227 9.02327 17.8162 9.05976C17.9098 9.09625 18.0098 9.11331 18.1101 9.10991C18.2105 9.10651 18.3091 9.08273 18.4 9.04L21.81 7.59C21.9068 7.5564 21.9958 7.50329 22.0713 7.43396C22.1469 7.36463 22.2074 7.28055 22.2492 7.18691C22.2909 7.09327 22.313 6.99206 22.3141 6.88953C22.3153 6.78701 22.2953 6.68534 22.2556 6.59082C22.2159 6.4963 22.1572 6.41093 22.0832 6.33998C22.0092 6.26903 21.9214 6.21401 21.8253 6.17832C21.7291 6.14263 21.6267 6.12703 21.5243 6.13248C21.4219 6.13793 21.3218 6.16431 21.23 6.21L17.8 7.66C17.6165 7.73928 17.4717 7.88763 17.3968 8.07292C17.322 8.25821 17.3231 8.46554 17.4 8.65Z" fill="black"/>
</svg>
