<svg width="24" height="24" viewBox="0 0 24 24" fill="none" xmlns="http://www.w3.org/2000/svg">
<path d="M8 8.75C8 8.33579 8.33579 8 8.75 8H15.25C15.6642 8 16 8.33579 16 8.75C16 9.16421 15.6642 9.5 15.25 9.5H8.75C8.33579 9.5 8 9.16421 8 8.75Z" fill="black"/>
<path d="M8.75 10.5C8.33579 10.5 8 10.8358 8 11.25C8 11.6642 8.33579 12 8.75 12H11.25C11.6642 12 12 11.6642 12 11.25C12 10.8358 11.6642 10.5 11.25 10.5H8.75Z" fill="black"/>
<path fill-rule="evenodd" clip-rule="evenodd" d="M5 6C5 5.44772 5.44772 5 6 5H18C18.5523 5 19 5.44772 19 6V13.5858C19 13.851 18.8946 14.1054 18.7071 14.2929L14.2929 18.7071C14.1054 18.8946 13.851 19 13.5858 19H6C5.44772 19 5 18.5523 5 18V6ZM6.5 17.5V6.5H17.5V12.75H13.5C13.0858 12.75 12.75 13.0858 12.75 13.5V17.5H6.5ZM14.25 16.6287L16.6287 14.25H14.25V16.6287Z" fill="black"/>
</svg>
