<svg width="24" height="24" viewBox="0 0 24 24" fill="none" xmlns="http://www.w3.org/2000/svg">
<path fill-rule="evenodd" clip-rule="evenodd" d="M12 3.75C10.7574 3.75 9.75 4.75736 9.75 6V6.5H9.81829C8.1502 7.31036 7.00035 9.0209 7.00035 11V13.5L5.03682 16.4453C4.59378 17.1099 5.07017 18 5.86887 18H9.29534C9.53047 19.2801 10.652 20.25 12 20.25C13.348 20.25 14.4695 19.2801 14.7047 18H18.1318C18.9305 18 19.4069 17.1099 18.9639 16.4453L17.0004 13.5V11C17.0004 9.0209 15.8505 7.31036 14.1824 6.5H14.25V6C14.25 4.75736 13.2426 3.75 12 3.75ZM12.75 6.05582V6C12.75 5.58579 12.4142 5.25 12 5.25C11.5858 5.25 11.25 5.58579 11.25 6V6.05593C11.4948 6.01909 11.7453 6 12.0004 6C12.2551 6 12.5055 6.01906 12.75 6.05582ZM8.50035 13.9542L6.80313 16.5H17.1976L15.5004 13.9542V11C15.5004 9.067 13.9333 7.5 12.0004 7.5C10.0674 7.5 8.50035 9.067 8.50035 11V13.9542ZM12 18.75C11.4874 18.75 11.0469 18.4415 10.854 18H13.146C12.9531 18.4415 12.5126 18.75 12 18.75Z" fill="black"/>
</svg>
