<svg width="24" height="24" viewBox="0 0 24 24" fill="none" xmlns="http://www.w3.org/2000/svg">
<path fill-rule="evenodd" clip-rule="evenodd" d="M12 20C16.4183 20 20 16.4183 20 12C20 7.58172 16.4183 4 12 4C7.58172 4 4 7.58172 4 12C4 16.4183 7.58172 20 12 20ZM11.2921 12.6047C11.1744 12.9398 11.1155 13.361 11.1155 13.8683C11.1155 13.9434 11.1763 14.0042 11.2514 14.0042H12.2976C12.3726 14.0042 12.4335 13.9434 12.4335 13.8683C12.4335 13.4969 12.4969 13.1889 12.6237 12.9444C12.7505 12.6998 12.909 12.4914 13.0992 12.3193C13.2895 12.1382 13.4978 11.9751 13.7243 11.8302C13.9507 11.6762 14.1591 11.5041 14.3493 11.3139C14.5395 11.1146 14.698 10.8745 14.8249 10.5937C14.9517 10.3129 15.0151 9.95965 15.0151 9.53391C15.0151 9.13534 14.9381 8.77301 14.7841 8.44691C14.6392 8.11175 14.4308 7.82642 14.1591 7.5909C13.8873 7.35538 13.5658 7.17422 13.1944 7.0474C12.823 6.92059 12.4153 6.85718 11.9715 6.85718C11.1653 6.85718 10.504 7.0474 9.98772 7.42785C9.68755 7.64762 9.43971 7.90228 9.24421 8.19182C9.01812 8.52668 9.2196 8.95505 9.59807 9.09649C9.96764 9.23462 10.3693 9.04381 10.622 8.74078C10.698 8.64952 10.781 8.56515 10.8709 8.48767C11.1427 8.25216 11.5005 8.1344 11.9443 8.1344C12.4063 8.1344 12.7822 8.26575 13.0721 8.52844C13.371 8.78207 13.5205 9.1127 13.5205 9.52032C13.5205 9.81019 13.4616 10.0502 13.3438 10.2405C13.2261 10.4216 13.0766 10.5892 12.8954 10.7432C12.7143 10.8881 12.5195 11.0376 12.3112 11.1916C12.1119 11.3456 11.9217 11.5358 11.7405 11.7623C11.5593 11.9887 11.4099 12.2695 11.2921 12.6047ZM11.0204 16.844C11.2196 17.0433 11.4733 17.1429 11.7813 17.1429C12.0802 17.1429 12.3248 17.0433 12.515 16.844C12.7143 16.6447 12.8139 16.3956 12.8139 16.0967C12.8139 15.7977 12.7188 15.5486 12.5286 15.3493C12.3383 15.1501 12.0892 15.0504 11.7813 15.0504C11.4733 15.0504 11.2196 15.1501 11.0204 15.3493C10.8301 15.5486 10.735 15.7977 10.735 16.0967C10.735 16.3956 10.8301 16.6447 11.0204 16.844Z" fill="black"/>
</svg>
