<svg width="24" height="24" viewBox="0 0 24 24" fill="none" xmlns="http://www.w3.org/2000/svg">
<path fill-rule="evenodd" clip-rule="evenodd" d="M4 12C4 7.6 7.6 4 12 4C16.4 4 20 7.6 20 12C20 16.4 16.4 20 12 20C7.6 20 4 16.4 4 12ZM8.28691 11.7046C8.07919 11.7046 7.8799 11.7868 7.73258 11.9332C7.65888 12.0063 7.60039 12.0933 7.56047 12.1891C7.52055 12.2849 7.5 12.3877 7.5 12.4915C7.5 12.5953 7.52055 12.698 7.56047 12.7938C7.60039 12.8897 7.65888 12.9766 7.73258 13.0497L10.0914 15.4086C10.2388 15.555 10.438 15.6372 10.6458 15.6372C10.8535 15.6372 11.0528 15.555 11.2001 15.4086L16.3109 10.2977C16.4397 10.1473 16.5071 9.95382 16.4994 9.75594C16.4918 9.55805 16.4097 9.37033 16.2697 9.2303C16.1297 9.09027 15.942 9.00823 15.7441 9.00059C15.5462 8.99294 15.3527 9.06025 15.2023 9.18907L10.6497 13.7416L8.84124 11.9332C8.69392 11.7868 8.49464 11.7046 8.28691 11.7046Z" fill="black"/>
</svg>
