<svg width="24" height="24" viewBox="0 0 24 24" fill="none" xmlns="http://www.w3.org/2000/svg">
<path d="M12 4C7.6 4 4 7.6 4 12C4 16.4 7.6 20 12 20C16.4 20 20 16.4 20 12C20 7.6 16.4 4 12 4ZM15.5 14.5C15.7761 14.7761 15.7761 15.2239 15.5 15.5C15.2239 15.7761 14.7761 15.7761 14.5 15.5L12 13L9.5 15.5C9.22386 15.7761 8.77614 15.7761 8.5 15.5C8.22386 15.2239 8.22386 14.7761 8.5 14.5L11 12L8.5 9.5C8.22386 9.22386 8.22386 8.77614 8.5 8.5C8.77614 8.22386 9.22386 8.22386 9.5 8.5L12 11L14.5 8.5C14.7761 8.22386 15.2239 8.22386 15.5 8.5C15.7761 8.77614 15.7761 9.22386 15.5 9.5L13 12L15.5 14.5Z" fill="black"/>
</svg>
