<svg width="24" height="24" viewBox="0 0 24 24" fill="none" xmlns="http://www.w3.org/2000/svg">
<path fill-rule="evenodd" clip-rule="evenodd" d="M12 20C16.4183 20 20 16.4183 20 12C20 7.58172 16.4183 4 12 4C7.58172 4 4 7.58172 4 12C4 16.4183 7.58172 20 12 20ZM9.1 12C9.1 12.7179 8.51797 13.3 7.8 13.3C7.08203 13.3 6.5 12.7179 6.5 12C6.5 11.282 7.08203 10.7 7.8 10.7C8.51797 10.7 9.1 11.282 9.1 12ZM13.3 12C13.3 12.7179 12.7179 13.3 12 13.3C11.282 13.3 10.7 12.7179 10.7 12C10.7 11.282 11.282 10.7 12 10.7C12.7179 10.7 13.3 11.282 13.3 12ZM17.4999 12C17.4999 12.7179 16.9179 13.3 16.1999 13.3C15.4819 13.3 14.8999 12.7179 14.8999 12C14.8999 11.282 15.4819 10.7 16.1999 10.7C16.9179 10.7 17.4999 11.282 17.4999 12Z" fill="black"/>
</svg>
