<svg width="24" height="24" viewBox="0 0 24 24" fill="none" xmlns="http://www.w3.org/2000/svg">
<path d="M12 4C7.58187 4 4 7.58187 4 12C4 16.4181 7.58187 20 12 20C16.4181 20 20 16.4181 20 12C20 7.58187 16.4181 4 12 4ZM11.0756 15.4532V11.7909C11.0756 11.5458 11.173 11.3106 11.3463 11.1373C11.5197 10.9639 11.7548 10.8665 12 10.8665C12.2452 10.8665 12.4803 10.9639 12.6537 11.1373C12.827 11.3106 12.9244 11.5458 12.9244 11.7909V15.4532C12.9244 15.6983 12.827 15.9335 12.6537 16.1068C12.4803 16.2802 12.2452 16.3776 12 16.3776C11.7548 16.3776 11.5197 16.2802 11.3463 16.1068C11.173 15.9335 11.0756 15.6983 11.0756 15.4532ZM12 9.85778C11.7802 9.85778 11.5654 9.79261 11.3827 9.67052C11.2 9.54843 11.0576 9.3749 10.9735 9.17187C10.8894 8.96884 10.8674 8.74543 10.9102 8.5299C10.9531 8.31437 11.0589 8.11638 11.2143 7.96099C11.3697 7.8056 11.5677 7.69978 11.7832 7.65691C11.9988 7.61403 12.2222 7.63604 12.4252 7.72013C12.6282 7.80423 12.8018 7.94665 12.9239 8.12937C13.0459 8.31209 13.1111 8.52691 13.1111 8.74667C13.1111 9.04135 12.994 9.32397 12.7857 9.53234C12.5773 9.74072 12.2947 9.85778 12 9.85778Z" fill="black"/>
</svg>
