<svg width="24" height="24" viewBox="0 0 24 24" fill="none" xmlns="http://www.w3.org/2000/svg">
<path fill-rule="evenodd" clip-rule="evenodd" d="M4 12C4 7.6 7.6 4 12 4C16.4 4 20 7.6 20 12C20 16.4 16.4 20 12 20C7.6 20 4 16.4 4 12ZM13.3211 8.4C13.3605 7.63099 12.7493 7 12 7C11.2507 7 10.6394 7.63099 10.6788 8.4L10.9352 12.5934C10.9746 13.1653 11.4281 13.5991 12 13.5991C12.5718 13.5991 13.045 13.1653 13.0648 12.5934L13.3211 8.4ZM10.6 16.1427C10.6 16.9117 11.231 17.5427 12 17.5427C12.769 17.5427 13.4 16.9117 13.4 16.1427C13.4 15.3737 12.769 14.7427 12 14.7427C11.231 14.7427 10.6 15.3737 10.6 16.1427Z" fill="black"/>
</svg>
