<svg width="24" height="24" viewBox="0 0 24 24" fill="none" xmlns="http://www.w3.org/2000/svg">
<path fill-rule="evenodd" clip-rule="evenodd" d="M21.875 6.85714C21.875 7.33053 21.4912 7.71429 21.0179 7.71429H8.23214C7.75876 7.71429 7.375 7.33053 7.375 6.85714C7.375 6.38376 7.75876 6 8.23214 6H21.0179C21.4912 6 21.875 6.38376 21.875 6.85714Z" fill="#333333"/>
<path fill-rule="evenodd" clip-rule="evenodd" d="M21.875 12C21.875 12.4734 21.4912 12.8571 21.0179 12.8571H8.23214C7.75876 12.8571 7.375 12.4734 7.375 12C7.375 11.5266 7.75876 11.1429 8.23214 11.1429H21.0179C21.4912 11.1429 21.875 11.5266 21.875 12Z" fill="#333333"/>
<path fill-rule="evenodd" clip-rule="evenodd" d="M21.875 17.1429C21.875 17.6162 21.4912 18 21.0179 18H8.23214C7.75876 18 7.375 17.6162 7.375 17.1429C7.375 16.6695 7.75876 16.2857 8.23214 16.2857H21.0179C21.4912 16.2857 21.875 16.6695 21.875 17.1429Z" fill="#333333"/>
<path fill-rule="evenodd" clip-rule="evenodd" d="M3.80414 6.53321C3.99742 6.60738 4.125 6.79299 4.125 7.00002V9.96298C4.125 10.2391 3.90115 10.463 3.625 10.463C3.34886 10.463 3.125 10.2391 3.125 9.96298V8.303L2.99665 8.44561C2.81192 8.65087 2.49578 8.66751 2.29052 8.48278C2.08527 8.29805 2.06863 7.9819 2.25336 7.77665L3.25336 6.66554C3.39185 6.51166 3.61085 6.45904 3.80414 6.53321Z" fill="#333333"/>
<path fill-rule="evenodd" clip-rule="evenodd" d="M2.66642 13.6612C2.86263 13.5319 3.10126 13.463 3.375 13.463C3.77704 13.463 4.08646 13.6121 4.2968 13.8436C4.49171 14.0582 4.56728 14.3052 4.59815 14.4605C4.59932 14.4664 4.60039 14.4723 4.60135 14.4782C4.61841 14.5838 4.6164 14.692 4.59534 14.797C4.57512 14.8978 4.53732 14.9956 4.4823 15.0849L3.49199 16.7963H4.125C4.40114 16.7963 4.625 17.0202 4.625 17.2963C4.625 17.5725 4.40114 17.7963 4.125 17.7963H2.625C2.44628 17.7963 2.28115 17.7009 2.19187 17.5461C2.10258 17.3913 2.10272 17.2006 2.19223 17.0459L3.60433 14.6055C3.59199 14.5679 3.57537 14.5367 3.55663 14.5161C3.54594 14.5043 3.53282 14.4938 3.51227 14.4849C3.49118 14.4759 3.44927 14.463 3.375 14.463C3.27374 14.463 3.23112 14.4866 3.2164 14.4963C3.19884 14.5079 3.18146 14.5264 3.16485 14.5592C3.14719 14.5941 3.13587 14.635 3.12975 14.6713C3.12689 14.6882 3.12565 14.7012 3.12516 14.708L3.125 14.7105V14.8888C3.125 15.165 2.90114 15.3888 2.625 15.3888C2.34886 15.3888 2.125 15.165 2.125 14.8888V14.7038H2.625C2.125 14.7038 2.125 14.7038 2.125 14.7038L2.125 14.7028L2.125 14.7017L2.12502 14.6993L2.12509 14.6935L2.12547 14.6786C2.12585 14.6672 2.12654 14.6529 2.12777 14.6359C2.1302 14.6022 2.13483 14.5574 2.14369 14.5049C2.161 14.4022 2.19656 14.2579 2.27265 14.1076C2.34979 13.9552 2.47303 13.7885 2.66642 13.6612Z" fill="#333333"/>
</svg>
