<svg width="24" height="24" viewBox="0 0 24 24" fill="none" xmlns="http://www.w3.org/2000/svg">
<path d="M10.937 7.5H18.5C18.7761 7.5 19 7.72386 19 8C19 8.27614 18.7761 8.5 18.5 8.5H10.937C10.715 9.36261 9.93192 10 9 10C8.06808 10 7.28503 9.36261 7.06301 8.5H5.5C5.22386 8.5 5 8.27614 5 8C5 7.72386 5.22386 7.5 5.5 7.5H7.06301C7.28503 6.63739 8.06808 6 9 6C9.93192 6 10.715 6.63739 10.937 7.5Z" fill="black"/>
<path d="M18.5 16.5C18.7761 16.5 19 16.2761 19 16C19 15.7239 18.7761 15.5 18.5 15.5H12.937C12.715 14.6374 11.9319 14 11 14C10.0681 14 9.28503 14.6374 9.06301 15.5H5.5C5.22386 15.5 5 15.7239 5 16C5 16.2761 5.22386 16.5 5.5 16.5H9.06301C9.28503 17.3626 10.0681 18 11 18C11.9319 18 12.715 17.3626 12.937 16.5H18.5Z" fill="black"/>
<path d="M19 12C19 12.2761 18.7761 12.5 18.5 12.5H15.937C15.715 13.3626 14.9319 14 14 14C13.0681 14 12.285 13.3626 12.063 12.5H5.5C5.22386 12.5 5 12.2761 5 12C5 11.7239 5.22386 11.5 5.5 11.5H12.063C12.285 10.6374 13.0681 10 14 10C14.9319 10 15.715 10.6374 15.937 11.5H18.5C18.7761 11.5 19 11.7239 19 12Z" fill="black"/>
</svg>
