<svg width="24" height="24" viewBox="0 0 24 24" fill="none" xmlns="http://www.w3.org/2000/svg">
<path fill-rule="evenodd" clip-rule="evenodd" d="M18.5 15.25H17.75V13C17.75 12.6685 17.6183 12.3505 17.3839 12.1161C17.1495 11.8817 16.8315 11.75 16.5 11.75H12.75V9.75H14.5C14.8315 9.75 15.1495 9.6183 15.3839 9.38388C15.6183 9.14946 15.75 8.83152 15.75 8.5V5.5C15.75 5.16848 15.6183 4.85054 15.3839 4.61612C15.1495 4.3817 14.8315 4.25 14.5 4.25H9.5C9.16848 4.25 8.85054 4.3817 8.61612 4.61612C8.3817 4.85054 8.25 5.16848 8.25 5.5V8.5C8.25 8.83152 8.3817 9.14946 8.61612 9.38388C8.85054 9.6183 9.16848 9.75 9.5 9.75H11.25V11.75H7.5C7.16848 11.75 6.85054 11.8817 6.61612 12.1161C6.3817 12.3505 6.25 12.6685 6.25 13V15.25H5.5C5.16848 15.25 4.85054 15.3817 4.61612 15.6161C4.3817 15.8505 4.25 16.1685 4.25 16.5V18.5C4.25 18.8315 4.3817 19.1495 4.61612 19.3839C4.85054 19.6183 5.16848 19.75 5.5 19.75H8.5C8.83152 19.75 9.14946 19.6183 9.38388 19.3839C9.6183 19.1495 9.75 18.8315 9.75 18.5V16.5C9.75 16.1685 9.6183 15.8505 9.38388 15.6161C9.14946 15.3817 8.83152 15.25 8.5 15.25H7.75V13.25H16.25V15.25H15.5C15.1685 15.25 14.8505 15.3817 14.6161 15.6161C14.3817 15.8505 14.25 16.1685 14.25 16.5V18.5C14.25 18.8315 14.3817 19.1495 14.6161 19.3839C14.8505 19.6183 15.1685 19.75 15.5 19.75H18.5C18.8315 19.75 19.1495 19.6183 19.3839 19.3839C19.6183 19.1495 19.75 18.8315 19.75 18.5V16.5C19.75 16.1685 19.6183 15.8505 19.3839 15.6161C19.1495 15.3817 18.8315 15.25 18.5 15.25ZM8.25 16.75V18.25H5.75V16.75H8.25ZM9.75 8.25V5.75H14.25V8.25H9.75ZM18.25 18.25H15.75V16.75H18.25V18.25Z" fill="black"/>
</svg>
