<svg width="24" height="24" viewBox="0 0 24 24" fill="none" xmlns="http://www.w3.org/2000/svg">
<path fill-rule="evenodd" clip-rule="evenodd" d="M11.0994 16.5959C10.9889 16.5959 10.8994 16.5063 10.8994 16.3959L10.8994 12.7711C10.8994 10.4554 11.9502 9.25767 13.0247 8.65113C14.0827 8.05389 15.1425 8.04024 15.1772 8.04024H17.6796L15.6204 5.98494C15.5828 5.94745 15.5617 5.89656 15.5617 5.84348C15.5617 5.79041 15.5827 5.7395 15.6203 5.70197L16.2637 5.05858C16.3012 5.02107 16.352 5 16.4051 5C16.4581 5 16.509 5.02107 16.5465 5.05858L19.7181 8.23021C19.8398 8.35258 19.9085 8.51853 19.9085 8.69106C19.9085 8.8636 19.8402 9.02913 19.7186 9.15149L16.5465 12.3236C16.509 12.3611 16.4581 12.3821 16.4051 12.3821C16.352 12.3821 16.3012 12.3611 16.2637 12.3236L15.6248 11.6847C15.5467 11.6066 15.5467 11.48 15.6248 11.4019L17.6802 9.34642H15.1772C15.1288 9.34642 14.378 9.36094 13.6459 9.7953C12.93 10.22 12.2056 11.0606 12.2056 12.7711L12.2056 16.3959C12.2056 16.5063 12.116 16.5959 12.0056 16.5959H11.0994ZM11.5433 6.33467C11.6537 6.33467 11.7433 6.24513 11.7433 6.13467V5.22849C11.7433 5.11803 11.6537 5.02849 11.5433 5.02849L8.37164 5.02849C7.47742 5.02849 6.61983 5.38372 5.98753 6.01602C5.35523 6.64832 5 7.50591 5 8.40013L5 16.5558C5 17.45 5.35523 18.3076 5.98753 18.9399C6.61983 19.5722 7.47742 19.9274 8.37164 19.9274L16.5273 19.9274C17.4215 19.9274 18.2791 19.5722 18.9114 18.9399C19.5437 18.3076 19.8989 17.45 19.8989 16.5558L19.8989 13.8372C19.8989 13.7268 19.8094 13.6372 19.6989 13.6372H18.7927C18.6823 13.6372 18.5927 13.7268 18.5927 13.8372V16.5558C18.5927 17.1036 18.3751 17.6289 17.9878 18.0163C17.6004 18.4036 17.0751 18.6212 16.5273 18.6212L8.37164 18.6212C7.82384 18.6212 7.29849 18.4036 6.91114 18.0163C6.52379 17.6289 6.30618 17.1036 6.30618 16.5558L6.30618 8.40013C6.30618 7.85233 6.52379 7.32698 6.91114 6.93963C7.29849 6.55228 7.82384 6.33467 8.37164 6.33467L11.5433 6.33467Z" fill="black"/>
</svg>
