<svg width="16" height="16" viewBox="0 0 16 16" fill="none" xmlns="http://www.w3.org/2000/svg">
<path d="M7.22538 1.00044C9.36963 1.00044 12.6094 1.65715 14.1175 3.1635C14.4999 3.54545 15 4.29316 15 5.3887C15 7.33694 13.4289 10.3256 11.6937 12.0586C10.7968 12.9546 9.37008 14.1254 7.45071 14.1254C5.57465 14.1254 4.14177 12.8522 3.72701 12.4379C2.13796 10.8506 1 8.44123 1 6.1946C1 4.77793 1.40427 3.53801 2.43637 2.50723C3.39233 1.55258 5.03955 1 7.22581 1L7.22538 1.00044ZM9.87978 8.76849C10.6039 8.04528 10.7985 7.15406 10.7985 6.66405C10.7985 6.30835 10.7045 5.78727 10.2595 5.34276C9.57658 4.66067 8.82055 4.46817 7.99802 4.46817C6.95587 4.46817 6.25629 4.79718 5.78947 5.26313C5.42371 5.62845 5.10738 6.18978 5.10738 6.98781C5.10738 7.78583 5.53351 8.55542 5.99728 9.01874C6.4256 9.44619 7.09893 9.76339 7.77708 9.76339C8.45522 9.76339 9.15524 9.49213 9.87933 8.76849H9.87978Z" fill="black"/>
</svg>
