<svg width="16" height="16" viewBox="0 0 16 16" fill="none" xmlns="http://www.w3.org/2000/svg">
<path d="M6.65823 3.22154C7.17424 2.68388 7.89265 2.35043 8.68718 2.35043C9.74336 2.35043 10.6648 2.93938 11.1556 3.81368C11.582 3.62314 12.054 3.51715 12.5507 3.51715C14.4556 3.51715 16 5.07499 16 6.99658C16 8.91841 14.4556 10.4762 12.5507 10.4762C12.3182 10.4762 12.0909 10.453 11.8712 10.4085C11.4391 11.1794 10.6156 11.7002 9.67043 11.7002C9.27476 11.7002 8.90051 11.6088 8.56729 11.4463C8.12923 12.4767 7.1086 13.1992 5.91909 13.1992C4.68034 13.1992 3.62462 12.4154 3.21937 11.3161C3.04228 11.3537 2.8588 11.3733 2.67054 11.3733C1.19567 11.3733 0 10.1654 0 8.67499C0 7.67624 0.537208 6.80422 1.33538 6.33767C1.17105 5.95955 1.07966 5.54222 1.07966 5.10348C1.07966 3.38952 2.47111 2.00012 4.18735 2.00012C5.19499 2.00012 6.09048 2.4792 6.65823 3.22154Z" fill="black"/>
</svg>
