<svg width="24" height="24" viewBox="0 0 24 24" fill="none" xmlns="http://www.w3.org/2000/svg">
<path d="M10.6481 16.3683L10.6483 16.3689C11.1047 17.5944 11.7215 18.6293 12.5 19.4715C12.6884 19.6753 12.9552 19.78 13.2274 19.78H14.0824C14.1871 19.78 14.272 19.6951 14.272 19.5904C14.272 19.5409 14.2527 19.4937 14.2186 19.4584C13.2794 18.4849 12.5624 17.3525 12.0675 16.0605C11.5773 14.7562 11.332 13.3869 11.332 11.952C11.332 10.4801 11.5911 9.0642 12.1094 7.70373C12.6315 6.34819 13.4027 5.18899 14.4229 4.2248C14.4604 4.18939 14.482 4.13996 14.482 4.08791C14.482 3.98413 14.3979 3.9 14.2941 3.9H13.426C13.1613 3.9 12.9014 3.99788 12.7121 4.1899C11.8507 5.06359 11.1772 6.14181 10.6905 7.42248L10.6904 7.42282C10.1632 8.82561 9.9 10.3356 9.9 11.952C9.9 13.5307 10.1491 15.0031 10.6481 16.3683Z" fill="black" stroke="black" stroke-width="0.2"/>
</svg>
