<svg width="24" height="24" viewBox="0 0 24 24" fill="none" xmlns="http://www.w3.org/2000/svg">
<path d="M13.7338 16.3683L13.7335 16.3689C13.2772 17.5944 12.6603 18.6293 11.8818 19.4715C11.6934 19.6753 11.4266 19.78 11.1544 19.78H10.2995C10.1947 19.78 10.1098 19.6951 10.1098 19.5904C10.1098 19.5409 10.1292 19.4937 10.1632 19.4584C11.1025 18.4849 11.8195 17.3525 12.3143 16.0605C12.8046 14.7562 13.0498 13.3869 13.0498 11.952C13.0498 10.4801 12.7907 9.0642 12.2724 7.70373C11.7503 6.34819 10.9792 5.18899 9.95891 4.2248C9.92144 4.18939 9.89984 4.13996 9.89984 4.08791C9.89984 3.98413 9.98397 3.9 10.0877 3.9H10.9558C11.2205 3.9 11.4804 3.99788 11.6697 4.1899C12.5312 5.06359 13.2047 6.14181 13.6913 7.42248L13.6914 7.42282C14.2187 8.82561 14.4818 10.3356 14.4818 11.952C14.4818 13.5307 14.2328 15.0031 13.7338 16.3683Z" fill="black" stroke="black" stroke-width="0.2"/>
</svg>
