<svg width="16" height="16" viewBox="0 0 16 16" fill="none" xmlns="http://www.w3.org/2000/svg">
<path d="M2 4C2 2.89543 2.89543 2 4 2H12C13.1046 2 14 2.89543 14 4V4.30769V12C14 13.1046 13.1046 14 12 14H4C2.89543 14 2 13.1046 2 12V4Z" fill="#DF614C"/>
<path d="M7.38617 3.4998C6.88024 3.4998 6.46571 3.91433 6.46571 4.42026C6.46571 5.08333 6.8559 5.96528 7.26792 6.78532C6.941 7.81057 6.56957 8.91944 6.08539 9.8535H6.08219C5.11999 10.2322 4.26487 10.5182 3.78105 10.9082C3.58768 11.0788 3.50291 11.3666 3.4998 11.5793C3.4998 12.0853 3.91433 12.4998 4.42026 12.4998C4.6866 12.4998 4.93283 12.3789 5.08823 12.2218C5.45233 11.787 6.30591 10.2083 6.30591 10.2083C7.23764 9.84151 8.22114 9.46384 9.17275 9.24306C9.81997 9.77915 10.8029 10.1475 11.5794 10.1475C12.0853 10.1475 12.4998 9.73301 12.4998 9.22708C12.4998 8.72114 12.0853 8.30662 11.5794 8.30662C10.9509 8.30662 9.98382 8.54321 9.27502 8.78603C8.66564 8.22338 8.10495 7.51165 7.70897 6.75336C7.98375 5.89961 8.30662 5.04118 8.30662 4.42026C8.30662 3.91433 7.8921 3.4998 7.38617 3.4998ZM7.38617 3.9089C7.67101 3.9089 7.89753 4.13542 7.89753 4.42026C7.89753 4.80406 7.68441 5.48467 7.45648 6.19405C7.14239 5.51155 6.8748 4.82431 6.8748 4.42026C6.8748 4.13542 7.10133 3.9089 7.38617 3.9089ZM7.53638 7.26472C7.89416 7.87232 8.33601 8.43412 8.82438 8.91387C8.0831 9.10483 7.35065 9.37332 6.6383 9.64895C6.99715 8.88215 7.27902 8.05945 7.53638 7.26472ZM11.5794 8.71571C11.8642 8.71571 12.0907 8.94224 12.0907 9.22708C12.0907 9.51192 11.8642 9.73844 11.5794 9.73844C11.0268 9.73844 10.2566 9.46649 9.6937 9.09924C10.3441 8.89936 11.125 8.71571 11.5794 8.71571ZM5.70506 10.448C5.37166 11.0576 5.02307 11.656 4.77821 11.9501C4.68929 12.038 4.56899 12.0907 4.42026 12.0907C4.13542 12.0907 3.9089 11.8642 3.9089 11.5793C3.9089 11.4438 3.96736 11.3102 4.04952 11.2214C4.34449 10.988 4.98249 10.7312 5.70506 10.448Z" fill="white"/>
<path fill-rule="evenodd" clip-rule="evenodd" d="M6.08219 9.8535H6.08539C6.56957 8.91944 6.941 7.81057 7.26792 6.78532C6.8559 5.96528 6.46571 5.08333 6.46571 4.42026C6.46571 3.91433 6.88024 3.4998 7.38617 3.4998C7.8921 3.4998 8.30662 3.91433 8.30662 4.42026C8.30662 4.94183 8.07881 5.63098 7.84304 6.34417C7.79813 6.48002 7.75293 6.61675 7.70897 6.75336C8.10495 7.51165 8.66564 8.22338 9.27502 8.78603C9.98382 8.54321 10.9509 8.30662 11.5794 8.30662C12.0853 8.30662 12.4998 8.72114 12.4998 9.22708C12.4998 9.73301 12.0853 10.1475 11.5794 10.1475C10.8029 10.1475 9.81997 9.77915 9.17275 9.24306C8.22114 9.46384 7.23764 9.84151 6.30591 10.2083C6.30591 10.2083 5.45233 11.787 5.08823 12.2218C4.93283 12.3789 4.6866 12.4998 4.42026 12.4998C3.91433 12.4998 3.4998 12.0853 3.4998 11.5793C3.50291 11.3666 3.58768 11.0788 3.78105 10.9082C4.18115 10.5857 4.83515 10.3343 5.59365 10.0428C5.75238 9.9818 5.91568 9.91904 6.08219 9.8535ZM6.44682 10.3677C6.37518 10.4989 6.20399 10.81 6.00662 11.1523C5.75053 11.5965 5.43718 12.1166 5.24156 12.3502L5.23626 12.3565L5.23045 12.3624C5.04078 12.5542 4.74455 12.6998 4.42026 12.6998C3.80387 12.6998 3.2998 12.1957 3.2998 11.5793V11.5764C3.30343 11.3282 3.39963 10.978 3.64873 10.7582L3.65542 10.7523C3.91999 10.5391 4.27633 10.3615 4.67404 10.1925C4.93503 10.0817 5.22438 9.97047 5.52661 9.8543C5.66317 9.80181 5.80237 9.7483 5.94276 9.69337C6.38946 8.81377 6.73979 7.78012 7.05263 6.80202C6.85822 6.41197 6.66855 6.00494 6.52457 5.61287C6.37251 5.1988 6.26571 4.78658 6.26571 4.42026C6.26571 3.80387 6.76978 3.2998 7.38617 3.2998C8.00256 3.2998 8.50662 3.80387 8.50662 4.42026C8.50662 4.76023 8.41906 5.15254 8.303 5.55492C8.22369 5.82991 8.12748 6.12097 8.03138 6.41169C7.99572 6.51958 7.96007 6.62743 7.9253 6.73439C8.28821 7.40788 8.78409 8.04234 9.32473 8.55837C10.0281 8.32692 10.952 8.10662 11.5794 8.10662C12.1957 8.10662 12.6998 8.61069 12.6998 9.22708C12.6998 9.84347 12.1957 10.3475 11.5794 10.3475C10.7839 10.3475 9.80271 9.98915 9.12378 9.46022C8.24033 9.67433 7.32772 10.0215 6.44682 10.3677ZM7.69753 4.42026C7.69753 4.24588 7.56055 4.1089 7.38617 4.1089C7.21178 4.1089 7.0748 4.24588 7.0748 4.42026C7.0748 4.58722 7.13207 4.83367 7.23692 5.13749C7.29046 5.29264 7.35459 5.45776 7.4257 5.62807C7.47899 5.45484 7.52788 5.28867 7.56922 5.13355C7.65068 4.82793 7.69753 4.58382 7.69753 4.42026ZM7.54728 5.90967C7.73794 5.30673 7.89753 4.75237 7.89753 4.42026C7.89753 4.13542 7.67101 3.9089 7.38617 3.9089C7.10133 3.9089 6.8748 4.13542 6.8748 4.42026C6.8748 4.7704 7.07575 5.3332 7.33377 5.92129C7.37349 6.01184 7.41457 6.10299 7.45648 6.19405C7.48718 6.09852 7.5176 6.0035 7.54728 5.90967ZM7.53638 7.26472C7.50935 7.34818 7.48205 7.43196 7.45442 7.51594C7.24843 8.14208 7.02403 8.77996 6.75604 9.38934C6.71771 9.4765 6.67849 9.56308 6.6383 9.64895C6.72693 9.61466 6.81587 9.58047 6.9051 9.54654C7.46097 9.33512 8.02807 9.13326 8.60115 8.97372C8.67546 8.95304 8.74988 8.93306 8.82438 8.91387C8.76971 8.86016 8.71562 8.80543 8.66217 8.74972C8.29751 8.36965 7.96244 7.94409 7.67368 7.48919C7.62666 7.41512 7.58087 7.34027 7.53638 7.26472ZM7.59332 7.73277C7.42059 8.25122 7.23289 8.77864 7.01633 9.29078C7.48351 9.11591 7.96089 8.94914 8.44412 8.8103C8.13517 8.47965 7.84828 8.11731 7.59332 7.73277ZM11.8907 9.22708C11.8907 9.05269 11.7537 8.91571 11.5794 8.91571C11.2536 8.91571 10.7283 9.02024 10.2063 9.15997C10.6722 9.38893 11.1934 9.53844 11.5794 9.53844C11.7537 9.53844 11.8907 9.40146 11.8907 9.22708ZM9.92529 9.23862C10.4552 9.53324 11.0994 9.73844 11.5794 9.73844C11.8642 9.73844 12.0907 9.51192 12.0907 9.22708C12.0907 8.94224 11.8642 8.71571 11.5794 8.71571C11.1836 8.71571 10.5402 8.85504 9.95092 9.02306C9.86366 9.04794 9.7776 9.07345 9.6937 9.09924C9.76764 9.14748 9.84516 9.19407 9.92529 9.23862ZM5.70506 10.448C5.60598 10.4868 5.5085 10.5251 5.41326 10.563C4.81398 10.8012 4.30404 11.02 4.04952 11.2214C3.96736 11.3102 3.9089 11.4438 3.9089 11.5793C3.9089 11.8642 4.13542 12.0907 4.42026 12.0907C4.56899 12.0907 4.68929 12.038 4.77821 11.9501C4.98606 11.7005 5.26865 11.2316 5.55325 10.7226C5.60393 10.632 5.65467 10.5401 5.70506 10.448ZM5.25616 10.8416C5.09263 10.9082 4.93905 10.9729 4.79889 11.0358C4.52337 11.1596 4.31491 11.2703 4.18699 11.3678C4.14154 11.4223 4.1089 11.5026 4.1089 11.5793C4.1089 11.7537 4.24588 11.8907 4.42026 11.8907C4.51403 11.8907 4.58157 11.8603 4.63131 11.8139C4.79785 11.6115 5.02004 11.2542 5.25616 10.8416Z" fill="white"/>
</svg>
