<svg width="24" height="24" viewBox="0 0 24 24" fill="none" xmlns="http://www.w3.org/2000/svg">
<path d="M12 20C7.5816 20 4 16.4184 4 12C4 7.5816 7.5816 4 12 4C16.4184 4 20 7.5816 20 12C20 16.4184 16.4184 20 12 20ZM12 18.4C13.6974 18.4 15.3253 17.7257 16.5255 16.5255C17.7257 15.3253 18.4 13.6974 18.4 12C18.4 10.3026 17.7257 8.67475 16.5255 7.47452C15.3253 6.27428 13.6974 5.6 12 5.6C10.3026 5.6 8.67475 6.27428 7.47452 7.47452C6.27428 8.67475 5.6 10.3026 5.6 12C5.6 13.6974 6.27428 15.3253 7.47452 16.5255C8.67475 17.7257 10.3026 18.4 12 18.4ZM11.2 12.6336C10.7789 12.4498 10.4339 12.1266 10.223 11.7184C10.0122 11.3101 9.94831 10.8417 10.0422 10.392C10.1361 9.94216 10.382 9.53841 10.7385 9.2486C11.0951 8.95878 11.5405 8.80057 12 8.80057C12.4595 8.80057 12.9049 8.95878 13.2615 9.2486C13.618 9.53841 13.8639 9.94216 13.9578 10.392C14.0517 10.8417 13.9878 11.3101 13.777 11.7184C13.5661 12.1266 13.2211 12.4498 12.8 12.6336V15.2H11.2V12.6336Z" fill="black"/>
<path d="M10.223 11.7184C10.4339 12.1266 10.7789 12.4498 11.2 12.6336V15.2H12.8V12.6336C13.2211 12.4498 13.5661 12.1266 13.777 11.7184C13.9878 11.3101 14.0517 10.8417 13.9578 10.392C13.8639 9.94216 13.618 9.53841 13.2615 9.2486C12.9049 8.95878 12.4595 8.80057 12 8.80057C11.5405 8.80057 11.0951 8.95878 10.7385 9.2486C10.382 9.53841 10.1361 9.94216 10.0422 10.392C9.94831 10.8417 10.0122 11.3101 10.223 11.7184Z" fill="black"/>
<path d="M10.223 11.7184C10.4339 12.1266 10.7789 12.4498 11.2 12.6336V15.2H12.8V12.6336C13.2211 12.4498 13.5661 12.1266 13.777 11.7184C13.9878 11.3101 14.0517 10.8417 13.9578 10.392C13.8639 9.94216 13.618 9.53841 13.2615 9.2486C12.9049 8.95878 12.4595 8.80057 12 8.80057C11.5405 8.80057 11.0951 8.95878 10.7385 9.2486C10.382 9.53841 10.1361 9.94216 10.0422 10.392C9.94831 10.8417 10.0122 11.3101 10.223 11.7184Z" fill="black"/>
</svg>
