<svg width="24" height="24" viewBox="0 0 24 24" fill="none" xmlns="http://www.w3.org/2000/svg">
<path fill-rule="evenodd" clip-rule="evenodd" d="M12.0909 9.06885C10.0198 9.06885 8.34088 10.7478 8.34088 12.8188C8.34088 14.8899 10.0198 16.5688 12.0909 16.5688C14.1619 16.5688 15.8409 14.8899 15.8409 12.8188C15.8409 10.7478 14.1619 9.06885 12.0909 9.06885ZM9.84088 12.8188C9.84088 11.5762 10.8482 10.5688 12.0909 10.5688C13.3335 10.5688 14.3409 11.5762 14.3409 12.8188C14.3409 14.0615 13.3335 15.0688 12.0909 15.0688C10.8482 15.0688 9.84088 14.0615 9.84088 12.8188Z" fill="#0C142B"/>
<path fill-rule="evenodd" clip-rule="evenodd" d="M9.81818 4.70508C9.56827 4.70508 9.33478 4.82956 9.19549 5.03705L7.9638 6.87174H5.95455C5.37154 6.87174 4.81138 7.10168 4.39755 7.51264C3.98354 7.92377 3.75 8.48249 3.75 9.06619V17.0106C3.75 17.5943 3.98354 18.1531 4.39755 18.5642C4.81138 18.9751 5.37154 19.2051 5.95455 19.2051H18.0455C18.6285 19.2051 19.1886 18.9751 19.6025 18.5642C20.0165 18.1531 20.25 17.5943 20.25 17.0106V9.06619C20.25 8.48249 20.0165 7.92377 19.6025 7.51264C19.1886 7.10168 18.6285 6.87174 18.0455 6.87174H16.0362L14.8045 5.03705C14.6652 4.82956 14.4317 4.70508 14.1818 4.70508H9.81818ZM8.98633 8.03978L10.218 6.20508H13.782L15.0137 8.03978C15.153 8.24727 15.3865 8.37174 15.6364 8.37174H18.0455C18.234 8.37174 18.4138 8.44617 18.5455 8.57699C18.6771 8.70763 18.75 8.8837 18.75 9.06619V17.0106C18.75 17.1931 18.6771 17.3692 18.5455 17.4998C18.4138 17.6307 18.234 17.7051 18.0455 17.7051H5.95455C5.76601 17.7051 5.58624 17.6307 5.45451 17.4998C5.32295 17.3692 5.25 17.1931 5.25 17.0106V9.06619C5.25 8.8837 5.32295 8.70763 5.45451 8.57699C5.58624 8.44617 5.76601 8.37174 5.95455 8.37174H8.36364C8.61355 8.37174 8.84704 8.24727 8.98633 8.03978Z" fill="#0C142B"/>
</svg>
