<svg width="24" height="24" viewBox="0 0 24 24" fill="none" xmlns="http://www.w3.org/2000/svg">
<path d="M17.75 11.5H12.5V6.25C12.5 5.8 12.2 5.5 11.75 5.5C8 5.5 5 8.5 5 12.25C5 16 8 19 11.75 19C15.5 19 18.5 16 18.5 12.25C18.5 11.8 18.2 11.5 17.75 11.5ZM12.5 17.425C9.65 17.875 6.95 15.85 6.575 13C6.125 10.15 8.15 7.45 11 7.075V12.25C11 12.7 11.3 13 11.75 13H16.925C16.625 15.325 14.825 17.125 12.5 17.425ZM14.75 4C14.3 4 14 4.3 14 4.75V9.25C14 9.7 14.3 10 14.75 10H19.25C19.7 10 20 9.7 20 9.25C20 6.325 17.675 4 14.75 4ZM15.5 8.5V5.575C17 5.875 18.125 7 18.425 8.5H15.5Z" fill="black"/>
</svg>
