<svg width="16" height="16" viewBox="0 0 16 16" fill="none" xmlns="http://www.w3.org/2000/svg">
<path d="M12 2C13.1046 2 14 2.89543 14 4V12C14 13.1046 13.1046 14 12 14H4C2.89543 14 2 13.1046 2 12V4C2 2.89543 2.89543 2 4 2H12ZM8.72368 3.5C7.67105 3.5 7.06579 3.97368 6.76754 4.30702C6.73246 4.02632 6.54825 3.65789 5.82018 3.65789H4.25V5.31579H4.89035C4.99561 5.31579 5.0307 5.35088 5.0307 5.46491V13.0439H6.90789V9.99123C7.19737 10.2632 7.75877 10.6316 8.63596 10.6316C10.4693 10.6316 11.75 9.16667 11.75 7.07018C11.75 4.9386 10.5307 3.5 8.72368 3.5ZM8.36404 5.17544C9.25 5.17544 9.84649 5.94737 9.84649 7.08772C9.84649 8.39474 9.09211 8.98246 8.34649 8.98246C7.33772 8.98246 6.87281 8.00877 6.87281 7.10526C6.87281 5.68421 7.64474 5.17544 8.36404 5.17544Z" fill="#203232"/>
</svg>
