<svg width="24" height="24" viewBox="0 0 24 24" fill="none" xmlns="http://www.w3.org/2000/svg">
<path fill-rule="evenodd" clip-rule="evenodd" d="M14.9153 7.78103H8.26734C7.35375 7.78103 6.61314 8.52164 6.61314 9.43523C6.61314 10.3488 7.35375 11.0894 8.26734 11.0894H14.6478C16.475 11.0894 17.9562 12.5707 17.9562 14.3978C17.9562 16.225 16.475 17.7062 14.6478 17.7062H8.96083C8.82613 17.9623 8.6777 18.199 8.53501 18.4077C8.08556 19.0651 7.59612 19.5806 7.41734 19.7618C7.10397 20.0794 6.59433 20.0794 6.28101 19.7617C6.10227 19.5805 5.61295 19.065 5.16364 18.4077C4.73288 17.7775 4.25 16.8913 4.25 15.9926C4.25 14.5686 5.4363 13.4526 6.84927 13.4526C8.2625 13.4526 9.44892 14.5683 9.44892 15.9926C9.44892 16.0915 9.44308 16.1901 9.4321 16.2883H14.6478C15.6919 16.2883 16.5383 15.4419 16.5383 14.3978C16.5383 13.3537 15.6919 12.5073 14.6478 12.5073H8.26734C6.57068 12.5073 5.19526 11.1319 5.19526 9.43523C5.19526 7.73856 6.57068 6.36314 8.26734 6.36314H14.654C14.7474 5.02467 15.8932 4 17.2471 4C18.6603 4 19.8467 5.11574 19.8467 6.54005C19.8467 7.43883 19.3637 8.32499 18.9328 8.95517C18.4834 9.61251 17.994 10.128 17.8152 10.3092C17.5018 10.6269 16.9922 10.6268 16.6788 10.3092C16.5001 10.1279 16.0108 9.61241 15.5615 8.95508C15.3344 8.62295 15.0929 8.21972 14.9153 7.78103ZM16.0657 6.54005C16.0657 5.9417 16.5739 5.41789 17.2471 5.41789C17.9208 5.41789 18.4289 5.94166 18.4289 6.54005C18.4289 6.98654 18.1629 7.56917 17.7624 8.1549C17.5895 8.40772 17.408 8.63778 17.2471 8.82803C17.0863 8.63779 16.9048 8.40775 16.732 8.15495C16.3317 7.56925 16.0657 6.98659 16.0657 6.54005ZM6.84927 14.8705C6.1761 14.8705 5.66789 15.3943 5.66789 15.9926C5.66789 16.4392 5.93384 17.0218 6.33419 17.6075C6.50699 17.8603 6.68845 18.0904 6.84928 18.2806C7.01016 18.0904 7.19169 17.8603 7.36455 17.6075C7.76503 17.0217 8.03103 16.4391 8.03103 15.9926C8.03103 15.3942 7.52297 14.8705 6.84927 14.8705Z" fill="black"/>
</svg>
