<svg width="16" height="16" viewBox="0 0 16 16" fill="none" xmlns="http://www.w3.org/2000/svg">
<path d="M2 4C2 2.89543 2.89543 2 4 2H12C13.1046 2 14 2.89543 14 4V12C14 13.1046 13.1046 14 12 14H4C2.89543 14 2 13.1046 2 12V4Z" fill="#E5E6EA"/>
<path fill-rule="evenodd" clip-rule="evenodd" d="M4.3382 9.88913C4.73609 9.57082 5.30969 9.60258 5.67 9.96289L8.51213 12.805C8.95311 13.246 8.64079 14 8.01716 14H4C2.89543 14 2 13.1046 2 12V11.7597L4.3382 9.88913Z" fill="#629D65"/>
<circle cx="8" cy="5.5" r="1.5" fill="#FDBE3E"/>
<path fill-rule="evenodd" clip-rule="evenodd" d="M9.76062 8.62387C10.1329 8.15847 10.8272 8.12002 11.2486 8.54146L13.8536 11.1464C13.9474 11.2402 14 11.3674 14 11.5V12C14 13.1046 13.1046 14 12 14H5.45972L9.76062 8.62387Z" fill="#227505"/>
</svg>
