<svg width="16" height="16" viewBox="0 0 16 16" fill="none" xmlns="http://www.w3.org/2000/svg">
<path d="M8 5C8 4.44772 8.44772 4 9 4H14C14.5523 4 15 4.44772 15 5V12C15 12.5523 14.5523 13 14 13H9C8.44772 13 8 12.5523 8 12V5Z" fill="#E5E6EA"/>
<rect x="8" y="10" width="5" height="1" rx="0.5" fill="#ED6237"/>
<path d="M1 4.5227C1 4.05116 1.3294 3.6437 1.79047 3.5449L7.79047 2.25918C8.41298 2.12579 9 2.60034 9 3.23699V12.763C9 13.3997 8.41298 13.8742 7.79047 13.7408L1.79047 12.4551C1.3294 12.3563 1 11.9488 1 11.4773V4.5227Z" fill="#ED6237"/>
<path fill-rule="evenodd" clip-rule="evenodd" d="M3.57153 5.83569C3.57153 5.61092 3.75374 5.42871 3.97851 5.42871H5.07153C5.89996 5.42871 6.57153 6.10028 6.57153 6.92871C6.57153 7.75714 5.89996 8.42871 5.07153 8.42871H4.42868V9.28587C4.42868 9.52256 4.2368 9.71444 4.0001 9.71444C3.76341 9.71444 3.57153 9.52256 3.57153 9.28587V5.83569ZM5.07153 7.57157H4.42868V6.28587C4.42868 6.28587 4.42868 6.28588 4.42868 6.28587L5.07153 6.28585C5.42657 6.28585 5.71439 6.57367 5.71439 6.92871C5.71439 7.28375 5.42657 7.57157 5.07153 7.57157Z" fill="white"/>
<path d="M11.0715 6.17143C11.0715 6.07675 10.9945 5.99899 10.9005 6.00978C10.6643 6.03689 10.4372 6.11984 10.2382 6.2528C9.9915 6.41762 9.79925 6.65189 9.68571 6.92598C9.57218 7.20006 9.54248 7.50166 9.60036 7.79264C9.65823 8.08361 9.80109 8.35088 10.0109 8.56066C10.2207 8.77044 10.4879 8.9133 10.7789 8.97118C11.0699 9.02906 11.3715 8.99935 11.6456 8.88582C11.9196 8.77229 12.1539 8.58003 12.3187 8.33336C12.4517 8.13437 12.5346 7.90719 12.5617 7.67106C12.5725 7.577 12.4948 7.5 12.4001 7.5H11.243C11.1483 7.5 11.0715 7.42325 11.0715 7.32857V6.17143Z" fill="#ED6237"/>
<path d="M12.8287 7C12.9234 7 13.0011 6.92299 12.9903 6.82893C12.9519 6.49408 12.8015 6.18002 12.5608 5.93934C12.3201 5.69866 12.006 5.54821 11.6712 5.50978C11.5771 5.49899 11.5001 5.57675 11.5001 5.67143L11.5001 6.82857C11.5001 6.92325 11.5769 7 11.6715 7L12.8287 7Z" fill="#ED6237"/>
</svg>
