<svg width="24" height="24" viewBox="0 0 24 24" fill="none" xmlns="http://www.w3.org/2000/svg">
<path d="M19.1998 13.5999H18.3998V5.59998H19.1998C19.412 5.59998 19.6154 5.51569 19.7655 5.36567C19.9155 5.21564 19.9998 5.01216 19.9998 4.79999C19.9998 4.58782 19.9155 4.38434 19.7655 4.23431C19.6154 4.08428 19.412 4 19.1998 4H4.79999C4.58782 4 4.38434 4.08428 4.23431 4.23431C4.08428 4.38434 4 4.58782 4 4.79999C4 5.01216 4.08428 5.21564 4.23431 5.36567C4.38434 5.51569 4.58782 5.59998 4.79999 5.59998H5.59998V13.5999H4.79999C4.58782 13.5999 4.38434 13.6841 4.23431 13.8342C4.08428 13.9842 4 14.1877 4 14.3999C4 14.612 4.08428 14.8155 4.23431 14.9655C4.38434 15.1156 4.58782 15.1998 4.79999 15.1998H11.1999V16.1198L7.55995 18.5198C7.41062 18.6122 7.29586 18.7512 7.23337 18.9154C7.17088 19.0795 7.16414 19.2596 7.21419 19.428C7.26424 19.5963 7.36829 19.7435 7.5103 19.8469C7.6523 19.9502 7.82437 20.0039 7.99994 19.9998C8.15722 20.0016 8.31111 19.954 8.43994 19.8638L11.1999 18.0398V19.1998C11.1999 19.412 11.2842 19.6154 11.4342 19.7655C11.5842 19.9155 11.7877 19.9998 11.9999 19.9998C12.2121 19.9998 12.4155 19.9155 12.5656 19.7655C12.7156 19.6154 12.7999 19.412 12.7999 19.1998V18.0398L15.5598 19.8638C15.6887 19.954 15.8426 20.0016 15.9998 19.9998C16.1707 19.9985 16.3367 19.9424 16.4735 19.8399C16.6103 19.7374 16.7106 19.5938 16.7598 19.4301C16.809 19.2664 16.8045 19.0912 16.7469 18.9303C16.6893 18.7694 16.5817 18.6311 16.4398 18.5358L12.7999 16.1358V15.1998H19.1998C19.412 15.1998 19.6154 15.1156 19.7655 14.9655C19.9155 14.8155 19.9998 14.612 19.9998 14.3999C19.9998 14.1877 19.9155 13.9842 19.7655 13.8342C19.6154 13.6841 19.412 13.5999 19.1998 13.5999ZM16.7998 13.5999H7.19996V5.59998H16.7998V13.5999ZM10.0879 12.2079C10.3011 12.3339 10.5443 12.4003 10.7919 12.4003C11.0396 12.4003 11.2827 12.3339 11.4959 12.2079L13.8959 10.8159C14.101 10.69 14.2705 10.5135 14.388 10.3035C14.5056 10.0934 14.5673 9.85666 14.5673 9.61592C14.5673 9.37518 14.5056 9.13847 14.388 8.92838C14.2705 8.7183 14.101 8.54187 13.8959 8.41594L11.4959 7.02396C11.2827 6.89798 11.0396 6.83153 10.7919 6.83153C10.5443 6.83153 10.3011 6.89798 10.0879 7.02396C9.87306 7.14508 9.69495 7.32203 9.57243 7.53608C9.44991 7.75014 9.38754 7.99334 9.39192 8.23994V11.0239C9.39326 11.2651 9.45834 11.5016 9.58057 11.7096C9.7028 11.9175 9.87783 12.0894 10.0879 12.2079ZM10.9919 8.54394L12.7999 9.59992L10.9759 10.6559L10.9919 8.54394Z" fill="black"/>
</svg>
