<svg width="24" height="24" viewBox="0 0 24 24" fill="none" xmlns="http://www.w3.org/2000/svg">
<path fill-rule="evenodd" clip-rule="evenodd" d="M11.5256 4C11.6582 4 11.7854 4.05268 11.8791 4.14645L15.6258 7.89316C15.7196 7.98693 15.7723 8.11411 15.7723 8.24671V11.9667C15.1232 11.6095 14.3774 11.4062 13.5842 11.4062C13.4135 11.4062 13.245 11.4157 13.0792 11.434V11.2327C13.0792 10.9565 12.8554 10.7327 12.5792 10.7327H8.19307C7.91693 10.7327 7.69307 10.9565 7.69307 11.2327V11.5792C7.69307 11.8554 7.91693 12.0792 8.19307 12.0792H11.2031C10.646 12.4226 10.1686 12.8828 9.80509 13.4257H8.19307C7.91693 13.4257 7.69307 13.6496 7.69307 13.9257V14.2723C7.69307 14.5484 7.91693 14.7723 8.19307 14.7723H9.19391C9.09327 15.1481 9.03961 15.5432 9.03961 15.9508C9.03961 16.4819 9.1307 16.9916 9.2981 17.4654H6.3398C5.59584 17.4654 5 16.8628 5 16.1188L5.00673 5.34654C5.00673 4.60257 5.60257 4 6.34654 4H11.5256ZM11.0594 8.21287C11.0594 8.48902 11.2833 8.71287 11.5594 8.71287H13.5553C14.0007 8.71287 14.2238 8.1743 13.9088 7.85932L11.913 5.86346C11.598 5.54847 11.0594 5.77156 11.0594 6.21701V8.21287Z" fill="black"/>
<path d="M16.992 18.5374C16.8982 18.4433 16.7708 18.3904 16.6379 18.3904H16.4761C16.4341 18.3904 16.3939 18.3737 16.3642 18.344C16.3055 18.2853 16.3024 18.1916 16.354 18.1266C16.8337 17.5223 17.119 16.7594 17.119 15.9287C17.119 13.9649 15.5271 12.373 13.5633 12.373C11.5994 12.373 10.0076 13.9649 10.0076 15.9287C10.0076 17.8926 11.5994 19.4844 13.5633 19.4844C14.3938 19.4844 15.1567 19.1992 15.761 18.7218C15.8261 18.6704 15.9198 18.6737 15.9784 18.7323C16.0082 18.7621 16.0249 18.8024 16.0249 18.8445V19.0034C16.0249 19.1362 16.0778 19.2637 16.1719 19.3575L17.4652 20.6468C17.6605 20.8416 17.9767 20.8413 18.1718 20.6463L18.2808 20.5372C18.4759 20.3422 18.4761 20.026 18.2813 19.8307L16.992 18.5374ZM13.5633 18.3904C12.2039 18.3904 11.1016 17.2881 11.1016 15.9287C11.1016 14.5694 12.2039 13.4671 13.5633 13.4671C14.9226 13.4671 16.0249 14.5694 16.0249 15.9287C16.0249 17.2881 14.9226 18.3904 13.5633 18.3904Z" fill="black"/>
</svg>
