<svg width="24" height="24" viewBox="0 0 24 24" fill="none" xmlns="http://www.w3.org/2000/svg">
<path d="M12.4978 17.9961H7.24935C7.05049 17.9961 6.85978 17.9171 6.71917 17.7765C6.57856 17.6359 6.49957 17.4452 6.49957 17.2463V6.74935C6.49957 6.55049 6.57856 6.35978 6.71917 6.21917C6.85978 6.07856 7.05049 5.99957 7.24935 5.99957H10.9983V8.24891C10.9983 8.84548 11.2352 9.41761 11.6571 9.83944C12.0789 10.2613 12.651 10.4983 13.2476 10.4983H15.497V11.248C15.497 11.4469 15.576 11.6376 15.7166 11.7782C15.8572 11.9188 16.0479 11.9978 16.2467 11.9978C16.4456 11.9978 16.6363 11.9188 16.7769 11.7782C16.9175 11.6376 16.9965 11.4469 16.9965 11.248V9.74848C16.9965 9.74848 16.9965 9.74848 16.9965 9.70349C16.9887 9.63461 16.9736 9.56675 16.9515 9.50105V9.43357C16.9155 9.35648 16.8674 9.28561 16.8091 9.22363L12.3104 4.72493C12.2484 4.66661 12.1775 4.61853 12.1004 4.58248C12.0781 4.5793 12.0553 4.5793 12.033 4.58248C11.9568 4.53879 11.8727 4.51076 11.7855 4.5H7.24935C6.65278 4.5 6.08065 4.73698 5.65882 5.15882C5.23698 5.58065 5 6.15278 5 6.74935V17.2463C5 17.8429 5.23698 18.415 5.65882 18.8368C6.08065 19.2587 6.65278 19.4957 7.24935 19.4957H12.4978C12.6967 19.4957 12.8874 19.4167 13.028 19.276C13.1686 19.1354 13.2476 18.9447 13.2476 18.7459C13.2476 18.547 13.1686 18.3563 13.028 18.2157C12.8874 18.0751 12.6967 17.9961 12.4978 17.9961ZM12.4978 7.05676L14.4398 8.9987H13.2476C13.0488 8.9987 12.858 8.9197 12.7174 8.77909C12.5768 8.63848 12.4978 8.44777 12.4978 8.24891V7.05676ZM8.74891 8.9987C8.55006 8.9987 8.35935 9.07769 8.21874 9.2183C8.07813 9.35891 7.99913 9.54962 7.99913 9.74848C7.99913 9.94733 8.07813 10.138 8.21874 10.2787C8.35935 10.4193 8.55006 10.4983 8.74891 10.4983H9.4987C9.69755 10.4983 9.88826 10.4193 10.0289 10.2787C10.1695 10.138 10.2485 9.94733 10.2485 9.74848C10.2485 9.54962 10.1695 9.35891 10.0289 9.2183C9.88826 9.07769 9.69755 8.9987 9.4987 8.9987H8.74891ZM19.7782 18.2135L18.901 17.3438C19.1814 16.8544 19.2936 16.2865 19.2205 15.7272C19.1473 15.1679 18.8929 14.6481 18.4961 14.2472C18.131 13.869 17.6604 13.6096 17.1458 13.5027C16.6311 13.3959 16.0962 13.4465 15.6107 13.6479C15.1252 13.8494 14.7116 14.1924 14.4238 14.6323C14.1361 15.0722 13.9875 15.5886 13.9974 16.1141C13.9948 16.5664 14.1105 17.0115 14.333 17.4052C14.5555 17.799 14.8771 18.1277 15.2658 18.3588C15.6546 18.59 16.097 18.7154 16.5492 18.7228C17.0014 18.7302 17.4477 18.6193 17.8438 18.401L18.7135 19.2782C18.7832 19.3485 18.8662 19.4043 18.9575 19.4423C19.0489 19.4804 19.1469 19.5 19.2459 19.5C19.3449 19.5 19.4429 19.4804 19.5342 19.4423C19.6256 19.4043 19.7085 19.3485 19.7782 19.2782C19.8485 19.2085 19.9043 19.1256 19.9423 19.0342C19.9804 18.9429 20 18.8449 20 18.7459C20 18.6469 19.9804 18.5489 19.9423 18.4575C19.9043 18.3662 19.8485 18.2832 19.7782 18.2135ZM17.4014 16.9014C17.1873 17.1028 16.9044 17.2149 16.6104 17.2149C16.3164 17.2149 16.0335 17.1028 15.8194 16.9014C15.613 16.6913 15.4972 16.4086 15.497 16.1141C15.4954 15.9662 15.5238 15.8196 15.5805 15.683C15.6372 15.5464 15.721 15.4227 15.8269 15.3194C16.0268 15.1205 16.2948 15.0053 16.5766 14.997C16.7282 14.9876 16.8801 15.0098 17.0227 15.0619C17.1654 15.1141 17.2957 15.1951 17.4055 15.3C17.5154 15.4049 17.6023 15.5314 17.661 15.6715C17.7196 15.8116 17.7487 15.9623 17.7463 16.1141C17.7401 16.4119 17.6161 16.695 17.4014 16.9014ZM13.2476 11.9978H8.74891C8.55006 11.9978 8.35935 12.0768 8.21874 12.2174C8.07813 12.358 7.99913 12.5488 7.99913 12.7476C7.99913 12.9465 8.07813 13.1372 8.21874 13.2778C8.35935 13.4184 8.55006 13.4974 8.74891 13.4974H13.2476C13.4465 13.4974 13.6372 13.4184 13.7778 13.2778C13.9184 13.1372 13.9974 12.9465 13.9974 12.7476C13.9974 12.5488 13.9184 12.358 13.7778 12.2174C13.6372 12.0768 13.4465 11.9978 13.2476 11.9978ZM11.748 16.4965C11.9469 16.4965 12.1376 16.4175 12.2782 16.2769C12.4188 16.1363 12.4978 15.9456 12.4978 15.7467C12.4978 15.5479 12.4188 15.3572 12.2782 15.2166C12.1376 15.076 11.9469 14.997 11.748 14.997H8.74891C8.55006 14.997 8.35935 15.076 8.21874 15.2166C8.07813 15.3572 7.99913 15.5479 7.99913 15.7467C7.99913 15.9456 8.07813 16.1363 8.21874 16.2769C8.35935 16.4175 8.55006 16.4965 8.74891 16.4965H11.748Z" fill="black"/>
</svg>
