<svg width="24" height="24" viewBox="0 0 24 24" fill="none" xmlns="http://www.w3.org/2000/svg">
<path fill-rule="evenodd" clip-rule="evenodd" d="M8 4.25C7.58579 4.25 7.25 4.58579 7.25 5V9.25H6.4C5.84127 9.25 5.29851 9.46104 4.89281 9.84742C4.48587 10.235 4.25 10.7687 4.25 11.3333V14.6667C4.25 15.2313 4.48587 15.765 4.89281 16.1526C5.29851 16.539 5.84127 16.75 6.4 16.75H7.25V19C7.25 19.4142 7.58579 19.75 8 19.75H16C16.4142 19.75 16.75 19.4142 16.75 19V16.75H17.6C18.1587 16.75 18.7015 16.539 19.1072 16.1526C19.5141 15.765 19.75 15.2313 19.75 14.6667V11.3333C19.75 10.7687 19.5141 10.235 19.1072 9.84742C18.7015 9.46104 18.1587 9.25 17.6 9.25H16.75V5C16.75 4.58579 16.4142 4.25 16 4.25H8ZM15.25 9.25V5.75H8.75V9.25H15.25ZM17.6 10.75C17.7839 10.75 17.9533 10.8199 18.0727 10.9336C18.1909 11.0462 18.25 11.1908 18.25 11.3333V14.6667C18.25 14.8092 18.1909 14.9538 18.0727 15.0664C17.9533 15.1801 17.7839 15.25 17.6 15.25H16.75V14C16.75 13.5858 16.4142 13.25 16 13.25H8C7.58579 13.25 7.25 13.5858 7.25 14V15.25H6.4C6.21612 15.25 6.0467 15.1801 5.92729 15.0664C5.80913 14.9538 5.75 14.8092 5.75 14.6667V11.3333C5.75 11.1908 5.80913 11.0462 5.92729 10.9336C6.0467 10.8199 6.21612 10.75 6.4 10.75H17.6ZM8.75 14.75V18.25H15.25V14.75H8.75Z" fill="black"/>
</svg>
