<svg width="24" height="24" viewBox="0 0 24 24" fill="none" xmlns="http://www.w3.org/2000/svg">
<path d="M13.2631 9.05236V15.7888C13.2631 16.4588 12.9969 17.1014 12.5232 17.5751C12.0494 18.0489 11.4069 18.315 10.7369 18.315H8.90962C8.71098 18.8771 8.32002 19.3508 7.80585 19.6525C7.29168 19.9542 6.68741 20.0644 6.09985 19.9636C5.51229 19.8629 4.97927 19.5576 4.59501 19.1018C4.21076 18.6461 4 18.0691 4 17.473C4 16.8768 4.21076 16.2999 4.59501 15.8441C4.97927 15.3883 5.51229 15.0831 6.09985 14.9823C6.68741 14.8815 7.29168 14.9917 7.80585 15.2934C8.32002 15.5951 8.71098 16.0688 8.90962 16.6309H10.7369C10.9602 16.6309 11.1744 16.5422 11.3323 16.3843C11.4902 16.2264 11.579 16.0122 11.579 15.7888V9.05236C11.579 8.38238 11.8451 7.73983 12.3189 7.26608C12.7926 6.79233 13.4352 6.52618 14.1051 6.52618H16.6313V4L20.8416 7.36824L16.6313 10.7365V8.2103H14.1051C13.8818 8.2103 13.6676 8.29902 13.5097 8.45694C13.3518 8.61485 13.2631 8.82904 13.2631 9.05236ZM6.52659 18.315C6.74992 18.315 6.9641 18.2263 7.12202 18.0684C7.27994 17.9105 7.36865 17.6963 7.36865 17.473C7.36865 17.2496 7.27994 17.0355 7.12202 16.8775C6.9641 16.7196 6.74992 16.6309 6.52659 16.6309C6.30326 16.6309 6.08908 16.7196 5.93117 16.8775C5.77325 17.0355 5.68453 17.2496 5.68453 17.473C5.68453 17.6963 5.77325 17.9105 5.93117 18.0684C6.08908 18.2263 6.30326 18.315 6.52659 18.315Z" fill="black"/>
</svg>
