<svg width="24" height="24" viewBox="0 0 24 24" fill="none" xmlns="http://www.w3.org/2000/svg">
<path d="M18.31 6.58999L12.31 3.81999C12.2126 3.7758 12.1069 3.75293 12 3.75293C11.8931 3.75293 11.7874 3.7758 11.69 3.81999L5.69 6.58999C5.55848 6.65105 5.44716 6.74845 5.3692 6.87072C5.29124 6.99298 5.24988 7.13499 5.25 7.27999C5.25 12.91 6.79 16.16 8.44 18.01C9.08181 18.7435 9.85509 19.3506 10.72 19.8H10.78C10.9868 19.9076 11.2006 20.0012 11.42 20.08C11.6484 20.1715 11.8947 20.2092 12.14 20.19C12.3479 20.1606 12.5502 20.0999 12.74 20.01C12.92 19.9367 13.1 19.8567 13.28 19.77C14.1424 19.3252 14.9153 18.7252 15.56 18C17.21 16.16 18.75 12.91 18.75 7.27999C18.7501 7.13499 18.7088 6.99298 18.6308 6.87072C18.5528 6.74845 18.4415 6.65105 18.31 6.58999ZM14.44 17C13.9212 17.5952 13.2975 18.09 12.6 18.46C12.4124 18.5532 12.2186 18.6334 12.02 18.7C11.8214 18.6334 11.6276 18.5532 11.44 18.46C10.7282 18.0942 10.0907 17.5991 9.56 17C8.25 15.54 6.84 12.8 6.75 7.74999L12 5.32999L17.25 7.74999C17.16 12.8 15.75 15.54 14.44 17Z" fill="black"/>
<path d="M10.17 9.28999C9.9419 9.5382 9.77088 9.83332 9.66896 10.1546C9.56704 10.476 9.53667 10.8157 9.58 11.15C9.64221 11.6572 9.8667 12.1308 10.22 12.5L9.85 15.05C9.83429 15.1563 9.84132 15.2648 9.87063 15.3682C9.89993 15.4717 9.95084 15.5677 10.02 15.65C10.0919 15.7304 10.1796 15.795 10.2777 15.8397C10.3759 15.8845 10.4822 15.9084 10.59 15.91H13.46C13.5663 15.9083 13.6711 15.8842 13.7676 15.8394C13.8641 15.7946 13.95 15.7301 14.02 15.65C14.0921 15.5692 14.1455 15.4736 14.1766 15.37C14.2077 15.2663 14.2157 15.1571 14.2 15.05L13.82 12.46C14.1734 12.0782 14.3883 11.5886 14.43 11.07C14.4585 10.7347 14.4152 10.3972 14.3032 10.08C14.1911 9.76273 14.0127 9.47298 13.78 9.22999C13.5507 8.98947 13.2743 8.79874 12.9681 8.66971C12.6618 8.54067 12.3323 8.47609 12 8.47999C11.6554 8.48047 11.3148 8.55275 10.9997 8.69221C10.6846 8.83167 10.402 9.03526 10.17 9.28999ZM12.7 10.29C12.7863 10.379 12.8523 10.4857 12.8936 10.6027C12.9348 10.7196 12.9502 10.8441 12.9388 10.9676C12.9274 11.0911 12.8895 11.2106 12.8275 11.3181C12.7656 11.4255 12.6811 11.5183 12.58 11.59C12.4687 11.6686 12.3817 11.7767 12.3287 11.9022C12.2756 12.0276 12.2588 12.1654 12.28 12.3L12.59 14.43H11.46L11.76 12.33C11.7794 12.1916 11.7608 12.0506 11.7062 11.922C11.6516 11.7934 11.563 11.6821 11.45 11.6C11.3446 11.5328 11.255 11.4434 11.1877 11.338C11.1203 11.2327 11.0768 11.1139 11.06 10.99C11.0483 10.8676 11.0618 10.7442 11.0996 10.6272C11.1374 10.5103 11.1988 10.4023 11.28 10.31C11.3729 10.2125 11.4846 10.1348 11.6084 10.0815C11.7321 10.0282 11.8653 10.0005 12 9.99999C12.2595 9.99574 12.5106 10.0926 12.7 10.27V10.29Z" fill="black"/>
</svg>
