<svg width="24" height="24" viewBox="0 0 24 24" fill="none" xmlns="http://www.w3.org/2000/svg">
<path d="M13.0001 11C14.6576 11 16.0001 9.65375 16.0001 8C16.0001 6.3425 14.6576 5 13.0001 5C11.3426 5 10.0001 6.3425 10.0001 8C10.0001 9.65375 11.3426 11 13.0001 11Z" fill="black"/>
<path d="M10.0421 12.9751C9.63295 13.0983 9.60168 13.6687 9.91132 13.9631C10.582 14.6008 11.0001 15.5016 11.0001 16.5C11.0001 16.7648 11.2015 17 11.4663 17H18.5001C18.7762 17 19.0001 16.7761 19.0001 16.5V15.5C19.0001 13.5013 14.9988 12.5 13.0001 12.5C12.205 12.5 11.093 12.6584 10.0421 12.9751Z" fill="black"/>
<path fill-rule="evenodd" clip-rule="evenodd" d="M10 17C10 18.6569 8.65685 20 7 20C5.34315 20 4 18.6569 4 17C4 15.3431 5.34315 14 7 14C8.65685 14 10 15.3431 10 17ZM8.35858 15.9446C8.43668 15.8665 8.43668 15.7399 8.35858 15.6618L8.33821 15.6414C8.2601 15.5633 8.13347 15.5633 8.05536 15.6414L7.14142 16.5554C7.06332 16.6335 6.93668 16.6335 6.85858 16.5554L5.94464 15.6414C5.86653 15.5633 5.7399 15.5633 5.66179 15.6414L5.64142 15.6618C5.56332 15.7399 5.56332 15.8665 5.64142 15.9446L6.55536 16.8586C6.63347 16.9367 6.63347 17.0633 6.55536 17.1414L5.64142 18.0554C5.56332 18.1335 5.56332 18.2601 5.64142 18.3382L5.66179 18.3586C5.7399 18.4367 5.86653 18.4367 5.94464 18.3586L6.85858 17.4446C6.93668 17.3665 7.06332 17.3665 7.14142 17.4446L8.05536 18.3586C8.13347 18.4367 8.2601 18.4367 8.33821 18.3586L8.35858 18.3382C8.43668 18.2601 8.43668 18.1335 8.35858 18.0554L7.44464 17.1414C7.36653 17.0633 7.36653 16.9367 7.44464 16.8586L8.35858 15.9446Z" fill="black"/>
</svg>
