<svg width="24" height="24" viewBox="0 0 24 24" fill="none" xmlns="http://www.w3.org/2000/svg">
<path d="M12.3536 4.35355C12.1583 4.15829 11.8417 4.15829 11.6464 4.35355L9.65355 6.34645C9.33857 6.66143 9.56165 7.2 10.0071 7.2H11.2V11.2H7.2V10.0071C7.2 9.56165 6.66143 9.33857 6.34645 9.65355L4.35355 11.6464C4.15829 11.8417 4.15829 12.1583 4.35355 12.3536L6.34645 14.3464C6.66143 14.6614 7.2 14.4383 7.2 13.9929V12.8H11.2V16.8H10.0071C9.56165 16.8 9.33857 17.3386 9.65355 17.6536L11.6464 19.6464C11.8417 19.8417 12.1583 19.8417 12.3536 19.6464L14.3464 17.6536C14.6614 17.3386 14.4383 16.8 13.9929 16.8H12.8V12.8H16.8V13.9929C16.8 14.4383 17.3386 14.6614 17.6536 14.3464L19.6464 12.3536C19.8417 12.1583 19.8417 11.8417 19.6464 11.6464L17.6536 9.65355C17.3386 9.33857 16.8 9.56165 16.8 10.0071V11.2H12.8V7.2H13.9929C14.4383 7.2 14.6614 6.66143 14.3464 6.34645L12.3536 4.35355Z" fill="black"/>
</svg>
