<svg width="24" height="24" viewBox="0 0 24 24" fill="none" xmlns="http://www.w3.org/2000/svg">
<path fill-rule="evenodd" clip-rule="evenodd" d="M19.29 9.2175L16.29 6.2175C16 5.9275 15.52 5.9275 15.23 6.2175C14.94 6.5075 14.94 6.9875 15.23 7.2775L16.95 8.9975H8.93C8.93 8.9975 8.9 8.9975 8.88 8.9975C8.84 8.9975 8.79 8.9975 8.72 8.9975C8.59 8.9975 8.4 9.0275 8.18 9.0575C7.74 9.1275 7.15 9.2575 6.54 9.5275C5.93 9.7975 5.29 10.2275 4.8 10.8775C4.3 11.5475 4 12.4075 4 13.4975C4 14.6875 4.3 15.6275 4.78 16.3575C5.26 17.0875 5.9 17.5575 6.51 17.8675C7.12 18.1775 7.72 18.3275 8.17 18.3975C8.39 18.4375 8.58 18.4575 8.72 18.4675C8.79 18.4675 8.84 18.4675 8.88 18.4675C8.9 18.4675 8.92 18.4675 8.93 18.4675H8.95C9.36 18.4675 9.7 18.1275 9.7 17.7175C9.7 17.3075 9.37 16.9675 8.95 16.9675H8.93C8.93 16.9675 8.87 16.9675 8.83 16.9675C8.74 16.9675 8.6 16.9475 8.43 16.9175C8.09 16.8575 7.64 16.7475 7.2 16.5275C6.77 16.3075 6.35 15.9875 6.05 15.5275C5.75 15.0675 5.52 14.4175 5.52 13.4875C5.52 12.6975 5.74 12.1475 6.03 11.7575C6.33 11.3575 6.73 11.0775 7.18 10.8775C7.62 10.6775 8.08 10.5775 8.43 10.5275C8.6 10.4975 8.75 10.4875 8.84 10.4875C8.89 10.4875 8.92 10.4875 8.95 10.4875H8.97H16.97L15.25 12.2075C14.96 12.4975 14.96 12.9775 15.25 13.2675C15.54 13.5575 16.02 13.5575 16.31 13.2675L19.31 10.2675C19.6 9.9775 19.6 9.4975 19.31 9.2075L19.29 9.2175Z" fill="black"/>
</svg>
