<svg width="24" height="24" viewBox="0 0 24 24" fill="none" xmlns="http://www.w3.org/2000/svg">
<path d="M6.25762 16.0104L6.25767 16.0104C6.36336 15.213 6.41557 14.6071 6.41557 14.1904C6.41557 13.8218 6.32622 13.5184 6.15305 13.2743C5.97967 13.0299 5.71667 12.8372 5.35612 12.6998C5.10071 12.6025 4.9 12.367 4.9 12.0778C4.9 11.7864 5.10358 11.5499 5.36131 11.4537C5.72019 11.3196 5.98184 11.1296 6.1543 10.8874C6.32657 10.6455 6.41557 10.3436 6.41557 9.97569C6.41557 9.53968 6.36333 8.92897 6.25769 8.14143L6.25739 8.13918L6.25741 8.13918C6.24777 8.05243 6.21889 7.78765 6.17078 7.34507L6.17076 7.34484C6.12234 6.88977 6.09803 6.4724 6.09803 6.09294C6.09803 5.38284 6.29064 4.83242 6.69262 4.46104C7.09074 4.08361 7.62752 3.9 8.29096 3.9H8.57243C8.87079 3.9 9.11266 4.14187 9.11266 4.44024C9.11266 4.7386 8.87079 4.98048 8.57243 4.98048H8.46417C8.05602 4.98048 7.76185 5.07775 7.56535 5.25668C7.38246 5.43182 7.27954 5.72614 7.27954 6.16511C7.27954 6.49729 7.30328 6.87836 7.35109 7.30866C7.39891 7.72949 7.42781 7.98955 7.43767 8.08779C7.54359 8.89697 7.59709 9.53654 7.59709 10.0046C7.59709 10.5514 7.45759 11.0205 7.17358 11.4061M6.25762 16.0104L7.09294 11.3469L7.17344 11.4062C7.17349 11.4062 7.17354 11.4061 7.17358 11.4061M6.25762 16.0104L6.2573 16.0136C6.24771 16.1094 6.21889 16.3832 6.17077 16.8356M6.25762 16.0104L6.17077 16.8356M7.17358 11.4061C6.94665 11.717 6.6192 11.9413 6.19843 12.0833C6.61939 12.2268 6.94678 12.4559 7.17357 12.7745C7.45786 13.1507 7.59709 13.6153 7.59709 14.1616C7.59709 14.6199 7.5436 15.2546 7.43772 16.0635C7.42781 16.1719 7.39888 16.4418 7.3511 16.8718L7.35107 16.872C7.30328 17.2926 7.27954 17.6688 7.27954 18.001C7.27954 18.44 7.38246 18.7343 7.56533 18.9094C7.76183 19.0884 8.05601 19.1856 8.46417 19.1856H8.57242C8.87079 19.1856 9.11266 19.4275 9.11266 19.7259C9.11266 20.0243 8.87079 20.2661 8.57242 20.2661H8.29096C7.62752 20.2661 7.09074 20.0825 6.69262 19.7051C6.29064 19.3337 6.09803 18.7833 6.09803 18.0732C6.09803 17.6937 6.12234 17.2811 6.17077 16.8356M7.17358 11.4061C7.17363 11.406 7.17367 11.4059 7.17372 11.4059L6.17077 16.8356M17.7428 16.0136L17.7427 16.0136C17.7523 16.1094 17.7811 16.3832 17.8292 16.8355C17.8292 16.8356 17.8292 16.8356 17.8292 16.8357L17.7298 16.8463C17.7779 17.2889 17.802 17.6979 17.802 18.0732C17.802 18.766 17.6143 19.2857 17.239 19.6321L17.7428 16.0136ZM17.7428 16.0136L17.7423 16.0104C17.6366 15.213 17.5844 14.6071 17.5844 14.1904C17.5844 13.8218 17.6738 13.5184 17.8469 13.2743C18.0203 13.0299 18.2833 12.8372 18.6439 12.6998C18.8993 12.6025 19.1 12.367 19.1 12.0778C19.1 11.7864 18.8964 11.5499 18.6387 11.4537C18.2798 11.3196 18.0182 11.1296 17.8457 10.8874C17.6734 10.6455 17.5844 10.3436 17.5844 9.97569C17.5844 9.53968 17.6367 8.92897 17.7423 8.14143L17.7423 8.14144L17.7426 8.13918C17.7522 8.05243 17.7811 7.78765 17.8292 7.34507L17.8292 7.34484C17.8777 6.88977 17.902 6.4724 17.902 6.09294C17.902 5.38284 17.7094 4.83242 17.3074 4.46104C16.9093 4.08361 16.3725 3.9 15.709 3.9H15.4276C15.1292 3.9 14.8873 4.14187 14.8873 4.44024C14.8873 4.7386 15.1292 4.98048 15.4276 4.98048H15.5358C15.944 4.98048 16.2381 5.07775 16.4347 5.25668C16.6175 5.43181 16.7205 5.72614 16.7205 6.16511C16.7205 6.49726 16.6967 6.87828 16.6489 7.30854C16.6011 7.72943 16.5722 7.98953 16.5623 8.08778C16.4564 8.89697 16.4029 9.53654 16.4029 10.0046C16.4029 10.5514 16.5424 11.0205 16.8264 11.4061C17.0534 11.717 17.3808 11.9413 17.8016 12.0833C17.3806 12.2268 17.0532 12.4559 16.8264 12.7745C16.5421 13.1507 16.4029 13.6153 16.4029 14.1616C16.4029 14.6199 16.4564 15.2546 16.5623 16.0635C16.5722 16.1719 16.6011 16.4418 16.6489 16.8718L16.6489 16.872C16.6967 17.2926 16.7205 17.6688 16.7205 18.001C16.7205 18.44 16.6175 18.7343 16.4347 18.9094C16.2382 19.0884 15.944 19.1856 15.5358 19.1856H15.4276C15.1292 19.1856 14.8873 19.4275 14.8873 19.7259C14.8873 20.0243 15.1292 20.2661 15.4276 20.2661H15.709C16.3725 20.2661 16.9092 20.0825 17.3073 19.7051L17.7428 16.0136Z" fill="black" stroke="black" stroke-width="0.2"/>
</svg>
