<svg width="24" height="24" viewBox="0 0 24 24" fill="none" xmlns="http://www.w3.org/2000/svg">
<path d="M17.625 12C17.625 15.1066 15.1066 17.625 12 17.625C8.8934 17.625 6.375 15.1066 6.375 12C6.375 8.8934 8.8934 6.375 12 6.375C14.2086 6.375 16.1199 7.64785 17.0403 9.5H19.0732C18.0436 6.58702 15.2655 4.5 12 4.5C7.85786 4.5 4.5 7.85786 4.5 12C4.5 16.1421 7.85786 19.5 12 19.5C16.1421 19.5 19.5 16.1421 19.5 12H17.625Z" fill="black"/>
<path d="M17.5874 6.61033L16.061 8.24515L14.9149 9.62632C14.8361 9.66767 14.7851 9.7496 14.7851 9.84657C14.7851 9.98788 14.8995 10.1021 15.0448 10.1021H19.2403C19.3856 10.1021 19.5 9.98788 19.5 9.84657V5.24417C19.5 5.13818 19.4366 5.04723 19.3369 5.00588C19.2434 4.96755 19.1283 4.98859 19.0533 5.06451L17.5874 6.61033Z" fill="black"/>
</svg>
