<svg width="24" height="24" viewBox="0 0 24 24" fill="none" xmlns="http://www.w3.org/2000/svg">
<path fill-rule="evenodd" clip-rule="evenodd" d="M5.25 5C5.25 4.58579 5.58579 4.25 6 4.25H12.5C12.6703 4.25 12.8355 4.30796 12.9685 4.41435L17.9685 8.41435C18.1464 8.55668 18.25 8.77216 18.25 9V11C18.25 11.4142 17.9142 11.75 17.5 11.75C17.0858 11.75 16.75 11.4142 16.75 11V10.25H14C12.7574 10.25 11.75 9.24264 11.75 8V5.75H6.75V18.25H10.5C10.9142 18.25 11.25 18.5858 11.25 19C11.25 19.4142 10.9142 19.75 10.5 19.75H6C5.58579 19.75 5.25 19.4142 5.25 19V5ZM13.25 6.56047L15.9869 8.75H14C13.5858 8.75 13.25 8.41421 13.25 8V6.56047Z" fill="black"/>
<path d="M8 8.75C8 8.33579 8.33579 8 8.75 8H10.25C10.6642 8 11 8.33579 11 8.75C11 9.16421 10.6642 9.5 10.25 9.5H8.75C8.33579 9.5 8 9.16421 8 8.75Z" fill="black"/>
<path d="M8 11.8501C8 11.4359 8.33579 11.1001 8.75 11.1001H13.25C13.6642 11.1001 14 11.4359 14 11.8501C14 12.2643 13.6642 12.6001 13.25 12.6001H8.75C8.33579 12.6001 8 12.2643 8 11.8501Z" fill="black"/>
<path d="M8.75 14.2002C8.33579 14.2002 8 14.536 8 14.9502C8 15.3644 8.33579 15.7002 8.75 15.7002H11.75C12.1642 15.7002 12.5 15.3644 12.5 14.9502C12.5 14.536 12.1642 14.2002 11.75 14.2002H8.75Z" fill="black"/>
<path fill-rule="evenodd" clip-rule="evenodd" d="M17.5303 12.4697C17.2374 12.1768 16.7626 12.1768 16.4697 12.4697L12.4697 16.4697C12.329 16.6103 12.25 16.8011 12.25 17V19.5C12.25 19.9142 12.5858 20.25 13 20.25H15.5C15.6989 20.25 15.8897 20.171 16.0303 20.0303L20.0303 16.0303C20.171 15.8897 20.25 15.6989 20.25 15.5C20.25 15.3011 20.171 15.1103 20.0303 14.9697L17.5303 12.4697ZM13.75 18.75V17.3107L17 14.0607L18.4393 15.5L15.1893 18.75H13.75Z" fill="black"/>
</svg>
