<svg width="24" height="24" viewBox="0 0 24 24" fill="none" xmlns="http://www.w3.org/2000/svg">
<path d="M14.6011 5.14935C14.2691 4.8174 13.7309 4.8174 13.399 5.14935C13.067 5.4813 13.067 6.01949 13.399 6.35143L15.6979 8.65039H8.74996C7.72888 8.65039 6.74962 9.05601 6.0276 9.77803C5.30559 10.5 4.89996 11.4793 4.89996 12.5004V17.7504C4.89996 18.2198 5.28052 18.6004 5.74996 18.6004C6.21941 18.6004 6.59996 18.2198 6.59996 17.7504V12.5004C6.59996 11.9302 6.82648 11.3833 7.22968 10.9801C7.63289 10.5769 8.17975 10.3504 8.74996 10.3504H15.6979L13.399 12.6493C13.067 12.9813 13.067 13.5195 13.399 13.8514C13.7309 14.1834 14.2691 14.1834 14.6011 13.8514L18.3511 10.1014C18.4558 9.99673 18.5274 9.87152 18.5661 9.73874C18.576 9.70487 18.5838 9.67012 18.5894 9.63464C18.6029 9.54982 18.6035 9.46334 18.5913 9.37837C18.5895 9.36636 18.5875 9.35439 18.5853 9.34245C18.5812 9.32087 18.5763 9.29942 18.5706 9.27815C18.5688 9.27154 18.567 9.26495 18.565 9.25838C18.5261 9.12695 18.4548 9.00308 18.3511 8.89935L14.6011 5.14935Z" fill="black"/>
</svg>
