<svg width="24" height="24" viewBox="0 0 24 24" fill="none" xmlns="http://www.w3.org/2000/svg">
<path fill-rule="evenodd" clip-rule="evenodd" d="M7.625 5.5H13.25V9C13.25 9.41421 13.5858 9.75 14 9.75H17.5V18.4C17.5 18.4189 17.4926 18.4419 17.4716 18.4625C17.4499 18.4839 17.4156 18.5 17.375 18.5H7.625C7.58441 18.5 7.55008 18.4839 7.52836 18.4625C7.50743 18.4419 7.5 18.419 7.5 18.4V5.6C7.5 5.58105 7.50743 5.55809 7.52836 5.53748C7.55008 5.5161 7.58441 5.5 7.625 5.5ZM14.75 6.72045L16.3034 8.25H14.75V6.72045ZM14.125 4H7.625C7.19402 4 6.7807 4.16857 6.47595 4.46863C6.1712 4.76869 6 5.17565 6 5.6V18.4C6 18.8243 6.1712 19.2313 6.47595 19.5314C6.7807 19.8314 7.19402 20 7.625 20H17.375C17.806 20 18.2193 19.8314 18.524 19.5314C18.8288 19.2313 19 18.8243 19 18.4V8.8L14.125 4ZM9.5 9.25C9.08579 9.25 8.75 9.58579 8.75 10C8.75 10.4142 9.08579 10.75 9.5 10.75H12C12.4142 10.75 12.75 10.4142 12.75 10C12.75 9.58579 12.4142 9.25 12 9.25H9.5ZM8.75 13C8.75 12.5858 9.08579 12.25 9.5 12.25H15C15.4142 12.25 15.75 12.5858 15.75 13C15.75 13.4142 15.4142 13.75 15 13.75H9.5C9.08579 13.75 8.75 13.4142 8.75 13ZM9.5 15.25C9.08579 15.25 8.75 15.5858 8.75 16C8.75 16.4142 9.08579 16.75 9.5 16.75H15C15.4142 16.75 15.75 16.4142 15.75 16C15.75 15.5858 15.4142 15.25 15 15.25H9.5Z" fill="black"/>
</svg>
