<svg width="24" height="24" viewBox="0 0 24 24" fill="none" xmlns="http://www.w3.org/2000/svg">
<path fill-rule="evenodd" clip-rule="evenodd" d="M8.44445 12.233C6.60945 12.233 5.1219 13.7206 5.1219 15.5556C5.1219 17.3905 6.60945 18.8781 8.44445 18.8781C10.2794 18.8781 11.767 17.3905 11.767 15.5556C11.767 13.7206 10.2794 12.233 8.44445 12.233ZM4 15.5556C4 13.101 5.98985 11.1111 8.44445 11.1111C10.899 11.1111 12.8889 13.101 12.8889 15.5556C12.8889 18.0102 10.899 20 8.44445 20C5.98985 20 4 18.0102 4 15.5556Z" fill="black"/>
<path fill-rule="evenodd" clip-rule="evenodd" d="M11.7778 5.33333H16.7778C16.8139 5.33333 16.8444 5.34764 16.8637 5.36665C16.8823 5.38497 16.8889 5.40538 16.8889 5.42222V16.8C16.8889 16.8168 16.8823 16.8373 16.8637 16.8556C16.8444 16.8746 16.8139 16.8889 16.7778 16.8889H13.6098C13.488 17.3619 13.303 17.8095 13.0643 18.2222H16.7778C17.1609 18.2222 17.5283 18.0724 17.7992 17.8057C18.07 17.5389 18.2222 17.1772 18.2222 16.8V5.42222C18.2222 5.04503 18.07 4.68328 17.7992 4.41656C17.5283 4.14984 17.1609 4 16.7778 4H11L6.66667 8.26667V10.5257C7.08921 10.3764 7.53619 10.2787 8 10.2405V9.11111H11.1111C11.4793 9.11111 11.7778 8.81263 11.7778 8.44444V5.33333ZM12.9284 12.6667C12.5984 12.1555 12.1833 11.7044 11.7033 11.3333H15.1111C15.4793 11.3333 15.7778 11.6318 15.7778 12C15.7778 12.3682 15.4793 12.6667 15.1111 12.6667H12.9284ZM13.7732 15.3333C13.7543 14.8713 13.6766 14.4244 13.5474 14H15.1111C15.4793 14 15.7778 14.2985 15.7778 14.6667C15.7778 15.0349 15.4793 15.3333 15.1111 15.3333H13.7732ZM9.0636 7.77778L10.4444 6.41818V7.77778H9.0636ZM15.7778 9.33333C15.7778 8.96514 15.4793 8.66667 15.1111 8.66667H12.8889C12.5207 8.66667 12.2222 8.96514 12.2222 9.33333C12.2222 9.70152 12.5207 10 12.8889 10H15.1111C15.4793 10 15.7778 9.70152 15.7778 9.33333Z" fill="black"/>
<path fill-rule="evenodd" clip-rule="evenodd" d="M7.16694 14.4329C7.13792 14.471 7.1111 14.5281 7.1111 14.6325C7.1111 14.7369 7.13792 14.7939 7.16694 14.8321C7.20023 14.8758 7.2613 14.9262 7.37217 14.9728C7.60611 15.0713 7.95762 15.1111 8.37264 15.1111C8.81807 15.1111 9.3206 15.148 9.7252 15.3194C9.93402 15.4079 10.1382 15.5409 10.2899 15.7432C10.4455 15.9506 10.5231 16.2005 10.5231 16.4786C10.5231 16.7589 10.4433 17.0095 10.2857 17.2165C10.1324 17.418 9.9269 17.5503 9.7179 17.6383C9.31209 17.8091 8.81061 17.8462 8.37264 17.8462C7.57909 17.8462 6.79096 17.4969 6.36901 17.1164L6.9643 16.4563C7.22474 16.6911 7.80139 16.9573 8.37264 16.9573C8.78766 16.9573 9.13916 16.9174 9.3731 16.819C9.48397 16.7723 9.54504 16.722 9.57833 16.6782C9.60736 16.6401 9.63417 16.583 9.63417 16.4786C9.63417 16.3722 9.60723 16.3144 9.57887 16.2766C9.54663 16.2336 9.48741 16.184 9.37847 16.1379C9.14755 16.04 8.79709 16 8.37264 16C7.93466 16 7.43318 15.9629 7.02738 15.7921C6.81838 15.7042 6.61289 15.5718 6.45958 15.3704C6.30202 15.1633 6.22221 14.9127 6.22221 14.6325C6.22221 14.3522 6.30202 14.1016 6.45958 13.8946C6.61289 13.6931 6.81838 13.5608 7.02738 13.4728C7.43318 13.3021 7.93466 13.265 8.37264 13.265C9.16618 13.265 9.95431 13.6142 10.3763 13.9947L9.78097 14.6549C9.52053 14.42 8.94388 14.1539 8.37264 14.1539C7.95762 14.1539 7.60611 14.1937 7.37217 14.2921C7.2613 14.3388 7.20023 14.3891 7.16694 14.4329Z" fill="black"/>
<path fill-rule="evenodd" clip-rule="evenodd" d="M7.9282 18.2222V17.1966H8.81708V18.2222H7.9282Z" fill="black"/>
<path fill-rule="evenodd" clip-rule="evenodd" d="M7.9282 13.9145V12.8889H8.81709V13.9145H7.9282Z" fill="black"/>
</svg>
