<svg width="24" height="24" viewBox="0 0 24 24" fill="none" xmlns="http://www.w3.org/2000/svg">
<path d="M13.6667 12C13.6667 11.1406 12.9848 10.4444 12.1429 10.4444C11.301 10.4444 10.619 11.1406 10.619 12C10.619 12.8594 11.301 13.5556 12.1429 13.5556C12.9848 13.5556 13.6667 12.8594 13.6667 12ZM12.1429 5C8.35619 5 5.28571 8.13444 5.28571 12H3L6.04762 15.1111L9.09524 12H6.80952C6.80952 8.99389 9.1981 6.55556 12.1429 6.55556C15.0876 6.55556 17.4762 8.99389 17.4762 12C17.4762 15.0061 15.0876 17.4444 12.1429 17.4444C10.9886 17.4444 9.92571 17.0672 9.04952 16.4294L7.97143 17.5456C9.12952 18.4556 10.5733 19 12.1429 19C15.9295 19 19 15.8656 19 12C19 8.13444 15.9295 5 12.1429 5Z" fill="black"/>
</svg>
