<svg width="16" height="16" viewBox="0 0 16 16" fill="none" xmlns="http://www.w3.org/2000/svg">
<path fill-rule="evenodd" clip-rule="evenodd" d="M6.21843 9.82442C5.33205 10.1938 3.44032 12.5712 4.28914 15.2849C2.49222 12.7993 0.566503 9.92639 1.6112 5.00879C1.68455 7.1277 3.32136 9.05521 6.21843 9.82442Z" fill="#740092"/>
<path fill-rule="evenodd" clip-rule="evenodd" d="M4.50649 11.8832C4.02277 12.9519 3.9455 14.1604 4.28914 15.282C2.49222 12.7964 0.566503 9.92346 1.6112 5.00586C1.25522 7.10957 2.38936 10.2124 4.50649 11.8832Z" fill="#B31696"/>
<path fill-rule="evenodd" clip-rule="evenodd" d="M13.5482 8.33955C15.3666 10.7357 15.0687 14.5908 11.9382 15.4771L11.8345 15.5049C9.40251 16.1086 8.6807 13.5783 9.53667 12.4316C9.98389 11.8377 11.296 11.5032 12.1109 12.3833C12.5581 11.5067 11.8273 10.7662 10.6154 10.1472C10.339 9.33506 9.76565 8.72505 7.75317 8.65171C5.74069 8.57836 0.715759 6.90309 2.2998 0.200195C4.75681 5.07665 10.8417 4.77433 13.5482 8.33955Z" fill="#0072BF"/>
<path fill-rule="evenodd" clip-rule="evenodd" d="M4.62546 5.24033C6.96172 7.18841 10.0565 6.80559 11.9598 8.92004C12.8149 9.86993 13.1682 11.3422 12.1083 12.386C12.5555 11.5094 11.8248 10.7688 10.6128 10.1499C10.3364 9.33684 9.76309 8.72773 7.75062 8.65439C5.73814 8.58105 0.715888 6.90309 2.29993 0.200195C2.47345 2.62769 3.30528 4.14018 4.62546 5.24033Z" fill="#2D1463"/>
<path fill-rule="evenodd" clip-rule="evenodd" d="M4.18808 12.9788C4.03686 13.7458 4.0799 14.5385 4.31331 15.2846C3.21226 13.7641 2.06291 12.096 1.57812 9.89746C2.60136 12.6326 4.17825 12.9779 4.18808 12.9788Z" fill="#F10091"/>
<path fill-rule="evenodd" clip-rule="evenodd" d="M13.4123 14.6902C12.9863 15.0627 12.4809 15.3331 11.9347 15.4808L11.8309 15.5086C9.39896 16.1123 8.67715 13.5819 9.53313 12.4353C9.97587 11.8414 11.2925 11.5069 12.1073 12.387C12.5545 11.5104 11.8238 10.7698 10.6118 10.1509C10.3891 9.49617 9.97498 8.97382 8.77107 8.75737C8.15718 8.39664 7.59435 7.95534 7.09758 7.44524L6.9509 7.28781C6.87576 7.20642 6.80152 7.12145 6.72997 7.0329C6.68256 6.97476 6.63516 6.91662 6.58775 6.85401C6.54244 6.79438 6.49682 6.73267 6.45091 6.66887C6.40618 6.60626 6.36146 6.54186 6.31942 6.47656C6.27649 6.41037 6.23535 6.3424 6.1942 6.27353C5.89315 5.77606 5.69428 5.22356 5.60924 4.64834C5.56901 4.35188 5.5627 4.05179 5.59046 3.7539C5.59404 3.71097 5.59851 3.66804 5.60388 3.62511L5.60924 3.59917C5.61461 3.55713 5.62087 3.51598 5.62803 3.47484C5.63518 3.4337 5.64323 3.37824 5.65307 3.32994C5.65933 3.29953 5.66559 3.26912 5.67275 3.2405C5.68706 3.17431 5.70316 3.10812 5.72194 3.04193C5.7282 3.0151 5.73536 2.98916 5.74341 2.96322C5.94466 2.26825 6.3391 1.52318 6.99562 0.733398C6.70224 2.72978 8.19416 4.05712 9.80146 5.24493C10.0242 5.4095 10.2487 5.5705 10.4714 5.7315L10.7746 5.95063C11.1422 6.21897 11.4973 6.48282 11.8202 6.75563C12.4804 7.18374 13.0644 7.71912 13.5482 8.33967C15.0223 10.2869 15.1055 13.1893 13.4123 14.6902Z" fill="#00C5EF"/>
<path fill-rule="evenodd" clip-rule="evenodd" d="M9.80159 5.24482C10.4984 5.75912 11.2166 6.24837 11.8203 6.75283C9.9921 5.52209 7.62811 4.85127 5.604 3.62231C5.6316 3.39981 5.67737 3.17994 5.74085 2.9649C7.04047 3.83966 8.47156 4.51138 9.80159 5.24482Z" fill="#00A9E5"/>
</svg>
