<svg width="16" height="16" viewBox="0 0 16 16" fill="none" xmlns="http://www.w3.org/2000/svg">
<path fill-rule="evenodd" clip-rule="evenodd" d="M14.5463 10.5043C14.5552 10.5425 14.5633 10.581 14.5704 10.6197C14.646 10.9911 14.6817 11.3695 14.6769 11.7484V11.7601V11.8638C14.6715 11.972 14.6635 12.0802 14.6518 12.1867C14.6438 12.2582 14.6339 12.3289 14.6232 12.3995C14.6178 12.4353 14.6116 12.4702 14.6053 12.5051C14.5946 12.5632 14.583 12.6196 14.5704 12.6768C14.5597 12.7239 14.5481 12.7713 14.5356 12.819C14.5275 12.8521 14.5186 12.8861 14.5087 12.9192C14.4828 13.0176 14.4524 13.107 14.4193 13.1964C14.405 13.2376 14.3889 13.2796 14.3737 13.3172C14.3585 13.3547 14.3379 13.403 14.3263 13.4299L14.3263 13.4299C14.3146 13.4567 14.303 13.4835 14.2905 13.5095C14.2655 13.573 14.2342 13.6356 14.2011 13.6964C14.194 13.7105 14.1872 13.7224 14.1797 13.7355C14.173 13.7472 14.1657 13.7599 14.1572 13.776C14.1393 13.81 14.1232 13.8368 14.0982 13.878C14.0929 13.8867 14.0877 13.8953 14.0827 13.9037C14.064 13.9349 14.0461 13.9647 14.0222 13.9978C14.0044 14.0224 13.9869 14.0469 13.9696 14.0713C13.9573 14.0887 13.945 14.1059 13.9327 14.123L13.922 14.1382C13.9178 14.1438 13.9138 14.1492 13.9097 14.1546C13.888 14.1837 13.8678 14.2107 13.8406 14.2446C13.8084 14.2849 13.7762 14.3242 13.7422 14.3627C13.7324 14.3742 13.7235 14.3839 13.7138 14.3943C13.7032 14.4056 13.6919 14.4179 13.6778 14.4343C13.6579 14.4576 13.6389 14.4774 13.6176 14.4997C13.6103 14.5073 13.6027 14.5152 13.5947 14.5237C13.5734 14.5461 13.5522 14.5669 13.5324 14.5864C13.523 14.5956 13.5139 14.6045 13.5052 14.6131C13.4784 14.64 13.456 14.6614 13.4229 14.69C13.3899 14.7187 13.3559 14.7473 13.3219 14.7741C13.2709 14.817 13.2181 14.8564 13.1654 14.8949C12.7982 15.1635 12.3846 15.3621 11.9454 15.4807L11.8417 15.5084C9.55833 16.0754 8.77933 13.8788 9.40539 12.6598C9.42507 12.6213 9.44564 12.5838 9.468 12.548C9.47963 12.5283 9.49215 12.5095 9.50467 12.4908C9.51719 12.472 9.52971 12.4541 9.54313 12.4362C9.57509 12.3933 9.61037 12.3529 9.64867 12.3155C9.66566 12.2985 9.68355 12.2815 9.70233 12.2654L9.75689 12.2198C10.3168 11.7726 11.4043 11.6161 12.1198 12.3825C12.1214 12.3796 12.1234 12.3767 12.1254 12.3736C12.1302 12.3664 12.135 12.3591 12.135 12.3521C12.1403 12.3423 12.1447 12.3322 12.1485 12.3217C12.1628 12.2922 12.1798 12.2502 12.1851 12.2323C12.1875 12.2243 12.1914 12.2136 12.1949 12.2039C12.1992 12.1918 12.203 12.1811 12.203 12.1786V12.1652C12.2111 12.1411 12.2173 12.1169 12.2236 12.0928C12.2268 12.0774 12.2292 12.0619 12.2307 12.0463C12.3604 11.3156 11.6709 10.6895 10.6209 10.1529C10.3982 9.49817 9.98406 8.97585 8.78022 8.75941L8.76681 8.75226C8.43436 8.69646 8.09848 8.66359 7.76152 8.65388C6.72136 8.61631 4.88699 8.15302 3.56777 6.79804C3.49801 6.72649 3.43093 6.65225 3.36386 6.57623C3.29678 6.50021 3.23328 6.42061 3.16978 6.33922C3.10627 6.25783 3.04546 6.17644 2.98643 6.08701C2.63759 5.57279 2.37955 5.00256 2.22352 4.4011C2.19132 4.28215 2.1636 4.1614 2.13856 4.03709C1.92838 2.99156 1.94805 1.72601 2.3058 0.200195C3.10449 1.78414 4.28596 2.82162 5.60964 3.62388C5.61591 3.57559 5.62217 3.52729 5.63111 3.47899C5.632 3.47363 5.6332 3.46826 5.63439 3.46289C5.63677 3.45216 5.63916 3.44143 5.63916 3.4307C5.64363 3.39851 5.64989 3.36632 5.65615 3.33413L5.65615 3.3341C5.66331 3.32248 5.66331 3.31085 5.66331 3.29922C5.67404 3.24735 5.68567 3.19547 5.69908 3.14449C5.70205 3.13136 5.70541 3.11944 5.7089 3.1071C5.71277 3.09338 5.71678 3.07916 5.72055 3.06221C5.72633 3.03618 5.73387 3.01015 5.74127 2.9846C5.74302 2.97854 5.74477 2.97251 5.74648 2.96651C5.94772 2.27158 6.34214 1.52656 6.99862 0.736823C6.70794 2.7295 8.19977 4.05676 9.8025 5.24718C9.88806 5.31066 9.97468 5.37361 10.0611 5.43644C10.0868 5.45505 10.1123 5.47364 10.1379 5.49224C10.2246 5.55497 10.3113 5.61743 10.3977 5.67969C10.8978 6.03997 11.3887 6.39364 11.8211 6.75511L11.8989 6.80698C12.1822 6.99568 12.4512 7.20494 12.7039 7.43305L12.779 7.50102C13.0626 7.75832 13.3219 8.04125 13.5535 8.34621C13.5974 8.40256 13.643 8.46337 13.6868 8.52509L13.7503 8.61989C13.7914 8.6825 13.8326 8.7451 13.871 8.8095C13.9095 8.87389 13.948 8.93918 13.9837 9.00537C14.0195 9.07155 14.0544 9.13774 14.0884 9.20481C14.1715 9.37296 14.2467 9.54468 14.3129 9.71819L14.3513 9.82283C14.3817 9.90869 14.4103 9.99902 14.4363 10.0813C14.4622 10.1636 14.4864 10.253 14.5087 10.3425C14.5221 10.3961 14.5347 10.4498 14.5463 10.5043ZM1.58046 5.18727C1.59119 5.13003 1.60372 5.06921 1.61713 5.00839C1.69047 7.12718 3.32719 9.05457 6.23034 9.82194C5.60428 10.0804 4.49525 11.32 4.17327 12.9711L4.19563 12.9764C4.04441 13.7434 4.08745 14.536 4.32084 15.2821L4.28149 15.2276C4.28596 15.2446 4.29133 15.2625 4.29669 15.2795V15.2839C3.1653 13.7214 1.98562 12.0069 1.52412 9.72714C1.26027 8.4285 1.23255 6.93667 1.58046 5.18727Z" fill="black"/>
</svg>
