<svg width="16" height="16" viewBox="0 0 16 16" fill="none" xmlns="http://www.w3.org/2000/svg">
<path d="M7.64574 9.07184L7.64816 9.06663C5.92544 7.81002 4.62192 5.6212 5.66957 3.89102C6.1378 3.3151 6.73241 2.84014 7.39609 2.44776C7.46791 2.41306 7.54077 2.37837 7.61639 2.34368C7.60396 2.34368 7.59118 2.34368 7.57875 2.34125C10.8063 0.539256 15.5 0.591296 15.5 0.591296C15.5 0.591296 7.22758 -0.360353 2.80908 3.8813C1.93596 4.62694 1.27228 5.58919 0.884018 6.67242C0.884018 6.67519 0.881601 6.67797 0.88022 6.68109C0.359175 8.14821 0.374083 9.75363 0.922283 11.2107C1.47048 12.6678 2.51628 13.8817 3.87296 14.6357C4.60762 15.1105 5.49777 15.2784 6.35381 15.1036C7.20985 14.9287 7.96412 14.425 8.45597 13.6997C8.94781 12.9743 9.13836 12.0847 8.98702 11.2203C8.83568 10.3559 8.35442 9.585 7.64574 9.07184Z" fill="#005DAB"/>
<path d="M10.6531 3.41455C10.6234 3.42253 7.27811 4.80612 9.3596 7.07543C11.1048 8.97804 11.9877 9.76593 11.4563 12.2615C11.2546 13.287 10.6182 14.1932 9.59372 14.9388C10.6811 14.4749 11.6231 13.7239 12.3197 12.7653C13.0163 11.8068 13.4416 10.6765 13.5502 9.49467C13.6588 8.31281 13.4469 7.12345 12.9368 6.05291C12.4267 4.98238 11.6375 4.07064 10.6531 3.41455Z" fill="#425966"/>
</svg>
