<svg width="16" height="16" viewBox="0 0 16 16" fill="none" xmlns="http://www.w3.org/2000/svg">
<path d="M10.4023 7.74962C10.4023 7.90832 10.3726 8.03333 10.3143 8.12168C10.2566 8.20911 10.1693 8.25169 10.0476 8.25169C9.92568 8.25169 9.83885 8.20934 9.78209 8.12168C9.72466 8.03356 9.69549 7.90832 9.69549 7.74962C9.69549 7.59114 9.72466 7.46636 9.78209 7.37892C9.83885 7.29239 9.92568 7.25027 10.0476 7.25027C10.1693 7.25027 10.2566 7.29239 10.3145 7.37892C10.3726 7.46636 10.4023 7.59114 10.4023 7.74962Z" fill="#00A1E0"/>
<path d="M13.4052 7.59756C13.4182 7.50944 13.4426 7.43612 13.4802 7.37896C13.537 7.29221 13.6236 7.24462 13.7453 7.24462C13.867 7.24462 13.9474 7.29244 14.0051 7.37896C14.0434 7.43612 14.06 7.51262 14.0666 7.59756H13.4052Z" fill="#00A1E0"/>
<path d="M6.05326 7.37896C6.01566 7.43612 5.9915 7.50944 5.97828 7.59756H6.6397C6.63309 7.51262 6.61645 7.43612 6.57839 7.37896C6.5205 7.29244 6.44004 7.24462 6.31833 7.24462C6.19662 7.24462 6.11001 7.29221 6.05326 7.37896Z" fill="#00A1E0"/>
<path d="M3.97369 8.2042C3.93745 8.17528 3.93243 8.16799 3.92012 8.14932C3.90189 8.12086 3.89255 8.08033 3.89255 8.02887C3.89255 7.94735 3.91944 7.88883 3.97528 7.84944C3.9746 7.84967 4.05505 7.77999 4.24423 7.7825C4.3771 7.78432 4.49585 7.8039 4.49585 7.8039V8.22514C4.49585 8.22514 4.37824 8.25042 4.24559 8.25839C4.05688 8.26977 3.973 8.20397 3.97369 8.2042Z" fill="#00A1E0"/>
<path fill-rule="evenodd" clip-rule="evenodd" d="M6.65823 3.7178C7.17424 3.18066 7.89265 2.84753 8.68718 2.84753C9.74336 2.84753 10.6648 3.43591 11.1556 4.30937C11.582 4.11901 12.054 4.01313 12.5507 4.01313C14.4556 4.01313 16 5.56946 16 7.4892C16 9.40917 14.4556 10.9655 12.5507 10.9655C12.3182 10.9655 12.0909 10.9423 11.8712 10.8979C11.4391 11.668 10.6156 12.1882 9.67043 12.1882C9.27476 12.1882 8.90051 12.0969 8.56729 11.9346C8.12923 12.964 7.1086 13.6858 5.91909 13.6858C4.68034 13.6858 3.62462 12.9028 3.21937 11.8046C3.04228 11.8421 2.8588 11.8617 2.67054 11.8617C1.19567 11.8617 0 10.6549 0 9.16598C0 8.1682 0.537208 7.29702 1.33538 6.83092C1.17105 6.45316 1.07966 6.03625 1.07966 5.59792C1.07966 3.88562 2.47111 2.49756 4.18735 2.49756C5.19499 2.49756 6.09048 2.97618 6.65823 3.7178ZM2.31749 8.29955C2.30919 8.32122 2.31712 8.3287 2.32192 8.33321C2.32291 8.33416 2.32378 8.33497 2.32433 8.33575C2.34812 8.35304 2.3722 8.36648 2.39644 8.38002L2.41572 8.39086C2.57891 8.47738 2.73299 8.50266 2.89413 8.50266C3.22233 8.50266 3.42609 8.32824 3.42609 8.04748V8.04202C3.42609 7.78244 3.19612 7.68817 2.98028 7.62009L2.95225 7.61098C2.78958 7.55818 2.64911 7.51258 2.64911 7.4056V7.39991C2.64911 7.30837 2.73116 7.24097 2.85834 7.24097C2.99965 7.24097 3.1674 7.28788 3.27544 7.34753C3.27544 7.34753 3.30712 7.36803 3.31874 7.33729C3.32512 7.32089 3.37982 7.1738 3.38552 7.15786C3.39168 7.14055 3.38074 7.1278 3.36957 7.12097C3.24626 7.04606 3.07578 6.99483 2.89937 6.99483L2.86655 6.99505C2.56615 6.99505 2.35646 7.1763 2.35646 7.43611V7.44157C2.35646 7.7155 2.5878 7.8043 2.80455 7.86623L2.83943 7.87694C2.99717 7.92537 3.13344 7.96722 3.13344 8.07822V8.08369C3.13344 8.18524 3.04501 8.26084 2.90233 8.26084C2.84695 8.26084 2.67031 8.2597 2.47954 8.13925C2.46632 8.13153 2.45626 8.12502 2.44673 8.11885C2.43966 8.11427 2.43286 8.10988 2.4253 8.10532C2.41595 8.0994 2.39247 8.08915 2.38222 8.12012L2.31749 8.29955ZM7.12683 8.33321C7.12204 8.3287 7.11411 8.32122 7.12241 8.29955L7.18713 8.12012C7.19671 8.09075 7.22451 8.10145 7.23044 8.10532L7.24137 8.11241C7.25416 8.12074 7.26645 8.12874 7.28446 8.13925C7.47523 8.2597 7.65186 8.26084 7.70725 8.26084C7.84993 8.26084 7.93859 8.18524 7.93859 8.08369V8.07822C7.93859 7.96729 7.80274 7.92557 7.64512 7.87718L7.60947 7.86623C7.39272 7.8043 7.16138 7.7155 7.16138 7.44157V7.43611C7.16138 7.1763 7.37107 6.99505 7.67146 6.99505L7.70429 6.99483C7.8807 6.99483 8.05118 7.04606 8.17449 7.12097C8.18565 7.1278 8.19659 7.14055 8.19044 7.15786C8.18474 7.1738 8.13004 7.32089 8.12366 7.33729C8.11203 7.36803 8.08035 7.34753 8.08035 7.34753C7.97232 7.28788 7.80457 7.24097 7.66326 7.24097C7.53608 7.24097 7.45403 7.30837 7.45403 7.39991V7.4056C7.45403 7.51258 7.59434 7.55813 7.757 7.61093L7.7852 7.62009C8.00104 7.68817 8.23101 7.78244 8.23101 8.04202V8.04748C8.23101 8.32824 8.02725 8.50266 7.69904 8.50266C7.5379 8.50266 7.38383 8.47738 7.22064 8.39086L7.20136 8.38002C7.17711 8.36648 7.15303 8.35304 7.12924 8.33575C7.12869 8.33497 7.12783 8.33416 7.12683 8.33321ZM10.6762 7.45543C10.6493 7.36457 10.6074 7.28442 10.5516 7.21771C10.4957 7.15076 10.4251 7.09703 10.3412 7.05786C10.2575 7.01893 10.1586 6.99912 10.0476 6.99912C9.9364 6.99912 9.83748 7.01893 9.75383 7.05786C9.66996 7.09703 9.5993 7.15076 9.54323 7.21771C9.48762 7.28465 9.44568 7.3648 9.41856 7.45543C9.39189 7.54582 9.37845 7.64465 9.37845 7.74962C9.37845 7.85459 9.39189 7.95363 9.41856 8.0438C9.44568 8.13443 9.48739 8.21458 9.54346 8.28152C9.5993 8.34847 9.67019 8.40198 9.75383 8.44C9.83771 8.47803 9.9364 8.49738 10.0476 8.49738C10.1586 8.49738 10.2573 8.47803 10.3412 8.44C10.4248 8.40198 10.4957 8.34847 10.5516 8.28152C10.6074 8.21481 10.6493 8.13466 10.6762 8.0438C10.7031 7.95341 10.7166 7.85436 10.7166 7.74962C10.7166 7.64487 10.7031 7.54582 10.6762 7.45543ZM12.891 8.19267C12.891 8.19267 12.9168 8.18265 12.9259 8.20929L12.9931 8.39487C13.0018 8.41787 12.982 8.42743 12.982 8.42743C12.8785 8.46819 12.7345 8.49665 12.5941 8.49665C12.3566 8.49665 12.1745 8.42811 12.0532 8.29331C11.9322 8.15897 11.8709 7.97545 11.8709 7.74843C11.8709 7.64346 11.8859 7.54418 11.9155 7.45378C11.9454 7.36316 11.9901 7.28301 12.0489 7.21607C12.1077 7.14912 12.182 7.09538 12.2695 7.05645C12.3572 7.01728 12.4598 6.9977 12.5749 6.9977C12.6519 6.9977 12.7212 7.00248 12.7805 7.01159C12.8439 7.02115 12.9277 7.0437 12.9633 7.05759C12.9697 7.06009 12.9874 7.06897 12.9802 7.08969C12.9628 7.13941 12.949 7.17733 12.9344 7.21742L12.9129 7.27686C12.9027 7.3051 12.881 7.29576 12.881 7.29576C12.7908 7.2673 12.7046 7.25432 12.5915 7.25432C12.4559 7.25432 12.3543 7.29963 12.2875 7.38798C12.2203 7.47678 12.1829 7.59336 12.1824 7.74843C12.182 7.91875 12.2244 8.04467 12.3 8.12254C12.3755 8.20041 12.4808 8.23981 12.6134 8.23981C12.6674 8.23981 12.7178 8.23616 12.7636 8.2291C12.8088 8.22204 12.8511 8.20793 12.891 8.19267ZM14.3276 7.40378C14.3044 7.31612 14.2467 7.22754 14.2089 7.18701C14.1491 7.1228 14.0908 7.07795 14.0329 7.0529C13.9572 7.02056 13.8665 6.99916 13.7672 6.99916C13.6514 6.99916 13.5463 7.01851 13.4611 7.05859C13.3756 7.09867 13.3038 7.15331 13.2475 7.2214C13.1912 7.28925 13.1488 7.37008 13.1219 7.46185C13.0948 7.55315 13.0811 7.65266 13.0811 7.75763C13.0811 7.86442 13.0952 7.96393 13.1233 8.05341C13.1515 8.14358 13.1967 8.22305 13.2578 8.28885C13.3186 8.35511 13.397 8.40703 13.4909 8.44323C13.5841 8.47921 13.6974 8.49788 13.8276 8.49765C14.0954 8.49674 14.2364 8.43709 14.2946 8.40498C14.3048 8.39929 14.3146 8.38927 14.3023 8.36058L14.2417 8.19094C14.2326 8.16567 14.2068 8.175 14.2068 8.175L14.1887 8.18185C14.1231 8.20697 14.0269 8.24373 13.8262 8.24331C13.6824 8.24309 13.5757 8.20073 13.5089 8.13447C13.4403 8.06662 13.4068 7.96689 13.4009 7.82617L14.3283 7.82708C14.3283 7.82708 14.3527 7.82662 14.3552 7.80294L14.3557 7.79865C14.3599 7.76854 14.3831 7.59854 14.3276 7.40378ZM6.78192 7.18701C6.81976 7.22754 6.87719 7.31612 6.90044 7.40378C6.95615 7.59856 6.93291 7.76857 6.9288 7.79866L6.92825 7.80294C6.92574 7.82662 6.90135 7.82708 6.90135 7.82708L5.97395 7.82617C5.97987 7.96689 6.01338 8.06662 6.08198 8.13447C6.14876 8.20073 6.25543 8.24309 6.39902 8.24331C6.60007 8.24373 6.69605 8.20701 6.7617 8.18189L6.77987 8.175C6.77987 8.175 6.80563 8.16567 6.81497 8.19094L6.87537 8.36058C6.88768 8.38927 6.87788 8.39929 6.86762 8.40498C6.8095 8.43709 6.66842 8.49674 6.40061 8.49765C6.27047 8.49788 6.15719 8.47921 6.06397 8.44323C5.97007 8.40703 5.89167 8.35511 5.83081 8.28885C5.76973 8.22305 5.7246 8.14358 5.69634 8.05341C5.66831 7.96393 5.65417 7.86442 5.65417 7.75763C5.65417 7.65266 5.66808 7.55315 5.69497 7.46185C5.72187 7.37008 5.76426 7.28925 5.82056 7.2214C5.87685 7.15331 5.94865 7.09867 6.03412 7.05859C6.11936 7.01851 6.22466 6.99916 6.34021 6.99916C6.43959 6.99916 6.5303 7.02056 6.60597 7.0529C6.66386 7.07795 6.72221 7.1228 6.78192 7.18701ZM4.34269 7.5532C4.30508 7.55047 4.25631 7.54888 4.19796 7.54888C4.11841 7.54888 4.0416 7.55889 3.96958 7.57825C3.8971 7.5976 3.83192 7.62789 3.77585 7.66796C3.71955 7.70827 3.6742 7.75973 3.64138 7.82075C3.60856 7.88177 3.59192 7.95373 3.59192 8.03433C3.59192 8.1163 3.60605 8.18757 3.63431 8.24586C3.66257 8.30438 3.70337 8.35311 3.75534 8.39068C3.80685 8.42825 3.87044 8.4558 3.94428 8.47243C4.01699 8.48905 4.0995 8.49747 4.18975 8.49747C4.2848 8.49747 4.37961 8.48973 4.47146 8.47402C4.5624 8.45854 4.67408 8.43599 4.70508 8.42894C4.73585 8.42165 4.77004 8.41231 4.77004 8.41231C4.79306 8.40662 4.79123 8.38203 4.79123 8.38203L4.79078 7.53476C4.79078 7.34895 4.74109 7.2112 4.64331 7.12581C4.54599 7.04065 4.40263 6.99761 4.21733 6.99761C4.14782 6.99761 4.03591 7.00718 3.9689 7.02061C3.9689 7.02061 3.76628 7.05978 3.68286 7.1249C3.68286 7.1249 3.66462 7.13628 3.67465 7.16179L3.74029 7.33802C3.7485 7.3608 3.77061 7.35305 3.77061 7.35305C3.77061 7.35305 3.77767 7.35032 3.78588 7.34554C3.96434 7.24854 4.18998 7.2515 4.18998 7.2515C4.29027 7.2515 4.3673 7.27154 4.41927 7.31138C4.46987 7.35009 4.49562 7.40861 4.49562 7.53203V7.57119C4.41585 7.5598 4.34269 7.5532 4.34269 7.5532ZM11.8086 7.04257C11.8148 7.04485 11.8296 7.05487 11.8225 7.07582C11.8139 7.10109 11.7687 7.22792 11.7528 7.27027C11.7468 7.28644 11.7368 7.29737 11.719 7.29532C11.719 7.29532 11.6657 7.28279 11.6172 7.28279C11.5834 7.28279 11.5358 7.28712 11.4927 7.30033C11.4505 7.31331 11.412 7.3363 11.3781 7.36909C11.3443 7.40211 11.317 7.44811 11.2969 7.50549C11.2764 7.56355 11.2662 7.656 11.2662 7.74867V8.43906C11.2662 8.45454 11.2536 8.46729 11.2381 8.46729H10.9945C10.979 8.46729 10.9662 8.45454 10.9662 8.43906V7.05714C10.9662 7.04143 10.9774 7.02891 10.9929 7.02891H11.2306C11.2461 7.02891 11.2573 7.04143 11.2573 7.05714V7.16986C11.2928 7.12227 11.3566 7.08037 11.4141 7.05441C11.472 7.02845 11.5367 7.00887 11.6532 7.01593C11.714 7.0198 11.7929 7.03642 11.8086 7.04257ZM9.5357 6.43535C9.50607 6.42624 9.47918 6.4201 9.44408 6.41349C9.40852 6.40712 9.36613 6.40393 9.31804 6.40393C9.15029 6.40393 9.0181 6.45129 8.92533 6.54465C8.83302 6.63755 8.77035 6.77895 8.73889 6.96498L8.7275 7.0276H8.5169C8.5169 7.0276 8.49137 7.02669 8.4859 7.05447L8.45149 7.24733C8.44898 7.26555 8.45696 7.27716 8.48157 7.27716H8.68647L8.47861 8.43661C8.46243 8.52997 8.44374 8.6067 8.423 8.66499C8.40271 8.72237 8.38288 8.76541 8.35827 8.79683C8.33456 8.82689 8.31223 8.8492 8.27348 8.86218C8.24157 8.87288 8.20465 8.87789 8.16431 8.87789C8.14197 8.87789 8.11211 8.87425 8.09 8.86969C8.06812 8.86537 8.0565 8.86059 8.03986 8.85353C8.03986 8.85353 8.01593 8.84442 8.00636 8.86833C7.99884 8.88814 7.94414 9.03819 7.93753 9.05664C7.93114 9.07508 7.94026 9.08942 7.95189 9.09375C7.97924 9.10331 7.99952 9.10969 8.03667 9.11857C8.08818 9.13064 8.13171 9.13132 8.17251 9.13132C8.25775 9.13132 8.3357 9.11925 8.4002 9.09603C8.46493 9.07257 8.52146 9.03182 8.5716 8.97671C8.62562 8.91706 8.65958 8.85467 8.69194 8.76928C8.72408 8.68503 8.75166 8.58029 8.77354 8.45824L8.98254 7.27716H9.28795C9.28795 7.27716 9.31371 7.27807 9.31895 7.25006L9.35359 7.05743C9.35587 7.03899 9.34812 7.0276 9.32328 7.0276H9.02676L9.02826 7.01869C9.03275 6.99048 9.04679 6.90229 9.07576 6.81857C9.09035 6.7769 9.1177 6.74298 9.14072 6.71975C9.16351 6.69698 9.18972 6.68081 9.21844 6.67148C9.24784 6.66191 9.28134 6.65736 9.31804 6.65736C9.34585 6.65736 9.37342 6.66055 9.39416 6.66487C9.42288 6.67102 9.43405 6.67421 9.44157 6.67649C9.47188 6.6856 9.47599 6.67671 9.48191 6.66214L9.5528 6.46769C9.56009 6.44674 9.54208 6.43786 9.5357 6.43535ZM5.36589 8.46714C5.38138 8.46714 5.39255 8.45461 5.39255 8.43913V6.46178C5.39255 6.4463 5.38138 6.43378 5.36589 6.43378H5.11996C5.10446 6.43378 5.09352 6.4463 5.09352 6.46178V8.43913C5.09352 8.45461 5.10446 8.46714 5.11996 8.46714H5.36589Z" fill="#00A1E0"/>
</svg>
