<svg width="24" height="24" viewBox="0 0 24 24" fill="none" xmlns="http://www.w3.org/2000/svg">
<path fill-rule="evenodd" clip-rule="evenodd" d="M15.9994 5C15.9992 5 15.9996 5 15.9994 5C16.2957 5.00018 16.5773 5.13178 16.7672 5.35932L18.7394 7.72289C18.8889 7.90198 18.971 8.12766 18.9716 8.36091L18.9947 16.9947C18.9976 18.1013 18.1013 19 16.9947 19H7.02519C5.92226 19 5.02751 18.1071 5.0252 17.0042L5.00422 7.0042C5.0019 5.89799 5.898 5 7.00421 5H15.9994ZM16 6.78113V10C16 10.5523 15.5523 11 15 11H9C8.44772 11 8 10.5523 8 10V6.5H7.00421C6.72766 6.5 6.50363 6.7245 6.50421 7.00105L6.52519 17.001C6.52577 17.2768 6.74946 17.5 7.02519 17.5H16.9947C17.2713 17.5 17.4954 17.2753 17.4947 16.9987L17.4721 8.54536L16 6.78113ZM9.5 6.5V9.5H14.5V6.5H9.5Z" fill="black"/>
</svg>
