<svg width="24" height="24" viewBox="0 0 24 24" fill="none" xmlns="http://www.w3.org/2000/svg">
<path fill-rule="evenodd" clip-rule="evenodd" d="M14.9952 5C15.2915 5.00018 15.5731 5.13178 15.763 5.35932L17.7352 7.72289C17.8847 7.90198 17.9668 8.12766 17.9674 8.36091L17.9725 10.248C17.9736 10.663 17.6375 11 17.2225 11C16.809 11 16.4736 10.6654 16.4725 10.252L16.4679 8.54536L14.9958 6.78113V10C14.9958 10.5523 14.5481 11 13.9958 11H7.99579C7.4435 11 6.99579 10.5523 6.99579 10V6.5H6C5.72345 6.5 5.49942 6.7245 5.5 7.00105L5.52098 17.001C5.52156 17.2768 5.74525 17.5 6.02098 17.5H6.24579C6.66 17.5 6.99579 17.8358 6.99579 18.25C6.99579 18.6642 6.66 19 6.24579 19H6.02098C4.91805 19 4.0233 18.1071 4.02099 17.0042L4 7.0042C3.99768 5.89799 4.89379 5 6 5H14.9952ZM8.49579 6.5V9.5H13.4958V6.5H8.49579Z" fill="black"/>
<path fill-rule="evenodd" clip-rule="evenodd" d="M14.4958 21.5C16.705 21.5 18.4958 19.7091 18.4958 17.5C18.4958 15.2909 16.705 13.5 14.4958 13.5C12.2867 13.5 10.4958 15.2909 10.4958 17.5C10.4958 19.7091 12.2867 21.5 14.4958 21.5ZM14.4958 23C17.5334 23 19.9958 20.5376 19.9958 17.5C19.9958 14.4624 17.5334 12 14.4958 12C11.4583 12 8.99585 14.4624 8.99585 17.5C8.99585 20.5376 11.4583 23 14.4958 23Z" fill="black"/>
<path d="M13.7458 15.25C13.7458 14.8358 14.0816 14.5 14.4958 14.5C14.9101 14.5 15.2458 14.8358 15.2458 15.25V17.25C15.2458 17.6642 14.9101 18 14.4958 18C14.0816 18 13.7458 17.6642 13.7458 17.25V15.25Z" fill="black"/>
<path d="M13.7458 19.5C13.7458 19.0858 14.0816 18.75 14.4958 18.75C14.9101 18.75 15.2458 19.0858 15.2458 19.5C15.2458 19.9142 14.9101 20.25 14.4958 20.25C14.0816 20.25 13.7458 19.9142 13.7458 19.5Z" fill="black"/>
</svg>
