<svg width="24" height="24" viewBox="0 0 24 24" fill="none" xmlns="http://www.w3.org/2000/svg">
<path fill-rule="evenodd" clip-rule="evenodd" d="M15.9994 5C16.2957 5.00018 16.5773 5.13178 16.7672 5.35932L18.7394 7.72289C18.8889 7.90198 18.971 8.12766 18.9716 8.36091L18.9787 11H17.4787L17.4721 8.54536L16 6.78113V10C16 10.5523 15.5523 11 15 11H9C8.44772 11 8 10.5523 8 10V6.5H7.00421C6.72766 6.5 6.50363 6.7245 6.50421 7.00105L6.52519 17.001C6.52577 17.2768 6.74946 17.5 7.02519 17.5H8V19H7.02519C5.92226 19 5.02751 18.1071 5.0252 17.0042L5.00422 7.0042C5.0019 5.89799 5.898 5 7.00421 5H15.9994ZM9.5 6.5V9.5H14.5V6.5H9.5Z" fill="black"/>
<path d="M19.6923 17.5C19.6923 19.0294 18.4525 20.2692 16.9231 20.2692C15.3937 20.2692 14.1538 19.0294 14.1538 17.5C14.1538 15.9706 15.3937 14.7308 16.9231 14.7308C18.4525 14.7308 19.6923 15.9706 19.6923 17.5Z" fill="black"/>
<path fill-rule="evenodd" clip-rule="evenodd" d="M10.0958 17.1807C10.7618 16.1534 13.1173 13 16.9355 13C20.4443 13 22.9703 16.0927 23.7315 17.1503C23.8844 17.3628 23.8844 17.6372 23.7315 17.8497C22.9703 18.9073 20.4443 22 16.9355 22C13.1173 22 10.7618 18.8466 10.0958 17.8193C9.96807 17.6223 9.96807 17.3777 10.0958 17.1807ZM11.1466 17.5C11.4984 18.0039 12.1238 18.7908 12.998 19.4881C14.0222 20.305 15.3383 20.9615 16.9355 20.9615C18.3672 20.9615 19.6505 20.3296 20.7099 19.5064C21.6063 18.81 22.2855 18.0198 22.6841 17.5C22.2855 16.9802 21.6063 16.19 20.7099 15.4936C19.6505 14.6704 18.3672 14.0385 16.9355 14.0385C15.3383 14.0385 14.0222 14.695 12.998 15.5119C12.1238 16.2092 11.4984 16.9961 11.1466 17.5Z" fill="black"/>
</svg>
