<svg width="24" height="24" viewBox="0 0 24 24" fill="none" xmlns="http://www.w3.org/2000/svg">
<path d="M15.5816 14.2097C15.4878 14.1157 15.3605 14.0629 15.2277 14.0629H14.8175C14.7473 14.0629 14.6799 14.035 14.6303 13.9853C14.5322 13.8872 14.527 13.7304 14.6132 13.6218C15.4154 12.6112 15.8925 11.3353 15.8925 9.94625C15.8925 6.66209 13.2304 4 9.94625 4C6.66209 4 4 6.66209 4 9.94625C4 13.2304 6.66209 15.8925 9.94625 15.8925C11.3352 15.8925 12.611 15.4155 13.6215 14.6172C13.7304 14.5312 13.8871 14.5366 13.9852 14.6347C14.0349 14.6845 14.0629 14.7519 14.0629 14.8223V15.2277C14.0629 15.3605 14.1157 15.4878 14.2097 15.5816L18.2834 19.6472C18.4787 19.8421 18.795 19.8419 18.9901 19.6468L19.6468 18.9901C19.8419 18.795 19.8421 18.4787 19.6472 18.2834L15.5816 14.2097ZM9.94625 14.0629C7.67296 14.0629 5.82962 12.2196 5.82962 9.94625C5.82962 7.67296 7.67296 5.82962 9.94625 5.82962C12.2196 5.82962 14.0629 7.67296 14.0629 9.94625C14.0629 12.2196 12.2196 14.0629 9.94625 14.0629Z" fill="black"/>
</svg>
