<svg width="24" height="24" viewBox="0 0 24 24" fill="none" xmlns="http://www.w3.org/2000/svg">
<path d="M18.6927 12.5279C18.5622 12.382 18.4902 12.1943 18.4902 12C18.4902 11.8057 18.5622 11.618 18.6927 11.4721L19.735 10.3202C19.8499 10.1944 19.9212 10.036 19.9388 9.8679C19.9563 9.69976 19.9192 9.53049 19.8327 9.38436L18.2041 6.61673C18.1186 6.47077 17.9883 6.35507 17.8318 6.28613C17.6754 6.21718 17.5007 6.19852 17.3328 6.23278L15.802 6.53674C15.6072 6.57628 15.4044 6.54441 15.2319 6.44716C15.0594 6.3499 14.929 6.19398 14.8655 6.00882L14.3688 4.54501C14.3142 4.38614 14.2101 4.24815 14.0713 4.15054C13.9325 4.05294 13.7659 4.00065 13.5952 4.00109H10.338C10.1605 3.99198 9.98474 4.04022 9.83771 4.13844C9.69067 4.23666 9.5804 4.37945 9.52374 4.54501L9.06774 6.00882C9.00422 6.19398 8.87391 6.3499 8.70139 6.44716C8.52888 6.54441 8.32609 6.57628 8.13129 6.53674L6.5597 6.23278C6.40055 6.21069 6.2383 6.23536 6.09339 6.30369C5.94849 6.37201 5.82741 6.48093 5.7454 6.61673L4.11681 9.38436C4.02818 9.52886 3.98833 9.69718 4.00296 9.86527C4.01758 10.0334 4.08594 10.1926 4.19824 10.3202L5.2324 11.4721C5.36295 11.618 5.43494 11.8057 5.43494 12C5.43494 12.1943 5.36295 12.382 5.2324 12.5279L4.19824 13.6798C4.08594 13.8074 4.01758 13.9666 4.00296 14.1347C3.98833 14.3028 4.02818 14.4711 4.11681 14.6156L5.7454 17.3833C5.83099 17.5292 5.96129 17.6449 6.11774 17.7139C6.2742 17.7828 6.44881 17.8015 6.6167 17.7672L8.14758 17.4633C8.34237 17.4237 8.54516 17.4556 8.71768 17.5528C8.8902 17.6501 9.02051 17.806 9.08402 17.9912L9.58074 19.455C9.6374 19.6205 9.74767 19.7633 9.89471 19.8616C10.0417 19.9598 10.2175 20.008 10.395 19.9989H13.6522C13.8229 19.9993 13.9895 19.9471 14.1283 19.8495C14.2671 19.7519 14.3712 19.6139 14.4258 19.455L14.9225 17.9912C14.986 17.806 15.1164 17.6501 15.2889 17.5528C15.4614 17.4556 15.6642 17.4237 15.859 17.4633L17.3898 17.7672C17.5577 17.8015 17.7324 17.7828 17.8888 17.7139C18.0453 17.6449 18.1756 17.5292 18.2611 17.3833L19.8897 14.6156C19.9762 14.4695 20.0133 14.3002 19.9958 14.1321C19.9782 13.964 19.9069 13.8056 19.792 13.6798L18.6927 12.5279ZM17.4794 13.5998L18.1309 14.3197L17.0886 16.0954L16.1277 15.9035C15.5412 15.7857 14.9311 15.8836 14.4133 16.1785C13.8954 16.4734 13.5058 16.9448 13.3184 17.5033L13.0089 18.3991H10.9243L10.6312 17.4873C10.4438 16.9288 10.0542 16.4574 9.53629 16.1625C9.01841 15.8676 8.40833 15.7697 7.82186 15.8875L6.86099 16.0794L5.80241 14.3117L6.45384 13.5918C6.85444 13.1518 7.07591 12.5823 7.07591 11.992C7.07591 11.4017 6.85444 10.8322 6.45384 10.3922L5.80241 9.67232L6.84471 7.91256L7.80558 8.10453C8.39205 8.22229 9.00213 8.12443 9.52 7.82953C10.0379 7.53462 10.4275 7.0632 10.6149 6.50475L10.9243 5.60087H13.0089L13.3184 6.51275C13.5058 7.0712 13.8954 7.54262 14.4133 7.83752C14.9311 8.13243 15.5412 8.23029 16.1277 8.11253L17.0886 7.92056L18.1309 9.69631L17.4794 10.4162C17.0833 10.8552 16.8646 11.4214 16.8646 12.008C16.8646 12.5946 17.0833 13.1608 17.4794 13.5998ZM11.9666 8.80044C11.3224 8.80044 10.6927 8.98809 10.157 9.33966C9.62139 9.69123 9.20391 10.1909 8.95738 10.7756C8.71085 11.3602 8.64635 12.0036 8.77203 12.6242C8.89771 13.2449 9.20793 13.815 9.66345 14.2624C10.119 14.7099 10.6994 15.0146 11.3312 15.1381C11.963 15.2615 12.6179 15.1982 13.2131 14.956C13.8083 14.7138 14.317 14.3037 14.6749 13.7776C15.0328 13.2514 15.2238 12.6328 15.2238 12C15.2238 11.1514 14.8807 10.3376 14.2698 9.73757C13.659 9.13753 12.8305 8.80044 11.9666 8.80044ZM11.9666 13.5998C11.6445 13.5998 11.3297 13.506 11.0618 13.3302C10.794 13.1544 10.5853 12.9045 10.462 12.6122C10.3387 12.3199 10.3065 11.9982 10.3693 11.6879C10.4322 11.3776 10.5873 11.0925 10.815 10.8688C11.0428 10.6451 11.333 10.4927 11.6489 10.431C11.9648 10.3692 12.2923 10.4009 12.5899 10.522C12.8875 10.6431 13.1418 10.8481 13.3208 11.1112C13.4997 11.3743 13.5952 11.6836 13.5952 12C13.5952 12.4243 13.4236 12.8312 13.1182 13.1312C12.8128 13.4312 12.3986 13.5998 11.9666 13.5998Z" fill="black"/>
</svg>
