<svg width="24" height="24" viewBox="0 0 24 24" fill="none" xmlns="http://www.w3.org/2000/svg">
<path d="M16.5 13.5097C16.0569 13.5126 15.6199 13.6135 15.2205 13.8051C14.8211 13.9967 14.4692 14.2743 14.19 14.6179L10.365 12.8582C10.5448 12.3084 10.5448 11.7158 10.365 11.166L14.19 9.40632C14.6412 9.94992 15.2702 10.3169 15.9661 10.4425C16.662 10.5681 17.3799 10.4443 17.9932 10.0929C18.6065 9.74146 19.0758 9.18504 19.3182 8.52181C19.5605 7.85858 19.5605 7.13119 19.318 6.468C19.0755 5.80482 18.6061 5.24848 17.9927 4.89716C17.3794 4.54585 16.6614 4.42215 15.9656 4.5479C15.2697 4.67364 14.6408 5.04075 14.1896 5.58442C13.7385 6.1281 13.4943 6.8134 13.5 7.51937C13.5022 7.69776 13.5198 7.87562 13.5525 8.05101L9.59249 9.87057C9.1703 9.45842 8.63567 9.17982 8.05559 9.06969C7.47552 8.95955 6.87578 9.02277 6.33153 9.25142C5.78728 9.48007 5.32271 9.864 4.99604 10.3551C4.66937 10.8462 4.49512 11.4226 4.49512 12.0121C4.49512 12.6016 4.66937 13.178 4.99604 13.6691C5.32271 14.1602 5.78728 14.5441 6.33153 14.7728C6.87578 15.0014 7.47552 15.0647 8.05559 14.9545C8.63567 14.8444 9.1703 14.5658 9.59249 14.1536L13.5525 15.9732C13.5198 16.1486 13.5022 16.3265 13.5 16.5048C13.5 17.0972 13.6759 17.6763 14.0056 18.1689C14.3352 18.6614 14.8038 19.0453 15.3519 19.272C15.9001 19.4987 16.5033 19.558 17.0853 19.4424C17.6672 19.3269 18.2018 19.0416 18.6213 18.6227C19.0409 18.2039 19.3266 17.6702 19.4423 17.0892C19.5581 16.5082 19.4987 15.9059 19.2716 15.3586C19.0446 14.8114 18.66 14.3436 18.1667 14.0145C17.6734 13.6853 17.0933 13.5097 16.5 13.5097ZM16.5 6.02179C16.7967 6.02179 17.0867 6.10963 17.3333 6.27418C17.58 6.43874 17.7723 6.67263 17.8858 6.94627C17.9993 7.21992 18.029 7.52103 17.9712 7.81154C17.9133 8.10204 17.7704 8.36888 17.5607 8.57832C17.3509 8.78776 17.0836 8.93039 16.7926 8.98818C16.5017 9.04596 16.2001 9.0163 15.926 8.90295C15.6519 8.78961 15.4176 8.59766 15.2528 8.35138C15.088 8.10511 15 7.81557 15 7.51937C15 7.12219 15.158 6.74128 15.4393 6.46043C15.7206 6.17957 16.1022 6.02179 16.5 6.02179ZM7.49999 13.5097C7.20332 13.5097 6.91331 13.4219 6.66664 13.2573C6.41996 13.0927 6.2277 12.8589 6.11417 12.5852C6.00064 12.3116 5.97093 12.0104 6.02881 11.7199C6.08669 11.4294 6.22955 11.1626 6.43933 10.9532C6.64911 10.7437 6.91638 10.6011 7.20736 10.5433C7.49833 10.4855 7.79993 10.5152 8.07402 10.6285C8.3481 10.7419 8.58237 10.9338 8.74719 11.1801C8.91202 11.4264 8.99999 11.7159 8.99999 12.0121C8.99999 12.4093 8.84196 12.7902 8.56065 13.0711C8.27935 13.3519 7.89782 13.5097 7.49999 13.5097ZM16.5 18.0024C16.2033 18.0024 15.9133 17.9146 15.6666 17.75C15.42 17.5855 15.2277 17.3516 15.1142 17.0779C15.0006 16.8043 14.9709 16.5032 15.0288 16.2127C15.0867 15.9222 15.2296 15.6553 15.4393 15.4459C15.6491 15.2365 15.9164 15.0938 16.2074 15.036C16.4983 14.9783 16.7999 15.0079 17.074 15.1213C17.3481 15.2346 17.5824 15.4266 17.7472 15.6728C17.912 15.9191 18 16.2086 18 16.5048C18 16.902 17.842 17.2829 17.5607 17.5638C17.2793 17.8446 16.8978 18.0024 16.5 18.0024Z" fill="black"/>
</svg>
