<svg width="24" height="24" viewBox="0 0 24 24" fill="none" xmlns="http://www.w3.org/2000/svg">
<path d="M3 12C3 11.7878 3.0856 11.5843 3.23798 11.4343C3.39035 11.2843 3.59701 11.2 3.8125 11.2H12.4794L10.6106 9.368C10.5349 9.29341 10.4748 9.20486 10.4338 9.1074C10.3928 9.00994 10.3717 8.90549 10.3717 8.8C10.3717 8.69451 10.3928 8.59006 10.4338 8.4926C10.4748 8.39514 10.5349 8.30659 10.6106 8.232C10.6864 8.15741 10.7763 8.09824 10.8753 8.05787C10.9743 8.0175 11.0804 7.99673 11.1875 7.99673C11.2946 7.99673 11.4007 8.0175 11.4997 8.05787C11.5987 8.09824 11.6886 8.15741 11.7644 8.232L15.0144 11.432C15.0883 11.5081 15.1463 11.5978 15.185 11.696C15.2663 11.8908 15.2663 12.1092 15.185 12.304C15.1463 12.4022 15.0883 12.4919 15.0144 12.568L11.7644 15.768C11.6888 15.843 11.599 15.9025 11.5 15.9431C11.401 15.9837 11.2948 16.0046 11.1875 16.0046C11.0802 16.0046 10.974 15.9837 10.875 15.9431C10.776 15.9025 10.6862 15.843 10.6106 15.768C10.5345 15.6936 10.474 15.6051 10.4328 15.5077C10.3915 15.4102 10.3703 15.3056 10.3703 15.2C10.3703 15.0944 10.3915 14.9898 10.4328 14.8923C10.474 14.7949 10.5345 14.7064 10.6106 14.632L12.4794 12.8H3.8125C3.59701 12.8 3.39035 12.7157 3.23798 12.5657C3.0856 12.4157 3 12.2122 3 12ZM8.4375 4H15.5625C16.209 4 16.829 4.25286 17.2861 4.70294C17.7432 5.15303 18 5.76348 18 6.4V17.6C18 18.2365 17.7432 18.847 17.2861 19.2971C16.829 19.7471 16.209 20 15.5625 20H8.4375C7.79103 20 7.17105 19.7471 6.71393 19.2971C6.25681 18.847 6 18.2365 6 17.6V15.8C6 15.5878 6.0856 15.3843 6.23798 15.2343C6.39035 15.0843 6.59701 15 6.8125 15C7.02799 15 7.23465 15.0843 7.38703 15.2343C7.5394 15.3843 7.625 15.5878 7.625 15.8V17.6C7.625 17.8122 7.7106 18.0157 7.86298 18.1657C8.01535 18.3157 8.22201 18.4 8.4375 18.4H15.5625C15.778 18.4 15.9847 18.3157 16.137 18.1657C16.2894 18.0157 16.375 17.8122 16.375 17.6V6.4C16.375 6.18783 16.2894 5.98434 16.137 5.83431C15.9847 5.68429 15.778 5.6 15.5625 5.6H8.4375C8.22201 5.6 8.01535 5.68429 7.86298 5.83431C7.7106 5.98434 7.625 6.18783 7.625 6.4V8.2C7.625 8.41217 7.5394 8.61566 7.38703 8.76569C7.23465 8.91571 7.02799 9 6.8125 9C6.59701 9 6.39035 8.91571 6.23798 8.76569C6.0856 8.61566 6 8.41217 6 8.2V6.4C6 5.76348 6.25681 5.15303 6.71393 4.70294C7.17105 4.25286 7.79103 4 8.4375 4Z" fill="black"/>
</svg>
