<svg width="24" height="24" viewBox="0 0 24 24" fill="none" xmlns="http://www.w3.org/2000/svg">
<path d="M13.2 5C13.6418 5 14 5.35817 14 5.8C14 6.24183 13.6418 6.6 13.2 6.6H7.4375C7.22201 6.6 7.01535 6.68428 6.86298 6.83431C6.7106 6.98434 6.625 7.18783 6.625 7.4V16.6C6.625 16.8122 6.7106 17.0157 6.86298 17.1657C7.01535 17.3157 7.22201 17.4 7.4375 17.4H13.2C13.6418 17.4 14 17.7582 14 18.2C14 18.6418 13.6418 19 13.2 19H7.4375C6.79103 19 6.17105 18.7471 5.71393 18.2971C5.25681 17.847 5 17.2365 5 16.6V7.4C5 6.76348 5.25681 6.15303 5.71393 5.70294C6.17105 5.25286 6.79104 5 7.4375 5H13.2Z" fill="black"/>
<path d="M9.00191 11.4308C8.84969 11.5807 8.76417 11.7839 8.76417 11.9959C8.76417 12.2079 8.84969 12.4111 9.00191 12.561C9.15414 12.7109 9.3606 12.7951 9.57587 12.7951H16.2362L14.3693 14.6253C14.2932 14.6996 14.2328 14.788 14.1916 14.8854C14.1504 14.9828 14.1292 15.0872 14.1292 15.1927C14.1292 15.2982 14.1504 15.4027 14.1916 15.5001C14.2328 15.5975 14.2932 15.6859 14.3693 15.7602C14.4447 15.8351 14.5345 15.8945 14.6334 15.9351C14.7323 15.9757 14.8384 15.9966 14.9456 15.9966C15.0527 15.9966 15.1588 15.9757 15.2577 15.9351C15.3566 15.8945 15.4464 15.8351 15.5219 15.7602L18.7687 12.5633C18.8426 12.4873 18.9005 12.3977 18.9391 12.2996C19.0203 12.105 19.0203 11.8868 18.9391 11.6922C18.9005 11.5941 18.8426 11.5045 18.7687 11.4285L15.5219 8.23162C15.4462 8.15711 15.3563 8.098 15.2575 8.05767C15.1586 8.01734 15.0526 7.99658 14.9456 7.99658C14.8385 7.99658 14.7325 8.01734 14.6337 8.05767C14.5348 8.098 14.4449 8.15711 14.3693 8.23162C14.2936 8.30614 14.2335 8.3946 14.1926 8.49197C14.1516 8.58933 14.1305 8.69368 14.1305 8.79906C14.1305 8.90444 14.1516 9.0088 14.1926 9.10616C14.2335 9.20352 14.2936 9.29198 14.3693 9.3665L16.2362 11.1967H9.57587C9.3606 11.1967 9.15414 11.2809 9.00191 11.4308Z" fill="black"/>
</svg>
