<svg width="24" height="24" viewBox="0 0 24 24" fill="none" xmlns="http://www.w3.org/2000/svg">
<path fill-rule="evenodd" clip-rule="evenodd" d="M20.8575 11.0875C20.3075 10.3275 19.0675 8.7675 17.2975 7.5175L19.5375 5.2775C19.8275 4.9875 19.8275 4.5075 19.5375 4.2175C19.2475 3.9275 18.7675 3.9275 18.4775 4.2175L15.9875 6.7075C14.8175 6.0975 13.4875 5.6875 12.0275 5.6875C7.0575 5.6975 3.9975 9.7975 3.1275 11.1275C2.9575 11.3875 2.9575 11.6975 3.1275 11.9575C3.6375 12.7475 4.9175 14.4875 6.8975 15.7975L4.5275 18.1675C4.2375 18.4575 4.2375 18.9375 4.5275 19.2275C4.8175 19.5175 5.2975 19.5175 5.5875 19.2275L8.2575 16.5575C9.3575 17.0575 10.6075 17.3975 12.0075 17.3975C16.5675 17.3975 19.8575 13.3775 20.8375 11.9975C21.0375 11.7175 21.0375 11.3675 20.8375 11.0875H20.8575ZM6.9075 14.1275C5.7675 13.2175 4.9575 12.1975 4.4975 11.5475C4.9575 10.8875 5.7675 9.8675 6.9075 8.9675C8.2375 7.9075 9.9475 7.0475 12.0275 7.0475C13.0775 7.0475 14.0675 7.3175 14.9775 7.7375L14.0975 8.6175C13.5075 8.1975 12.7975 7.9475 12.0175 7.9475C10.0275 7.9475 8.4175 9.5575 8.4175 11.5475C8.4175 12.3275 8.6675 13.0375 9.0875 13.6275L7.8975 14.8175C7.5475 14.6075 7.2275 14.3775 6.9175 14.1275H6.9075ZM16.9375 14.1475C15.5575 15.2175 13.8875 16.0375 12.0275 16.0375C11.0375 16.0375 10.1275 15.8375 9.2975 15.5175L10.1875 14.6275C10.7275 14.9475 11.3375 15.1375 12.0075 15.1375C13.9975 15.1375 15.6075 13.5275 15.6075 11.5375C15.6075 10.8675 15.4175 10.2575 15.0975 9.7175L16.3275 8.4875C16.5375 8.6275 16.7375 8.7775 16.9375 8.9275C18.1075 9.8375 18.9875 10.8575 19.5075 11.5375C18.9875 12.2175 18.1075 13.2375 16.9375 14.1475Z" fill="black"/>
</svg>
