<svg width="16" height="16" viewBox="0 0 16 16" fill="none" xmlns="http://www.w3.org/2000/svg">
<path fill-rule="evenodd" clip-rule="evenodd" d="M4.2417 9.71819C4.24184 9.89767 4.20661 10.0754 4.13803 10.2413C4.06945 10.4071 3.96887 10.5578 3.84203 10.6847C3.71519 10.8115 3.5646 10.9122 3.39886 10.9807C3.23313 11.0493 3.0555 11.0845 2.87617 11.0843C2.69692 11.0843 2.51941 11.049 2.3538 10.9804C2.18819 10.9118 2.03773 10.8112 1.91101 10.6843C1.78428 10.5574 1.68379 10.4068 1.61528 10.241C1.54677 10.0752 1.51158 9.89758 1.51172 9.71819C1.51158 9.53875 1.54679 9.36105 1.61533 9.19525C1.68388 9.02944 1.78442 8.87879 1.9112 8.75191C2.03798 8.62503 2.18851 8.52441 2.35418 8.45581C2.51985 8.38721 2.69742 8.35197 2.87671 8.35211H4.24224V9.71819H4.2417ZM4.92419 9.71819C4.92405 9.53875 4.95926 9.36105 5.02781 9.19525C5.09635 9.02944 5.19689 8.87879 5.32367 8.75191C5.45045 8.62503 5.60098 8.52441 5.76666 8.45581C5.93233 8.38721 6.10989 8.35197 6.28918 8.35211C6.46848 8.35197 6.64604 8.38721 6.81171 8.45581C6.97738 8.52441 7.12792 8.62503 7.25469 8.75191C7.38147 8.87879 7.48201 9.02944 7.55056 9.19525C7.61911 9.36105 7.65432 9.53875 7.65417 9.71819V13.1339C7.65432 13.3134 7.61911 13.4911 7.55056 13.6569C7.48201 13.8227 7.38147 13.9733 7.25469 14.1002C7.12792 14.2271 6.97738 14.3277 6.81171 14.3963C6.64604 14.4649 6.46848 14.5001 6.28918 14.5C6.10989 14.5001 5.93233 14.4649 5.76666 14.3963C5.60098 14.3277 5.45045 14.2271 5.32367 14.1002C5.19689 13.9733 5.09635 13.8227 5.02781 13.6569C4.95926 13.4911 4.92405 13.3134 4.92419 13.1339V9.71819Z" fill="#E01E5A"/>
<path fill-rule="evenodd" clip-rule="evenodd" d="M6.28832 4.2327C6.10898 4.23284 5.93138 4.19758 5.76567 4.12895C5.59996 4.06031 5.44941 3.95965 5.32262 3.83271C5.19583 3.70577 5.09531 3.55505 5.02679 3.38919C4.95828 3.22332 4.92312 3.04556 4.92333 2.86608C4.92319 2.68664 4.9584 2.50894 5.02695 2.34313C5.09549 2.17733 5.19603 2.02668 5.32281 1.8998C5.44959 1.77292 5.60012 1.6723 5.7658 1.6037C5.93147 1.53509 6.10903 1.49986 6.28832 1.5C6.46762 1.49986 6.64518 1.53509 6.81085 1.6037C6.97652 1.6723 7.12706 1.77292 7.25384 1.8998C7.38061 2.02668 7.48115 2.17733 7.5497 2.34313C7.61825 2.50894 7.65346 2.68664 7.65331 2.86608V4.23324H6.28887L6.28832 4.2327ZM6.28832 4.92606C6.46762 4.92592 6.64518 4.96115 6.81085 5.02975C6.97652 5.09836 7.12706 5.19897 7.25384 5.32585C7.38061 5.45274 7.48115 5.60339 7.5497 5.76919C7.61825 5.935 7.65346 6.1127 7.65331 6.29214C7.65346 6.47157 7.61825 6.64927 7.5497 6.81508C7.48115 6.98088 7.38061 7.13154 7.25384 7.25842C7.12706 7.3853 6.97652 7.48592 6.81085 7.55452C6.64518 7.62312 6.46762 7.65835 6.28832 7.65821H2.86499C2.68574 7.65835 2.50822 7.62314 2.34259 7.55457C2.17695 7.486 2.02644 7.38543 1.89967 7.25861C1.7729 7.13178 1.67235 6.9812 1.60377 6.81546C1.53519 6.64971 1.49993 6.47207 1.5 6.29268C1.49986 6.11324 1.53507 5.93554 1.60361 5.76973C1.67216 5.60393 1.7727 5.45328 1.89948 5.3264C2.02626 5.19952 2.17679 5.0989 2.34246 5.0303C2.50813 4.9617 2.6857 4.92646 2.86499 4.9266H6.28887L6.28832 4.92606Z" fill="#36C5F0"/>
<path fill-rule="evenodd" clip-rule="evenodd" d="M11.759 6.29214C11.7588 6.11265 11.794 5.93491 11.8626 5.76907C11.9312 5.60323 12.0318 5.45255 12.1586 5.32566C12.2855 5.19877 12.4361 5.09817 12.6018 5.0296C12.7675 4.96103 12.9452 4.92584 13.1245 4.92606C13.3038 4.92592 13.4814 4.96115 13.647 5.02975C13.8127 5.09836 13.9632 5.19897 14.09 5.32585C14.2168 5.45274 14.3173 5.60339 14.3859 5.76919C14.4544 5.935 14.4896 6.1127 14.4895 6.29214C14.4896 6.47157 14.4544 6.64927 14.3859 6.81508C14.3173 6.98088 14.2168 7.13154 14.09 7.25842C13.9632 7.3853 13.8127 7.48592 13.647 7.55452C13.4814 7.62312 13.3038 7.65835 13.1245 7.65821H11.759V6.29268V6.29214ZM11.0765 6.29214C11.0766 6.47157 11.0414 6.64927 10.9729 6.81508C10.9043 6.98088 10.8038 7.13154 10.677 7.25842C10.5502 7.3853 10.3997 7.48592 10.234 7.55452C10.0683 7.62312 9.89077 7.65835 9.71148 7.65821C9.53214 7.65843 9.35452 7.62324 9.18879 7.55467C9.02305 7.4861 8.87245 7.3855 8.74562 7.25861C8.61878 7.13172 8.51819 6.98104 8.44961 6.8152C8.38103 6.64936 8.3458 6.47162 8.34595 6.29214V2.86608C8.3458 2.6866 8.38103 2.50885 8.44961 2.34301C8.51819 2.17717 8.61878 2.02649 8.74562 1.8996C8.87245 1.77272 9.02305 1.67211 9.18879 1.60354C9.35452 1.53497 9.53214 1.49979 9.71148 1.5C9.89077 1.49986 10.0683 1.5351 10.234 1.6037C10.3997 1.6723 10.5502 1.77292 10.677 1.8998C10.8038 2.02668 10.9043 2.17733 10.9729 2.34313C11.0414 2.50894 11.0766 2.68664 11.0765 2.86608V6.29268V6.29214Z" fill="#2EB67D"/>
<path fill-rule="evenodd" clip-rule="evenodd" d="M9.71167 11.7673C9.89096 11.7672 10.0685 11.8024 10.2342 11.871C10.3999 11.9396 10.5504 12.0402 10.6772 12.1671C10.804 12.294 10.9045 12.4446 10.973 12.6104C11.0416 12.7762 11.0768 12.9539 11.0767 13.1334C11.0769 13.3129 11.0417 13.4906 10.9732 13.6565C10.9047 13.8224 10.8042 13.9731 10.6774 14.1C10.5506 14.2269 10.4 14.3276 10.2343 14.3963C10.0686 14.4649 9.89101 14.5001 9.71167 14.5C9.53233 14.5001 9.35473 14.4649 9.18902 14.3963C9.02331 14.3276 8.87275 14.2269 8.74597 14.1C8.61918 13.9731 8.51865 13.8224 8.45014 13.6565C8.38162 13.4906 8.34647 13.3129 8.34668 13.1334V11.7673H9.71167ZM9.71167 11.0843C9.53238 11.0844 9.35482 11.0492 9.18914 10.9806C9.02347 10.912 8.87294 10.8113 8.74616 10.6845C8.61938 10.5576 8.51884 10.4069 8.45029 10.2411C8.38175 10.0753 8.34654 9.89762 8.34668 9.71819C8.34654 9.53875 8.38175 9.36105 8.45029 9.19525C8.51884 9.02944 8.61938 8.87879 8.74616 8.75191C8.87294 8.62503 9.02347 8.52441 9.18914 8.45581C9.35482 8.38721 9.53238 8.35197 9.71167 8.35211H13.135C13.3143 8.35197 13.4919 8.38721 13.6575 8.45581C13.8232 8.52441 13.9737 8.62503 14.1005 8.75191C14.2273 8.87879 14.3278 9.02944 14.3964 9.19525C14.4649 9.36105 14.5001 9.53875 14.5 9.71819C14.5001 9.89762 14.4649 10.0753 14.3964 10.2411C14.3278 10.4069 14.2273 10.5576 14.1005 10.6845C13.9737 10.8113 13.8232 10.912 13.6575 10.9806C13.4919 11.0492 13.3143 11.0844 13.135 11.0843H9.71167Z" fill="#ECB22E"/>
</svg>
