<svg width="24" height="24" viewBox="0 0 24 24" fill="none" xmlns="http://www.w3.org/2000/svg">
<path fill-rule="evenodd" clip-rule="evenodd" d="M18.3459 4.13638C17.9642 3.75467 17.3453 3.75467 16.9636 4.13638L10.4515 10.6485L9.87993 12.9348C9.70096 13.6507 10.3494 14.2991 11.0652 14.1202L13.3516 13.5486L19.8637 7.03648C20.2454 6.65476 20.2454 6.03588 19.8637 5.65417L18.3459 4.13638ZM11.619 11.3095L16.02 6.90851L17.0916 7.98012L12.6906 12.3811L11.2618 12.7383L11.619 11.3095ZM16.9342 5.99427L18.0058 7.06589L18.7264 6.34532L17.6548 5.2737L16.9342 5.99427Z" fill="black"/>
<path d="M10.25 6C10.6642 6 11 6.33579 11 6.75C11 7.16421 10.6642 7.5 10.25 7.5H6C5.72386 7.5 5.5 7.72386 5.5 8V16C5.5 16.2761 5.72386 16.5 6 16.5H18C18.2761 16.5 18.5 16.2761 18.5 16V11.75C18.5 11.3358 18.8358 11 19.25 11C19.6642 11 20 11.3358 20 11.75V16C20 17.1046 19.1046 18 18 18H6C4.89543 18 4 17.1046 4 16V8C4 6.89543 4.89543 6 6 6H10.25Z" fill="black"/>
</svg>
