<svg width="24" height="24" viewBox="0 0 24 24" fill="none" xmlns="http://www.w3.org/2000/svg">
<path d="M7.28252 7.7175C7.21119 7.64922 7.12708 7.5957 7.03502 7.56C6.85242 7.48499 6.64761 7.48499 6.46502 7.56C6.37295 7.5957 6.28884 7.64922 6.21752 7.7175L4.71752 9.2175C4.57629 9.35873 4.49695 9.55027 4.49695 9.75C4.49695 9.94973 4.57629 10.1413 4.71752 10.2825C4.85874 10.4237 5.05029 10.5031 5.25002 10.5031C5.44974 10.5031 5.64129 10.4237 5.78252 10.2825L6.00002 10.0575V15.75C6.00002 15.9489 6.07903 16.1397 6.21969 16.2803C6.36034 16.421 6.5511 16.5 6.75002 16.5C6.94893 16.5 7.13969 16.421 7.28035 16.2803C7.421 16.1397 7.50002 15.9489 7.50002 15.75V10.0575L7.71752 10.2825C7.78724 10.3528 7.87019 10.4086 7.96158 10.4467C8.05298 10.4847 8.15101 10.5043 8.25002 10.5043C8.34903 10.5043 8.44706 10.4847 8.53845 10.4467C8.62984 10.4086 8.71279 10.3528 8.78252 10.2825C8.85281 10.2128 8.90861 10.1298 8.94669 10.0384C8.98476 9.94704 9.00437 9.84901 9.00437 9.75C9.00437 9.65099 8.98476 9.55296 8.94669 9.46157C8.90861 9.37017 8.85281 9.28722 8.78252 9.2175L7.28252 7.7175ZM11.25 9H18.75C18.9489 9 19.1397 8.92098 19.2803 8.78033C19.421 8.63968 19.5 8.44891 19.5 8.25C19.5 8.05109 19.421 7.86032 19.2803 7.71967C19.1397 7.57902 18.9489 7.5 18.75 7.5H11.25C11.0511 7.5 10.8603 7.57902 10.7197 7.71967C10.579 7.86032 10.5 8.05109 10.5 8.25C10.5 8.44891 10.579 8.63968 10.7197 8.78033C10.8603 8.92098 11.0511 9 11.25 9ZM18.75 15H11.25C11.0511 15 10.8603 15.079 10.7197 15.2197C10.579 15.3603 10.5 15.5511 10.5 15.75C10.5 15.9489 10.579 16.1397 10.7197 16.2803C10.8603 16.421 11.0511 16.5 11.25 16.5H18.75C18.9489 16.5 19.1397 16.421 19.2803 16.2803C19.421 16.1397 19.5 15.9489 19.5 15.75C19.5 15.5511 19.421 15.3603 19.2803 15.2197C19.1397 15.079 18.9489 15 18.75 15ZM18.75 11.25H11.25C11.0511 11.25 10.8603 11.329 10.7197 11.4697C10.579 11.6103 10.5 11.8011 10.5 12C10.5 12.1989 10.579 12.3897 10.7197 12.5303C10.8603 12.671 11.0511 12.75 11.25 12.75H18.75C18.9489 12.75 19.1397 12.671 19.2803 12.5303C19.421 12.3897 19.5 12.1989 19.5 12C19.5 11.8011 19.421 11.6103 19.2803 11.4697C19.1397 11.329 18.9489 11.25 18.75 11.25Z" fill="black"/>
</svg>
