<svg width="24" height="24" viewBox="0 0 24 24" fill="none" xmlns="http://www.w3.org/2000/svg">
<path d="M7.71752 13.7175L7.50002 13.9425V8.25C7.50002 8.05109 7.421 7.86032 7.28035 7.71967C7.13969 7.57902 6.94893 7.5 6.75002 7.5C6.5511 7.5 6.36034 7.57902 6.21969 7.71967C6.07903 7.86032 6.00002 8.05109 6.00002 8.25V13.9425L5.78252 13.7175C5.64129 13.5763 5.44974 13.4969 5.25002 13.4969C5.05029 13.4969 4.85874 13.5763 4.71752 13.7175C4.57629 13.8587 4.49695 14.0503 4.49695 14.25C4.49695 14.4497 4.57629 14.6413 4.71752 14.7825L6.21752 16.2825C6.28884 16.3508 6.37295 16.4043 6.46502 16.44C6.55479 16.4797 6.65186 16.5002 6.75002 16.5002C6.84817 16.5002 6.94524 16.4797 7.03502 16.44C7.12708 16.4043 7.21119 16.3508 7.28252 16.2825L8.78252 14.7825C8.85245 14.7126 8.90792 14.6296 8.94576 14.5382C8.98361 14.4468 9.00309 14.3489 9.00309 14.25C9.00309 14.1511 8.98361 14.0532 8.94576 13.9618C8.90792 13.8704 8.85245 13.7874 8.78252 13.7175C8.71259 13.6476 8.62957 13.5921 8.5382 13.5543C8.44684 13.5164 8.34891 13.4969 8.25002 13.4969C8.15112 13.4969 8.0532 13.5164 7.96183 13.5543C7.87046 13.5921 7.78745 13.6476 7.71752 13.7175ZM11.25 9H18.75C18.9489 9 19.1397 8.92098 19.2803 8.78033C19.421 8.63968 19.5 8.44891 19.5 8.25C19.5 8.05109 19.421 7.86032 19.2803 7.71967C19.1397 7.57902 18.9489 7.5 18.75 7.5H11.25C11.0511 7.5 10.8603 7.57902 10.7197 7.71967C10.579 7.86032 10.5 8.05109 10.5 8.25C10.5 8.44891 10.579 8.63968 10.7197 8.78033C10.8603 8.92098 11.0511 9 11.25 9ZM18.75 11.25H11.25C11.0511 11.25 10.8603 11.329 10.7197 11.4697C10.579 11.6103 10.5 11.8011 10.5 12C10.5 12.1989 10.579 12.3897 10.7197 12.5303C10.8603 12.671 11.0511 12.75 11.25 12.75H18.75C18.9489 12.75 19.1397 12.671 19.2803 12.5303C19.421 12.3897 19.5 12.1989 19.5 12C19.5 11.8011 19.421 11.6103 19.2803 11.4697C19.1397 11.329 18.9489 11.25 18.75 11.25ZM18.75 15H11.25C11.0511 15 10.8603 15.079 10.7197 15.2197C10.579 15.3603 10.5 15.5511 10.5 15.75C10.5 15.9489 10.579 16.1397 10.7197 16.2803C10.8603 16.421 11.0511 16.5 11.25 16.5H18.75C18.9489 16.5 19.1397 16.421 19.2803 16.2803C19.421 16.1397 19.5 15.9489 19.5 15.75C19.5 15.5511 19.421 15.3603 19.2803 15.2197C19.1397 15.079 18.9489 15 18.75 15Z" fill="black"/>
</svg>
