<svg width="24" height="19" viewBox="0 0 24 19" fill="none" xmlns="http://www.w3.org/2000/svg">
<path fill-rule="evenodd" clip-rule="evenodd" d="M12 6.88843C12 6.47421 12.3358 6.13843 12.75 6.13843H19.25C19.6642 6.13843 20 6.47421 20 6.88843C20 7.30264 19.6642 7.63843 19.25 7.63843H12.75C12.3358 7.63843 12 7.30264 12 6.88843Z" fill="black"/>
<path fill-rule="evenodd" clip-rule="evenodd" d="M12 17.3884C12 16.9742 12.3358 16.6384 12.75 16.6384H19.25C19.6642 16.6384 20 16.9742 20 17.3884C20 17.8026 19.6642 18.1384 19.25 18.1384H12.75C12.3358 18.1384 12 17.8026 12 17.3884Z" fill="black"/>
<path fill-rule="evenodd" clip-rule="evenodd" d="M12 11.8884C12 11.4742 12.3358 11.1384 12.75 11.1384H19.25C19.6642 11.1384 20 11.4742 20 11.8884C20 12.3026 19.6642 12.6384 19.25 12.6384H12.75C12.3358 12.6384 12 12.3026 12 11.8884Z" fill="black"/>
<path fill-rule="evenodd" clip-rule="evenodd" d="M7.00001 5.38843C7.21424 5.38843 7.41824 5.48004 7.56056 5.64015L9.56056 7.89015C9.83575 8.19974 9.80787 8.6738 9.49828 8.94898C9.18869 9.22417 8.71464 9.19629 8.43945 8.8867L7.75001 8.11108V16.1658L8.43945 15.3902C8.71464 15.0806 9.18869 15.0527 9.49828 15.3279C9.80787 15.6031 9.83575 16.0771 9.56056 16.3867L7.56056 18.6367C7.41824 18.7968 7.21424 18.8884 7.00001 18.8884C6.78578 18.8884 6.58178 18.7968 6.43945 18.6367L4.43945 16.3867C4.16426 16.0771 4.19215 15.6031 4.50174 15.3279C4.81132 15.0527 5.28538 15.0806 5.56056 15.3902L6.25001 16.1658V8.11108L5.56056 8.8867C5.28538 9.19629 4.81132 9.22417 4.50174 8.94898C4.19215 8.6738 4.16426 8.19974 4.43945 7.89015L6.43945 5.64015C6.58178 5.48004 6.78578 5.38843 7.00001 5.38843Z" fill="black"/>
</svg>
