<svg width="24" height="24" viewBox="0 0 24 24" fill="none" xmlns="http://www.w3.org/2000/svg">
<path fill-rule="evenodd" clip-rule="evenodd" d="M16.5969 7.45592C16.5969 7.07144 16.2852 6.75977 15.9007 6.75977H13.6854C13.3009 6.75977 12.9892 7.07144 12.9892 7.45592C12.9892 7.84039 13.3009 8.15207 13.6854 8.15207H14.2201L10.6894 11.6828L7.10601 11.6828C6.83682 11.0627 6.21905 10.629 5.5 10.629C4.5335 10.629 3.75 11.4125 3.75 12.379C3.75 13.3455 4.5335 14.129 5.5 14.129C6.21914 14.129 6.83697 13.6952 7.10611 13.0751L10.6892 13.0751L14.22 16.6059H13.6853C13.3008 16.6059 12.9892 16.9176 12.9892 17.3021C12.9892 17.6865 13.3008 17.9982 13.6853 17.9982L15.9007 17.9982C16.2852 17.9982 16.5969 17.6865 16.5969 17.3021V15.0867C16.5969 14.7022 16.2852 14.3905 15.9007 14.3905C15.5162 14.3905 15.2046 14.7022 15.2046 15.0867V15.6214L12.6582 13.0751L18.1585 13.0751L17.7804 13.4532C17.5085 13.725 17.5085 14.1658 17.7804 14.4377C18.0523 14.7095 18.4931 14.7095 18.7649 14.4377L20.3314 12.8712C20.6033 12.5993 20.6033 12.1585 20.3314 11.8867L18.7649 10.3201C18.4931 10.0483 18.0523 10.0483 17.7804 10.3201C17.5085 10.592 17.5085 11.0328 17.7804 11.3046L18.1585 11.6828L12.6584 11.6828L15.2046 9.13658V9.6713C15.2046 10.0558 15.5163 10.3675 15.9007 10.3675C16.2852 10.3675 16.5969 10.0558 16.5969 9.6713V7.45592ZM5.25 12.379C5.25 12.2409 5.36193 12.129 5.5 12.129C5.63807 12.129 5.75 12.2409 5.75 12.379C5.75 12.5171 5.63807 12.629 5.5 12.629C5.36193 12.629 5.25 12.5171 5.25 12.379Z" fill="black"/>
</svg>
