<svg width="24" height="24" viewBox="0 0 24 24" fill="none" xmlns="http://www.w3.org/2000/svg">
<path d="M11.4076 5.45043C11.5941 4.84985 12.4059 4.84986 12.5923 5.45043L13.8178 9.39798C13.9012 9.66656 14.1403 9.84841 14.4101 9.84841H18.3759C18.9793 9.84841 19.2301 10.6565 18.742 11.0277L15.5336 13.4674C15.3153 13.6334 15.224 13.9276 15.3074 14.1962L16.5329 18.1437C16.7193 18.7443 16.0626 19.2437 15.5744 18.8725L12.366 16.4328C12.1478 16.2668 11.8522 16.2668 11.6339 16.4328L8.42548 18.8725C7.93736 19.2437 7.2806 18.7443 7.46704 18.1437L8.69254 14.1962C8.77592 13.9276 8.68458 13.6334 8.46628 13.4674L5.25789 11.0277C4.76977 10.6565 5.02063 9.84841 5.62398 9.84841H9.58977C9.8596 9.84841 10.0987 9.66656 10.1821 9.39798L11.4076 5.45043Z" fill="black"/>
</svg>
