<svg width="20" height="20" viewBox="0 0 20 20" fill="none" xmlns="http://www.w3.org/2000/svg">
<path fill-rule="evenodd" clip-rule="evenodd" d="M9.99967 16.6668C13.6816 16.6668 16.6663 13.6821 16.6663 10.0002C16.6663 6.31826 13.6816 3.3335 9.99967 3.3335C6.31778 3.3335 3.33301 6.31826 3.33301 10.0002C3.33301 13.6821 6.31778 16.6668 9.99967 16.6668ZM12.0832 6.39164C11.4498 6.02594 10.7312 5.83341 9.99984 5.83341L9.99984 10.0001L6.3914 12.0834C6.7571 12.7168 7.28309 13.2428 7.9165 13.6085C8.54992 13.9742 9.26843 14.1667 9.99984 14.1667C10.7312 14.1667 11.4498 13.9742 12.0832 13.6085C12.7166 13.2428 13.2426 12.7168 13.6083 12.0834C13.974 11.45 14.1665 10.7315 14.1665 10.0001C14.1665 9.26868 13.974 8.55016 13.6083 7.91675C13.2426 7.28333 12.7166 6.75734 12.0832 6.39164Z" fill="black"/>
<path d="M9.99984 5.14023H9.30666L9.30666 5.83341L9.30665 9.59987L6.04481 11.4831L5.44449 11.8297L5.79108 12.43C6.21762 13.1688 6.83112 13.7823 7.56991 14.2088C8.3087 14.6354 9.14675 14.8599 9.99984 14.8599C10.8529 14.8599 11.691 14.6354 12.4298 14.2088C13.1686 13.7823 13.782 13.1688 14.2086 12.43C14.6351 11.6912 14.8597 10.8532 14.8597 10.0001C14.8597 9.147 14.6351 8.30895 14.2086 7.57016C13.782 6.83137 13.1686 6.21787 12.4298 5.79133C11.691 5.36479 10.8529 5.14023 9.99984 5.14023ZM15.9732 10.0002C15.9732 13.2992 13.2987 15.9736 9.99967 15.9736C6.70061 15.9736 4.02619 13.2992 4.02619 10.0002C4.02619 6.7011 6.70061 4.02668 9.99967 4.02668C13.2987 4.02668 15.9732 6.7011 15.9732 10.0002Z" stroke="black" stroke-width="1.38636"/>
</svg>
