<svg width="20" height="20" viewBox="0 0 20 20" fill="none" xmlns="http://www.w3.org/2000/svg">
<path fill-rule="evenodd" clip-rule="evenodd" d="M9.99967 16.6668C13.6816 16.6668 16.6663 13.6821 16.6663 10.0002C16.6663 6.31826 13.6816 3.3335 9.99967 3.3335C6.31778 3.3335 3.33301 6.31826 3.33301 10.0002C3.33301 13.6821 6.31778 16.6668 9.99967 16.6668ZM10.6248 6.25012C10.6248 5.90494 10.3449 5.62512 9.99976 5.62512C9.65458 5.62512 9.37476 5.90494 9.37476 6.25012V10.0001C9.37476 10.2091 9.47919 10.4042 9.65307 10.5202L12.1531 12.1868C12.4403 12.3783 12.8283 12.3007 13.0198 12.0135C13.2113 11.7263 13.1336 11.3382 12.8464 11.1468L10.6248 9.66563V6.25012Z" fill="black"/>
</svg>
