<svg width="20" height="20" viewBox="0 0 20 20" fill="none" xmlns="http://www.w3.org/2000/svg">
<path fill-rule="evenodd" clip-rule="evenodd" d="M3.33301 9.99992C3.33301 6.33325 6.33301 3.33325 9.99967 3.33325C13.6663 3.33325 16.6663 6.33325 16.6663 9.99992C16.6663 13.6666 13.6663 16.6666 9.99967 16.6666C6.33301 16.6666 3.33301 13.6666 3.33301 9.99992ZM11.1006 6.99992C11.1335 6.35907 10.6241 5.83325 9.99965 5.83325C9.37524 5.83325 8.86585 6.35907 8.89871 6.99992L9.11233 10.4944C9.14519 10.971 9.52313 11.3325 9.99965 11.3325C10.4762 11.3325 10.8705 10.971 10.887 10.4944L11.1006 6.99992ZM8.83299 13.4522C8.83299 14.093 9.35881 14.6189 9.99965 14.6189C10.6405 14.6189 11.1663 14.093 11.1663 13.4522C11.1663 12.8113 10.6405 12.2855 9.99965 12.2855C9.35881 12.2855 8.83299 12.8113 8.83299 13.4522Z" fill="black"/>
</svg>
