<svg width="20" height="20" viewBox="0 0 20 20" fill="none" xmlns="http://www.w3.org/2000/svg">
<path fill-rule="evenodd" clip-rule="evenodd" d="M9.99967 16.6668C13.6816 16.6668 16.6663 13.6821 16.6663 10.0002C16.6663 6.31826 13.6816 3.3335 9.99967 3.3335C6.31778 3.3335 3.33301 6.31826 3.33301 10.0002C3.33301 13.6821 6.31778 16.6668 9.99967 16.6668ZM13.775 8.35869C14.019 8.11461 14.019 7.71888 13.775 7.47481C13.5309 7.23073 13.1351 7.23073 12.8911 7.47481L9.16634 11.1995L7.52495 9.55814C7.28087 9.31406 6.88514 9.31406 6.64107 9.55814C6.39699 9.80222 6.39699 10.1979 6.64107 10.442L8.7244 12.5254C8.96848 12.7694 9.36421 12.7694 9.60828 12.5254L13.775 8.35869Z" fill="black"/>
</svg>
