<svg width="24" height="24" viewBox="0 0 24 24" fill="none" xmlns="http://www.w3.org/2000/svg">
<path d="M15.9881 9.56946C16.3026 9.29989 16.339 8.82641 16.0695 8.51192C15.7999 8.19743 15.3264 8.161 15.0119 8.43057L12.875 10.2622L11.6131 9.18057C11.3322 8.93983 10.9178 8.93983 10.6369 9.18057L8.01192 11.4306C7.69743 11.7001 7.661 12.1736 7.93057 12.4881C8.20014 12.8026 8.67361 12.839 8.98811 12.5695L11.125 10.7378L12.3869 11.8195C12.6678 12.0602 13.0822 12.0602 13.3631 11.8195L15.9881 9.56946Z" fill="black"/>
<path fill-rule="evenodd" clip-rule="evenodd" d="M4.25 5C4.25 4.58579 4.58579 4.25 5 4.25H19C19.4142 4.25 19.75 4.58579 19.75 5V14.1667C19.75 14.8408 19.4947 15.494 19.03 15.9809C18.5641 16.4689 17.9246 16.75 17.25 16.75H12.75V18.25H15C15.4142 18.25 15.75 18.5858 15.75 19C15.75 19.4142 15.4142 19.75 15 19.75H9C8.58579 19.75 8.25 19.4142 8.25 19C8.25 18.5858 8.58579 18.25 9 18.25H11.25V16.75H6.75C6.0754 16.75 5.43591 16.4689 4.97005 15.9809C4.50532 15.494 4.25 14.8408 4.25 14.1667V5ZM17.25 15.25C17.5037 15.25 17.7544 15.1448 17.9449 14.9452C18.1366 14.7444 18.25 14.465 18.25 14.1667V5.75H5.75V14.1667C5.75 14.465 5.86343 14.7444 6.05508 14.9452C6.24559 15.1448 6.49634 15.25 6.75 15.25H17.25Z" fill="black"/>
</svg>
