<svg width="16" height="16" viewBox="0 0 16 16" fill="none" xmlns="http://www.w3.org/2000/svg">
<path d="M7.88952 11.2147C7.88952 12.6072 7.86948 14.0025 7.90097 15.3929C7.9117 15.8725 7.54679 16.112 7.1139 15.9154C6.35331 15.568 5.55837 15.2964 4.78061 14.9861C4.34772 14.8131 3.92199 14.6194 3.49268 14.4436C2.71635 14.1262 1.94002 13.8095 1.15939 13.5043C0.767289 13.3506 0.533316 13.0904 0.438868 12.6737C0.277162 9.86514 0.434575 7.03588 0.380196 4.22233C0.370344 4.06974 0.39177 3.91674 0.443161 3.77271C0.563367 3.48178 0.73366 3.3817 1.03632 3.49321C1.46134 3.65119 1.88063 3.82489 2.30278 3.99359C3.74311 4.56545 5.18774 5.12015 6.6159 5.71703C7.23339 5.93147 7.91742 6.24099 7.88952 7.00371C7.89047 8.40619 7.89047 9.80986 7.88952 11.2147Z" fill="black"/>
<path d="M8.24656 11.2033C8.24656 9.78654 8.24656 8.36999 8.24656 6.95369C8.24656 6.50049 8.50414 6.15452 8.93059 5.99154C10.1412 5.51166 11.3524 5.03296 12.564 4.55546C13.3925 4.21306 14.2097 3.84922 15.049 3.52611C15.4933 3.36171 15.7494 3.76558 15.685 4.16946C15.685 6.88578 15.6757 9.59711 15.6908 12.3106C15.6951 13.2041 15.3008 13.3993 14.7606 13.6294C13.4791 14.1498 12.1797 14.6302 10.8968 15.1406C10.2114 15.3993 9.54307 15.7053 8.85045 15.9412C8.46408 16.0663 8.25085 15.9197 8.25014 15.5201C8.24632 14.0824 8.24513 12.6434 8.24656 11.2033Z" fill="black"/>
<path d="M8.02905 5.69769C7.65054 5.78919 7.3214 5.60048 6.98797 5.47038C5.9698 5.07151 4.96235 4.6469 3.94632 4.24088C3.06123 3.88347 2.1697 3.54965 1.28461 3.19581C0.893223 3.08144 0.816663 2.73475 1.25313 2.59465C3.00256 1.86553 4.77346 1.18716 6.53505 0.489491C7.37507 0.218573 7.87593 -0.23248 8.76674 0.143517C10.7823 0.958415 12.8108 1.74472 14.8257 2.56391C15.592 2.8627 14.7885 3.23298 14.3964 3.34092C13.7524 3.61255 13.1006 3.85631 12.4516 4.1115C11.6402 4.43103 10.8281 4.74841 10.0189 5.07008C9.64039 5.2209 9.26045 5.36816 8.88981 5.53686C8.61219 5.66195 8.33886 5.74987 8.02905 5.69769Z" fill="black"/>
</svg>
