<svg width="16" height="16" viewBox="0 0 16 16" fill="none" xmlns="http://www.w3.org/2000/svg">
<path d="M7.88952 11.2256C7.88952 12.6195 7.86948 14.0161 7.90097 15.4078C7.9117 15.8879 7.54679 16.1276 7.1139 15.9309C6.35331 15.5831 5.55837 15.3112 4.78061 15.0007C4.34772 14.8275 3.92199 14.6336 3.49268 14.4576C2.71635 14.1399 1.94002 13.823 1.15939 13.5174C0.767289 13.3636 0.533316 13.1032 0.438868 12.686C0.277162 9.87475 0.434575 7.04274 0.380196 4.22648C0.370344 4.07374 0.39177 3.92059 0.443161 3.77642C0.563367 3.48521 0.73366 3.38504 1.03632 3.49666C1.46134 3.65478 1.88063 3.82865 2.30278 3.99752C3.74311 4.56993 5.18774 5.12517 6.6159 5.72262C7.23339 5.93728 7.91742 6.24709 7.88952 7.01055C7.89047 8.41439 7.89047 9.81942 7.88952 11.2256Z" fill="#49494A"/>
<path d="M8.24668 11.214C8.24668 9.79582 8.24668 8.37791 8.24668 6.96024C8.24668 6.5066 8.50426 6.16029 8.93071 5.99716C10.1414 5.51681 11.3525 5.03765 12.5641 4.55969C13.3927 4.21696 14.2098 3.85276 15.0491 3.52935C15.4934 3.36478 15.7496 3.76905 15.6852 4.17331C15.6852 6.89227 15.6759 9.60621 15.6909 12.3223C15.6952 13.2167 15.3009 13.412 14.7607 13.6424C13.4792 14.1633 12.1799 14.6441 10.8969 15.155C10.2115 15.414 9.54319 15.7203 8.85057 15.9564C8.4642 16.0816 8.25097 15.9349 8.25026 15.535C8.24644 14.0958 8.24525 12.6555 8.24668 11.214Z" fill="#9D9EA1"/>
<path d="M8.02921 5.7032C7.65071 5.79479 7.32157 5.60589 6.98814 5.47567C5.96996 5.07641 4.96252 4.6514 3.94649 4.24498C3.0614 3.88723 2.16987 3.55308 1.28478 3.1989C0.893389 3.08442 0.816829 2.73739 1.25329 2.59715C3.00273 1.86733 4.77362 1.18831 6.53522 0.489964C7.37523 0.218785 7.87609 -0.232705 8.76691 0.143656C10.7825 0.959342 12.811 1.74641 14.8259 2.56639C15.5922 2.86547 14.7887 3.23611 14.3966 3.34415C13.7526 3.61605 13.1008 3.86004 12.4518 4.11548C11.6404 4.43531 10.8283 4.753 10.0191 5.07498C9.64055 5.22595 9.26061 5.37335 8.88998 5.54221C8.61236 5.66743 8.33903 5.75543 8.02921 5.7032Z" fill="#DC2626"/>
</svg>
