<svg width="24" height="24" viewBox="0 0 24 24" fill="none" xmlns="http://www.w3.org/2000/svg">
<path d="M17.9325 14.6325H14.535C14.3361 14.6325 14.1453 14.7115 14.0047 14.8522C13.864 14.9928 13.785 15.1836 13.785 15.3825C13.785 15.5814 13.864 15.7722 14.0047 15.9128C14.1453 16.0535 14.3361 16.1325 14.535 16.1325H16.335C15.5077 16.9971 14.4408 17.5945 13.2714 17.848C12.1019 18.1016 10.8834 17.9997 9.77233 17.5554C8.66126 17.1112 7.7084 16.3448 7.03619 15.3549C6.36398 14.3649 6.00313 13.1966 6 12C6 11.8011 5.92098 11.6103 5.78033 11.4697C5.63968 11.329 5.44891 11.25 5.25 11.25C5.05109 11.25 4.86032 11.329 4.71967 11.4697C4.57902 11.6103 4.5 11.8011 4.5 12C4.50396 13.4646 4.93667 14.896 5.7447 16.1175C6.55274 17.3391 7.70075 18.2973 9.04706 18.8739C10.3934 19.4506 11.879 19.6204 13.3208 19.3625C14.7625 19.1046 16.0971 18.4302 17.16 17.4225V18.75C17.16 18.9489 17.239 19.1397 17.3797 19.2803C17.5203 19.421 17.7111 19.5 17.91 19.5C18.1089 19.5 18.2997 19.421 18.4403 19.2803C18.581 19.1397 18.66 18.9489 18.66 18.75V15.375C18.6581 15.1812 18.5814 14.9957 18.4457 14.8573C18.3101 14.7189 18.1262 14.6383 17.9325 14.6325ZM12 4.5C10.0773 4.50548 8.23012 5.24919 6.84 6.5775V5.25C6.84 5.05109 6.76098 4.86032 6.62033 4.71967C6.47968 4.57902 6.28891 4.5 6.09 4.5C5.89109 4.5 5.70032 4.57902 5.55967 4.71967C5.41902 4.86032 5.34 5.05109 5.34 5.25V8.625C5.34 8.82391 5.41902 9.01468 5.55967 9.15533C5.70032 9.29598 5.89109 9.375 6.09 9.375H9.465C9.66391 9.375 9.85468 9.29598 9.99533 9.15533C10.136 9.01468 10.215 8.82391 10.215 8.625C10.215 8.42609 10.136 8.23532 9.99533 8.09467C9.85468 7.95402 9.66391 7.875 9.465 7.875H7.665C8.49185 7.0109 9.55807 6.41362 10.7268 6.15983C11.8955 5.90604 13.1134 6.00731 14.2242 6.45065C15.335 6.89398 16.2879 7.65916 16.9607 8.64795C17.6335 9.63675 17.9954 10.804 18 12C18 12.1989 18.079 12.3897 18.2197 12.5303C18.3603 12.671 18.5511 12.75 18.75 12.75C18.9489 12.75 19.1397 12.671 19.2803 12.5303C19.421 12.3897 19.5 12.1989 19.5 12C19.5 11.0151 19.306 10.0398 18.9291 9.12987C18.5522 8.21993 17.9997 7.39314 17.3033 6.6967C16.6069 6.00026 15.7801 5.44781 14.8701 5.0709C13.9602 4.69399 12.9849 4.5 12 4.5Z" fill="black"/>
</svg>
