<svg width="24" height="24" viewBox="0 0 24 24" fill="none" xmlns="http://www.w3.org/2000/svg">
<path d="M15.1989 10.2327L16.0782 6.95099C16.134 6.76539 16.2594 6.60858 16.4282 6.5134C16.597 6.41823 16.7961 6.39209 16.9837 6.44045L20.2437 7.31396C20.4359 7.36545 20.5997 7.49115 20.6991 7.66341C20.7986 7.83567 20.8255 8.04039 20.7741 8.23252C20.7226 8.42466 20.5969 8.58847 20.4246 8.68793C20.2524 8.78738 20.0476 8.81434 19.8555 8.76285L18.5732 8.41927C19.2715 9.70673 19.5775 11.1704 19.4534 12.6298C19.3294 14.0891 18.7809 15.4802 17.8754 16.6314C16.97 17.7826 15.7473 18.6435 14.3582 19.1078C12.9692 19.5722 11.4746 19.6197 10.0589 19.2444C9.86672 19.193 9.70291 19.0673 9.60345 18.895C9.504 18.7227 9.47705 18.518 9.52853 18.3259C9.58001 18.1338 9.70571 17.9699 9.87797 17.8705C10.0502 17.771 10.255 17.7441 10.4471 17.7956C11.6037 18.1022 12.8256 18.0561 13.9558 17.663C15.086 17.2699 16.0729 16.5478 16.7896 15.5896C17.5063 14.6314 17.9201 13.4807 17.9778 12.2855C18.0356 11.0903 17.7346 9.90515 17.1137 8.88228L16.6478 10.6209C16.5963 10.8131 16.4706 10.9769 16.2984 11.0764C16.1261 11.1758 15.9214 11.2028 15.7292 11.1513C15.5371 11.0998 15.3733 10.9741 15.2738 10.8018C15.1744 10.6296 15.1474 10.4249 15.1989 10.2327Z" fill="black"/>
<path d="M5.42676 15.5807C4.5035 13.8942 4.26322 11.9175 4.75556 10.0589C5.01047 9.1075 5.45027 8.21567 6.04985 7.43429C6.64943 6.6529 7.39704 5.99727 8.25 5.50481C9.10296 5.01235 10.0446 4.69272 11.0211 4.56416C11.9975 4.43561 12.9898 4.50064 13.9411 4.75556C14.1333 4.80704 14.2971 4.93274 14.3965 5.105C14.496 5.27726 14.523 5.48198 14.4715 5.67412C14.42 5.86625 14.2943 6.03006 14.122 6.12952C13.9498 6.22898 13.745 6.25593 13.5529 6.20445C12.3965 5.89937 11.1753 5.94685 10.0461 6.34078C8.91686 6.73472 7.93112 7.45713 7.2154 8.41531C6.49969 9.37348 6.08665 10.5237 6.0293 11.7183C5.97196 12.9129 6.27293 14.0973 6.89358 15.1197L7.35945 13.381C7.41093 13.1889 7.53663 13.025 7.70889 12.9256C7.88116 12.8261 8.08587 12.7992 8.27801 12.8507C8.47014 12.9021 8.63396 13.0278 8.73341 13.2001C8.83287 13.3724 8.85982 13.5771 8.80834 13.7692L7.93482 17.0292C7.88334 17.2214 7.75764 17.3852 7.58538 17.4846C7.41312 17.5841 7.2084 17.611 7.01627 17.5596L3.75627 16.686C3.56413 16.6346 3.40032 16.5089 3.30086 16.3366C3.20141 16.1643 3.17445 15.9596 3.22594 15.7675C3.27742 15.5753 3.40312 15.4115 3.57538 15.3121C3.74764 15.2126 3.95236 15.1857 4.14449 15.2371L5.42676 15.5807Z" fill="black"/>
<path d="M12.75 9.00008C12.75 8.58587 12.4142 8.25008 12 8.25008C11.5858 8.25008 11.25 8.58587 11.25 9.00008V12.5001C11.25 12.7508 11.3753 12.985 11.584 13.1241L14.584 15.1241C14.9286 15.3539 15.3943 15.2607 15.6241 14.9161C15.8538 14.5715 15.7607 14.1058 15.416 13.876L12.75 12.0987V9.00008Z" fill="black"/>
</svg>
