<svg width="24" height="24" viewBox="0 0 24 24" fill="none" xmlns="http://www.w3.org/2000/svg">
<path d="M6 9H18V6.75H6V9ZM13.5 17.25V10.5H10.5V17.25H13.5ZM15 17.25H18V10.5H15V17.25ZM9 17.25V10.5H6V17.25H9ZM5.25 5.25H18.75C18.9489 5.25 19.1397 5.32902 19.2803 5.46967C19.421 5.61032 19.5 5.80109 19.5 6V18C19.5 18.1989 19.421 18.3897 19.2803 18.5303C19.1397 18.671 18.9489 18.75 18.75 18.75H5.25C5.05109 18.75 4.86032 18.671 4.71967 18.5303C4.57902 18.3897 4.5 18.1989 4.5 18V6C4.5 5.80109 4.57902 5.61032 4.71967 5.46967C4.86032 5.32902 5.05109 5.25 5.25 5.25Z" fill="black"/>
</svg>
