<svg width="24" height="24" viewBox="0 0 24 24" fill="none" xmlns="http://www.w3.org/2000/svg">
<path fill-rule="evenodd" clip-rule="evenodd" d="M16 6.5H8C7.72386 6.5 7.5 6.72386 7.5 7V18C7.5 18.2761 7.72386 18.5 8 18.5H16C16.2761 18.5 16.5 18.2761 16.5 18V7C16.5 6.72386 16.2761 6.5 16 6.5ZM8 5C6.89543 5 6 5.89543 6 7V18C6 19.1046 6.89543 20 8 20H16C17.1046 20 18 19.1046 18 18V7C18 5.89543 17.1046 5 16 5H8Z" fill="black"/>
<path fill-rule="evenodd" clip-rule="evenodd" d="M15.0303 10.4697C15.3232 10.7626 15.3232 11.2374 15.0303 11.5303L12.0303 14.5303C11.7374 14.8232 11.2626 14.8232 10.9697 14.5303L9.46967 13.0303C9.17678 12.7374 9.17678 12.2626 9.46967 11.9697C9.76256 11.6768 10.2374 11.6768 10.5303 11.9697L11.5 12.9393L13.9697 10.4697C14.2626 10.1768 14.7374 10.1768 15.0303 10.4697Z" fill="black"/>
<path d="M9 5C9 4.44772 9.44772 4 10 4H14C14.5523 4 15 4.44772 15 5V7C15 7.55228 14.5523 8 14 8H10C9.44772 8 9 7.55228 9 7V5Z" fill="black"/>
</svg>
