<svg width="24" height="24" viewBox="0 0 24 24" fill="none" xmlns="http://www.w3.org/2000/svg">
<path d="M16.3 12.75C16.3 13.1642 15.9642 13.5 15.55 13.5C15.1358 13.5 14.8 13.1642 14.8 12.75C14.8 12.3358 15.1358 12 15.55 12C15.9642 12 16.3 12.3358 16.3 12.75Z" fill="#151B3F"/>
<path d="M15.55 16.5C15.9642 16.5 16.3 16.1642 16.3 15.75C16.3 15.3358 15.9642 15 15.55 15C15.1358 15 14.8 15.3358 14.8 15.75C14.8 16.1642 15.1358 16.5 15.55 16.5Z" fill="#151B3F"/>
<path fill-rule="evenodd" clip-rule="evenodd" d="M5 7C5 5.89543 5.89543 5 7 5H17C18.1046 5 19 5.89543 19 7V17C19 18.1046 18.1046 19 17 19H7C5.89543 19 5 18.1046 5 17V7ZM7 6.5H17C17.2761 6.5 17.5 6.72386 17.5 7V9.5L6.5 9.5V7C6.5 6.72386 6.72386 6.5 7 6.5ZM6.5 17V15H12V17.5H7C6.72386 17.5 6.5 17.2761 6.5 17ZM13.5 17.5H17C17.2761 17.5 17.5 17.2761 17.5 17V11L13.5 11V17.5ZM12 11L6.5 11V13.5H12V11Z" fill="#151B3F"/>
</svg>
