<svg width="24" height="24" viewBox="0 0 24 24" fill="none" xmlns="http://www.w3.org/2000/svg">
<path d="M9 8.25C8.58579 8.25 8.25 8.58579 8.25 9V10.2C8.25 10.6142 8.58579 10.95 9 10.95C9.41421 10.95 9.75 10.6142 9.75 10.2V9.75H11.25V14.25H10.8C10.3858 14.25 10.05 14.5858 10.05 15C10.05 15.4142 10.3858 15.75 10.8 15.75H13.2C13.6142 15.75 13.95 15.4142 13.95 15C13.95 14.5858 13.6142 14.25 13.2 14.25H12.75V9.75H14.25V10.2C14.25 10.6142 14.5858 10.95 15 10.95C15.4142 10.95 15.75 10.6142 15.75 10.2V9C15.75 8.58579 15.4142 8.25 15 8.25H9Z" fill="black"/>
<path fill-rule="evenodd" clip-rule="evenodd" d="M3 4C3 3.44772 3.44772 3 4 3H6C6.55228 3 7 3.44772 7 4V4.25H17V4C17 3.44772 17.4477 3 18 3H20C20.5523 3 21 3.44772 21 4V6C21 6.55228 20.5523 7 20 7H19.75V17H20C20.5523 17 21 17.4477 21 18V20C21 20.5523 20.5523 21 20 21H18C17.4477 21 17 20.5523 17 20V19.75H7V20C7 20.5523 6.55228 21 6 21H4C3.44772 21 3 20.5523 3 20V18C3 17.4477 3.44772 17 4 17H4.25V7H4C3.44772 7 3 6.55228 3 6V4ZM4.5 5.5V4.5H5.5V5.5H4.5ZM18.25 7V17H18C17.4477 17 17 17.4477 17 18V18.25H7V18C7 17.4477 6.55228 17 6 17H5.75V7H6C6.55228 7 7 6.55228 7 6V5.75H17V6C17 6.55228 17.4477 7 18 7H18.25ZM18.5 4.5V5.5H19.5V4.5H18.5ZM4.5 19.5V18.5H5.5V19.5H4.5ZM18.5 18.5V19.5H19.5V18.5H18.5Z" fill="black"/>
</svg>
