<svg width="24" height="24" viewBox="0 0 24 24" fill="none" xmlns="http://www.w3.org/2000/svg">
<path d="M8.50875 10.9097L9.0108 11.4117C9.0603 11.4612 9.06737 11.5107 9.0603 11.5461C9.05322 11.5814 9.04615 11.6309 8.99666 11.6804L5.17121 15.2372C4.70452 15.6756 4.44289 16.2625 4.42875 16.8989C4.40753 18.1787 5.52476 19.296 6.80463 19.2747C7.44102 19.2606 8.04206 18.999 8.4734 18.5252L12.0301 14.6998C12.0796 14.6503 12.1291 14.6432 12.1645 14.6361C12.1999 14.629 12.2564 14.6432 12.3059 14.6927L12.815 15.2018C13.4726 15.8594 14.5474 15.8594 15.2051 15.2018L20.5084 9.8985C21.166 9.24089 21.166 8.16609 20.5084 7.50848L16.195 3.19513C15.5374 2.53752 14.4626 2.53752 13.805 3.19513L8.50168 8.49843C7.84407 9.15604 7.84407 10.2308 8.50168 10.8885L8.50875 10.9097ZM13.8828 14.1624L13.3736 13.6532C13.0484 13.328 12.617 13.1512 12.1433 13.1583C11.6695 13.1653 11.2523 13.3563 10.9412 13.6957L7.38445 17.5211C7.22182 17.6838 7.00969 17.7827 6.79048 17.7898C6.33086 17.7969 5.93488 17.4009 5.94195 16.9413C5.94195 16.715 6.04095 16.5029 6.21066 16.3473L10.029 12.7835C10.3684 12.4724 10.5594 12.041 10.5664 11.5814C10.5735 11.1218 10.4038 10.6834 10.0785 10.3581L9.57648 9.85608C9.50577 9.78537 9.4987 9.66516 9.57648 9.58738L10.9271 8.2368L15.502 12.8118L14.1515 14.1624C14.0808 14.2331 13.9605 14.2401 13.8828 14.1624ZM15.1414 4.27701L15.8273 4.9629L14.0454 6.74481C13.7555 7.03472 13.7555 7.51556 14.0454 7.80547C14.3353 8.09538 14.8161 8.09538 15.1061 7.80547L16.888 6.02356L17.7082 6.8438L15.9263 8.62571C15.6364 8.91563 15.6364 9.39646 15.9263 9.68637C16.2162 9.97629 16.697 9.97629 16.987 9.68637L18.7689 7.90446L19.4548 8.59036C19.5255 8.66107 19.5325 8.78128 19.4548 8.85906L16.5556 11.7582L11.9806 7.18322L14.8798 4.28408C14.9505 4.21337 15.0707 4.20629 15.1485 4.28408L15.1414 4.27701Z" fill="black"/>
</svg>
