<svg width="24" height="24" viewBox="0 0 24 24" fill="none" xmlns="http://www.w3.org/2000/svg">
<path d="M8.85145 16.55H10.252V8.85H8.85145V16.55Z" fill="#0C142B"/>
<path d="M11.6525 16.55H13.0531V8.85H11.6525V16.55Z" fill="#0C142B"/>
<path d="M14.4536 16.55H15.8542V8.85H14.4536V16.55Z" fill="#0C142B"/>
<path fill-rule="evenodd" clip-rule="evenodd" d="M9.94564 3.64375C10.211 3.37851 10.5857 3.25 10.9523 3.25H13.7534C14.1199 3.25 14.4947 3.37853 14.76 3.64375C15.0254 3.90897 15.1539 4.28359 15.1539 4.64999V5.34999H19.3556V6.74998H18.6553V17.95C18.6553 19.1012 17.7061 20.05 16.5545 20.05H8.15119C6.99957 20.05 6.05037 19.1012 6.05037 17.95V6.74998H5.3501V5.34999H9.55173V4.64999C9.55173 4.28359 9.68031 3.90899 9.94564 3.64375ZM16.5545 18.65C16.9429 18.65 17.2547 18.3383 17.2547 17.95V6.75H7.45091V17.95C7.45091 18.3383 7.76274 18.65 8.15118 18.65H16.5545ZM10.9523 4.65001H13.7534V5.35001H10.9523V4.65001Z" fill="#0C142B"/>
</svg>
