<svg width="24" height="24" viewBox="0 0 24 24" fill="none" xmlns="http://www.w3.org/2000/svg">
<path d="M6.5 15.3333C6.22386 15.3333 6 15.5572 6 15.8333V16.1667C6 16.4428 6.22386 16.6667 6.5 16.6667H9.5C9.77614 16.6667 10 16.4428 10 16.1667V15.8333C10 15.5572 9.77614 15.3333 9.5 15.3333H6.5ZM6.5 7.33333C6.22386 7.33333 6 7.55719 6 7.83333V8.16667C6 8.44281 6.22386 8.66667 6.5 8.66667H12.1667C12.4428 8.66667 12.6667 8.44281 12.6667 8.16667V7.83333C12.6667 7.55719 12.4428 7.33333 12.1667 7.33333H6.5ZM12.1667 18C12.4428 18 12.6667 17.7761 12.6667 17.5V17.1667C12.6667 16.8905 12.8905 16.6667 13.1667 16.6667H17.5C17.7761 16.6667 18 16.4428 18 16.1667V15.8333C18 15.5572 17.7761 15.3333 17.5 15.3333H13.1667C12.8905 15.3333 12.6667 15.1095 12.6667 14.8333V14.5C12.6667 14.2239 12.4428 14 12.1667 14H11.8333C11.5572 14 11.3333 14.2239 11.3333 14.5V17.5C11.3333 17.7761 11.5572 18 11.8333 18H12.1667ZM9.16667 10C8.89052 10 8.66667 10.2239 8.66667 10.5V10.8333C8.66667 11.1095 8.44281 11.3333 8.16667 11.3333H6.5C6.22386 11.3333 6 11.5572 6 11.8333V12.1667C6 12.4428 6.22386 12.6667 6.5 12.6667H8.16667C8.44281 12.6667 8.66667 12.8905 8.66667 13.1667V13.5C8.66667 13.7761 8.89052 14 9.16667 14H9.5C9.77614 14 10 13.7761 10 13.5V10.5C10 10.2239 9.77614 10 9.5 10H9.16667ZM17.5 12.6667C17.7761 12.6667 18 12.4428 18 12.1667V11.8333C18 11.5572 17.7761 11.3333 17.5 11.3333H11.8333C11.5572 11.3333 11.3333 11.5572 11.3333 11.8333V12.1667C11.3333 12.4428 11.5572 12.6667 11.8333 12.6667H17.5ZM14 9.5C14 9.77614 14.2239 10 14.5 10H14.8333C15.1095 10 15.3333 9.77614 15.3333 9.5V9.16667C15.3333 8.89052 15.5572 8.66667 15.8333 8.66667H17.5C17.7761 8.66667 18 8.44281 18 8.16667V7.83333C18 7.55719 17.7761 7.33333 17.5 7.33333H15.8333C15.5572 7.33333 15.3333 7.10948 15.3333 6.83333V6.5C15.3333 6.22386 15.1095 6 14.8333 6H14.5C14.2239 6 14 6.22386 14 6.5V9.5Z" fill="black"/>
</svg>
