<svg width="24" height="24" viewBox="0 0 24 24" fill="none" xmlns="http://www.w3.org/2000/svg">
<path d="M18.1765 17.2882L8.16235 6.99487L6.05 4.82462L5 5.86667L7.30588 8.1641L7.31 8.16821C6.87765 8.98051 6.64706 9.94051 6.64706 10.9744V15.0769L5 16.7179V17.5385H16.3071L17.9541 19.1795L19 18.1333L18.1765 17.2882ZM11.5882 20C12.4982 20 13.2353 19.2656 13.2353 18.359H9.94118C9.94118 19.2656 10.6782 20 11.5882 20ZM16.5294 13.9938V10.9744C16.5294 8.45128 15.1829 6.34667 12.8235 5.78872V5.23077C12.8235 4.54974 12.2718 4 11.5882 4C10.9047 4 10.3529 4.54974 10.3529 5.23077V5.78872C10.2335 5.81744 10.1182 5.85026 10.0029 5.88718C9.91647 5.9159 9.83412 5.94462 9.75177 5.97744C9.75177 5.97744 9.74765 5.97744 9.74765 5.98154C9.74353 5.98154 9.73941 5.98564 9.73529 5.98564C9.54588 6.05949 9.36059 6.14564 9.17941 6.24C9.17529 6.24 9.17118 6.2441 9.16706 6.2441L16.5294 13.9938Z" fill="black"/>
</svg>
