<svg width="24" height="24" viewBox="0 0 24 24" fill="none" xmlns="http://www.w3.org/2000/svg">
<path d="M19.9951 5.97857C19.9952 5.84647 19.9613 5.71672 19.8967 5.60251C19.8322 5.48831 19.7394 5.39373 19.6278 5.32842C19.5161 5.2631 19.3897 5.22939 19.2613 5.2307C19.1329 5.23201 19.0071 5.26831 18.8967 5.33589C18.4712 5.59642 18.013 5.79595 17.535 5.92893C16.8523 5.32634 15.9815 4.99659 15.0819 4.99996C14.095 5.00113 13.1472 5.39676 12.4386 6.10332C11.7299 6.80987 11.316 7.77203 11.2841 8.78665C9.33855 8.46751 7.57521 7.42298 6.33038 5.85222C6.25538 5.75862 6.15959 5.68494 6.0511 5.6374C5.9426 5.58986 5.82459 5.56986 5.707 5.57907C5.58948 5.58902 5.47609 5.62827 5.37662 5.69342C5.27716 5.75857 5.19463 5.84766 5.13615 5.95299C4.83627 6.4913 4.66403 7.09476 4.63344 7.71439C4.60284 8.33401 4.71475 8.95232 4.96007 9.51911L4.95865 9.52057C4.84839 9.59042 4.7574 9.6882 4.69438 9.80456C4.63135 9.92092 4.5984 10.052 4.59868 10.1852C4.59734 10.295 4.60375 10.4049 4.61785 10.5138C4.69211 11.4548 5.09754 12.3356 5.75812 12.991C5.71331 13.0788 5.68596 13.175 5.67766 13.2738C5.66937 13.3726 5.68031 13.4721 5.70984 13.5665C5.99783 14.4895 6.61028 15.2686 7.42734 15.7516C6.59723 16.0818 5.70091 16.1969 4.81736 16.0868C4.65383 16.0657 4.48818 16.1024 4.34758 16.1909C4.20698 16.2793 4.09979 16.4143 4.04358 16.5737C3.98737 16.733 3.98548 16.9073 4.03823 17.0679C4.09098 17.2286 4.19523 17.366 4.33387 17.4576C5.85347 18.4643 7.62279 18.9996 9.43029 18.9993C11.48 19.023 13.4799 18.3493 15.1189 17.0829C16.7578 15.8166 17.9439 14.0286 18.4927 11.997C18.7494 11.1121 18.8805 10.1936 18.8819 9.27009C18.8819 9.22116 18.8819 9.17077 18.8811 9.12038C19.2607 8.69929 19.5548 8.2045 19.7461 7.665C19.9374 7.1255 20.022 6.55216 19.9951 5.97857ZM17.591 8.38057C17.471 8.52665 17.4102 8.7147 17.4214 8.90566C17.4285 9.02906 17.4277 9.1532 17.4277 9.27009C17.4263 10.0505 17.3151 10.8266 17.0976 11.5742C16.6494 13.3028 15.6502 14.8266 14.26 15.9017C12.8698 16.9768 11.1691 17.5409 9.43029 17.5037C8.80567 17.5038 8.1832 17.4283 7.57576 17.2787C8.35036 17.0219 9.07462 16.6261 9.715 16.1095C9.83294 16.014 9.91926 15.8832 9.96211 15.7352C10.005 15.5873 10.0022 15.4293 9.95432 15.2829C9.90641 15.1366 9.81564 15.0091 9.69448 14.9179C9.57332 14.8268 9.4277 14.7764 9.27761 14.7737C8.67331 14.7641 8.09626 14.5135 7.66803 14.0748C7.77666 14.0536 7.88458 14.0274 7.99179 13.996C8.14884 13.95 8.28628 13.851 8.38197 13.7149C8.47766 13.5788 8.52604 13.4135 8.51932 13.2457C8.51259 13.0779 8.45116 12.9173 8.34491 12.7897C8.23866 12.6622 8.09377 12.5752 7.93357 12.5426C7.5828 12.4714 7.25273 12.3179 6.96901 12.0941C6.6853 11.8702 6.45558 11.5821 6.29772 11.2522C6.42912 11.2706 6.56136 11.2821 6.6939 11.2865C6.85137 11.2889 7.00551 11.2398 7.13404 11.1462C7.26257 11.0526 7.35882 10.9194 7.40888 10.7658C7.45685 10.6108 7.45438 10.4439 7.40185 10.2905C7.34932 10.1371 7.24959 10.0055 7.11778 9.91568C6.79799 9.69655 6.53603 9.39924 6.35537 9.0504C6.17471 8.70156 6.08098 8.31207 6.08259 7.91682C6.08259 7.86717 6.08401 7.8175 6.08685 7.76857C7.71635 9.33175 9.82991 10.2532 12.0552 10.3707C12.1675 10.3752 12.2793 10.3535 12.3823 10.307C12.4852 10.2606 12.5766 10.1907 12.6494 10.1027C12.7215 10.0137 12.7726 9.90882 12.7986 9.79616C12.8246 9.68349 12.8248 9.56617 12.7992 9.45341C12.7576 9.27494 12.7364 9.0921 12.736 8.90859C12.7367 8.26884 12.984 7.65548 13.4238 7.20311C13.8636 6.75074 14.4599 6.4963 15.0819 6.49563C15.4019 6.49474 15.7186 6.56211 16.012 6.69346C16.3054 6.82482 16.5692 7.01732 16.7866 7.2588C16.8705 7.3516 16.976 7.42078 17.0932 7.45978C17.2104 7.49877 17.3353 7.50628 17.4561 7.48158C17.7548 7.42179 18.0492 7.34128 18.3372 7.24058C18.1407 7.65412 17.8896 8.03774 17.591 8.38057Z" fill="black"/>
</svg>
