<svg width="16" height="16" viewBox="0 0 16 16" fill="none" xmlns="http://www.w3.org/2000/svg">
<g clip-path="url(#clip0_32_4037)">
<path d="M16.0632 4.33362C15.5355 4.56281 14.9772 4.71375 14.406 4.78167C15.0046 4.42928 15.4543 3.87086 15.671 3.21088C15.1034 3.54263 14.4835 3.77542 13.8378 3.89928C13.5657 3.6142 13.2385 3.38746 12.876 3.23287C12.5135 3.07827 12.1234 2.99906 11.7293 3.00004C10.9714 2.99583 10.2428 3.29253 9.70341 3.82499C9.16403 4.35746 8.85796 5.08219 8.85239 5.8401C8.85141 6.05807 8.87654 6.27538 8.92723 6.48738C7.78388 6.43393 6.66427 6.14237 5.64007 5.63136C4.61587 5.12035 3.70964 4.40114 2.97937 3.51977C2.72329 3.95153 2.58784 4.44413 2.5872 4.94612C2.58888 5.41632 2.70763 5.8787 2.93272 6.29153C3.15781 6.70435 3.48217 7.05461 3.8765 7.31072C3.41687 7.29997 2.96663 7.17846 2.564 6.95651V6.9913C2.56847 7.65201 2.80215 8.29069 3.22514 8.79827C3.64812 9.30586 4.23419 9.65089 4.88327 9.77442C4.6353 9.84035 4.37978 9.87366 4.12319 9.87351C3.94127 9.87381 3.75977 9.85616 3.58132 9.82081C3.77071 10.3886 4.13204 10.8834 4.61523 11.2366C5.09842 11.5898 5.67952 11.784 6.278 11.7922C5.251 12.5835 3.99016 13.0111 2.69367 13.0077C2.46189 13.0082 2.23027 12.9952 2 12.9687C3.23306 13.7525 4.65269 14.1935 6.1128 14.2465C7.57291 14.2995 9.02078 13.9625 10.3074 13.2701C11.594 12.5778 12.673 11.5552 13.4332 10.3074C14.1934 9.05972 14.6074 7.63198 14.6326 6.17112C14.6326 6.04778 14.6326 5.92549 14.6232 5.80531C15.1869 5.40431 15.6746 4.90594 16.0632 4.33362Z" fill="black"/>
</g>
<defs>
<clipPath id="clip0_32_4037">
<rect width="16" height="16" fill="white"/>
</clipPath>
</defs>
</svg>
