<svg width="16" height="16" viewBox="0 0 16 16" fill="none" xmlns="http://www.w3.org/2000/svg">
<path d="M2 4C2 2.89543 2.89543 2 4 2H12.2857C13.3903 2 14.2857 2.89543 14.2857 4V12C14.2857 13.1046 13.3903 14 12.2857 14H4C2.89543 14 2 13.1046 2 12V4Z" fill="#FADC7B"/>
<path d="M4 4.5C4 4.22386 4.22386 4 4.5 4H7.5C7.77614 4 8 4.22386 8 4.5C8 4.77614 7.77614 5 7.5 5H4.5C4.22386 5 4 4.77614 4 4.5Z" fill="#F19165"/>
<path d="M4 6.5C4 6.22386 4.22386 6 4.5 6H9.5C9.77614 6 10 6.22386 10 6.5C10 6.77614 9.77614 7 9.5 7H4.5C4.22386 7 4 6.77614 4 6.5Z" fill="#F19165"/>
<path d="M4 8.5C4 8.22386 4.22386 8 4.5 8H7.5C7.77614 8 8 8.22386 8 8.5C8 8.77614 7.77614 9 7.5 9H4.5C4.22386 9 4 8.77614 4 8.5Z" fill="#F19165"/>
<path fill-rule="evenodd" clip-rule="evenodd" d="M10.9063 7.96502C11.1128 7.75856 11.3928 7.64258 11.6848 7.64258C11.9767 7.64258 12.2568 7.75856 12.4632 7.96502C12.6697 8.17148 12.7857 8.45149 12.7857 8.74346C12.7857 9.03544 12.6697 9.31545 12.4632 9.52191L9.77225 12.2129C9.70817 12.277 9.62788 12.3224 9.53996 12.3444L8.40692 12.6276C8.23654 12.6702 8.05629 12.6203 7.9321 12.4961C7.80791 12.3719 7.75799 12.1917 7.80058 12.0213L8.08384 10.8883C8.10582 10.8004 8.15128 10.7201 8.21536 10.656L10.9063 7.96502Z" fill="#F19165"/>
</svg>
