<svg width="24" height="24" viewBox="0 0 24 24" fill="none" xmlns="http://www.w3.org/2000/svg">
<path fill-rule="evenodd" clip-rule="evenodd" d="M8 5C8.41421 5 8.75 5.33579 8.75 5.75V11C8.75 11.862 9.09241 12.6886 9.7019 13.2981C10.3114 13.9076 11.138 14.25 12 14.25C12.862 14.25 13.6886 13.9076 14.2981 13.2981C14.9076 12.6886 15.25 11.862 15.25 11V5.75C15.25 5.33579 15.5858 5 16 5C16.4142 5 16.75 5.33579 16.75 5.75V11C16.75 12.2598 16.2496 13.468 15.3588 14.3588C14.468 15.2496 13.2598 15.75 12 15.75C10.7402 15.75 9.53204 15.2496 8.64124 14.3588C7.75044 13.468 7.25 12.2598 7.25 11V5.75C7.25 5.33579 7.58579 5 8 5ZM17.25 18.25C17.6642 18.25 18 18.5858 18 19C18 19.4142 17.6642 19.75 17.25 19.75H6.75C6.33579 19.75 6 19.4142 6 19C6 18.5858 6.33579 18.25 6.75 18.25H17.25Z" fill="#333333"/>
</svg>
