<svg width="24" height="24" viewBox="0 0 24 24" fill="none" xmlns="http://www.w3.org/2000/svg">
<path fill-rule="evenodd" clip-rule="evenodd" d="M4.23747 9.2175L7.23747 6.2175C7.52747 5.9275 8.00746 5.9275 8.29746 6.2175C8.58746 6.5075 8.58746 6.9875 8.29746 7.2775L6.57747 8.9975H14.5975C14.5975 8.9975 14.6275 8.9975 14.6475 8.9975C14.6875 8.9975 14.7375 8.9975 14.8075 8.9975C14.9375 8.9975 15.1275 9.0275 15.3475 9.0575C15.7875 9.1275 16.3775 9.2575 16.9875 9.5275C17.5975 9.7975 18.2375 10.2275 18.7275 10.8775C19.2275 11.5475 19.5275 12.4075 19.5275 13.4975C19.5275 14.6875 19.2275 15.6275 18.7475 16.3575C18.2675 17.0875 17.6275 17.5575 17.0175 17.8675C16.4075 18.1775 15.8075 18.3275 15.3575 18.3975C15.1375 18.4375 14.9475 18.4575 14.8075 18.4675C14.7375 18.4675 14.6875 18.4675 14.6475 18.4675C14.6275 18.4675 14.6075 18.4675 14.5975 18.4675H14.5775C14.1675 18.4675 13.8275 18.1275 13.8275 17.7175C13.8275 17.3075 14.1575 16.9675 14.5775 16.9675H14.5975C14.5975 16.9675 14.6575 16.9675 14.6975 16.9675C14.7875 16.9675 14.9275 16.9475 15.0975 16.9175C15.4375 16.8575 15.8875 16.7475 16.3275 16.5275C16.7575 16.3075 17.1775 15.9875 17.4775 15.5275C17.7775 15.0675 18.0075 14.4175 18.0075 13.4875C18.0075 12.6975 17.7875 12.1475 17.4975 11.7575C17.1975 11.3575 16.7975 11.0775 16.3475 10.8775C15.9075 10.6775 15.4475 10.5775 15.0975 10.5275C14.9275 10.4975 14.7775 10.4875 14.6875 10.4875C14.6375 10.4875 14.6075 10.4875 14.5775 10.4875H14.5575H6.55747L8.27746 12.2075C8.56746 12.4975 8.56746 12.9775 8.27746 13.2675C7.98746 13.5575 7.50747 13.5575 7.21747 13.2675L4.21747 10.2675C3.92747 9.9775 3.92747 9.4975 4.21747 9.2075L4.23747 9.2175Z" fill="black"/>
</svg>
