<svg width="24" height="24" viewBox="0 0 24 24" fill="none" xmlns="http://www.w3.org/2000/svg">
<path d="M10.1449 6.36715C10.4495 6.05439 10.4495 5.54732 10.1449 5.23457C9.84029 4.92181 9.34642 4.92181 9.04181 5.23457L5.22846 9.14987C4.92385 9.46262 4.92385 9.9697 5.22846 10.2825L9.04181 14.1978C9.34642 14.5105 9.84029 14.5105 10.1449 14.1978C10.4495 13.885 10.4495 13.3779 10.1449 13.0652L7.66293 10.5168H13.0889C14.9396 10.5168 16.44 12.0573 16.44 13.9576C16.44 15.8578 14.9396 17.3983 13.0889 17.3983H9.12304C8.68074 17.3983 8.32218 17.7568 8.32218 18.1991C8.32218 18.6414 8.68074 19 9.12304 19H13.0889C15.8012 19 18 16.7424 18 13.9576C18 11.1727 15.8012 8.91513 13.0889 8.91513H7.66327L10.1449 6.36715Z" fill="black"/>
</svg>
