<svg width="24" height="24" viewBox="0 0 24 24" fill="none" xmlns="http://www.w3.org/2000/svg">
<path fill-rule="evenodd" clip-rule="evenodd" d="M13.2498 19.5227C13.129 19.8117 12.8459 20 12.5319 20C11.8059 20 11.1206 19.6928 10.6234 19.1641C10.1278 18.637 9.85739 17.9322 9.85739 17.2069V15.2931H7.06072C6.75848 15.296 6.46086 15.2292 6.18881 15.0993C5.9154 14.9688 5.67611 14.7787 5.48536 14.5454C5.29473 14.3122 5.15653 14.0409 5.07747 13.7513C4.99842 13.4618 4.97969 13.1584 5.02208 12.8614L5.02224 12.8603L5.89458 6.80978C5.96504 6.31702 6.20179 5.85719 6.57358 5.5211C6.94557 5.18482 7.42786 4.99536 7.93323 5.00009H16.9577C17.516 5.00009 18.0405 5.23641 18.4191 5.63905C18.7962 6.04001 19 6.57379 19 7.12077V11.8276C19 12.3746 18.7962 12.9084 18.4191 13.3093C18.0405 13.712 17.516 13.9483 16.9577 13.9483H15.5794L13.2498 19.5227ZM15.8387 12.3966H16.9577C17.0701 12.3966 17.1889 12.3495 17.2846 12.2478C17.3818 12.1443 17.4444 11.994 17.4444 11.8276V7.12077C17.4444 6.95441 17.3818 6.80407 17.2846 6.70062C17.1889 6.59885 17.0701 6.55181 16.9577 6.55181H15.8387V12.3966ZM14.2832 6.55181H7.91974C7.81712 6.55058 7.70961 6.58824 7.61815 6.67092C7.5254 6.75476 7.45578 6.88003 7.43463 7.02831L6.56211 13.0801C6.54962 13.1683 6.55527 13.259 6.57837 13.3436C6.60153 13.4285 6.64087 13.5035 6.6908 13.5646C6.74062 13.6255 6.79917 13.6704 6.86023 13.6996C6.92107 13.7286 6.98467 13.7422 7.04722 13.7415L7.05661 13.7414L10.6352 13.7414C11.0647 13.7414 11.4129 14.0888 11.4129 14.5173V17.2069C11.4129 17.5516 11.5422 17.873 11.758 18.1025C11.8491 18.1994 11.952 18.2764 12.0617 18.3329L14.2832 13.0172V6.55181Z" fill="black"/>
</svg>
