<svg width="24" height="24" viewBox="0 0 24 24" fill="none" xmlns="http://www.w3.org/2000/svg">
<path d="M7.07495 11.4393C7.27198 11.4651 7.47111 11.411 7.62854 11.2889C7.78597 11.1668 7.8888 10.9866 7.91442 10.7881C7.94003 10.5896 7.88632 10.389 7.76512 10.2304C7.64391 10.0717 7.46513 9.96813 7.2681 9.94232L5.96062 9.61299C5.8653 9.58355 5.76507 9.57374 5.66591 9.58415C5.56675 9.59456 5.47068 9.62497 5.38342 9.67358C5.29617 9.72218 5.21952 9.78798 5.15804 9.86707C5.09657 9.94615 5.05152 10.0369 5.02558 10.1339C4.99964 10.2309 4.99335 10.3321 5.00707 10.4316C5.0208 10.5311 5.05426 10.6268 5.10546 10.713C5.15667 10.7992 5.22457 10.8741 5.30512 10.9333C5.38567 10.9925 5.47722 11.0348 5.57432 11.0576L6.8818 11.4094C6.94404 11.4303 7.00935 11.4404 7.07495 11.4393ZM9.94249 7.25526C9.98603 7.41855 10.0832 7.56218 10.218 7.66276C10.3529 7.76333 10.5177 7.81493 10.6854 7.80914C10.7494 7.81949 10.8146 7.81949 10.8785 7.80914C11.0671 7.75658 11.2275 7.63121 11.3248 7.46025C11.4222 7.28928 11.4487 7.08652 11.3986 6.89599L11.0494 5.57865C11.0268 5.48082 10.9848 5.38858 10.9261 5.30742C10.8673 5.22626 10.793 5.15785 10.7074 5.10626C10.6219 5.05467 10.5269 5.02095 10.4281 5.00713C10.3294 4.9933 10.2289 4.99964 10.1326 5.02577C10.0364 5.05191 9.94629 5.09729 9.8678 5.15924C9.78931 5.22118 9.724 5.2984 9.67576 5.38631C9.62752 5.47422 9.59733 5.57102 9.587 5.67093C9.57667 5.77084 9.5864 5.87182 9.61563 5.96786L9.94249 7.25526ZM13.5306 14.7401C13.4612 14.6665 13.3777 14.6079 13.2851 14.5679C13.1925 14.5278 13.0928 14.5071 12.992 14.5071C12.8913 14.5071 12.7916 14.5278 12.699 14.5679C12.6064 14.6079 12.5229 14.6665 12.4535 14.7401L9.85335 17.4047C9.54764 17.7002 9.14039 17.8652 8.71673 17.8652C8.29308 17.8652 7.88583 17.7002 7.58012 17.4047C7.42963 17.255 7.31014 17.0767 7.22859 16.8801C7.14703 16.6836 7.10504 16.4726 7.10504 16.2595C7.10504 16.0465 7.14703 15.8355 7.22859 15.6389C7.31014 15.4424 7.42963 15.264 7.58012 15.1144L10.2248 12.4947C10.3026 12.4276 10.3657 12.345 10.4103 12.2521C10.4549 12.1593 10.48 12.0581 10.4839 11.955C10.4879 11.852 10.4706 11.7492 10.4333 11.6531C10.3959 11.5571 10.3393 11.4698 10.2669 11.3969C10.1945 11.3239 10.1079 11.2669 10.0126 11.2292C9.91724 11.1916 9.81521 11.1742 9.7129 11.1782C9.61059 11.1822 9.51021 11.2075 9.41804 11.2524C9.32587 11.2973 9.24392 11.3609 9.17732 11.4393L6.51036 14.0515C6.22159 14.3425 5.99253 14.6879 5.83625 15.068C5.67997 15.4481 5.59953 15.8556 5.59953 16.267C5.59953 16.6785 5.67997 17.0859 5.83625 17.4661C5.99253 17.8462 6.22159 18.1916 6.51036 18.4825C6.79913 18.7735 7.14195 19.0043 7.51924 19.1617C7.89654 19.3192 8.30092 19.4002 8.7093 19.4002C9.11769 19.4002 9.52207 19.3192 9.89936 19.1617C10.2767 19.0043 10.6195 18.7735 10.9082 18.4825L13.5306 15.8404C13.606 15.7703 13.6662 15.6852 13.7074 15.5905C13.7485 15.4959 13.7698 15.3936 13.7698 15.2903C13.7698 15.1869 13.7485 15.0846 13.7074 14.99C13.6662 14.8953 13.606 14.8102 13.5306 14.7401ZM7.38697 8.44535C7.52534 8.58363 7.7121 8.66159 7.90699 8.66241C8.00476 8.66298 8.10167 8.6441 8.19219 8.60685C8.2827 8.56961 8.36502 8.51472 8.43444 8.44535C8.5728 8.30511 8.65046 8.11541 8.65046 7.91767C8.65046 7.71993 8.5728 7.53023 8.43444 7.38999L7.47611 6.42444C7.334 6.30182 7.15119 6.23774 6.96422 6.24502C6.77726 6.2523 6.5999 6.33039 6.4676 6.46369C6.33529 6.59699 6.25779 6.77568 6.25056 6.96406C6.24334 7.15244 6.30694 7.33662 6.42864 7.47981L7.38697 8.44535ZM19.3326 13.9318L18.0251 13.58C17.9282 13.5462 17.8254 13.533 17.7232 13.5413C17.621 13.5495 17.5217 13.5789 17.4313 13.6278C17.341 13.6766 17.2616 13.7437 17.1983 13.8249C17.1349 13.9061 17.089 13.9997 17.0633 14.0997C17.0376 14.1997 17.0327 14.3039 17.0489 14.4059C17.0651 14.5079 17.1021 14.6054 17.1576 14.6923C17.2131 14.7791 17.2858 14.8535 17.3711 14.9107C17.4565 14.9679 17.5527 15.0066 17.6537 15.0245L18.9611 15.3763H19.1543C19.3513 15.4021 19.5504 15.348 19.7079 15.2259C19.8653 15.1038 19.9681 14.9237 19.9937 14.7251C20.0194 14.5266 19.9657 14.326 19.8444 14.1674C19.7232 14.0088 19.5445 13.9052 19.3474 13.8794L19.3326 13.9318ZM14.9644 17.7341C14.9386 17.6392 14.8945 17.5503 14.8346 17.4726C14.7747 17.3949 14.7002 17.3299 14.6153 17.2812C14.5305 17.2326 14.4369 17.2012 14.34 17.189C14.2431 17.1768 14.1448 17.184 14.0507 17.2101C13.8621 17.2627 13.7017 17.388 13.6044 17.559C13.507 17.73 13.4805 17.9327 13.5306 18.1233L13.8798 19.4406C13.9233 19.6039 14.0204 19.7475 14.1553 19.8481C14.2902 19.9487 14.455 20.0003 14.6227 19.9945C14.6869 20.0018 14.7517 20.0018 14.8158 19.9945C14.9107 19.9693 14.9996 19.9254 15.0776 19.8654C15.1555 19.8054 15.2209 19.7305 15.2699 19.6449C15.319 19.5593 15.3507 19.4648 15.3633 19.3668C15.3759 19.2687 15.3691 19.1692 15.3433 19.0738L14.9644 17.7341ZM17.5199 16.5589C17.3778 16.4363 17.195 16.3722 17.008 16.3795C16.8211 16.3868 16.6437 16.4649 16.5114 16.5982C16.3791 16.7315 16.3016 16.9102 16.2944 17.0986C16.2872 17.2869 16.3508 17.4711 16.4725 17.6143L17.4308 18.5798C17.57 18.7192 17.7583 18.7975 17.9545 18.7975C18.1508 18.7975 18.3391 18.7192 18.4783 18.5798C18.6166 18.4396 18.6943 18.2499 18.6943 18.0522C18.6943 17.8544 18.6166 17.6647 18.4783 17.5245L17.5199 16.5589ZM19.288 8.75223C19.2995 8.12982 19.1257 7.51821 18.7888 6.99636C18.4519 6.47451 17.9675 6.06638 17.3981 5.82466C16.8287 5.58295 16.2005 5.51874 15.5945 5.64033C14.9886 5.76191 14.4327 6.06372 13.9987 6.50677L11.3763 9.17138C11.306 9.24264 11.2504 9.32715 11.2126 9.42007C11.1747 9.51299 11.1555 9.61251 11.1558 9.71294C11.1561 9.81337 11.1761 9.91275 11.2146 10.0054C11.253 10.0981 11.3093 10.1822 11.38 10.2529C11.4507 10.3237 11.5346 10.3798 11.6268 10.4179C11.719 10.456 11.8178 10.4754 11.9175 10.4751C12.0172 10.4747 12.1158 10.4546 12.2078 10.4158C12.2997 10.3771 12.3832 10.3205 12.4535 10.2492L15.0536 7.58459C15.3593 7.28908 15.7665 7.12408 16.1902 7.12408C16.6138 7.12408 17.0211 7.28908 17.3268 7.58459C17.4773 7.73428 17.5968 7.9126 17.6783 8.10918C17.7599 8.30577 17.8019 8.51671 17.8019 8.72978C17.8019 8.94284 17.7599 9.15379 17.6783 9.35037C17.5968 9.54696 17.4773 9.72527 17.3268 9.87496L14.6821 12.4947C14.5437 12.6349 14.4661 12.8246 14.4661 13.0223C14.4661 13.2201 14.5437 13.4098 14.6821 13.55C14.8213 13.6894 15.0096 13.7677 15.2058 13.7677C15.4021 13.7677 15.5904 13.6894 15.7296 13.55L18.3965 10.9378C18.9651 10.3542 19.285 9.57 19.288 8.75223Z" fill="black"/>
</svg>
