<svg width="20" height="20" viewBox="0 0 20 20" fill="none" xmlns="http://www.w3.org/2000/svg">
<path d="M12.9597 8.45959C13.2136 8.20575 13.2136 7.7942 12.9597 7.54036C12.7059 7.28652 12.2943 7.28652 12.0405 7.54036L8.83343 10.7474L7.45972 9.37369C7.20588 9.11985 6.79432 9.11985 6.54048 9.37369C6.28664 9.62753 6.28664 10.0391 6.54048 10.2929L8.37381 12.1263C8.62765 12.3801 9.03921 12.3801 9.29305 12.1263L12.9597 8.45959Z" fill="black"/>
<path fill-rule="evenodd" clip-rule="evenodd" d="M5.96213 4.12325C7.05818 3.3909 8.34679 3 9.665 3C11.4327 3 13.1279 3.7022 14.3779 4.95213C15.6278 6.20206 16.33 7.89733 16.33 9.665C16.33 10.9832 15.9391 12.2718 15.2067 13.3679C14.4744 14.4639 13.4335 15.3182 12.2156 15.8227C10.9977 16.3271 9.65761 16.4591 8.36472 16.2019C7.07184 15.9448 5.88425 15.31 4.95214 14.3779C4.02002 13.4457 3.38524 12.2582 3.12807 10.9653C2.8709 9.67239 3.00289 8.33228 3.50735 7.11441C4.0118 5.89654 4.86607 4.85561 5.96213 4.12325ZM6.64572 14.1585C7.53924 14.7561 8.59003 15.0957 9.665 15.0957C11.1053 15.0957 12.4867 14.5236 13.5051 13.5051C14.5236 12.4867 15.0957 11.1053 15.0957 9.665C15.0998 8.59003 14.7848 7.53804 14.1905 6.64226C13.5963 5.74647 12.7495 5.0472 11.7575 4.63301C10.7656 4.21881 9.673 4.10832 8.61818 4.31554C7.56337 4.52276 6.59378 5.03836 5.83222 5.79703C5.07066 6.55571 4.55138 7.52334 4.34017 8.57735C4.12895 9.63137 4.23529 10.7244 4.64571 11.7179C5.05614 12.7114 5.7522 13.5608 6.64572 14.1585Z" fill="black"/>
</svg>
