<svg width="24" height="24" viewBox="0 0 24 24" fill="none" xmlns="http://www.w3.org/2000/svg">
<path d="M16.833 9.15803C16.3743 8.10403 15.5827 7.22951 14.5794 6.66846C13.5762 6.10742 12.4166 5.8908 11.2785 6.05181C10.1403 6.21282 9.08637 6.74258 8.2781 7.55989C7.46983 8.37721 6.95184 9.437 6.80351 10.5769C6.08777 10.7483 5.4599 11.1766 5.03914 11.7804C4.61838 12.3842 4.43403 13.1216 4.52109 13.8524C4.60816 14.5832 4.96058 15.2566 5.51143 15.7447C6.06229 16.2327 6.7732 16.5015 7.50918 16.5C7.70828 16.5 7.89922 16.4209 8.04001 16.2801C8.1808 16.1393 8.25989 15.9484 8.25989 15.7493C8.25989 15.5502 8.1808 15.3592 8.04001 15.2184C7.89922 15.0776 7.70828 14.9986 7.50918 14.9986C7.11098 14.9986 6.72908 14.8404 6.44751 14.5588C6.16594 14.2772 6.00775 13.8953 6.00775 13.4971C6.00775 13.0989 6.16594 12.717 6.44751 12.4355C6.72908 12.1539 7.11098 11.9957 7.50918 11.9957C7.70828 11.9957 7.89922 11.9166 8.04001 11.7758C8.1808 11.635 8.25989 11.4441 8.25989 11.245C8.26181 10.3571 8.5784 9.49866 9.15344 8.82214C9.72847 8.14563 10.5247 7.69485 11.4007 7.54991C12.2767 7.40496 13.1756 7.57523 13.9379 8.03046C14.7002 8.4857 15.2765 9.19642 15.5643 10.0364C15.6072 10.1654 15.6844 10.2803 15.7875 10.3689C15.8906 10.4575 16.0159 10.5164 16.1499 10.5393C16.6499 10.6338 17.1032 10.8949 17.4359 11.2799C17.7685 11.665 17.961 12.1514 17.9819 12.6598C18.0028 13.1683 17.8509 13.6688 17.5509 14.0799C17.251 14.4909 16.8206 14.7883 16.33 14.9235C16.1369 14.9733 15.9715 15.0977 15.8701 15.2695C15.7687 15.4412 15.7397 15.6462 15.7895 15.8394C15.8393 16.0325 15.9638 16.1979 16.1355 16.2993C16.3073 16.4007 16.5123 16.4296 16.7054 16.3799C17.4954 16.1711 18.1958 15.7102 18.7 15.0672C19.2043 14.4242 19.485 13.6342 19.4994 12.8172C19.5139 12.0002 19.2613 11.2007 18.78 10.5403C18.2988 9.87991 17.6152 9.39457 16.833 9.15803ZM12.5464 10.712C12.4751 10.6437 12.3909 10.5901 12.2987 10.5543C12.1159 10.4793 11.9109 10.4793 11.7282 10.5543C11.636 10.5901 11.5518 10.6437 11.4804 10.712L9.22831 12.9641C9.08694 13.1055 9.00753 13.2972 9.00753 13.4971C9.00753 13.6971 9.08694 13.8888 9.22831 14.0301C9.36967 14.1715 9.5614 14.2509 9.76131 14.2509C9.96123 14.2509 10.153 14.1715 10.2943 14.0301L11.2627 13.0542V17.2507C11.2627 17.4498 11.3418 17.6407 11.4826 17.7815C11.6234 17.9223 11.8143 18.0014 12.0134 18.0014C12.2125 18.0014 12.4035 17.9223 12.5443 17.7815C12.6851 17.6407 12.7642 17.4498 12.7642 17.2507V13.0542L13.7326 14.0301C13.8024 14.1005 13.8854 14.1564 13.9769 14.1945C14.0684 14.2326 14.1665 14.2522 14.2656 14.2522C14.3647 14.2522 14.4628 14.2326 14.5543 14.1945C14.6458 14.1564 14.7288 14.1005 14.7986 14.0301C14.8689 13.9604 14.9248 13.8773 14.9629 13.7858C15.001 13.6944 15.0206 13.5962 15.0206 13.4971C15.0206 13.398 15.001 13.2999 14.9629 13.2084C14.9248 13.1169 14.8689 13.0339 14.7986 12.9641L12.5464 10.712Z" fill="black"/>
</svg>
