<svg width="24" height="24" viewBox="0 0 24 24" fill="none" xmlns="http://www.w3.org/2000/svg">
<path fill-rule="evenodd" clip-rule="evenodd" d="M14.8719 8C14.8719 10.2091 13.0811 12 10.8719 12C8.66277 12 6.87191 10.2091 6.87191 8C6.87191 5.79086 8.66277 4 10.8719 4C13.0811 4 14.8719 5.79086 14.8719 8ZM13.3719 8C13.3719 9.38071 12.2526 10.5 10.8719 10.5C9.4912 10.5 8.37191 9.38071 8.37191 8C8.37191 6.61929 9.4912 5.5 10.8719 5.5C12.2526 5.5 13.3719 6.61929 13.3719 8Z" fill="#0C142B"/>
<path d="M12.9009 14.3094C13.4113 14.4738 14 14.1249 14 13.5887C14 13.3083 13.8335 13.0523 13.5694 12.9584C12.7388 12.6631 11.8277 12.5 10.8719 12.5C7.5296 12.5 4.73253 14.4941 4.02223 17.1655C3.90533 17.6052 4.26573 18 4.72066 18C5.10412 18 5.42179 17.7146 5.54282 17.3507C6.14855 15.5297 8.15618 14 10.8719 14C11.6043 14 12.2851 14.1112 12.9009 14.3094Z" fill="#0C142B"/>
<path d="M18.5 18C18.5 18.5523 18.0523 19 17.5 19C16.9477 19 16.5 18.5523 16.5 18C16.5 17.4477 16.9477 17 17.5 17C18.0523 17 18.5 17.4477 18.5 18Z" fill="#0C142B"/>
<path fill-rule="evenodd" clip-rule="evenodd" d="M15.25 12.5C15.25 11.2574 16.2574 10.25 17.5 10.25C18.7426 10.25 19.75 11.2574 19.75 12.5V14.25H20C20.9665 14.25 21.75 15.0335 21.75 16V20C21.75 20.9665 20.9665 21.75 20 21.75H15C14.0335 21.75 13.25 20.9665 13.25 20V16C13.25 15.0335 14.0335 14.25 15 14.25H15.25V12.5ZM18.25 12.5V14.25H16.75V12.5C16.75 12.0858 17.0858 11.75 17.5 11.75C17.9142 11.75 18.25 12.0858 18.25 12.5ZM15 15.75C14.8619 15.75 14.75 15.8619 14.75 16V20C14.75 20.1381 14.8619 20.25 15 20.25H20C20.1381 20.25 20.25 20.1381 20.25 20V16C20.25 15.8619 20.1381 15.75 20 15.75H15Z" fill="#0C142B"/>
</svg>
