<svg width="24" height="24" viewBox="0 0 24 24" fill="none" xmlns="http://www.w3.org/2000/svg">
<path d="M3.28033 12.7803C2.98744 13.0732 2.51256 13.0732 2.21967 12.7803C1.92678 12.4874 1.92678 12.0126 2.21967 11.7197L5.71967 8.21967C6.01256 7.92678 6.48744 7.92678 6.78033 8.21967L9.75 11.1893L12.7197 8.21967C13.0126 7.92678 13.4874 7.92678 13.7803 8.21967C14.0732 8.51256 14.0732 8.98744 13.7803 9.28033L10.2803 12.7803C10.024 13.0366 9.62844 13.0686 9.33732 12.8764C9.29574 12.849 9.25628 12.8169 9.21967 12.7803L6.25 9.81066L3.28033 12.7803Z" fill="black"/>
<path d="M6.7192 11.7104C6.71431 11.6949 6.70579 11.6807 6.69428 11.6692L6.32071 11.2956C6.28166 11.2565 6.21834 11.2565 6.17929 11.2956L5.3373 12.1376C5.31086 12.164 5.30135 12.2031 5.31303 12.2386C6.13703 14.7434 8.49527 16.5517 11.2759 16.5517C12.4809 16.5517 13.6067 16.2121 14.5626 15.6233L17.6076 18.6683C17.9005 18.9612 18.3754 18.9612 18.6683 18.6683C18.9612 18.3754 18.9612 17.9005 18.6683 17.6076L15.7438 14.6831C16.8617 13.5499 17.5517 11.9935 17.5517 10.2759C17.5517 6.8098 14.7419 4 11.2759 4C8.99562 4 6.99941 5.21608 5.90041 7.03508C6.42944 6.92774 6.99851 7.06673 7.42385 7.45204C8.29306 6.26835 9.69473 5.5 11.2759 5.5C13.9135 5.5 16.0517 7.63823 16.0517 10.2759C16.0517 12.9135 13.9135 15.0517 11.2759 15.0517C9.13805 15.0517 7.32831 13.6471 6.7192 11.7104Z" fill="black"/>
</svg>
