<svg width="16" height="16" viewBox="0 0 16 16" fill="none" xmlns="http://www.w3.org/2000/svg">
<path fill-rule="evenodd" clip-rule="evenodd" d="M3 1C1.89543 1 1 1.89543 1 3V13C1 14.1046 1.89543 15 3 15H13C14.1046 15 15 14.1046 15 13V3C15 1.89543 14.1046 1 13 1H3ZM9.01043 5.93805V5.95031C8.90863 5.6518 8.45894 4.39852 7.63074 3C7.63074 3 8.80691 3.78305 9.01043 5.93805ZM10.5691 4.29219C10.5691 4.29219 11.3485 4.12656 11.7697 3.22695C11.7697 3.22695 12.6427 4.45164 12.1054 6.06281C12.1054 6.06281 11.8389 6.78859 11.2853 7.11984C10.8682 7.3693 10.2353 7.44898 9.57199 6.7968C9.57199 6.7968 11.5743 5.69477 11.6496 4.76039C11.6496 4.76039 11.035 6.1507 9.35222 6.53508C9.35222 6.53508 8.73769 5.58031 9.51707 4.79312C9.51707 4.79312 9.78972 4.49055 10.5691 4.29219ZM6.75557 12.1236C9.33081 11.1257 9.02867 6.22583 9.01043 5.95031C9.02479 5.9883 9.03122 6.01187 9.03257 6.01683L9.03285 6.01781C10.5447 10.0722 7.24824 12.1617 7.24824 12.1617C7.22918 12.1626 7.21027 12.1632 7.19158 12.1635L7.22988 12.1637C7.70809 12.1637 8.14965 12.0472 8.55051 11.8141C8.9534 11.581 9.2709 11.2498 9.50691 10.8205C9.74293 10.3911 9.86098 9.92898 9.86098 9.43219C9.86098 9.02945 9.7898 8.65734 9.64324 8.31789C9.87934 8.2668 10.1642 8.1707 10.4654 7.98461C10.6444 8.42211 10.7339 8.89852 10.7339 9.41172C10.7339 10.3686 10.4084 11.2069 9.75316 11.9245C9.09996 12.6422 8.25746 13 7.22988 13C6.19824 13 5.35574 12.6422 4.70051 11.9245C4.0473 11.2089 3.71973 10.3706 3.71973 9.41172C3.71973 8.46305 4.03105 7.63703 4.64965 6.93984C5.33137 6.16906 6.19207 5.78469 7.23191 5.78469C7.66941 5.78469 8.07434 5.85219 8.44879 5.98914C8.32871 6.22836 8.21887 6.52078 8.18832 6.83562C7.89121 6.71289 7.57176 6.64953 7.22988 6.64953C6.50957 6.64953 5.89098 6.92148 5.3741 7.46328C4.85723 8.00711 4.59879 8.66344 4.59879 9.43219C4.59879 9.92906 4.71684 10.3911 4.95285 10.8205C5.18895 11.2498 5.5084 11.5811 5.90926 11.8141C6.17426 11.9682 6.45617 12.0714 6.75557 12.1236Z" fill="black"/>
</svg>
