<svg width="24" height="24" viewBox="0 0 24 24" fill="none" xmlns="http://www.w3.org/2000/svg">
<path fill-rule="evenodd" clip-rule="evenodd" d="M5.75 5.75V9.69444H9.69444V5.75H5.75ZM4.60635 4.60635C4.83452 4.37818 5.14399 4.25 5.46667 4.25H9.97778C10.3005 4.25 10.6099 4.37818 10.8381 4.60635C11.0663 4.83452 11.1944 5.14399 11.1944 5.46667V9.97778C11.1944 10.3005 11.0663 10.6099 10.8381 10.8381C10.6099 11.0663 10.3005 11.1944 9.97778 11.1944H5.46667C5.14399 11.1944 4.83452 11.0663 4.60635 10.8381C4.37818 10.6099 4.25 10.3005 4.25 9.97778V5.46667C4.25 5.14399 4.37818 4.83452 4.60635 4.60635ZM14.3056 5.75V9.69444H18.25V5.75H14.3056ZM13.1619 4.60635C13.3901 4.37818 13.6995 4.25 14.0222 4.25H18.5333C18.856 4.25 19.1655 4.37818 19.3936 4.60635C19.6218 4.83452 19.75 5.14399 19.75 5.46667V9.97778C19.75 10.3005 19.6218 10.6099 19.3936 10.8381C19.1655 11.0663 18.856 11.1944 18.5333 11.1944H14.0222C13.6995 11.1944 13.3901 11.0663 13.1619 10.8381C12.9337 10.6099 12.8056 10.3005 12.8056 9.97778V5.46667C12.8056 5.14399 12.9337 4.83452 13.1619 4.60635ZM5.75 14.3056V18.25H9.69444V14.3056H5.75ZM4.60635 13.1619C4.83452 12.9337 5.14399 12.8056 5.46667 12.8056H9.97778C10.3005 12.8056 10.6099 12.9337 10.8381 13.1619C11.0663 13.3901 11.1944 13.6995 11.1944 14.0222V18.5333C11.1944 18.856 11.0663 19.1655 10.8381 19.3936C10.6099 19.6218 10.3005 19.75 9.97778 19.75H5.46667C5.14399 19.75 4.83452 19.6218 4.60635 19.3936C4.37818 19.1655 4.25 18.856 4.25 18.5333V14.0222C4.25 13.6995 4.37818 13.3901 4.60635 13.1619ZM14.3056 14.3056V18.25H18.25V14.3056H14.3056ZM13.1619 13.1619C13.3901 12.9337 13.6995 12.8056 14.0222 12.8056H18.5333C18.856 12.8056 19.1655 12.9337 19.3936 13.1619C19.6218 13.3901 19.75 13.6995 19.75 14.0222V18.5333C19.75 18.856 19.6218 19.1655 19.3936 19.3936C19.1655 19.6218 18.856 19.75 18.5333 19.75H14.0222C13.6995 19.75 13.3901 19.6218 13.1619 19.3936C12.9337 19.1655 12.8056 18.856 12.8056 18.5333V14.0222C12.8056 13.6995 12.9337 13.3901 13.1619 13.1619Z" fill="black"/>
</svg>
