<svg width="24" height="24" viewBox="0 0 24 24" fill="none" xmlns="http://www.w3.org/2000/svg">
<path fill-rule="evenodd" clip-rule="evenodd" d="M3.25 19C3.25 18.5858 3.58579 18.25 4 18.25H20C20.4142 18.25 20.75 18.5858 20.75 19C20.75 19.4142 20.4142 19.75 20 19.75H4C3.58579 19.75 3.25 19.4142 3.25 19Z" fill="black"/>
<path fill-rule="evenodd" clip-rule="evenodd" d="M6 6.75C5.9337 6.75 5.87011 6.77634 5.82322 6.82322C5.77634 6.87011 5.75 6.9337 5.75 7V15C5.75 15.0663 5.77634 15.1299 5.82322 15.1768C5.87011 15.2237 5.9337 15.25 6 15.25H18C18.0663 15.25 18.1299 15.2237 18.1768 15.1768C18.2237 15.1299 18.25 15.0663 18.25 15V7C18.25 6.93369 18.2237 6.87011 18.1768 6.82322C18.1299 6.77634 18.0663 6.75 18 6.75H6ZM4.76256 5.76256C5.09075 5.43438 5.53587 5.25 6 5.25H18C18.4641 5.25 18.9092 5.43437 19.2374 5.76256C19.5656 6.09075 19.75 6.53587 19.75 7V15C19.75 15.4641 19.5656 15.9092 19.2374 16.2374C18.9092 16.5656 18.4641 16.75 18 16.75H6C5.53587 16.75 5.09075 16.5656 4.76256 16.2374C4.43438 15.9092 4.25 15.4641 4.25 15V7C4.25 6.53587 4.43438 6.09075 4.76256 5.76256Z" fill="black"/>
<path fill-rule="evenodd" clip-rule="evenodd" d="M13 11L11.5 10.134V11.866L13 11ZM14.5 11.866C15.1667 11.4811 15.1667 10.5189 14.5 10.134L11.5 8.40192C10.8333 8.01702 10 8.49815 10 9.26795V12.7321C10 13.5019 10.8333 13.983 11.5 13.5981L14.5 11.866Z" fill="black"/>
</svg>
