<svg width="24" height="24" viewBox="0 0 24 24" fill="none" xmlns="http://www.w3.org/2000/svg">
<path d="M12 15.45C13.9882 15.45 15.6 13.8382 15.6 11.85C15.6 9.86178 13.9882 8.25 12 8.25C10.0118 8.25 8.4 9.86178 8.4 11.85C8.4 13.8382 10.0118 15.45 12 15.45Z" fill="black"/>
<path fill-rule="evenodd" clip-rule="evenodd" d="M12.0161 6C7.0525 6 3.99038 10.0995 3.12453 11.4349C2.95849 11.691 2.95849 12.009 3.12453 12.2651C3.99038 13.6005 7.0525 17.7 12.0161 17.7C16.5776 17.7 19.8613 13.6795 20.8509 12.3046C21.0497 12.0284 21.0497 11.6716 20.8509 11.3954C19.8613 10.0205 16.5776 6 12.0161 6ZM6.89743 14.4346C5.76096 13.5281 4.94796 12.5051 4.49058 11.85C4.94796 11.1949 5.76096 10.1719 6.89743 9.26545C8.22888 8.20347 9.93982 7.35 12.0161 7.35C13.8773 7.35 15.5456 8.17152 16.9229 9.24167C18.0882 10.1471 18.9712 11.1742 19.4893 11.85C18.9712 12.5258 18.0882 13.5529 16.9229 14.4583C15.5456 15.5285 13.8773 16.35 12.0161 16.35C9.93982 16.35 8.22888 15.4965 6.89743 14.4346Z" fill="black"/>
</svg>
