<svg width="24" height="24" viewBox="0 0 24 24" fill="none" xmlns="http://www.w3.org/2000/svg">
<path fill-rule="evenodd" clip-rule="evenodd" d="M10.8558 4.788C11.1914 4.59919 11.5699 4.5 11.955 4.5C12.3401 4.5 12.7187 4.59919 13.0542 4.788C13.3898 4.97682 13.6711 5.2489 13.871 5.57801L13.8734 5.58191L20.1969 16.1374C20.3925 16.4764 20.4959 16.8606 20.497 17.2519C20.498 17.6432 20.3966 18.028 20.2029 18.3679C20.0091 18.7079 19.7298 18.9912 19.3926 19.1897C19.0554 19.3883 18.6721 19.4951 18.2808 19.4996L18.2723 19.4997L5.62994 19.4996C5.23867 19.4951 4.85539 19.3883 4.51819 19.1897C4.181 18.9912 3.90164 18.7079 3.7079 18.3679C3.51416 18.028 3.41277 17.6432 3.41383 17.2519C3.41488 16.8606 3.51834 16.4764 3.71392 16.1375L3.72003 16.1269L10.039 5.578C10.2389 5.24889 10.5202 4.97682 10.8558 4.788ZM11.955 6C11.8276 6 11.7023 6.03282 11.5913 6.09529C11.4808 6.15746 11.3881 6.2469 11.322 6.35506L11.321 6.35669L5.01059 16.8916C4.94751 17.0027 4.91417 17.1282 4.91382 17.2559C4.91347 17.3854 4.94702 17.5127 5.01112 17.6252C5.07523 17.7377 5.16766 17.8315 5.27923 17.8971C5.38979 17.9622 5.51533 17.9975 5.64357 17.9996H18.2672C18.3955 17.9975 18.521 17.9622 18.6315 17.8971C18.7431 17.8315 18.8355 17.7377 18.8997 17.6252C18.9638 17.5127 18.9973 17.3854 18.997 17.2559C18.9966 17.1282 18.9633 17.0027 18.9002 16.8916L12.589 6.35669L12.588 6.35507C12.5219 6.2469 12.4292 6.15746 12.3187 6.09529C12.2077 6.03282 12.0824 6 11.955 6ZM12 9C12.4142 9 12.75 9.33579 12.75 9.75V12.75C12.75 13.1642 12.4142 13.5 12 13.5C11.5858 13.5 11.25 13.1642 11.25 12.75V9.75C11.25 9.33579 11.5858 9 12 9ZM12 15C11.5858 15 11.25 15.3358 11.25 15.75C11.25 16.1642 11.5858 16.5 12 16.5H12.0083C12.4225 16.5 12.7583 16.1642 12.7583 15.75C12.7583 15.3358 12.4225 15 12.0083 15H12Z" fill="black"/>
</svg>
