<svg width="24" height="24" viewBox="0 0 24 24" fill="none" xmlns="http://www.w3.org/2000/svg">
<path d="M9.59743 11.7437C9.45602 11.4138 9.0739 11.2609 8.74394 11.4023C8.41398 11.5437 8.26113 11.9259 8.40255 12.2558L10.1168 16.2558C10.2236 16.505 10.4739 16.6618 10.7448 16.6491C11.0156 16.6363 11.2501 16.4568 11.3331 16.1987L12 14.1239L12.6669 16.1987C12.7499 16.4568 12.9844 16.6363 13.2552 16.6491C13.526 16.6618 13.7763 16.505 13.8831 16.2558L15.5974 12.2558C15.7388 11.9259 15.586 11.5437 15.256 11.4023C14.9261 11.2609 14.544 11.4138 14.4025 11.7437L13.3728 14.1465L12.6188 11.8009C12.5324 11.5321 12.2823 11.3498 12 11.3498C11.7176 11.3498 11.4676 11.5321 11.3812 11.8009L10.6272 14.1465L9.59743 11.7437Z" fill="#0C142B"/>
<path fill-rule="evenodd" clip-rule="evenodd" d="M6 5.6C6 4.72459 6.67931 4 7.5 4H13.5L18 8.8V18.4C18 19.2754 17.3207 20 16.5 20H7.5C6.67931 20 6 19.2754 6 18.4V5.6ZM12.75 5.49153H7.5V18.5085H16.5V9.22035H12.75V5.49153Z" fill="#0C142B"/>
</svg>
