<svg width="16" height="16" viewBox="0 0 16 16" fill="none" xmlns="http://www.w3.org/2000/svg">
<path d="M8 4H14C14.5523 4 15 4.44772 15 5V12C15 12.5523 14.5523 13 14 13H8V4Z" fill="#E5E6EA"/>
<path d="M11 6.5C11 6.22386 11.2239 6 11.5 6H12.5C12.7761 6 13 6.22386 13 6.5C13 6.77614 12.7761 7 12.5 7H11.5C11.2239 7 11 6.77614 11 6.5Z" fill="#457A3B"/>
<path d="M11 8.5C11 8.22386 11.2239 8 11.5 8H12.5C12.7761 8 13 8.22386 13 8.5C13 8.77614 12.7761 9 12.5 9H11.5C11.2239 9 11 8.77614 11 8.5Z" fill="#457A3B"/>
<path d="M8 6.5C8 6.22386 8.22386 6 8.5 6H9.5C9.77614 6 10 6.22386 10 6.5C10 6.77614 9.77614 7 9.5 7H8.5C8.22386 7 8 6.77614 8 6.5Z" fill="#457A3B"/>
<path d="M8 8.5C8 8.22386 8.22386 8 8.5 8H9.5C9.77614 8 10 8.22386 10 8.5C10 8.77614 9.77614 9 9.5 9H8.5C8.22386 9 8 8.77614 8 8.5Z" fill="#457A3B"/>
<path d="M8 10.5C8 10.2239 8.22386 10 8.5 10H9.5C9.77614 10 10 10.2239 10 10.5C10 10.7761 9.77614 11 9.5 11H8.5C8.22386 11 8 10.7761 8 10.5Z" fill="#457A3B"/>
<path d="M1 4.5227C1 4.05116 1.3294 3.6437 1.79047 3.5449L7.79047 2.25918C8.41298 2.12579 9 2.60034 9 3.23699V12.763C9 13.3997 8.41298 13.8742 7.79047 13.7408L1.79047 12.4551C1.3294 12.3563 1 11.9488 1 11.4773V4.5227Z" fill="#457A3B"/>
<path fill-rule="evenodd" clip-rule="evenodd" d="M3.76126 6.16238C3.97136 5.98317 4.28695 6.00822 4.46615 6.21832L6.95187 9.13261C7.13107 9.3427 7.10602 9.65829 6.89592 9.8375C6.68583 10.0167 6.37023 9.99165 6.19103 9.78155L3.70532 6.86727C3.52612 6.65717 3.55116 6.34158 3.76126 6.16238Z" fill="white"/>
<path fill-rule="evenodd" clip-rule="evenodd" d="M6.88635 5.89728C7.10084 6.0712 7.13374 6.38607 6.95983 6.60056L4.38839 9.77199C4.21448 9.98649 3.89961 10.0194 3.68512 9.84547C3.47062 9.67155 3.43772 9.35668 3.61164 9.14219L6.18307 5.97076C6.35698 5.75626 6.67185 5.72337 6.88635 5.89728Z" fill="white"/>
</svg>
