<svg width="16" height="16" viewBox="0 0 16 16" fill="none" xmlns="http://www.w3.org/2000/svg">
<path d="M14.3654 5.22755C14.39 4.68695 14.1992 4.15867 13.8347 3.75864C13.4703 3.35861 12.962 3.11951 12.4215 3.09382C10.9656 3.02635 9.4802 3 7.96424 3H7.4909C5.97705 3 4.49061 3.02635 3.03474 3.09488C2.49382 3.12191 1.98565 3.36219 1.6215 3.76309C1.25734 4.16399 1.06689 4.69286 1.09183 5.23388C1.02646 6.16897 0.998 7.10405 1.00011 8.04019C1.00222 8.97633 1.02752 9.91142 1.08972 10.8486C1.06476 11.3897 1.25501 11.9186 1.61888 12.3198C1.98275 12.721 2.49066 12.9619 3.03158 12.9897C4.56124 13.0604 6.12991 13.0951 7.72494 13.0899C9.31996 13.0846 10.8876 13.0614 12.4183 12.9897C12.9596 12.9624 13.468 12.7218 13.8323 12.3205C14.1967 11.9193 14.3872 11.39 14.3623 10.8486C14.4255 9.91037 14.454 8.97528 14.4519 8.03703C14.4498 7.09878 14.4287 6.16264 14.3654 5.22755ZM6.43985 10.6177V5.4521L10.2498 8.03282L6.43985 10.6177Z" fill="black"/>
</svg>
