<svg width="16" height="16" viewBox="0 0 16 16" fill="none" xmlns="http://www.w3.org/2000/svg">
<path d="M2.00685 5.73197L11.7641 4.75627L12.9245 1L2.97129 1.72525L2 5.6519L2.00685 5.73197Z" fill="black"/>
<path fill-rule="evenodd" clip-rule="evenodd" d="M2.04947 6.2302L2.85495 15.6453L12.7454 14.9256L11.7762 5.25756L2.04947 6.2302ZM9.85327 14.1726C9.68199 14.2282 9.50448 14.2625 9.32479 14.2745C8.38456 14.3206 7.44433 14.3605 6.50411 14.4004L5.73453 14.4332C5.62949 14.4373 5.52429 14.4337 5.41978 14.4224C4.96886 14.3683 4.78849 14.2069 4.6983 13.7568C4.60812 13.2744 4.69199 12.8063 4.85252 12.3491C5.0681 11.7574 5.39954 11.2148 5.82742 10.7528C6.14298 10.4023 6.4736 10.0656 6.80438 9.72867C7.0285 9.5004 7.25275 9.27202 7.47239 9.03927C7.69039 8.81489 7.89032 8.57365 8.07032 8.31779C8.14087 8.215 8.17984 8.09089 8.22872 7.93521C8.25231 7.86005 8.27823 7.77752 8.31111 7.68649L7.84161 7.70848C7.18026 7.73952 6.57674 7.76784 5.97262 7.79201C5.77946 7.80491 5.58561 7.8031 5.39273 7.7866C4.90032 7.73158 4.64239 7.47816 4.63156 7.06512C4.62074 6.68634 4.86063 6.41849 5.3314 6.3247C5.58208 6.28131 5.83555 6.25599 6.08986 6.24894C6.95743 6.20265 7.82531 6.16176 8.6935 6.12629C8.85833 6.11968 9.02342 6.1239 9.18771 6.13892C9.68914 6.18762 9.87853 6.35626 9.93173 6.86491C10.0156 7.67657 9.85869 8.45397 9.38341 9.11953C9.10522 9.51156 8.78381 9.87328 8.46257 10.2348C8.37662 10.3315 8.29069 10.4282 8.20559 10.5255C8.02178 10.736 7.83406 10.943 7.64633 11.15C7.38277 11.4407 7.11916 11.7314 6.86635 12.0316C6.74669 12.1716 6.65363 12.333 6.55003 12.5127C6.49746 12.6039 6.44218 12.6998 6.37935 12.8C6.44329 12.8036 6.49825 12.8076 6.54721 12.8112C6.64463 12.8183 6.71826 12.8237 6.79149 12.8207C7.08195 12.8088 7.37136 12.7955 7.66035 12.7821C8.17894 12.7583 8.69619 12.7344 9.21567 12.7188C9.42489 12.7113 9.63406 12.7353 9.83614 12.7901C10.2131 12.8929 10.3899 13.1201 10.398 13.4511C10.407 13.829 10.2429 14.0517 9.85327 14.1726Z" fill="black"/>
<path d="M13.1834 14.2824L14 10.9773L13.2118 1.76398L12.2429 4.90046L13.1834 14.2824Z" fill="black"/>
</svg>
