<svg width="16" height="16" viewBox="0 0 16 16" fill="none" xmlns="http://www.w3.org/2000/svg">
<path d="M12.1738 4.92773L13.0296 14.9211L2.85495 15.6615L2 5.66815L12.1738 4.92773Z" fill="#CD2335"/>
<path d="M12.1738 4.92756L13.1451 1L14.0001 10.9934L13.0297 14.9209L12.1738 4.92756Z" fill="#761217"/>
<path d="M2 5.66797L2.97129 1.74132L13.1451 1L12.1738 4.92755L2 5.66797Z" fill="#EC473F"/>
<path d="M9.85316 14.1885C9.68188 14.2441 9.50437 14.2784 9.32468 14.2904C8.12793 14.349 6.93117 14.3977 5.73442 14.4491C5.62938 14.4532 5.52418 14.4496 5.41967 14.4383C4.96875 14.3842 4.78838 14.2228 4.69819 13.7727C4.60801 13.2902 4.69188 12.8222 4.85241 12.365C5.06799 11.7733 5.39943 11.2306 5.82731 10.7687C6.35669 10.1807 6.92847 9.63145 7.47228 9.05516C7.69028 8.83079 7.89021 8.58955 8.07021 8.33368C8.17482 8.18127 8.20999 7.98196 8.311 7.70239C7.45965 7.74207 6.71653 7.77814 5.9725 7.80791C5.77935 7.82081 5.58549 7.819 5.39262 7.80249C4.90021 7.74748 4.64228 7.49406 4.63145 7.08101C4.62063 6.70224 4.86052 6.43439 5.33129 6.3406C5.58197 6.29721 5.83544 6.27189 6.08974 6.26484C6.95732 6.21855 7.8252 6.17766 8.69339 6.14219C8.85822 6.13558 9.02331 6.13979 9.1876 6.15482C9.68903 6.20352 9.87842 6.37216 9.93162 6.8808C10.0155 7.69247 9.85857 8.46986 9.3833 9.13543C9.03068 9.63235 8.60861 10.0806 8.20548 10.5414C7.76358 11.0473 7.29913 11.5334 6.86624 12.0475C6.68587 12.2585 6.56592 12.5183 6.37924 12.8159C6.57043 12.8267 6.68136 12.8411 6.79138 12.8366C7.60305 12.8033 8.4066 12.7591 9.21556 12.7347C9.42478 12.7272 9.63395 12.7512 9.83603 12.806C10.213 12.9088 10.3898 13.136 10.3979 13.467C10.4069 13.8449 10.2428 14.0676 9.85316 14.1885Z" fill="#FDFCFC"/>
</svg>
