<svg width="24" height="24" viewBox="0 0 24 24" fill="none" xmlns="http://www.w3.org/2000/svg">
<path d="M16.6266 15.5128L20 18.8855L18.8855 20L15.5129 16.6266C14.2579 17.6325 12.6971 18.1797 11.0887 18.1774C7.17575 18.1774 4.00001 15.0017 4.00001 11.0887C4.00001 7.17574 7.17575 4 11.0887 4C15.0017 4 18.1774 7.17574 18.1774 11.0887C18.1797 12.6971 17.6326 14.2579 16.6266 15.5128ZM15.0466 14.9284C16.0462 13.9005 16.6044 12.5225 16.6022 11.0887C16.6022 8.04214 14.1345 5.57527 11.0887 5.57527C8.04215 5.57527 5.57528 8.04214 5.57528 11.0887C5.57528 14.1345 8.04215 16.6021 11.0887 16.6021C12.5225 16.6044 13.9005 16.0462 14.9284 15.0466L15.0466 14.9284ZM7.93818 10.3011H14.2393V11.8763H7.93818V10.3011Z" fill="black"/>
</svg>
