<svg width="16" height="16" viewBox="0 0 16 16" fill="none" xmlns="http://www.w3.org/2000/svg">
<path fill-rule="evenodd" clip-rule="evenodd" d="M12.5157 12.4475H7.75214C7.64284 12.4475 7.55423 12.5364 7.55423 12.646V13.4319C7.5527 13.5415 7.64003 13.6317 7.74933 13.6332H13.4988C13.6077 13.6332 13.696 13.5447 13.696 13.4355V10.655C13.6964 10.5459 13.6084 10.457 13.4995 10.4567H12.7135C12.6042 10.4567 12.5157 10.5454 12.5157 10.655V12.4475Z" fill="black"/>
<path fill-rule="evenodd" clip-rule="evenodd" d="M3.57951 3.54894H8.84655C8.95543 3.54936 9.04402 3.46115 9.04445 3.3519V2.59553C9.04325 2.48691 8.95487 2.39955 8.84655 2.3999H2.59779C2.48941 2.39955 2.40103 2.48691 2.3999 2.59553V5.29544C2.3999 5.40504 2.4885 5.49396 2.59779 5.49396H3.38162C3.49092 5.49396 3.57951 5.40504 3.57951 5.29544V3.54894Z" fill="black"/>
<path fill-rule="evenodd" clip-rule="evenodd" d="M10.7255 2.3999H13.4981C13.607 2.3999 13.6953 2.48847 13.6953 2.59765V5.26013C13.6953 5.36938 13.607 5.45787 13.4981 5.45787H12.7136C12.6047 5.45829 12.516 5.37009 12.5157 5.2609V4.44027L4.15629 12.4502H5.87605C5.98535 12.4502 6.07394 12.5391 6.07394 12.6488V13.4347C6.07394 13.5443 5.98535 13.6332 5.87605 13.6332H2.59779C2.4885 13.6332 2.3999 13.5443 2.3999 13.4347V12.4538L11.6649 3.58079H10.7255C10.6162 3.58079 10.5276 3.49187 10.5276 3.38234V2.59553C10.5287 2.48691 10.6171 2.39955 10.7255 2.3999Z" fill="black"/>
</svg>
